%FSLAX46Y46*%
G04 Gerber Fmt 4.6, Leading zero omitted, Abs format (unit mm)*
G04 Created by KiCad (PCBNEW (2014-jul-16 BZR unknown)-product) date Mon 06 Oct 2014 10:40:32 AM CEST*
%MOMM*%
G01*
G04 APERTURE LIST*
%ADD10C,0.100000*%
%ADD11R,1.998980X1.998980*%
%ADD12C,1.998980*%
%ADD13R,1.600200X1.803400*%
%ADD14R,1.803400X1.600200*%
%ADD15C,1.676400*%
%ADD16R,1.397000X1.397000*%
%ADD17C,1.397000*%
%ADD18C,2.159000*%
%ADD19R,2.159000X2.159000*%
%ADD20R,1.574800X2.286000*%
%ADD21O,1.574800X2.286000*%
%ADD22R,2.286000X1.574800*%
%ADD23O,2.286000X1.574800*%
%ADD24R,1.524000X1.524000*%
%ADD25C,1.524000*%
%ADD26C,2.000000*%
%ADD27C,2.200000*%
%ADD28C,5.461000*%
%ADD29C,1.400000*%
%ADD30C,5.000000*%
%ADD31C,1.200000*%
%ADD32C,1.000000*%
%ADD33C,1.500000*%
%ADD34C,0.254000*%
%ADD35C,2.000000*%
%ADD36C,0.500000*%
%ADD37C,0.200000*%
%ADD38C,0.300000*%
%ADD39C,1.200000*%
G04 APERTURE END LIST*
D10*
X0Y65000000D02*
X30000000Y65000000D01*
X0Y0D02*
X0Y65000000D01*
X30000000Y0D02*
X0Y0D01*
X132500000Y65000000D02*
X30000000Y65000000D01*
X132500000Y0D02*
X30000000Y0D01*
X132500000Y0D02*
X132500000Y65000000D01*
D11*
X102250000Y43460000D03*
D12*
X102250000Y48540000D03*
D13*
X117553000Y25750000D03*
X120347000Y25750000D03*
X117553000Y31050000D03*
X120347000Y31050000D03*
X118103000Y40500000D03*
X120897000Y40500000D03*
D14*
X63450000Y36347000D03*
X63450000Y33553000D03*
X63550000Y25247000D03*
X63550000Y22453000D03*
X63550000Y14347000D03*
X63550000Y11553000D03*
X76350000Y33847000D03*
X76350000Y31053000D03*
X76250000Y22747000D03*
X76250000Y19953000D03*
X76350000Y11847000D03*
X76350000Y9053000D03*
D13*
X53453000Y52150000D03*
X56247000Y52150000D03*
X53553000Y34250000D03*
X56347000Y34250000D03*
X53553000Y16250000D03*
X56347000Y16250000D03*
D15*
X66330000Y55750000D03*
X68870000Y55750000D03*
X73480000Y55750000D03*
X76020000Y55750000D03*
X80480000Y55750000D03*
X83020000Y55750000D03*
X101480000Y55750000D03*
X104020000Y55750000D03*
X94480000Y55750000D03*
X97020000Y55750000D03*
X87480000Y55750000D03*
X90020000Y55750000D03*
D16*
X83000000Y37310000D03*
D17*
X83000000Y29690000D03*
D16*
X83000000Y26310000D03*
D17*
X83000000Y18690000D03*
D16*
X83000000Y15310000D03*
D17*
X83000000Y7690000D03*
D18*
X111000000Y10610000D03*
D19*
X111000000Y28390000D03*
D18*
X117500000Y10610000D03*
D19*
X117500000Y28390000D03*
D20*
X50960000Y47190000D03*
D21*
X53500000Y47190000D03*
X56040000Y47190000D03*
X56040000Y54810000D03*
X53500000Y54810000D03*
X50960000Y54810000D03*
D20*
X50960000Y29190000D03*
D21*
X53500000Y29190000D03*
X56040000Y29190000D03*
X56040000Y36810000D03*
X53500000Y36810000D03*
X50960000Y36810000D03*
D20*
X50960000Y11190000D03*
D21*
X53500000Y11190000D03*
X56040000Y11190000D03*
X56040000Y18810000D03*
X53500000Y18810000D03*
X50960000Y18810000D03*
D22*
X66140000Y36390000D03*
D23*
X66140000Y33850000D03*
X66140000Y31310000D03*
X73760000Y31310000D03*
X73760000Y33850000D03*
X73760000Y36390000D03*
D22*
X66140000Y25290000D03*
D23*
X66140000Y22750000D03*
X66140000Y20210000D03*
X73760000Y20210000D03*
X73760000Y22750000D03*
X73760000Y25290000D03*
D22*
X66140000Y14390000D03*
D23*
X66140000Y11850000D03*
X66140000Y9310000D03*
X73760000Y9310000D03*
X73760000Y11850000D03*
X73760000Y14390000D03*
D24*
X65790000Y47410000D03*
D25*
X68330000Y47410000D03*
X70870000Y47410000D03*
D24*
X73410000Y47410000D03*
D25*
X75950000Y47410000D03*
X78490000Y47410000D03*
D24*
X81030000Y47410000D03*
D25*
X83570000Y47410000D03*
X86110000Y47410000D03*
D26*
X123500000Y43500000D03*
X123500000Y48500000D03*
D27*
X123500000Y13500000D03*
X123500000Y18500000D03*
X123500000Y23500000D03*
X123500000Y28500000D03*
X123500000Y33500000D03*
X123500000Y38500000D03*
D24*
X33730000Y47740000D03*
D25*
X36270000Y47740000D03*
X33730000Y45200000D03*
X36270000Y45200000D03*
X33730000Y42660000D03*
X36270000Y42660000D03*
X33730000Y40120000D03*
X36270000Y40120000D03*
X33730000Y37580000D03*
X36270000Y37580000D03*
X33730000Y35040000D03*
X36270000Y35040000D03*
X33730000Y32500000D03*
X36270000Y32500000D03*
X33730000Y29960000D03*
X36270000Y29960000D03*
X33730000Y27420000D03*
X36270000Y27420000D03*
X33730000Y24880000D03*
X36270000Y24880000D03*
D28*
X34746000Y56630000D03*
D25*
X33730000Y22340000D03*
X36270000Y22340000D03*
X33730000Y19800000D03*
X36270000Y19800000D03*
X33730000Y17260000D03*
X36270000Y17260000D03*
D28*
X34746000Y8370000D03*
D16*
X32710000Y62750000D03*
D17*
X35250000Y62750000D03*
X37790000Y62750000D03*
D13*
X66147000Y38750000D03*
X63353000Y38750000D03*
X66147000Y27650000D03*
X63353000Y27650000D03*
X66397000Y16500000D03*
X63603000Y16500000D03*
D29*
X46000000Y49000000D03*
X46000000Y46500000D03*
X46000000Y44000000D03*
X46000000Y31000000D03*
X46000000Y28500000D03*
X46000000Y26000000D03*
X46000000Y13000000D03*
X46000000Y10500000D03*
X46000000Y8000000D03*
X46000000Y58000000D03*
X46000000Y55500000D03*
X46000000Y53000000D03*
X46000000Y40000000D03*
X46000000Y37500000D03*
X46000000Y35000000D03*
X78650000Y36250000D03*
X78650000Y33750000D03*
X78650000Y31250000D03*
X78550000Y25150000D03*
X78550000Y22650000D03*
X78550000Y20150000D03*
X78550000Y14350000D03*
X78550000Y11850000D03*
X78550000Y9350000D03*
X46000000Y22000000D03*
X46000000Y19500000D03*
X46000000Y17000000D03*
D27*
X96500000Y37310000D03*
X104120000Y29690000D03*
X104120000Y37310000D03*
D26*
X86340000Y37310000D03*
X86340000Y29690000D03*
D27*
X96500000Y26310000D03*
X104120000Y18690000D03*
X104120000Y26310000D03*
D26*
X86340000Y26310000D03*
X86340000Y18690000D03*
D27*
X96500000Y15310000D03*
X104120000Y7690000D03*
X104120000Y15310000D03*
D26*
X86340000Y15310000D03*
X86340000Y7690000D03*
D30*
X128250000Y4250000D03*
X128250000Y60750000D03*
D26*
X13900000Y21100000D03*
X8820000Y21100000D03*
X8820000Y23640000D03*
X11360000Y21100000D03*
X11360000Y23640000D03*
X8820000Y26180000D03*
X11360000Y26180000D03*
X13900000Y26180000D03*
X13900000Y23640000D03*
X16440000Y21100000D03*
X16440000Y23640000D03*
X16440000Y26180000D03*
X24060000Y23640000D03*
X24060000Y26180000D03*
X21520000Y26180000D03*
X18980000Y26180000D03*
X21520000Y23640000D03*
X21520000Y21100000D03*
X18980000Y23640000D03*
X18980000Y21100000D03*
X24060000Y21100000D03*
X26600000Y21100000D03*
X26600000Y23640000D03*
X26600000Y26180000D03*
X26600000Y18560000D03*
X26600000Y16020000D03*
X26600000Y13480000D03*
X26600000Y10940000D03*
X24060000Y10940000D03*
X18980000Y10940000D03*
X18980000Y13480000D03*
X21520000Y10940000D03*
X21520000Y13480000D03*
X18980000Y16020000D03*
X21520000Y16020000D03*
X18980000Y18560000D03*
X21520000Y18560000D03*
X24060000Y18560000D03*
X24060000Y16020000D03*
X24060000Y13480000D03*
X16440000Y18560000D03*
X16440000Y16020000D03*
X16440000Y13480000D03*
X16440000Y10940000D03*
X13900000Y13480000D03*
X13900000Y16020000D03*
X13900000Y18560000D03*
X11360000Y18560000D03*
X8820000Y18560000D03*
X11360000Y16020000D03*
X8820000Y16020000D03*
X11360000Y13480000D03*
X11360000Y10940000D03*
X8820000Y13480000D03*
X8820000Y10940000D03*
X13900000Y10940000D03*
X13900000Y3320000D03*
X8820000Y3320000D03*
X8820000Y5860000D03*
X11360000Y3320000D03*
X11360000Y5860000D03*
X8820000Y8400000D03*
X11360000Y8400000D03*
X13900000Y8400000D03*
X13900000Y5860000D03*
X16440000Y3320000D03*
X16440000Y5860000D03*
X16440000Y8400000D03*
X24060000Y5860000D03*
X24060000Y8400000D03*
X21520000Y8400000D03*
X18980000Y8400000D03*
X21520000Y5860000D03*
X21520000Y3320000D03*
X18980000Y5860000D03*
X18980000Y3320000D03*
X24060000Y3320000D03*
X26600000Y3320000D03*
X26600000Y5860000D03*
X26600000Y8400000D03*
X6280000Y8400000D03*
X3740000Y8400000D03*
X6280000Y5860000D03*
X6280000Y3320000D03*
X3740000Y5860000D03*
X3740000Y3320000D03*
X3740000Y10940000D03*
X3740000Y13480000D03*
X6280000Y10940000D03*
X6280000Y13480000D03*
X3740000Y16020000D03*
X6280000Y16020000D03*
X3740000Y18560000D03*
X6280000Y18560000D03*
X6280000Y26180000D03*
X3740000Y26180000D03*
X6280000Y23640000D03*
X6280000Y21100000D03*
X3740000Y23640000D03*
X3740000Y21100000D03*
X3740000Y46500000D03*
X3740000Y49040000D03*
X6280000Y46500000D03*
X6280000Y49040000D03*
X3740000Y51580000D03*
X6280000Y51580000D03*
X6280000Y43960000D03*
X3740000Y43960000D03*
X6280000Y41420000D03*
X3740000Y41420000D03*
X6280000Y38880000D03*
X6280000Y36340000D03*
X3740000Y38880000D03*
X3740000Y36340000D03*
X3740000Y28720000D03*
X3740000Y31260000D03*
X6280000Y28720000D03*
X6280000Y31260000D03*
X3740000Y33800000D03*
X6280000Y33800000D03*
X26600000Y33800000D03*
X26600000Y31260000D03*
X26600000Y28720000D03*
X24060000Y28720000D03*
X18980000Y28720000D03*
X18980000Y31260000D03*
X21520000Y28720000D03*
X21520000Y31260000D03*
X18980000Y33800000D03*
X21520000Y33800000D03*
X24060000Y33800000D03*
X24060000Y31260000D03*
X16440000Y33800000D03*
X16440000Y31260000D03*
X16440000Y28720000D03*
X13900000Y31260000D03*
X13900000Y33800000D03*
X11360000Y33800000D03*
X8820000Y33800000D03*
X11360000Y31260000D03*
X11360000Y28720000D03*
X8820000Y31260000D03*
X8820000Y28720000D03*
X13900000Y28720000D03*
X13900000Y36340000D03*
X8820000Y36340000D03*
X8820000Y38880000D03*
X11360000Y36340000D03*
X11360000Y38880000D03*
X8820000Y41420000D03*
X11360000Y41420000D03*
X8820000Y43960000D03*
X11360000Y43960000D03*
X13900000Y43960000D03*
X13900000Y41420000D03*
X13900000Y38880000D03*
X16440000Y36340000D03*
X16440000Y38880000D03*
X16440000Y41420000D03*
X16440000Y43960000D03*
X24060000Y38880000D03*
X24060000Y41420000D03*
X24060000Y43960000D03*
X21520000Y43960000D03*
X18980000Y43960000D03*
X21520000Y41420000D03*
X18980000Y41420000D03*
X21520000Y38880000D03*
X21520000Y36340000D03*
X18980000Y38880000D03*
X18980000Y36340000D03*
X24060000Y36340000D03*
X26600000Y36340000D03*
X26600000Y38880000D03*
X26600000Y41420000D03*
X26600000Y43960000D03*
X26600000Y51580000D03*
X26600000Y49040000D03*
X26600000Y46500000D03*
X24060000Y46500000D03*
X18980000Y46500000D03*
X18980000Y49040000D03*
X21520000Y46500000D03*
X21520000Y49040000D03*
X18980000Y51580000D03*
X21520000Y51580000D03*
X24060000Y51580000D03*
X24060000Y49040000D03*
X16440000Y51580000D03*
X16440000Y49040000D03*
X16440000Y46500000D03*
X13900000Y49040000D03*
X13900000Y51580000D03*
X11360000Y51580000D03*
X8820000Y51580000D03*
X11360000Y49040000D03*
X11360000Y46500000D03*
X8820000Y49040000D03*
X8820000Y46500000D03*
X13900000Y46500000D03*
X13900000Y56660000D03*
X8820000Y56660000D03*
X8820000Y59200000D03*
X11360000Y56660000D03*
X11360000Y59200000D03*
X8820000Y61740000D03*
X11360000Y61740000D03*
X13900000Y61740000D03*
X13900000Y59200000D03*
X16440000Y56660000D03*
X16440000Y59200000D03*
X16440000Y61740000D03*
X24060000Y59200000D03*
X24060000Y61740000D03*
X21520000Y61740000D03*
X18980000Y61740000D03*
X21520000Y59200000D03*
X21520000Y56660000D03*
X18980000Y59200000D03*
X18980000Y56660000D03*
X24060000Y56660000D03*
X26600000Y56660000D03*
X26600000Y59200000D03*
X26600000Y61740000D03*
X26600000Y54120000D03*
X18980000Y54120000D03*
X21520000Y54120000D03*
X24060000Y54120000D03*
X16440000Y54120000D03*
X13900000Y54120000D03*
X11360000Y54120000D03*
X8820000Y54120000D03*
X3740000Y54120000D03*
X6280000Y54120000D03*
X6280000Y61740000D03*
X3740000Y61740000D03*
X6280000Y59200000D03*
X6280000Y56660000D03*
X3740000Y59200000D03*
X3740000Y56660000D03*
D31*
X118100000Y38400000D03*
X100650000Y33550000D03*
X100500000Y11310000D03*
X112500000Y33500000D03*
X41350000Y40050000D03*
X41150000Y19750000D03*
X63350000Y40650000D03*
X63350000Y29450000D03*
X63603000Y18203000D03*
D32*
X118103000Y38403000D02*
X118100000Y38400000D01*
X118103000Y38403000D02*
X118103000Y40500000D01*
X117500000Y28390000D02*
X117500000Y25803000D01*
X117500000Y25803000D02*
X117553000Y25750000D01*
D33*
X107810000Y15310000D02*
X111000000Y18500000D01*
X111000000Y18500000D02*
X111000000Y28390000D01*
D34*
X104120000Y15310000D02*
X107810000Y15310000D01*
D33*
X117500000Y28390000D02*
X111000000Y28390000D01*
X117553000Y28443000D02*
X117500000Y28390000D01*
D32*
X117553000Y31050000D02*
X117553000Y28443000D01*
X100750000Y11750000D02*
X100500000Y11750000D01*
X100750000Y11750000D02*
X100500000Y11750000D01*
D35*
X112460000Y46000000D02*
X112460000Y48500000D01*
X112460000Y46000000D02*
X112460000Y33540000D01*
X112500000Y33500000D02*
X112460000Y33540000D01*
X112460000Y48500000D02*
X112500000Y48500000D01*
X123500000Y48500000D02*
X112500000Y48500000D01*
X112500000Y48500000D02*
X102290000Y48500000D01*
X102290000Y48500000D02*
X102250000Y48540000D01*
D33*
X102190000Y29690000D02*
X100500000Y28000000D01*
X100500000Y28000000D02*
X100500000Y18500000D01*
X100500000Y18500000D02*
X100500000Y11750000D01*
X100500000Y11750000D02*
X100500000Y11310000D01*
X100500000Y11310000D02*
X104120000Y7690000D01*
X104120000Y29690000D02*
X102190000Y29690000D01*
X100500000Y18690000D02*
X100500000Y18500000D01*
X104120000Y18690000D02*
X100500000Y18690000D01*
X108000000Y33500000D02*
X112500000Y33500000D01*
X104190000Y29690000D02*
X108000000Y33500000D01*
X112500000Y33500000D02*
X123500000Y33500000D01*
X104120000Y29690000D02*
X104190000Y29690000D01*
X74790000Y31310000D02*
X73760000Y31310000D01*
X75047000Y31053000D02*
X74790000Y31310000D01*
X76350000Y31053000D02*
X75047000Y31053000D01*
X75147000Y19953000D02*
X76250000Y19953000D01*
X74890000Y20210000D02*
X75147000Y19953000D01*
X73760000Y20210000D02*
X74890000Y20210000D01*
X75190000Y9310000D02*
X75447000Y9053000D01*
X75447000Y9053000D02*
X76350000Y9053000D01*
X73760000Y9310000D02*
X75190000Y9310000D01*
X73760000Y2260000D02*
X73750000Y2250000D01*
X73760000Y9310000D02*
X73760000Y2260000D01*
X104000000Y2260000D02*
X104120000Y2380000D01*
X104120000Y2380000D02*
X104120000Y7690000D01*
X73760000Y2260000D02*
X104000000Y2260000D01*
D32*
X120897000Y40500000D02*
X120897000Y39103000D01*
X121500000Y38500000D02*
X123500000Y38500000D01*
X120897000Y39103000D02*
X121500000Y38500000D01*
X122150000Y31050000D02*
X123500000Y29700000D01*
X123500000Y29700000D02*
X123500000Y28500000D01*
X120347000Y31050000D02*
X122150000Y31050000D01*
X120347000Y25750000D02*
X122500000Y25750000D01*
X123500000Y24750000D02*
X123500000Y23500000D01*
X122500000Y25750000D02*
X123500000Y24750000D01*
D36*
X66147000Y38750000D02*
X66147000Y36397000D01*
X66147000Y36397000D02*
X66140000Y36390000D01*
D33*
X63493000Y36390000D02*
X63450000Y36347000D01*
X66140000Y36390000D02*
X63493000Y36390000D01*
D37*
X33730000Y17260000D02*
X33730000Y15270000D01*
X56250000Y14950000D02*
X56250000Y16153000D01*
X55750000Y14450000D02*
X56250000Y14950000D01*
X34550000Y14450000D02*
X55750000Y14450000D01*
X33730000Y15270000D02*
X34550000Y14450000D01*
X56250000Y16153000D02*
X56347000Y16250000D01*
X36270000Y24880000D02*
X36270000Y24870000D01*
X36270000Y24870000D02*
X34950000Y23550000D01*
X34950000Y23550000D02*
X34950000Y18480000D01*
X34950000Y18480000D02*
X33730000Y17260000D01*
X33730000Y37580000D02*
X33730000Y37570000D01*
X33730000Y37570000D02*
X34850000Y36450000D01*
X34850000Y33920000D02*
X36270000Y32500000D01*
X34850000Y36450000D02*
X34850000Y33920000D01*
X36270000Y42660000D02*
X36260000Y42660000D01*
X36260000Y42660000D02*
X34950000Y41350000D01*
X34950000Y38800000D02*
X33730000Y37580000D01*
X34950000Y41350000D02*
X34950000Y38800000D01*
D33*
X73410000Y47410000D02*
X73410000Y49500000D01*
X73410000Y49500000D02*
X73500000Y49500000D01*
X65790000Y47410000D02*
X65790000Y49460000D01*
X81030000Y49470000D02*
X81030000Y47410000D01*
X81000000Y49500000D02*
X81030000Y49470000D01*
X65830000Y49500000D02*
X73500000Y49500000D01*
X73500000Y49500000D02*
X81000000Y49500000D01*
X65790000Y49460000D02*
X65830000Y49500000D01*
X65144000Y33850000D02*
X66140000Y33850000D01*
X64747000Y33553000D02*
X65044000Y33850000D01*
X63450000Y33553000D02*
X64747000Y33553000D01*
X64850000Y22750000D02*
X64553000Y22453000D01*
X64553000Y22453000D02*
X63550000Y22453000D01*
X66140000Y22750000D02*
X64850000Y22750000D01*
X56247000Y53253000D02*
X56040000Y53460000D01*
X56040000Y53460000D02*
X56040000Y54810000D01*
X56247000Y52150000D02*
X56247000Y53253000D01*
X56040000Y35460000D02*
X56347000Y35153000D01*
X56347000Y35153000D02*
X56347000Y34250000D01*
X56040000Y36810000D02*
X56040000Y35460000D01*
X56040000Y17560000D02*
X56347000Y17253000D01*
X56040000Y18810000D02*
X56040000Y17560000D01*
X56347000Y17253000D02*
X56347000Y16250000D01*
X64653000Y11553000D02*
X63550000Y11553000D01*
X64950000Y11850000D02*
X64653000Y11553000D01*
X66140000Y11850000D02*
X65150000Y11850000D01*
D36*
X66147000Y27650000D02*
X66147000Y25297000D01*
X66147000Y25297000D02*
X66140000Y25290000D01*
D33*
X63593000Y25290000D02*
X63550000Y25247000D01*
X66140000Y25290000D02*
X63593000Y25290000D01*
D36*
X66397000Y16500000D02*
X66397000Y14647000D01*
X66397000Y14647000D02*
X66140000Y14390000D01*
D33*
X63593000Y14390000D02*
X63550000Y14347000D01*
X66140000Y14390000D02*
X63593000Y14390000D01*
X73763000Y33847000D02*
X73760000Y33850000D01*
X76350000Y33847000D02*
X73763000Y33847000D01*
X77350000Y36250000D02*
X76350000Y35250000D01*
X76350000Y35250000D02*
X76350000Y33847000D01*
X78650000Y36250000D02*
X77350000Y36250000D01*
X76247000Y22750000D02*
X76250000Y22747000D01*
X73760000Y22750000D02*
X76247000Y22750000D01*
X76250000Y24250000D02*
X77150000Y25150000D01*
X77150000Y25150000D02*
X78550000Y25150000D01*
X76250000Y22747000D02*
X76250000Y24250000D01*
X76347000Y11850000D02*
X76350000Y11847000D01*
X73760000Y11850000D02*
X76347000Y11850000D01*
X76350000Y13050000D02*
X77650000Y14350000D01*
X77650000Y14350000D02*
X78550000Y14350000D01*
X76350000Y11847000D02*
X76350000Y13050000D01*
X53453000Y54763000D02*
X53500000Y54810000D01*
X53453000Y52150000D02*
X53453000Y54763000D01*
D36*
X41400000Y40000000D02*
X46000000Y40000000D01*
X41350000Y40050000D02*
X41400000Y40000000D01*
D33*
X53500000Y34303000D02*
X53553000Y34250000D01*
X53500000Y36810000D02*
X53500000Y34303000D01*
D36*
X43400000Y22000000D02*
X46000000Y22000000D01*
X41150000Y19750000D02*
X43400000Y22000000D01*
D33*
X53500000Y16303000D02*
X53553000Y16250000D01*
X53500000Y18810000D02*
X53500000Y16303000D01*
D38*
X70750000Y39350000D02*
X70750000Y39950000D01*
X32380000Y24880000D02*
X30750000Y23250000D01*
X30750000Y23250000D02*
X30750000Y13750000D01*
X30750000Y13750000D02*
X32250000Y12250000D01*
X32250000Y12250000D02*
X37250000Y12250000D01*
X37250000Y12250000D02*
X38750000Y10750000D01*
X38750000Y10750000D02*
X38750000Y3250000D01*
X38750000Y3250000D02*
X40750000Y1250000D01*
X40750000Y1250000D02*
X64450000Y1250000D01*
X64450000Y1250000D02*
X70750000Y7550000D01*
X33730000Y24880000D02*
X32380000Y24880000D01*
X70750000Y7550000D02*
X70750000Y39350000D01*
X70050000Y40650000D02*
X63350000Y40650000D01*
X70750000Y39950000D02*
X70050000Y40650000D01*
X63353000Y40647000D02*
X63353000Y38750000D01*
X63350000Y40650000D02*
X63353000Y40647000D01*
X63353000Y38750000D02*
X63353000Y40053000D01*
X41150000Y1950000D02*
X64195998Y1950000D01*
X31450000Y21650000D02*
X31450000Y14050000D01*
X31450000Y14050000D02*
X32650000Y12850000D01*
X32650000Y12850000D02*
X37550000Y12850000D01*
X37550000Y12850000D02*
X39450000Y10950000D01*
X39450000Y10950000D02*
X39450000Y3650000D01*
X39450000Y3650000D02*
X41150000Y1950000D01*
X33730000Y22340000D02*
X32140000Y22340000D01*
X32140000Y22340000D02*
X31450000Y21650000D01*
X70150000Y28150000D02*
X68850000Y29450000D01*
X70150000Y7904002D02*
X70150000Y28150000D01*
X64195998Y1950000D02*
X70150000Y7904002D01*
X68850000Y29450000D02*
X63350000Y29450000D01*
X63353000Y29447000D02*
X63353000Y27650000D01*
X63350000Y29450000D02*
X63353000Y29447000D01*
X63353000Y28753000D02*
X63353000Y27650000D01*
X63603000Y16500000D02*
X63603000Y18203000D01*
X68450000Y18250000D02*
X64250000Y18250000D01*
X63650000Y18250000D02*
X64250000Y18250000D01*
X32050000Y18250000D02*
X33600000Y19800000D01*
X32050000Y18250000D02*
X32050000Y14304002D01*
X32050000Y14304002D02*
X32904002Y13450000D01*
X32904002Y13450000D02*
X37750000Y13450000D01*
X37750000Y13450000D02*
X40050000Y11150000D01*
X40050000Y11150000D02*
X40050000Y3833478D01*
X40050000Y3833478D02*
X41233478Y2650000D01*
X41233478Y2650000D02*
X63950000Y2650000D01*
X63950000Y2650000D02*
X69550000Y8250000D01*
X69550000Y8250000D02*
X69550000Y17150000D01*
X69550000Y17150000D02*
X68450000Y18250000D01*
X33730000Y19800000D02*
X33600000Y19800000D01*
D36*
X60750000Y47750000D02*
X64000000Y51000000D01*
X53500000Y12500000D02*
X54000000Y13000000D01*
X54000000Y13000000D02*
X59250000Y13000000D01*
X59250000Y13000000D02*
X60750000Y14500000D01*
X60750000Y14500000D02*
X60750000Y47750000D01*
X53500000Y11190000D02*
X53500000Y12500000D01*
X96730000Y51000000D02*
X101480000Y55750000D01*
X64000000Y51000000D02*
X96730000Y51000000D01*
X53500000Y29190000D02*
X53500000Y30500000D01*
X90730000Y52000000D02*
X94480000Y55750000D01*
X63500000Y52000000D02*
X90730000Y52000000D01*
X59750000Y48250000D02*
X63500000Y52000000D01*
X59750000Y32250000D02*
X59750000Y48250000D01*
X58500000Y31000000D02*
X59750000Y32250000D01*
X54000000Y31000000D02*
X58500000Y31000000D01*
X53500000Y30500000D02*
X54000000Y31000000D01*
X59000000Y49250000D02*
X62750000Y53000000D01*
X54000000Y49250000D02*
X59000000Y49250000D01*
X53500000Y48750000D02*
X54000000Y49250000D01*
D34*
X53500000Y47190000D02*
X53500000Y48750000D01*
D36*
X84730000Y53000000D02*
X87480000Y55750000D01*
X62750000Y53000000D02*
X84730000Y53000000D01*
D37*
X33730000Y27420000D02*
X31980000Y27420000D01*
X31450000Y45460000D02*
X33730000Y47740000D01*
X31450000Y27950000D02*
X31450000Y45460000D01*
X31980000Y27420000D02*
X31450000Y27950000D01*
D33*
X33730000Y47740000D02*
X33730000Y51730000D01*
X42500000Y55500000D02*
X46000000Y55500000D01*
X38750000Y51750000D02*
X42500000Y55500000D01*
X33750000Y51750000D02*
X38750000Y51750000D01*
X33730000Y51730000D02*
X33750000Y51750000D01*
D39*
X47000000Y55500000D02*
X48000000Y54500000D01*
X48000000Y37500000D02*
X48000000Y20500000D01*
X48000000Y54500000D02*
X48000000Y37500000D01*
X48000000Y20500000D02*
X47000000Y19500000D01*
X47000000Y19500000D02*
X46000000Y19500000D01*
X46000000Y55500000D02*
X47000000Y55500000D01*
X46000000Y37500000D02*
X48000000Y37500000D01*
D34*
G36*
X81196798Y28204725D02*
X80922196Y27930122D01*
X80674500Y27332131D01*
X80674500Y26684870D01*
X80674500Y26166740D01*
X80604297Y26271805D01*
X80523885Y26466418D01*
X80373805Y26616760D01*
X80230793Y26830793D01*
X80018630Y26972556D01*
X79869861Y27121585D01*
X79673671Y27203051D01*
X79459639Y27346062D01*
X79209376Y27395843D01*
X79014900Y27476596D01*
X78802467Y27476782D01*
X78550000Y27527000D01*
X77150000Y27527000D01*
X76240361Y27346062D01*
X75797708Y27050292D01*
X75093819Y27520615D01*
X74169868Y27704400D01*
X73350132Y27704400D01*
X72527000Y27540670D01*
X72527000Y30218257D01*
X72742738Y30044475D01*
X73277400Y29887600D01*
X73633000Y29887600D01*
X73633000Y31183000D01*
X73613000Y31183000D01*
X73613000Y31435600D01*
X73907000Y31435600D01*
X73907000Y31183000D01*
X73887000Y31183000D01*
X73887000Y29887600D01*
X74242600Y29887600D01*
X74777262Y30044475D01*
X74829787Y30086786D01*
X74909973Y29893202D01*
X75088601Y29714573D01*
X75321990Y29617900D01*
X75574609Y29617900D01*
X76064250Y29617900D01*
X76223000Y29776650D01*
X76223000Y30926000D01*
X76203000Y30926000D01*
X76203000Y31180000D01*
X76223000Y31180000D01*
X76223000Y31200000D01*
X76322954Y31200000D01*
X76322597Y30789162D01*
X76477000Y30415478D01*
X76477000Y29776650D01*
X76635750Y29617900D01*
X76991246Y29617900D01*
X77330139Y29278415D01*
X78185100Y28923404D01*
X79110838Y28922597D01*
X79966418Y29276115D01*
X80621585Y29930139D01*
X80674820Y30058346D01*
X80674097Y29229459D01*
X81027388Y28374431D01*
X81196798Y28204725D01*
X81196798Y28204725D01*
G37*
X81196798Y28204725D02*
X80922196Y27930122D01*
X80674500Y27332131D01*
X80674500Y26684870D01*
X80674500Y26166740D01*
X80604297Y26271805D01*
X80523885Y26466418D01*
X80373805Y26616760D01*
X80230793Y26830793D01*
X80018630Y26972556D01*
X79869861Y27121585D01*
X79673671Y27203051D01*
X79459639Y27346062D01*
X79209376Y27395843D01*
X79014900Y27476596D01*
X78802467Y27476782D01*
X78550000Y27527000D01*
X77150000Y27527000D01*
X76240361Y27346062D01*
X75797708Y27050292D01*
X75093819Y27520615D01*
X74169868Y27704400D01*
X73350132Y27704400D01*
X72527000Y27540670D01*
X72527000Y30218257D01*
X72742738Y30044475D01*
X73277400Y29887600D01*
X73633000Y29887600D01*
X73633000Y31183000D01*
X73613000Y31183000D01*
X73613000Y31435600D01*
X73907000Y31435600D01*
X73907000Y31183000D01*
X73887000Y31183000D01*
X73887000Y29887600D01*
X74242600Y29887600D01*
X74777262Y30044475D01*
X74829787Y30086786D01*
X74909973Y29893202D01*
X75088601Y29714573D01*
X75321990Y29617900D01*
X75574609Y29617900D01*
X76064250Y29617900D01*
X76223000Y29776650D01*
X76223000Y30926000D01*
X76203000Y30926000D01*
X76203000Y31180000D01*
X76223000Y31180000D01*
X76223000Y31200000D01*
X76322954Y31200000D01*
X76322597Y30789162D01*
X76477000Y30415478D01*
X76477000Y29776650D01*
X76635750Y29617900D01*
X76991246Y29617900D01*
X77330139Y29278415D01*
X78185100Y28923404D01*
X79110838Y28922597D01*
X79966418Y29276115D01*
X80621585Y29930139D01*
X80674820Y30058346D01*
X80674097Y29229459D01*
X81027388Y28374431D01*
X81196798Y28204725D01*
G36*
X130823000Y7514065D02*
X130590810Y7746660D01*
X129074513Y8376282D01*
X127432690Y8377715D01*
X126227472Y7879730D01*
X126227472Y14040054D01*
X125813186Y15042703D01*
X125046738Y15810490D01*
X124590463Y15999953D01*
X125042703Y16186814D01*
X125810490Y16953262D01*
X126226526Y17955186D01*
X126227472Y19040054D01*
X125813186Y20042703D01*
X125046738Y20810490D01*
X124590463Y20999953D01*
X125042703Y21186814D01*
X125810490Y21953262D01*
X126226526Y22955186D01*
X126227472Y24040054D01*
X125813186Y25042703D01*
X125507958Y25348464D01*
X125507958Y25348465D01*
X125465092Y25563967D01*
X125465092Y25563968D01*
X125046431Y26190537D01*
X125810490Y26953262D01*
X126226526Y27955186D01*
X126227472Y29040054D01*
X126227472Y39040054D01*
X125813186Y40042703D01*
X125046738Y40810490D01*
X124459854Y41054186D01*
X124986132Y41271639D01*
X125725764Y42009981D01*
X126126543Y42975165D01*
X126127455Y44020250D01*
X125728361Y44986132D01*
X125145908Y45569603D01*
X125145908Y48235461D01*
X125121856Y48885460D01*
X124919387Y49374264D01*
X124652532Y49472927D01*
X124472927Y49293322D01*
X124472927Y49652532D01*
X124374264Y49919387D01*
X123764539Y50145908D01*
X123114540Y50121856D01*
X122625736Y49919387D01*
X122527073Y49652532D01*
X123500000Y48679605D01*
X124472927Y49652532D01*
X124472927Y49293322D01*
X123679605Y48500000D01*
X124652532Y47527073D01*
X124919387Y47625736D01*
X125145908Y48235461D01*
X125145908Y45569603D01*
X124990019Y45725764D01*
X124472927Y45940480D01*
X124472927Y47347468D01*
X123500000Y48320395D01*
X123320395Y48140790D01*
X123320395Y48500000D01*
X122347468Y49472927D01*
X122080613Y49374264D01*
X121854092Y48764539D01*
X121878144Y48114540D01*
X122080613Y47625736D01*
X122347468Y47527073D01*
X123320395Y48500000D01*
X123320395Y48140790D01*
X122527073Y47347468D01*
X122625736Y47080613D01*
X123235461Y46854092D01*
X123885460Y46878144D01*
X124374264Y47080613D01*
X124472927Y47347468D01*
X124472927Y45940480D01*
X124024835Y46126543D01*
X122979750Y46127455D01*
X122013868Y45728361D01*
X121274236Y44990019D01*
X120873457Y44024835D01*
X120872587Y43028700D01*
X119773270Y43028700D01*
X119500000Y42915509D01*
X119226731Y43028700D01*
X118579470Y43028700D01*
X116979270Y43028700D01*
X116381279Y42781004D01*
X115923596Y42323322D01*
X115675900Y41725331D01*
X115675900Y41078070D01*
X115675900Y39274670D01*
X115873346Y38797994D01*
X115872614Y37958966D01*
X116210940Y37140154D01*
X116836858Y36513142D01*
X117655079Y36173387D01*
X118541034Y36172614D01*
X119359846Y36510940D01*
X119920926Y37071042D01*
X119995984Y36995984D01*
X120686032Y36534908D01*
X120686033Y36534908D01*
X121500000Y36373000D01*
X121770092Y36373000D01*
X121953262Y36189510D01*
X122955186Y35773474D01*
X124040054Y35772528D01*
X125042703Y36186814D01*
X125810490Y36953262D01*
X126226526Y37955186D01*
X126227472Y39040054D01*
X126227472Y29040054D01*
X125813186Y30042703D01*
X125495537Y30360907D01*
X125465092Y30513968D01*
X125245323Y30842876D01*
X125245323Y33211593D01*
X125222836Y33901453D01*
X125002099Y34434359D01*
X124724868Y34545263D01*
X124545263Y34365658D01*
X124545263Y34724868D01*
X124434359Y35002099D01*
X123788407Y35245323D01*
X123098547Y35222836D01*
X122565641Y35002099D01*
X122454737Y34724868D01*
X123500000Y33679605D01*
X124545263Y34724868D01*
X124545263Y34365658D01*
X123679605Y33500000D01*
X124724868Y32454737D01*
X125002099Y32565641D01*
X125245323Y33211593D01*
X125245323Y30842876D01*
X125004016Y31204016D01*
X124275805Y31932227D01*
X124434359Y31997901D01*
X124545263Y32275132D01*
X123500000Y33320395D01*
X123485857Y33306253D01*
X123306252Y33485858D01*
X123320395Y33500000D01*
X122275132Y34545263D01*
X121997901Y34434359D01*
X121754677Y33788407D01*
X121765492Y33456606D01*
X121470731Y33578700D01*
X120823470Y33578700D01*
X119223270Y33578700D01*
X118950000Y33465509D01*
X118676731Y33578700D01*
X118029470Y33578700D01*
X116429270Y33578700D01*
X115831279Y33331004D01*
X115373596Y32873322D01*
X115125900Y32275331D01*
X115125900Y31628070D01*
X115125900Y30767000D01*
X113082925Y30767000D01*
X113001122Y30848804D01*
X112403131Y31096500D01*
X111755870Y31096500D01*
X109596870Y31096500D01*
X108998879Y30848804D01*
X108541196Y30391122D01*
X108293500Y29793131D01*
X108293500Y29145870D01*
X108293500Y26986870D01*
X108541196Y26388879D01*
X108623000Y26307075D01*
X108623000Y19484586D01*
X106847472Y17709059D01*
X106847472Y26850054D01*
X106433186Y27852703D01*
X105666738Y28620490D01*
X105479061Y28698421D01*
X105622099Y28755641D01*
X105865323Y29401593D01*
X105842836Y30091453D01*
X105622099Y30624359D01*
X105344868Y30735263D01*
X105165263Y30555658D01*
X105165263Y30914868D01*
X105054359Y31192099D01*
X104408407Y31435323D01*
X103718547Y31412836D01*
X103185641Y31192099D01*
X103074737Y30914868D01*
X104120000Y29869605D01*
X105165263Y30914868D01*
X105165263Y30555658D01*
X104299605Y29690000D01*
X104313747Y29675858D01*
X104134142Y29496253D01*
X104120000Y29510395D01*
X104105857Y29496253D01*
X103926252Y29675858D01*
X103940395Y29690000D01*
X102895132Y30735263D01*
X102617901Y30624359D01*
X102374677Y29978407D01*
X102397164Y29288547D01*
X102617901Y28755641D01*
X102760145Y28698738D01*
X102577297Y28623186D01*
X101809510Y27856738D01*
X101393474Y26854814D01*
X101392528Y25769946D01*
X101806814Y24767297D01*
X102573262Y23999510D01*
X103575186Y23583474D01*
X104660054Y23582528D01*
X105662703Y23996814D01*
X106430490Y24763262D01*
X106846526Y25765186D01*
X106847472Y26850054D01*
X106847472Y17709059D01*
X106212344Y17073931D01*
X105666738Y17620490D01*
X105479061Y17698421D01*
X105622099Y17755641D01*
X105865323Y18401593D01*
X105842836Y19091453D01*
X105622099Y19624359D01*
X105344868Y19735263D01*
X105165263Y19555658D01*
X105165263Y19914868D01*
X105054359Y20192099D01*
X104408407Y20435323D01*
X103718547Y20412836D01*
X103185641Y20192099D01*
X103074737Y19914868D01*
X104120000Y18869605D01*
X105165263Y19914868D01*
X105165263Y19555658D01*
X104299605Y18690000D01*
X104313747Y18675858D01*
X104134142Y18496253D01*
X104120000Y18510395D01*
X104105857Y18496253D01*
X103926252Y18675858D01*
X103940395Y18690000D01*
X102895132Y19735263D01*
X102617901Y19624359D01*
X102374677Y18978407D01*
X102397164Y18288547D01*
X102617901Y17755641D01*
X102760145Y17698738D01*
X102577297Y17623186D01*
X101809510Y16856738D01*
X101393474Y15854814D01*
X101392528Y14769946D01*
X101806814Y13767297D01*
X102573262Y12999510D01*
X103575186Y12583474D01*
X104660054Y12582528D01*
X105662703Y12996814D01*
X106222865Y13556000D01*
X106238769Y13556000D01*
X106900362Y13113938D01*
X107810000Y12933000D01*
X108719638Y13113938D01*
X109490793Y13629207D01*
X112680793Y16819207D01*
X113196062Y17590361D01*
X113377000Y18500000D01*
X113377000Y26013000D01*
X115125900Y26013000D01*
X115125900Y24524670D01*
X115373596Y23926679D01*
X115831278Y23468996D01*
X116429269Y23221300D01*
X117076530Y23221300D01*
X118676730Y23221300D01*
X118949999Y23334492D01*
X119223269Y23221300D01*
X119870530Y23221300D01*
X120772755Y23221300D01*
X120772528Y22959946D01*
X121186814Y21957297D01*
X121953262Y21189510D01*
X122409536Y21000048D01*
X121957297Y20813186D01*
X121189510Y20046738D01*
X120773474Y19044814D01*
X120772528Y17959946D01*
X121186814Y16957297D01*
X121953262Y16189510D01*
X122409536Y16000048D01*
X121957297Y15813186D01*
X121189510Y15046738D01*
X120773474Y14044814D01*
X120772528Y12959946D01*
X121186814Y11957297D01*
X121953262Y11189510D01*
X122955186Y10773474D01*
X124040054Y10772528D01*
X125042703Y11186814D01*
X125810490Y11953262D01*
X126226526Y12955186D01*
X126227472Y14040054D01*
X126227472Y7879730D01*
X125915296Y7750741D01*
X124753340Y6590810D01*
X124123718Y5074513D01*
X124122285Y3432690D01*
X124749259Y1915296D01*
X124987139Y1677000D01*
X120206968Y1677000D01*
X120206968Y11145994D01*
X119795797Y12141106D01*
X119035111Y12903121D01*
X118040718Y13316029D01*
X116964006Y13316968D01*
X115968894Y12905797D01*
X115206879Y12145111D01*
X114793971Y11150718D01*
X114793032Y10074006D01*
X115204203Y9078894D01*
X115964889Y8316879D01*
X116959282Y7903971D01*
X118035994Y7903032D01*
X119031106Y8314203D01*
X119793121Y9074889D01*
X120206029Y10069282D01*
X120206968Y11145994D01*
X120206968Y1677000D01*
X113706968Y1677000D01*
X113706968Y11145994D01*
X113295797Y12141106D01*
X112535111Y12903121D01*
X111540718Y13316029D01*
X110464006Y13316968D01*
X109468894Y12905797D01*
X108706879Y12145111D01*
X108293971Y11150718D01*
X108293032Y10074006D01*
X108704203Y9078894D01*
X109464889Y8316879D01*
X110459282Y7903971D01*
X111535994Y7903032D01*
X112531106Y8314203D01*
X113293121Y9074889D01*
X113706029Y10069282D01*
X113706968Y11145994D01*
X113706968Y1677000D01*
X105865323Y1677000D01*
X105865323Y7401593D01*
X105842836Y8091453D01*
X105622099Y8624359D01*
X105344868Y8735263D01*
X105165263Y8555658D01*
X105165263Y8914868D01*
X105054359Y9192099D01*
X104408407Y9435323D01*
X103718547Y9412836D01*
X103185641Y9192099D01*
X103074737Y8914868D01*
X104120000Y7869605D01*
X105165263Y8914868D01*
X105165263Y8555658D01*
X104299605Y7690000D01*
X105344868Y6644737D01*
X105622099Y6755641D01*
X105865323Y7401593D01*
X105865323Y1677000D01*
X105165263Y1677000D01*
X105165263Y6465132D01*
X104120000Y7510395D01*
X103940395Y7330790D01*
X103940395Y7690000D01*
X102895132Y8735263D01*
X102617901Y8624359D01*
X102374677Y7978407D01*
X102397164Y7288547D01*
X102617901Y6755641D01*
X102895132Y6644737D01*
X103940395Y7690000D01*
X103940395Y7330790D01*
X103074737Y6465132D01*
X103185641Y6187901D01*
X103831593Y5944677D01*
X104521453Y5967164D01*
X105054359Y6187901D01*
X105165263Y6465132D01*
X105165263Y1677000D01*
X99227472Y1677000D01*
X99227472Y15850054D01*
X99227472Y26850054D01*
X98813186Y27852703D01*
X98046738Y28620490D01*
X97044814Y29036526D01*
X95959946Y29037472D01*
X94957297Y28623186D01*
X94189510Y27856738D01*
X93773474Y26854814D01*
X93772528Y25769946D01*
X94186814Y24767297D01*
X94953262Y23999510D01*
X95955186Y23583474D01*
X97040054Y23582528D01*
X98042703Y23996814D01*
X98810490Y24763262D01*
X99226526Y25765186D01*
X99227472Y26850054D01*
X99227472Y15850054D01*
X98813186Y16852703D01*
X98046738Y17620490D01*
X97044814Y18036526D01*
X95959946Y18037472D01*
X94957297Y17623186D01*
X94189510Y16856738D01*
X93773474Y15854814D01*
X93772528Y14769946D01*
X94186814Y13767297D01*
X94953262Y12999510D01*
X95955186Y12583474D01*
X97040054Y12582528D01*
X98042703Y12996814D01*
X98810490Y13763262D01*
X99226526Y14765186D01*
X99227472Y15850054D01*
X99227472Y1677000D01*
X88967455Y1677000D01*
X88967455Y8210250D01*
X88568361Y9176132D01*
X87830019Y9915764D01*
X86864835Y10316543D01*
X85819750Y10317455D01*
X84853868Y9918361D01*
X84456948Y9522134D01*
X84319010Y9660313D01*
X83464600Y10015095D01*
X82539459Y10015903D01*
X81684431Y9662612D01*
X81029687Y9009010D01*
X80674905Y8154600D01*
X80674097Y7229459D01*
X81027388Y6374431D01*
X81680990Y5719687D01*
X82535400Y5364905D01*
X83460541Y5364097D01*
X84315569Y5717388D01*
X84456665Y5858239D01*
X84849981Y5464236D01*
X85815165Y5063457D01*
X86860250Y5062545D01*
X87826132Y5461639D01*
X88565764Y6199981D01*
X88966543Y7165165D01*
X88967455Y8210250D01*
X88967455Y1677000D01*
X71377000Y1677000D01*
X71377000Y5663943D01*
X72006525Y6293469D01*
X72006528Y6293471D01*
X72006529Y6293471D01*
X72391733Y6869971D01*
X72391734Y6869972D01*
X72527000Y7550000D01*
X72527000Y8218257D01*
X72742738Y8044475D01*
X73277400Y7887600D01*
X73633000Y7887600D01*
X73633000Y9183000D01*
X73613000Y9183000D01*
X73613000Y9435600D01*
X73907000Y9435600D01*
X73907000Y9183000D01*
X73887000Y9183000D01*
X73887000Y7887600D01*
X74242600Y7887600D01*
X74777262Y8044475D01*
X74829787Y8086786D01*
X74909973Y7893202D01*
X75088601Y7714573D01*
X75321990Y7617900D01*
X75574609Y7617900D01*
X76064250Y7617900D01*
X76223000Y7776650D01*
X76223000Y8888187D01*
X76477000Y8273459D01*
X76477000Y7776650D01*
X76635750Y7617900D01*
X76991071Y7617900D01*
X77230139Y7378415D01*
X78085100Y7023404D01*
X79010838Y7022597D01*
X79866418Y7376115D01*
X80521585Y8030139D01*
X80876596Y8885100D01*
X80877403Y9810838D01*
X80550961Y10600887D01*
X80876596Y11385100D01*
X80877403Y12310838D01*
X80550961Y13100887D01*
X80603050Y13226329D01*
X80746062Y13440361D01*
X80795842Y13690624D01*
X80858942Y13842587D01*
X80922196Y13689879D01*
X81379878Y13232196D01*
X81977869Y12984500D01*
X82625130Y12984500D01*
X84022130Y12984500D01*
X84620121Y13232196D01*
X84661235Y13273311D01*
X84849981Y13084236D01*
X85815165Y12683457D01*
X86860250Y12682545D01*
X87826132Y13081639D01*
X88565764Y13819981D01*
X88966543Y14785165D01*
X88967455Y15830250D01*
X88568361Y16796132D01*
X88365140Y16999708D01*
X88565764Y17199981D01*
X88966543Y18165165D01*
X88967455Y19210250D01*
X88568361Y20176132D01*
X87830019Y20915764D01*
X86864835Y21316543D01*
X85819750Y21317455D01*
X84853868Y20918361D01*
X84456948Y20522134D01*
X84319010Y20660313D01*
X83464600Y21015095D01*
X82539459Y21015903D01*
X81684431Y20662612D01*
X81029687Y20009010D01*
X80674905Y19154600D01*
X80674097Y18229459D01*
X81027388Y17374431D01*
X81196798Y17204725D01*
X80922196Y16930122D01*
X80674500Y16332131D01*
X80674500Y15684870D01*
X80674500Y15366740D01*
X80604297Y15471805D01*
X80523885Y15666418D01*
X80373805Y15816760D01*
X80230793Y16030793D01*
X80018630Y16172556D01*
X79869861Y16321585D01*
X79673671Y16403051D01*
X79459639Y16546062D01*
X79209376Y16595843D01*
X79014900Y16676596D01*
X78802467Y16676782D01*
X78550000Y16727000D01*
X77650005Y16727000D01*
X77650000Y16727001D01*
X76891280Y16576082D01*
X76740361Y16546062D01*
X75969207Y16030793D01*
X75940611Y16002198D01*
X75877107Y16097239D01*
X75093819Y16620615D01*
X74169868Y16804400D01*
X73350132Y16804400D01*
X72527000Y16640670D01*
X72527000Y19118257D01*
X72742738Y18944475D01*
X73277400Y18787600D01*
X73633000Y18787600D01*
X73633000Y20083000D01*
X73613000Y20083000D01*
X73613000Y20335600D01*
X73907000Y20335600D01*
X73907000Y20083000D01*
X73887000Y20083000D01*
X73887000Y18787600D01*
X74242600Y18787600D01*
X74750558Y18936641D01*
X74809973Y18793202D01*
X74988601Y18614573D01*
X75221990Y18517900D01*
X75474609Y18517900D01*
X75964250Y18517900D01*
X76123000Y18676650D01*
X76123000Y19826000D01*
X76103000Y19826000D01*
X76103000Y20080000D01*
X76123000Y20080000D01*
X76123000Y20100000D01*
X76222954Y20100000D01*
X76222597Y19689162D01*
X76377000Y19315478D01*
X76377000Y18676650D01*
X76535750Y18517900D01*
X76891246Y18517900D01*
X77230139Y18178415D01*
X78085100Y17823404D01*
X79010838Y17822597D01*
X79866418Y18176115D01*
X80521585Y18830139D01*
X80876596Y19685100D01*
X80877403Y20610838D01*
X80550961Y21400887D01*
X80876596Y22185100D01*
X80877403Y23110838D01*
X80550961Y23900887D01*
X80603050Y24026329D01*
X80746062Y24240361D01*
X80795842Y24490624D01*
X80876596Y24685100D01*
X80876695Y24799726D01*
X80922196Y24689879D01*
X81379878Y24232196D01*
X81977869Y23984500D01*
X82625130Y23984500D01*
X84022130Y23984500D01*
X84620121Y24232196D01*
X84661235Y24273311D01*
X84849981Y24084236D01*
X85815165Y23683457D01*
X86860250Y23682545D01*
X87826132Y24081639D01*
X88565764Y24819981D01*
X88966543Y25785165D01*
X88967455Y26830250D01*
X88568361Y27796132D01*
X88365140Y27999708D01*
X88565764Y28199981D01*
X88966543Y29165165D01*
X88967455Y30210250D01*
X88568361Y31176132D01*
X87830019Y31915764D01*
X86864835Y32316543D01*
X85819750Y32317455D01*
X84853868Y31918361D01*
X84456948Y31522134D01*
X84319010Y31660313D01*
X83464600Y32015095D01*
X82539459Y32015903D01*
X81684431Y31662612D01*
X81029687Y31009010D01*
X80976679Y30881355D01*
X80977403Y31710838D01*
X80650961Y32500887D01*
X80976596Y33285100D01*
X80977403Y34210838D01*
X80650961Y35000887D01*
X80703050Y35126329D01*
X80846062Y35340361D01*
X80895842Y35590624D01*
X80932696Y35679379D01*
X81379878Y35232196D01*
X81977869Y34984500D01*
X82625130Y34984500D01*
X84022130Y34984500D01*
X84620121Y35232196D01*
X84661235Y35273311D01*
X84849981Y35084236D01*
X85815165Y34683457D01*
X86860250Y34682545D01*
X87826132Y35081639D01*
X88565764Y35819981D01*
X88966543Y36785165D01*
X88967455Y37830250D01*
X88568361Y38796132D01*
X87830019Y39535764D01*
X87619931Y39623000D01*
X94957110Y39623000D01*
X94189510Y38856738D01*
X93773474Y37854814D01*
X93772528Y36769946D01*
X94186814Y35767297D01*
X94953262Y34999510D01*
X95955186Y34583474D01*
X97040054Y34582528D01*
X98042703Y34996814D01*
X98810490Y35763262D01*
X99226526Y36765186D01*
X99227472Y37850054D01*
X98813186Y38852703D01*
X98046738Y39620490D01*
X98040693Y39623000D01*
X102577110Y39623000D01*
X101809510Y38856738D01*
X101393474Y37854814D01*
X101392528Y36769946D01*
X101806814Y35767297D01*
X102573262Y34999510D01*
X103575186Y34583474D01*
X104660054Y34582528D01*
X105662703Y34996814D01*
X106430490Y35763262D01*
X106846526Y36765186D01*
X106847472Y37850054D01*
X106433186Y38852703D01*
X105666738Y39620490D01*
X105660693Y39623000D01*
X108877000Y39623000D01*
X108877000Y49697395D01*
X110802605Y51623000D01*
X130823000Y51623000D01*
X130823000Y7514065D01*
X130823000Y7514065D01*
G37*
X130823000Y7514065D02*
X130590810Y7746660D01*
X129074513Y8376282D01*
X127432690Y8377715D01*
X126227472Y7879730D01*
X126227472Y14040054D01*
X125813186Y15042703D01*
X125046738Y15810490D01*
X124590463Y15999953D01*
X125042703Y16186814D01*
X125810490Y16953262D01*
X126226526Y17955186D01*
X126227472Y19040054D01*
X125813186Y20042703D01*
X125046738Y20810490D01*
X124590463Y20999953D01*
X125042703Y21186814D01*
X125810490Y21953262D01*
X126226526Y22955186D01*
X126227472Y24040054D01*
X125813186Y25042703D01*
X125507958Y25348464D01*
X125507958Y25348465D01*
X125465092Y25563967D01*
X125465092Y25563968D01*
X125046431Y26190537D01*
X125810490Y26953262D01*
X126226526Y27955186D01*
X126227472Y29040054D01*
X126227472Y39040054D01*
X125813186Y40042703D01*
X125046738Y40810490D01*
X124459854Y41054186D01*
X124986132Y41271639D01*
X125725764Y42009981D01*
X126126543Y42975165D01*
X126127455Y44020250D01*
X125728361Y44986132D01*
X125145908Y45569603D01*
X125145908Y48235461D01*
X125121856Y48885460D01*
X124919387Y49374264D01*
X124652532Y49472927D01*
X124472927Y49293322D01*
X124472927Y49652532D01*
X124374264Y49919387D01*
X123764539Y50145908D01*
X123114540Y50121856D01*
X122625736Y49919387D01*
X122527073Y49652532D01*
X123500000Y48679605D01*
X124472927Y49652532D01*
X124472927Y49293322D01*
X123679605Y48500000D01*
X124652532Y47527073D01*
X124919387Y47625736D01*
X125145908Y48235461D01*
X125145908Y45569603D01*
X124990019Y45725764D01*
X124472927Y45940480D01*
X124472927Y47347468D01*
X123500000Y48320395D01*
X123320395Y48140790D01*
X123320395Y48500000D01*
X122347468Y49472927D01*
X122080613Y49374264D01*
X121854092Y48764539D01*
X121878144Y48114540D01*
X122080613Y47625736D01*
X122347468Y47527073D01*
X123320395Y48500000D01*
X123320395Y48140790D01*
X122527073Y47347468D01*
X122625736Y47080613D01*
X123235461Y46854092D01*
X123885460Y46878144D01*
X124374264Y47080613D01*
X124472927Y47347468D01*
X124472927Y45940480D01*
X124024835Y46126543D01*
X122979750Y46127455D01*
X122013868Y45728361D01*
X121274236Y44990019D01*
X120873457Y44024835D01*
X120872587Y43028700D01*
X119773270Y43028700D01*
X119500000Y42915509D01*
X119226731Y43028700D01*
X118579470Y43028700D01*
X116979270Y43028700D01*
X116381279Y42781004D01*
X115923596Y42323322D01*
X115675900Y41725331D01*
X115675900Y41078070D01*
X115675900Y39274670D01*
X115873346Y38797994D01*
X115872614Y37958966D01*
X116210940Y37140154D01*
X116836858Y36513142D01*
X117655079Y36173387D01*
X118541034Y36172614D01*
X119359846Y36510940D01*
X119920926Y37071042D01*
X119995984Y36995984D01*
X120686032Y36534908D01*
X120686033Y36534908D01*
X121500000Y36373000D01*
X121770092Y36373000D01*
X121953262Y36189510D01*
X122955186Y35773474D01*
X124040054Y35772528D01*
X125042703Y36186814D01*
X125810490Y36953262D01*
X126226526Y37955186D01*
X126227472Y39040054D01*
X126227472Y29040054D01*
X125813186Y30042703D01*
X125495537Y30360907D01*
X125465092Y30513968D01*
X125245323Y30842876D01*
X125245323Y33211593D01*
X125222836Y33901453D01*
X125002099Y34434359D01*
X124724868Y34545263D01*
X124545263Y34365658D01*
X124545263Y34724868D01*
X124434359Y35002099D01*
X123788407Y35245323D01*
X123098547Y35222836D01*
X122565641Y35002099D01*
X122454737Y34724868D01*
X123500000Y33679605D01*
X124545263Y34724868D01*
X124545263Y34365658D01*
X123679605Y33500000D01*
X124724868Y32454737D01*
X125002099Y32565641D01*
X125245323Y33211593D01*
X125245323Y30842876D01*
X125004016Y31204016D01*
X124275805Y31932227D01*
X124434359Y31997901D01*
X124545263Y32275132D01*
X123500000Y33320395D01*
X123485857Y33306253D01*
X123306252Y33485858D01*
X123320395Y33500000D01*
X122275132Y34545263D01*
X121997901Y34434359D01*
X121754677Y33788407D01*
X121765492Y33456606D01*
X121470731Y33578700D01*
X120823470Y33578700D01*
X119223270Y33578700D01*
X118950000Y33465509D01*
X118676731Y33578700D01*
X118029470Y33578700D01*
X116429270Y33578700D01*
X115831279Y33331004D01*
X115373596Y32873322D01*
X115125900Y32275331D01*
X115125900Y31628070D01*
X115125900Y30767000D01*
X113082925Y30767000D01*
X113001122Y30848804D01*
X112403131Y31096500D01*
X111755870Y31096500D01*
X109596870Y31096500D01*
X108998879Y30848804D01*
X108541196Y30391122D01*
X108293500Y29793131D01*
X108293500Y29145870D01*
X108293500Y26986870D01*
X108541196Y26388879D01*
X108623000Y26307075D01*
X108623000Y19484586D01*
X106847472Y17709059D01*
X106847472Y26850054D01*
X106433186Y27852703D01*
X105666738Y28620490D01*
X105479061Y28698421D01*
X105622099Y28755641D01*
X105865323Y29401593D01*
X105842836Y30091453D01*
X105622099Y30624359D01*
X105344868Y30735263D01*
X105165263Y30555658D01*
X105165263Y30914868D01*
X105054359Y31192099D01*
X104408407Y31435323D01*
X103718547Y31412836D01*
X103185641Y31192099D01*
X103074737Y30914868D01*
X104120000Y29869605D01*
X105165263Y30914868D01*
X105165263Y30555658D01*
X104299605Y29690000D01*
X104313747Y29675858D01*
X104134142Y29496253D01*
X104120000Y29510395D01*
X104105857Y29496253D01*
X103926252Y29675858D01*
X103940395Y29690000D01*
X102895132Y30735263D01*
X102617901Y30624359D01*
X102374677Y29978407D01*
X102397164Y29288547D01*
X102617901Y28755641D01*
X102760145Y28698738D01*
X102577297Y28623186D01*
X101809510Y27856738D01*
X101393474Y26854814D01*
X101392528Y25769946D01*
X101806814Y24767297D01*
X102573262Y23999510D01*
X103575186Y23583474D01*
X104660054Y23582528D01*
X105662703Y23996814D01*
X106430490Y24763262D01*
X106846526Y25765186D01*
X106847472Y26850054D01*
X106847472Y17709059D01*
X106212344Y17073931D01*
X105666738Y17620490D01*
X105479061Y17698421D01*
X105622099Y17755641D01*
X105865323Y18401593D01*
X105842836Y19091453D01*
X105622099Y19624359D01*
X105344868Y19735263D01*
X105165263Y19555658D01*
X105165263Y19914868D01*
X105054359Y20192099D01*
X104408407Y20435323D01*
X103718547Y20412836D01*
X103185641Y20192099D01*
X103074737Y19914868D01*
X104120000Y18869605D01*
X105165263Y19914868D01*
X105165263Y19555658D01*
X104299605Y18690000D01*
X104313747Y18675858D01*
X104134142Y18496253D01*
X104120000Y18510395D01*
X104105857Y18496253D01*
X103926252Y18675858D01*
X103940395Y18690000D01*
X102895132Y19735263D01*
X102617901Y19624359D01*
X102374677Y18978407D01*
X102397164Y18288547D01*
X102617901Y17755641D01*
X102760145Y17698738D01*
X102577297Y17623186D01*
X101809510Y16856738D01*
X101393474Y15854814D01*
X101392528Y14769946D01*
X101806814Y13767297D01*
X102573262Y12999510D01*
X103575186Y12583474D01*
X104660054Y12582528D01*
X105662703Y12996814D01*
X106222865Y13556000D01*
X106238769Y13556000D01*
X106900362Y13113938D01*
X107810000Y12933000D01*
X108719638Y13113938D01*
X109490793Y13629207D01*
X112680793Y16819207D01*
X113196062Y17590361D01*
X113377000Y18500000D01*
X113377000Y26013000D01*
X115125900Y26013000D01*
X115125900Y24524670D01*
X115373596Y23926679D01*
X115831278Y23468996D01*
X116429269Y23221300D01*
X117076530Y23221300D01*
X118676730Y23221300D01*
X118949999Y23334492D01*
X119223269Y23221300D01*
X119870530Y23221300D01*
X120772755Y23221300D01*
X120772528Y22959946D01*
X121186814Y21957297D01*
X121953262Y21189510D01*
X122409536Y21000048D01*
X121957297Y20813186D01*
X121189510Y20046738D01*
X120773474Y19044814D01*
X120772528Y17959946D01*
X121186814Y16957297D01*
X121953262Y16189510D01*
X122409536Y16000048D01*
X121957297Y15813186D01*
X121189510Y15046738D01*
X120773474Y14044814D01*
X120772528Y12959946D01*
X121186814Y11957297D01*
X121953262Y11189510D01*
X122955186Y10773474D01*
X124040054Y10772528D01*
X125042703Y11186814D01*
X125810490Y11953262D01*
X126226526Y12955186D01*
X126227472Y14040054D01*
X126227472Y7879730D01*
X125915296Y7750741D01*
X124753340Y6590810D01*
X124123718Y5074513D01*
X124122285Y3432690D01*
X124749259Y1915296D01*
X124987139Y1677000D01*
X120206968Y1677000D01*
X120206968Y11145994D01*
X119795797Y12141106D01*
X119035111Y12903121D01*
X118040718Y13316029D01*
X116964006Y13316968D01*
X115968894Y12905797D01*
X115206879Y12145111D01*
X114793971Y11150718D01*
X114793032Y10074006D01*
X115204203Y9078894D01*
X115964889Y8316879D01*
X116959282Y7903971D01*
X118035994Y7903032D01*
X119031106Y8314203D01*
X119793121Y9074889D01*
X120206029Y10069282D01*
X120206968Y11145994D01*
X120206968Y1677000D01*
X113706968Y1677000D01*
X113706968Y11145994D01*
X113295797Y12141106D01*
X112535111Y12903121D01*
X111540718Y13316029D01*
X110464006Y13316968D01*
X109468894Y12905797D01*
X108706879Y12145111D01*
X108293971Y11150718D01*
X108293032Y10074006D01*
X108704203Y9078894D01*
X109464889Y8316879D01*
X110459282Y7903971D01*
X111535994Y7903032D01*
X112531106Y8314203D01*
X113293121Y9074889D01*
X113706029Y10069282D01*
X113706968Y11145994D01*
X113706968Y1677000D01*
X105865323Y1677000D01*
X105865323Y7401593D01*
X105842836Y8091453D01*
X105622099Y8624359D01*
X105344868Y8735263D01*
X105165263Y8555658D01*
X105165263Y8914868D01*
X105054359Y9192099D01*
X104408407Y9435323D01*
X103718547Y9412836D01*
X103185641Y9192099D01*
X103074737Y8914868D01*
X104120000Y7869605D01*
X105165263Y8914868D01*
X105165263Y8555658D01*
X104299605Y7690000D01*
X105344868Y6644737D01*
X105622099Y6755641D01*
X105865323Y7401593D01*
X105865323Y1677000D01*
X105165263Y1677000D01*
X105165263Y6465132D01*
X104120000Y7510395D01*
X103940395Y7330790D01*
X103940395Y7690000D01*
X102895132Y8735263D01*
X102617901Y8624359D01*
X102374677Y7978407D01*
X102397164Y7288547D01*
X102617901Y6755641D01*
X102895132Y6644737D01*
X103940395Y7690000D01*
X103940395Y7330790D01*
X103074737Y6465132D01*
X103185641Y6187901D01*
X103831593Y5944677D01*
X104521453Y5967164D01*
X105054359Y6187901D01*
X105165263Y6465132D01*
X105165263Y1677000D01*
X99227472Y1677000D01*
X99227472Y15850054D01*
X99227472Y26850054D01*
X98813186Y27852703D01*
X98046738Y28620490D01*
X97044814Y29036526D01*
X95959946Y29037472D01*
X94957297Y28623186D01*
X94189510Y27856738D01*
X93773474Y26854814D01*
X93772528Y25769946D01*
X94186814Y24767297D01*
X94953262Y23999510D01*
X95955186Y23583474D01*
X97040054Y23582528D01*
X98042703Y23996814D01*
X98810490Y24763262D01*
X99226526Y25765186D01*
X99227472Y26850054D01*
X99227472Y15850054D01*
X98813186Y16852703D01*
X98046738Y17620490D01*
X97044814Y18036526D01*
X95959946Y18037472D01*
X94957297Y17623186D01*
X94189510Y16856738D01*
X93773474Y15854814D01*
X93772528Y14769946D01*
X94186814Y13767297D01*
X94953262Y12999510D01*
X95955186Y12583474D01*
X97040054Y12582528D01*
X98042703Y12996814D01*
X98810490Y13763262D01*
X99226526Y14765186D01*
X99227472Y15850054D01*
X99227472Y1677000D01*
X88967455Y1677000D01*
X88967455Y8210250D01*
X88568361Y9176132D01*
X87830019Y9915764D01*
X86864835Y10316543D01*
X85819750Y10317455D01*
X84853868Y9918361D01*
X84456948Y9522134D01*
X84319010Y9660313D01*
X83464600Y10015095D01*
X82539459Y10015903D01*
X81684431Y9662612D01*
X81029687Y9009010D01*
X80674905Y8154600D01*
X80674097Y7229459D01*
X81027388Y6374431D01*
X81680990Y5719687D01*
X82535400Y5364905D01*
X83460541Y5364097D01*
X84315569Y5717388D01*
X84456665Y5858239D01*
X84849981Y5464236D01*
X85815165Y5063457D01*
X86860250Y5062545D01*
X87826132Y5461639D01*
X88565764Y6199981D01*
X88966543Y7165165D01*
X88967455Y8210250D01*
X88967455Y1677000D01*
X71377000Y1677000D01*
X71377000Y5663943D01*
X72006525Y6293469D01*
X72006528Y6293471D01*
X72006529Y6293471D01*
X72391733Y6869971D01*
X72391734Y6869972D01*
X72527000Y7550000D01*
X72527000Y8218257D01*
X72742738Y8044475D01*
X73277400Y7887600D01*
X73633000Y7887600D01*
X73633000Y9183000D01*
X73613000Y9183000D01*
X73613000Y9435600D01*
X73907000Y9435600D01*
X73907000Y9183000D01*
X73887000Y9183000D01*
X73887000Y7887600D01*
X74242600Y7887600D01*
X74777262Y8044475D01*
X74829787Y8086786D01*
X74909973Y7893202D01*
X75088601Y7714573D01*
X75321990Y7617900D01*
X75574609Y7617900D01*
X76064250Y7617900D01*
X76223000Y7776650D01*
X76223000Y8888187D01*
X76477000Y8273459D01*
X76477000Y7776650D01*
X76635750Y7617900D01*
X76991071Y7617900D01*
X77230139Y7378415D01*
X78085100Y7023404D01*
X79010838Y7022597D01*
X79866418Y7376115D01*
X80521585Y8030139D01*
X80876596Y8885100D01*
X80877403Y9810838D01*
X80550961Y10600887D01*
X80876596Y11385100D01*
X80877403Y12310838D01*
X80550961Y13100887D01*
X80603050Y13226329D01*
X80746062Y13440361D01*
X80795842Y13690624D01*
X80858942Y13842587D01*
X80922196Y13689879D01*
X81379878Y13232196D01*
X81977869Y12984500D01*
X82625130Y12984500D01*
X84022130Y12984500D01*
X84620121Y13232196D01*
X84661235Y13273311D01*
X84849981Y13084236D01*
X85815165Y12683457D01*
X86860250Y12682545D01*
X87826132Y13081639D01*
X88565764Y13819981D01*
X88966543Y14785165D01*
X88967455Y15830250D01*
X88568361Y16796132D01*
X88365140Y16999708D01*
X88565764Y17199981D01*
X88966543Y18165165D01*
X88967455Y19210250D01*
X88568361Y20176132D01*
X87830019Y20915764D01*
X86864835Y21316543D01*
X85819750Y21317455D01*
X84853868Y20918361D01*
X84456948Y20522134D01*
X84319010Y20660313D01*
X83464600Y21015095D01*
X82539459Y21015903D01*
X81684431Y20662612D01*
X81029687Y20009010D01*
X80674905Y19154600D01*
X80674097Y18229459D01*
X81027388Y17374431D01*
X81196798Y17204725D01*
X80922196Y16930122D01*
X80674500Y16332131D01*
X80674500Y15684870D01*
X80674500Y15366740D01*
X80604297Y15471805D01*
X80523885Y15666418D01*
X80373805Y15816760D01*
X80230793Y16030793D01*
X80018630Y16172556D01*
X79869861Y16321585D01*
X79673671Y16403051D01*
X79459639Y16546062D01*
X79209376Y16595843D01*
X79014900Y16676596D01*
X78802467Y16676782D01*
X78550000Y16727000D01*
X77650005Y16727000D01*
X77650000Y16727001D01*
X76891280Y16576082D01*
X76740361Y16546062D01*
X75969207Y16030793D01*
X75940611Y16002198D01*
X75877107Y16097239D01*
X75093819Y16620615D01*
X74169868Y16804400D01*
X73350132Y16804400D01*
X72527000Y16640670D01*
X72527000Y19118257D01*
X72742738Y18944475D01*
X73277400Y18787600D01*
X73633000Y18787600D01*
X73633000Y20083000D01*
X73613000Y20083000D01*
X73613000Y20335600D01*
X73907000Y20335600D01*
X73907000Y20083000D01*
X73887000Y20083000D01*
X73887000Y18787600D01*
X74242600Y18787600D01*
X74750558Y18936641D01*
X74809973Y18793202D01*
X74988601Y18614573D01*
X75221990Y18517900D01*
X75474609Y18517900D01*
X75964250Y18517900D01*
X76123000Y18676650D01*
X76123000Y19826000D01*
X76103000Y19826000D01*
X76103000Y20080000D01*
X76123000Y20080000D01*
X76123000Y20100000D01*
X76222954Y20100000D01*
X76222597Y19689162D01*
X76377000Y19315478D01*
X76377000Y18676650D01*
X76535750Y18517900D01*
X76891246Y18517900D01*
X77230139Y18178415D01*
X78085100Y17823404D01*
X79010838Y17822597D01*
X79866418Y18176115D01*
X80521585Y18830139D01*
X80876596Y19685100D01*
X80877403Y20610838D01*
X80550961Y21400887D01*
X80876596Y22185100D01*
X80877403Y23110838D01*
X80550961Y23900887D01*
X80603050Y24026329D01*
X80746062Y24240361D01*
X80795842Y24490624D01*
X80876596Y24685100D01*
X80876695Y24799726D01*
X80922196Y24689879D01*
X81379878Y24232196D01*
X81977869Y23984500D01*
X82625130Y23984500D01*
X84022130Y23984500D01*
X84620121Y24232196D01*
X84661235Y24273311D01*
X84849981Y24084236D01*
X85815165Y23683457D01*
X86860250Y23682545D01*
X87826132Y24081639D01*
X88565764Y24819981D01*
X88966543Y25785165D01*
X88967455Y26830250D01*
X88568361Y27796132D01*
X88365140Y27999708D01*
X88565764Y28199981D01*
X88966543Y29165165D01*
X88967455Y30210250D01*
X88568361Y31176132D01*
X87830019Y31915764D01*
X86864835Y32316543D01*
X85819750Y32317455D01*
X84853868Y31918361D01*
X84456948Y31522134D01*
X84319010Y31660313D01*
X83464600Y32015095D01*
X82539459Y32015903D01*
X81684431Y31662612D01*
X81029687Y31009010D01*
X80976679Y30881355D01*
X80977403Y31710838D01*
X80650961Y32500887D01*
X80976596Y33285100D01*
X80977403Y34210838D01*
X80650961Y35000887D01*
X80703050Y35126329D01*
X80846062Y35340361D01*
X80895842Y35590624D01*
X80932696Y35679379D01*
X81379878Y35232196D01*
X81977869Y34984500D01*
X82625130Y34984500D01*
X84022130Y34984500D01*
X84620121Y35232196D01*
X84661235Y35273311D01*
X84849981Y35084236D01*
X85815165Y34683457D01*
X86860250Y34682545D01*
X87826132Y35081639D01*
X88565764Y35819981D01*
X88966543Y36785165D01*
X88967455Y37830250D01*
X88568361Y38796132D01*
X87830019Y39535764D01*
X87619931Y39623000D01*
X94957110Y39623000D01*
X94189510Y38856738D01*
X93773474Y37854814D01*
X93772528Y36769946D01*
X94186814Y35767297D01*
X94953262Y34999510D01*
X95955186Y34583474D01*
X97040054Y34582528D01*
X98042703Y34996814D01*
X98810490Y35763262D01*
X99226526Y36765186D01*
X99227472Y37850054D01*
X98813186Y38852703D01*
X98046738Y39620490D01*
X98040693Y39623000D01*
X102577110Y39623000D01*
X101809510Y38856738D01*
X101393474Y37854814D01*
X101392528Y36769946D01*
X101806814Y35767297D01*
X102573262Y34999510D01*
X103575186Y34583474D01*
X104660054Y34582528D01*
X105662703Y34996814D01*
X106430490Y35763262D01*
X106846526Y36765186D01*
X106847472Y37850054D01*
X106433186Y38852703D01*
X105666738Y39620490D01*
X105660693Y39623000D01*
X108877000Y39623000D01*
X108877000Y49697395D01*
X110802605Y51623000D01*
X130823000Y51623000D01*
X130823000Y7514065D01*
G36*
X35685512Y36310051D02*
X35479697Y36225010D01*
X35086371Y35832370D01*
X35000050Y35624488D01*
X34915010Y35830303D01*
X34522370Y36223629D01*
X34330272Y36303395D01*
X34461143Y36357603D01*
X34530608Y36599787D01*
X33730000Y37400395D01*
X33550395Y37220790D01*
X33550395Y37580000D01*
X32749787Y38380608D01*
X32507603Y38311143D01*
X32320856Y37787698D01*
X32348638Y37232632D01*
X32507603Y36848857D01*
X32749787Y36779392D01*
X33550395Y37580000D01*
X33550395Y37220790D01*
X32929392Y36599787D01*
X32998857Y36357603D01*
X33139317Y36307492D01*
X32939697Y36225010D01*
X32546371Y35832370D01*
X32333243Y35319100D01*
X32332758Y34763339D01*
X32544990Y34249697D01*
X32937630Y33856371D01*
X33145512Y33770051D01*
X32939697Y33685010D01*
X32546371Y33292370D01*
X32333243Y32779100D01*
X32332758Y32223339D01*
X32544990Y31709697D01*
X32937630Y31316371D01*
X33145512Y31230051D01*
X32939697Y31145010D01*
X32546371Y30752370D01*
X32333243Y30239100D01*
X32332758Y29683339D01*
X32544990Y29169697D01*
X32937630Y28776371D01*
X33145512Y28690051D01*
X32939697Y28605010D01*
X32546371Y28212370D01*
X32522548Y28155000D01*
X32284446Y28155000D01*
X32185000Y28254447D01*
X32185000Y45155554D01*
X32333089Y45303644D01*
X32332758Y44923339D01*
X32544990Y44409697D01*
X32937630Y44016371D01*
X33145512Y43930051D01*
X32939697Y43845010D01*
X32546371Y43452370D01*
X32333243Y42939100D01*
X32332758Y42383339D01*
X32544990Y41869697D01*
X32937630Y41476371D01*
X33145512Y41390051D01*
X32939697Y41305010D01*
X32546371Y40912370D01*
X32333243Y40399100D01*
X32332758Y39843339D01*
X32544990Y39329697D01*
X32937630Y38936371D01*
X33129727Y38856606D01*
X32998857Y38802397D01*
X32929392Y38560213D01*
X33730000Y37759605D01*
X34530608Y38560213D01*
X34461143Y38802397D01*
X34320682Y38852509D01*
X34520303Y38934990D01*
X34913629Y39327630D01*
X34999949Y39535513D01*
X35084990Y39329697D01*
X35477630Y38936371D01*
X35685512Y38850051D01*
X35479697Y38765010D01*
X35086371Y38372370D01*
X35006605Y38180273D01*
X34952397Y38311143D01*
X34710213Y38380608D01*
X33909605Y37580000D01*
X34710213Y36779392D01*
X34952397Y36848857D01*
X35002508Y36989318D01*
X35084990Y36789697D01*
X35477630Y36396371D01*
X35685512Y36310051D01*
X35685512Y36310051D01*
G37*
X35685512Y36310051D02*
X35479697Y36225010D01*
X35086371Y35832370D01*
X35000050Y35624488D01*
X34915010Y35830303D01*
X34522370Y36223629D01*
X34330272Y36303395D01*
X34461143Y36357603D01*
X34530608Y36599787D01*
X33730000Y37400395D01*
X33550395Y37220790D01*
X33550395Y37580000D01*
X32749787Y38380608D01*
X32507603Y38311143D01*
X32320856Y37787698D01*
X32348638Y37232632D01*
X32507603Y36848857D01*
X32749787Y36779392D01*
X33550395Y37580000D01*
X33550395Y37220790D01*
X32929392Y36599787D01*
X32998857Y36357603D01*
X33139317Y36307492D01*
X32939697Y36225010D01*
X32546371Y35832370D01*
X32333243Y35319100D01*
X32332758Y34763339D01*
X32544990Y34249697D01*
X32937630Y33856371D01*
X33145512Y33770051D01*
X32939697Y33685010D01*
X32546371Y33292370D01*
X32333243Y32779100D01*
X32332758Y32223339D01*
X32544990Y31709697D01*
X32937630Y31316371D01*
X33145512Y31230051D01*
X32939697Y31145010D01*
X32546371Y30752370D01*
X32333243Y30239100D01*
X32332758Y29683339D01*
X32544990Y29169697D01*
X32937630Y28776371D01*
X33145512Y28690051D01*
X32939697Y28605010D01*
X32546371Y28212370D01*
X32522548Y28155000D01*
X32284446Y28155000D01*
X32185000Y28254447D01*
X32185000Y45155554D01*
X32333089Y45303644D01*
X32332758Y44923339D01*
X32544990Y44409697D01*
X32937630Y44016371D01*
X33145512Y43930051D01*
X32939697Y43845010D01*
X32546371Y43452370D01*
X32333243Y42939100D01*
X32332758Y42383339D01*
X32544990Y41869697D01*
X32937630Y41476371D01*
X33145512Y41390051D01*
X32939697Y41305010D01*
X32546371Y40912370D01*
X32333243Y40399100D01*
X32332758Y39843339D01*
X32544990Y39329697D01*
X32937630Y38936371D01*
X33129727Y38856606D01*
X32998857Y38802397D01*
X32929392Y38560213D01*
X33730000Y37759605D01*
X34530608Y38560213D01*
X34461143Y38802397D01*
X34320682Y38852509D01*
X34520303Y38934990D01*
X34913629Y39327630D01*
X34999949Y39535513D01*
X35084990Y39329697D01*
X35477630Y38936371D01*
X35685512Y38850051D01*
X35479697Y38765010D01*
X35086371Y38372370D01*
X35006605Y38180273D01*
X34952397Y38311143D01*
X34710213Y38380608D01*
X33909605Y37580000D01*
X34710213Y36779392D01*
X34952397Y36848857D01*
X35002508Y36989318D01*
X35084990Y36789697D01*
X35477630Y36396371D01*
X35685512Y36310051D01*
G36*
X69365000Y18445158D02*
X69005079Y18805079D01*
X68750407Y18975245D01*
X68450000Y19035000D01*
X67282979Y19035000D01*
X67536222Y19204211D01*
X67844559Y19665671D01*
X67952833Y20210000D01*
X67844559Y20754329D01*
X67536222Y21215789D01*
X67141170Y21479754D01*
X67157262Y21484475D01*
X67591191Y21834014D01*
X67858327Y22323004D01*
X67875010Y22402940D01*
X67752852Y22623000D01*
X66267000Y22623000D01*
X66267000Y22603000D01*
X66013000Y22603000D01*
X66013000Y22623000D01*
X65993000Y22623000D01*
X65993000Y22877000D01*
X66013000Y22877000D01*
X66013000Y22897000D01*
X66267000Y22897000D01*
X66267000Y22877000D01*
X67752852Y22877000D01*
X67875010Y23097060D01*
X67858327Y23176996D01*
X67591191Y23665986D01*
X67340900Y23867600D01*
X67409309Y23867600D01*
X67642698Y23964273D01*
X67821327Y24142901D01*
X67918000Y24376290D01*
X67918000Y24628909D01*
X67918000Y26203709D01*
X67821327Y26437098D01*
X67642699Y26615727D01*
X67582100Y26640828D01*
X67582100Y26874609D01*
X67582100Y28665000D01*
X68524842Y28665000D01*
X69365000Y27824842D01*
X69365000Y18445158D01*
X69365000Y18445158D01*
G37*
X69365000Y18445158D02*
X69005079Y18805079D01*
X68750407Y18975245D01*
X68450000Y19035000D01*
X67282979Y19035000D01*
X67536222Y19204211D01*
X67844559Y19665671D01*
X67952833Y20210000D01*
X67844559Y20754329D01*
X67536222Y21215789D01*
X67141170Y21479754D01*
X67157262Y21484475D01*
X67591191Y21834014D01*
X67858327Y22323004D01*
X67875010Y22402940D01*
X67752852Y22623000D01*
X66267000Y22623000D01*
X66267000Y22603000D01*
X66013000Y22603000D01*
X66013000Y22623000D01*
X65993000Y22623000D01*
X65993000Y22877000D01*
X66013000Y22877000D01*
X66013000Y22897000D01*
X66267000Y22897000D01*
X66267000Y22877000D01*
X67752852Y22877000D01*
X67875010Y23097060D01*
X67858327Y23176996D01*
X67591191Y23665986D01*
X67340900Y23867600D01*
X67409309Y23867600D01*
X67642698Y23964273D01*
X67821327Y24142901D01*
X67918000Y24376290D01*
X67918000Y24628909D01*
X67918000Y26203709D01*
X67821327Y26437098D01*
X67642699Y26615727D01*
X67582100Y26640828D01*
X67582100Y26874609D01*
X67582100Y28665000D01*
X68524842Y28665000D01*
X69365000Y27824842D01*
X69365000Y18445158D01*
G36*
X69623000Y29787158D02*
X69405079Y30005079D01*
X69150407Y30175245D01*
X68850000Y30235000D01*
X67432640Y30235000D01*
X67536222Y30304211D01*
X67844559Y30765671D01*
X67952833Y31310000D01*
X67844559Y31854329D01*
X67536222Y32315789D01*
X67141170Y32579754D01*
X67157262Y32584475D01*
X67591191Y32934014D01*
X67858327Y33423004D01*
X67875010Y33502940D01*
X67752852Y33723000D01*
X66267000Y33723000D01*
X66267000Y33703000D01*
X66013000Y33703000D01*
X66013000Y33723000D01*
X65993000Y33723000D01*
X65993000Y33977000D01*
X66013000Y33977000D01*
X66013000Y33997000D01*
X66267000Y33997000D01*
X66267000Y33977000D01*
X67752852Y33977000D01*
X67875010Y34197060D01*
X67858327Y34276996D01*
X67591191Y34765986D01*
X67340900Y34967600D01*
X67409309Y34967600D01*
X67642698Y35064273D01*
X67821327Y35242901D01*
X67918000Y35476290D01*
X67918000Y35728909D01*
X67918000Y37303709D01*
X67821327Y37537098D01*
X67642699Y37715727D01*
X67582100Y37740828D01*
X67582100Y37974609D01*
X67582100Y39778009D01*
X67546067Y39865000D01*
X69623000Y39865000D01*
X69623000Y29787158D01*
X69623000Y29787158D01*
G37*
X69623000Y29787158D02*
X69405079Y30005079D01*
X69150407Y30175245D01*
X68850000Y30235000D01*
X67432640Y30235000D01*
X67536222Y30304211D01*
X67844559Y30765671D01*
X67952833Y31310000D01*
X67844559Y31854329D01*
X67536222Y32315789D01*
X67141170Y32579754D01*
X67157262Y32584475D01*
X67591191Y32934014D01*
X67858327Y33423004D01*
X67875010Y33502940D01*
X67752852Y33723000D01*
X66267000Y33723000D01*
X66267000Y33703000D01*
X66013000Y33703000D01*
X66013000Y33723000D01*
X65993000Y33723000D01*
X65993000Y33977000D01*
X66013000Y33977000D01*
X66013000Y33997000D01*
X66267000Y33997000D01*
X66267000Y33977000D01*
X67752852Y33977000D01*
X67875010Y34197060D01*
X67858327Y34276996D01*
X67591191Y34765986D01*
X67340900Y34967600D01*
X67409309Y34967600D01*
X67642698Y35064273D01*
X67821327Y35242901D01*
X67918000Y35476290D01*
X67918000Y35728909D01*
X67918000Y37303709D01*
X67821327Y37537098D01*
X67642699Y37715727D01*
X67582100Y37740828D01*
X67582100Y37974609D01*
X67582100Y39778009D01*
X67546067Y39865000D01*
X69623000Y39865000D01*
X69623000Y29787158D01*
G36*
X109623000Y53802605D02*
X107697395Y51877000D01*
X105493455Y51877000D01*
X105493455Y56041752D01*
X105269647Y56583411D01*
X104855591Y56998190D01*
X104314323Y57222944D01*
X103728248Y57223455D01*
X103186589Y56999647D01*
X102771810Y56585591D01*
X102750224Y56533609D01*
X102729647Y56583411D01*
X102315591Y56998190D01*
X101774323Y57222944D01*
X101188248Y57223455D01*
X100646589Y56999647D01*
X100231810Y56585591D01*
X100007056Y56044323D01*
X100006605Y55528186D01*
X96363420Y51885000D01*
X91866579Y51885000D01*
X94258571Y54276993D01*
X94771752Y54276545D01*
X95313411Y54500353D01*
X95728190Y54914409D01*
X95749775Y54966392D01*
X95770353Y54916589D01*
X96184409Y54501810D01*
X96725677Y54277056D01*
X97311752Y54276545D01*
X97853411Y54500353D01*
X98268190Y54914409D01*
X98492944Y55455677D01*
X98493455Y56041752D01*
X98269647Y56583411D01*
X97855591Y56998190D01*
X97314323Y57222944D01*
X96728248Y57223455D01*
X96186589Y56999647D01*
X95771810Y56585591D01*
X95750224Y56533609D01*
X95729647Y56583411D01*
X95315591Y56998190D01*
X94774323Y57222944D01*
X94188248Y57223455D01*
X93646589Y56999647D01*
X93231810Y56585591D01*
X93007056Y56044323D01*
X93006605Y55528186D01*
X90363420Y52885000D01*
X85866579Y52885000D01*
X87258571Y54276993D01*
X87771752Y54276545D01*
X88313411Y54500353D01*
X88728190Y54914409D01*
X88749775Y54966392D01*
X88770353Y54916589D01*
X89184409Y54501810D01*
X89725677Y54277056D01*
X90311752Y54276545D01*
X90853411Y54500353D01*
X91268190Y54914409D01*
X91492944Y55455677D01*
X91493455Y56041752D01*
X91269647Y56583411D01*
X90855591Y56998190D01*
X90314323Y57222944D01*
X89728248Y57223455D01*
X89186589Y56999647D01*
X88771810Y56585591D01*
X88750224Y56533609D01*
X88729647Y56583411D01*
X88315591Y56998190D01*
X87774323Y57222944D01*
X87188248Y57223455D01*
X86646589Y56999647D01*
X86231810Y56585591D01*
X86007056Y56044323D01*
X86006605Y55528186D01*
X84493455Y54015036D01*
X84493455Y56041752D01*
X84269647Y56583411D01*
X83855591Y56998190D01*
X83314323Y57222944D01*
X82728248Y57223455D01*
X82186589Y56999647D01*
X81771810Y56585591D01*
X81750224Y56533609D01*
X81729647Y56583411D01*
X81315591Y56998190D01*
X80774323Y57222944D01*
X80188248Y57223455D01*
X79646589Y56999647D01*
X79231810Y56585591D01*
X79007056Y56044323D01*
X79006545Y55458248D01*
X79230353Y54916589D01*
X79644409Y54501810D01*
X80185677Y54277056D01*
X80771752Y54276545D01*
X81313411Y54500353D01*
X81728190Y54914409D01*
X81749775Y54966392D01*
X81770353Y54916589D01*
X82184409Y54501810D01*
X82725677Y54277056D01*
X83311752Y54276545D01*
X83853411Y54500353D01*
X84268190Y54914409D01*
X84492944Y55455677D01*
X84493455Y56041752D01*
X84493455Y54015036D01*
X84363420Y53885000D01*
X77493455Y53885000D01*
X77493455Y56041752D01*
X77269647Y56583411D01*
X76855591Y56998190D01*
X76314323Y57222944D01*
X75728248Y57223455D01*
X75186589Y56999647D01*
X74771810Y56585591D01*
X74750224Y56533609D01*
X74729647Y56583411D01*
X74315591Y56998190D01*
X73774323Y57222944D01*
X73188248Y57223455D01*
X72646589Y56999647D01*
X72231810Y56585591D01*
X72007056Y56044323D01*
X72006545Y55458248D01*
X72230353Y54916589D01*
X72644409Y54501810D01*
X73185677Y54277056D01*
X73771752Y54276545D01*
X74313411Y54500353D01*
X74728190Y54914409D01*
X74749775Y54966392D01*
X74770353Y54916589D01*
X75184409Y54501810D01*
X75725677Y54277056D01*
X76311752Y54276545D01*
X76853411Y54500353D01*
X77268190Y54914409D01*
X77492944Y55455677D01*
X77493455Y56041752D01*
X77493455Y53885000D01*
X70343455Y53885000D01*
X70343455Y56041752D01*
X70119647Y56583411D01*
X69705591Y56998190D01*
X69164323Y57222944D01*
X68578248Y57223455D01*
X68036589Y56999647D01*
X67621810Y56585591D01*
X67600224Y56533609D01*
X67579647Y56583411D01*
X67165591Y56998190D01*
X66624323Y57222944D01*
X66038248Y57223455D01*
X65496589Y56999647D01*
X65081810Y56585591D01*
X64857056Y56044323D01*
X64856545Y55458248D01*
X65080353Y54916589D01*
X65494409Y54501810D01*
X66035677Y54277056D01*
X66621752Y54276545D01*
X67163411Y54500353D01*
X67578190Y54914409D01*
X67599775Y54966392D01*
X67620353Y54916589D01*
X68034409Y54501810D01*
X68575677Y54277056D01*
X69161752Y54276545D01*
X69703411Y54500353D01*
X70118190Y54914409D01*
X70342944Y55455677D01*
X70343455Y56041752D01*
X70343455Y53885000D01*
X62750005Y53885000D01*
X62750000Y53885001D01*
X62467515Y53828811D01*
X62411325Y53817633D01*
X62124210Y53625790D01*
X62124207Y53625787D01*
X58633420Y50135000D01*
X57682100Y50135000D01*
X57682100Y51121990D01*
X57682100Y51374609D01*
X57682100Y51864250D01*
X57682100Y52435750D01*
X57682100Y52925391D01*
X57682100Y53178010D01*
X57585427Y53411399D01*
X57406798Y53590027D01*
X57208425Y53672196D01*
X57305525Y53792738D01*
X57462400Y54327400D01*
X57462400Y54683000D01*
X57462400Y54937000D01*
X57462400Y55292600D01*
X57305525Y55827262D01*
X56955986Y56261191D01*
X56466996Y56528327D01*
X56387060Y56545010D01*
X56167000Y56422852D01*
X56167000Y54937000D01*
X57462400Y54937000D01*
X57462400Y54683000D01*
X56167000Y54683000D01*
X56167000Y54663000D01*
X55913000Y54663000D01*
X55913000Y54683000D01*
X55893000Y54683000D01*
X55893000Y54937000D01*
X55913000Y54937000D01*
X55913000Y56422852D01*
X55692940Y56545010D01*
X55613004Y56528327D01*
X55124014Y56261191D01*
X54774475Y55827262D01*
X54769753Y55811171D01*
X54505789Y56206222D01*
X54044329Y56514559D01*
X53500000Y56622833D01*
X52955671Y56514559D01*
X52494211Y56206222D01*
X52229999Y55810802D01*
X51965789Y56206222D01*
X51504329Y56514559D01*
X50960000Y56622833D01*
X50415671Y56514559D01*
X49954211Y56206222D01*
X49645874Y55744762D01*
X49537600Y55200433D01*
X49537600Y54419567D01*
X49645874Y53875238D01*
X49954211Y53413778D01*
X50415671Y53105441D01*
X50960000Y52997167D01*
X51504329Y53105441D01*
X51965789Y53413778D01*
X52068000Y53566748D01*
X52068000Y53298962D01*
X52017900Y53178010D01*
X52017900Y52925391D01*
X52017900Y51121991D01*
X52114573Y50888602D01*
X52293201Y50709973D01*
X52526590Y50613300D01*
X52779209Y50613300D01*
X54379409Y50613300D01*
X54612798Y50709973D01*
X54791427Y50888601D01*
X54850000Y51030009D01*
X54908573Y50888601D01*
X55087202Y50709973D01*
X55320591Y50613300D01*
X55961250Y50613300D01*
X56120000Y50772050D01*
X56120000Y52023000D01*
X56100000Y52023000D01*
X56100000Y52277000D01*
X56120000Y52277000D01*
X56120000Y52297000D01*
X56374000Y52297000D01*
X56374000Y52277000D01*
X57523350Y52277000D01*
X57682100Y52435750D01*
X57682100Y51864250D01*
X57523350Y52023000D01*
X56374000Y52023000D01*
X56374000Y50772050D01*
X56532750Y50613300D01*
X57173409Y50613300D01*
X57406798Y50709973D01*
X57585427Y50888601D01*
X57682100Y51121990D01*
X57682100Y50135000D01*
X56120000Y50135000D01*
X54000005Y50135000D01*
X54000000Y50135001D01*
X53717515Y50078811D01*
X53661325Y50067633D01*
X53374210Y49875790D01*
X53374207Y49875787D01*
X52874210Y49375790D01*
X52682367Y49088674D01*
X52614999Y48750000D01*
X52629584Y48676676D01*
X52494211Y48586222D01*
X52382400Y48418885D01*
X52382400Y48459309D01*
X52285727Y48692698D01*
X52107099Y48871327D01*
X51873710Y48968000D01*
X51621091Y48968000D01*
X50046291Y48968000D01*
X49812902Y48871327D01*
X49634273Y48692699D01*
X49537600Y48459310D01*
X49537600Y48206691D01*
X49537600Y45920691D01*
X49634273Y45687302D01*
X49812901Y45508673D01*
X50046290Y45412000D01*
X50298909Y45412000D01*
X51873709Y45412000D01*
X52107098Y45508673D01*
X52285727Y45687301D01*
X52382400Y45920690D01*
X52382400Y45961116D01*
X52494211Y45793778D01*
X52955671Y45485441D01*
X53500000Y45377167D01*
X54044329Y45485441D01*
X54505789Y45793778D01*
X54770000Y46189199D01*
X55034211Y45793778D01*
X55495671Y45485441D01*
X56040000Y45377167D01*
X56584329Y45485441D01*
X57045789Y45793778D01*
X57354126Y46255238D01*
X57462400Y46799567D01*
X57462400Y47580433D01*
X57354126Y48124762D01*
X57193604Y48365000D01*
X58887874Y48365000D01*
X58864999Y48250000D01*
X58865000Y48249995D01*
X58865000Y32616580D01*
X58133420Y31885000D01*
X57782100Y31885000D01*
X57782100Y33221990D01*
X57782100Y33474609D01*
X57782100Y33964250D01*
X57782100Y34535750D01*
X57782100Y35025391D01*
X57782100Y35278010D01*
X57685427Y35511399D01*
X57506798Y35690027D01*
X57293843Y35778236D01*
X57305525Y35792738D01*
X57462400Y36327400D01*
X57462400Y36683000D01*
X57462400Y36937000D01*
X57462400Y37292600D01*
X57305525Y37827262D01*
X56955986Y38261191D01*
X56466996Y38528327D01*
X56387060Y38545010D01*
X56167000Y38422852D01*
X56167000Y36937000D01*
X57462400Y36937000D01*
X57462400Y36683000D01*
X56167000Y36683000D01*
X56167000Y36663000D01*
X55913000Y36663000D01*
X55913000Y36683000D01*
X55893000Y36683000D01*
X55893000Y36937000D01*
X55913000Y36937000D01*
X55913000Y38422852D01*
X55692940Y38545010D01*
X55613004Y38528327D01*
X55124014Y38261191D01*
X54774475Y37827262D01*
X54769753Y37811171D01*
X54505789Y38206222D01*
X54044329Y38514559D01*
X53500000Y38622833D01*
X52955671Y38514559D01*
X52494211Y38206222D01*
X52229999Y37810802D01*
X51965789Y38206222D01*
X51504329Y38514559D01*
X50960000Y38622833D01*
X50415671Y38514559D01*
X49954211Y38206222D01*
X49645874Y37744762D01*
X49537600Y37200433D01*
X49537600Y36419567D01*
X49645874Y35875238D01*
X49954211Y35413778D01*
X50415671Y35105441D01*
X50960000Y34997167D01*
X51504329Y35105441D01*
X51965789Y35413778D01*
X52115000Y35637089D01*
X52115000Y34303000D01*
X52117900Y34288421D01*
X52117900Y33221991D01*
X52214573Y32988602D01*
X52393201Y32809973D01*
X52626590Y32713300D01*
X52879209Y32713300D01*
X54479409Y32713300D01*
X54712798Y32809973D01*
X54891427Y32988601D01*
X54950000Y33130009D01*
X55008573Y32988601D01*
X55187202Y32809973D01*
X55420591Y32713300D01*
X56061250Y32713300D01*
X56220000Y32872050D01*
X56220000Y34123000D01*
X56200000Y34123000D01*
X56200000Y34377000D01*
X56220000Y34377000D01*
X56220000Y34397000D01*
X56474000Y34397000D01*
X56474000Y34377000D01*
X57623350Y34377000D01*
X57782100Y34535750D01*
X57782100Y33964250D01*
X57623350Y34123000D01*
X56474000Y34123000D01*
X56474000Y32872050D01*
X56632750Y32713300D01*
X57273409Y32713300D01*
X57506798Y32809973D01*
X57685427Y32988601D01*
X57782100Y33221990D01*
X57782100Y31885000D01*
X54000005Y31885000D01*
X54000000Y31885001D01*
X53717515Y31828811D01*
X53661325Y31817633D01*
X53374210Y31625790D01*
X53374207Y31625787D01*
X52874210Y31125790D01*
X52682367Y30838675D01*
X52671189Y30782485D01*
X52653294Y30692518D01*
X52494211Y30586222D01*
X52382400Y30418885D01*
X52382400Y30459309D01*
X52285727Y30692698D01*
X52107099Y30871327D01*
X51873710Y30968000D01*
X51621091Y30968000D01*
X50046291Y30968000D01*
X49812902Y30871327D01*
X49634273Y30692699D01*
X49537600Y30459310D01*
X49537600Y30206691D01*
X49537600Y27920691D01*
X49634273Y27687302D01*
X49812901Y27508673D01*
X50046290Y27412000D01*
X50298909Y27412000D01*
X51873709Y27412000D01*
X52107098Y27508673D01*
X52285727Y27687301D01*
X52382400Y27920690D01*
X52382400Y27961116D01*
X52494211Y27793778D01*
X52955671Y27485441D01*
X53500000Y27377167D01*
X54044329Y27485441D01*
X54505789Y27793778D01*
X54770000Y28189199D01*
X55034211Y27793778D01*
X55495671Y27485441D01*
X56040000Y27377167D01*
X56584329Y27485441D01*
X57045789Y27793778D01*
X57354126Y28255238D01*
X57462400Y28799567D01*
X57462400Y29580433D01*
X57356067Y30115000D01*
X58499994Y30115000D01*
X58500000Y30114999D01*
X58500000Y30115000D01*
X58782484Y30171190D01*
X58838674Y30182367D01*
X58838675Y30182367D01*
X59125790Y30374210D01*
X59865000Y31113421D01*
X59865000Y14866580D01*
X58883420Y13885000D01*
X57782100Y13885000D01*
X57782100Y15221990D01*
X57782100Y15474609D01*
X57782100Y15964250D01*
X57782100Y16535750D01*
X57782100Y17025391D01*
X57782100Y17278010D01*
X57685427Y17511399D01*
X57506798Y17690027D01*
X57293843Y17778236D01*
X57305525Y17792738D01*
X57462400Y18327400D01*
X57462400Y18683000D01*
X57462400Y18937000D01*
X57462400Y19292600D01*
X57305525Y19827262D01*
X56955986Y20261191D01*
X56466996Y20528327D01*
X56387060Y20545010D01*
X56167000Y20422852D01*
X56167000Y18937000D01*
X57462400Y18937000D01*
X57462400Y18683000D01*
X56167000Y18683000D01*
X56167000Y18663000D01*
X55913000Y18663000D01*
X55913000Y18683000D01*
X55893000Y18683000D01*
X55893000Y18937000D01*
X55913000Y18937000D01*
X55913000Y20422852D01*
X55692940Y20545010D01*
X55613004Y20528327D01*
X55124014Y20261191D01*
X54774475Y19827262D01*
X54769753Y19811171D01*
X54505789Y20206222D01*
X54044329Y20514559D01*
X53500000Y20622833D01*
X52955671Y20514559D01*
X52494211Y20206222D01*
X52229999Y19810802D01*
X51965789Y20206222D01*
X51504329Y20514559D01*
X50960000Y20622833D01*
X50415671Y20514559D01*
X49954211Y20206222D01*
X49645874Y19744762D01*
X49537600Y19200433D01*
X49537600Y18419567D01*
X49645874Y17875238D01*
X49954211Y17413778D01*
X50415671Y17105441D01*
X50960000Y16997167D01*
X51504329Y17105441D01*
X51965789Y17413778D01*
X52115000Y17637089D01*
X52115000Y16303000D01*
X52117900Y16288421D01*
X52117900Y15221991D01*
X52214573Y14988602D01*
X52393201Y14809973D01*
X52626590Y14713300D01*
X52879209Y14713300D01*
X54479409Y14713300D01*
X54712798Y14809973D01*
X54891427Y14988601D01*
X54950000Y15130009D01*
X55008573Y14988601D01*
X55187202Y14809973D01*
X55420591Y14713300D01*
X56061250Y14713300D01*
X56220000Y14872050D01*
X56220000Y16123000D01*
X56200000Y16123000D01*
X56200000Y16377000D01*
X56220000Y16377000D01*
X56220000Y16397000D01*
X56474000Y16397000D01*
X56474000Y16377000D01*
X57623350Y16377000D01*
X57782100Y16535750D01*
X57782100Y15964250D01*
X57623350Y16123000D01*
X56474000Y16123000D01*
X56474000Y14872050D01*
X56632750Y14713300D01*
X57273409Y14713300D01*
X57506798Y14809973D01*
X57685427Y14988601D01*
X57782100Y15221990D01*
X57782100Y13885000D01*
X54000005Y13885000D01*
X54000000Y13885001D01*
X53717515Y13828811D01*
X53661325Y13817633D01*
X53374210Y13625790D01*
X53374207Y13625787D01*
X52874210Y13125790D01*
X52682367Y12838675D01*
X52671189Y12782485D01*
X52653294Y12692518D01*
X52494211Y12586222D01*
X52382400Y12418885D01*
X52382400Y12459309D01*
X52285727Y12692698D01*
X52107099Y12871327D01*
X51873710Y12968000D01*
X51621091Y12968000D01*
X50046291Y12968000D01*
X49812902Y12871327D01*
X49634273Y12692699D01*
X49537600Y12459310D01*
X49537600Y12206691D01*
X49537600Y9920691D01*
X49634273Y9687302D01*
X49812901Y9508673D01*
X50046290Y9412000D01*
X50298909Y9412000D01*
X51873709Y9412000D01*
X52107098Y9508673D01*
X52285727Y9687301D01*
X52382400Y9920690D01*
X52382400Y9961116D01*
X52494211Y9793778D01*
X52955671Y9485441D01*
X53500000Y9377167D01*
X54044329Y9485441D01*
X54505789Y9793778D01*
X54770000Y10189199D01*
X55034211Y9793778D01*
X55495671Y9485441D01*
X56040000Y9377167D01*
X56584329Y9485441D01*
X57045789Y9793778D01*
X57354126Y10255238D01*
X57462400Y10799567D01*
X57462400Y11580433D01*
X57356067Y12115000D01*
X59249994Y12115000D01*
X59250000Y12114999D01*
X59250000Y12115000D01*
X59532484Y12171190D01*
X59588674Y12182367D01*
X59588675Y12182367D01*
X59875790Y12374210D01*
X61375786Y13874208D01*
X61375789Y13874210D01*
X61375790Y13874210D01*
X61567633Y14161325D01*
X61635000Y14500000D01*
X61635000Y47383421D01*
X64366579Y50115000D01*
X96729994Y50115000D01*
X96730000Y50114999D01*
X96730000Y50115000D01*
X97012484Y50171190D01*
X97068674Y50182367D01*
X97068675Y50182367D01*
X97355790Y50374210D01*
X101258571Y54276993D01*
X101771752Y54276545D01*
X102313411Y54500353D01*
X102728190Y54914409D01*
X102749775Y54966392D01*
X102770353Y54916589D01*
X103184409Y54501810D01*
X103725677Y54277056D01*
X104311752Y54276545D01*
X104853411Y54500353D01*
X105268190Y54914409D01*
X105492944Y55455677D01*
X105493455Y56041752D01*
X105493455Y51877000D01*
X99623000Y51877000D01*
X99623000Y41877000D01*
X87507242Y41877000D01*
X87507242Y47686661D01*
X87295010Y48200303D01*
X86902370Y48593629D01*
X86389100Y48806757D01*
X85833339Y48807242D01*
X85319697Y48595010D01*
X84926371Y48202370D01*
X84840050Y47994488D01*
X84755010Y48200303D01*
X84362370Y48593629D01*
X83849100Y48806757D01*
X83293339Y48807242D01*
X82779697Y48595010D01*
X82427000Y48242929D01*
X82427000Y48298310D01*
X82330327Y48531699D01*
X82151698Y48710327D01*
X81918309Y48807000D01*
X81315750Y48807000D01*
X81157000Y48648250D01*
X81157000Y47537000D01*
X81177000Y47537000D01*
X81177000Y47283000D01*
X81157000Y47283000D01*
X81157000Y46171750D01*
X81315750Y46013000D01*
X81918309Y46013000D01*
X82151698Y46109673D01*
X82330327Y46288301D01*
X82427000Y46521690D01*
X82427000Y46577614D01*
X82777630Y46226371D01*
X83290900Y46013243D01*
X83846661Y46012758D01*
X84360303Y46224990D01*
X84753629Y46617630D01*
X84839949Y46825513D01*
X84924990Y46619697D01*
X85317630Y46226371D01*
X85830900Y46013243D01*
X86386661Y46012758D01*
X86900303Y46224990D01*
X87293629Y46617630D01*
X87506757Y47130900D01*
X87507242Y47686661D01*
X87507242Y41877000D01*
X80903000Y41877000D01*
X80903000Y46171750D01*
X80903000Y47283000D01*
X80883000Y47283000D01*
X80883000Y47537000D01*
X80903000Y47537000D01*
X80903000Y48648250D01*
X80744250Y48807000D01*
X80141691Y48807000D01*
X79908302Y48710327D01*
X79729673Y48531699D01*
X79633000Y48298310D01*
X79633000Y48242387D01*
X79282370Y48593629D01*
X78769100Y48806757D01*
X78213339Y48807242D01*
X77699697Y48595010D01*
X77306371Y48202370D01*
X77220050Y47994488D01*
X77135010Y48200303D01*
X76742370Y48593629D01*
X76229100Y48806757D01*
X75673339Y48807242D01*
X75159697Y48595010D01*
X74807000Y48242929D01*
X74807000Y48298310D01*
X74710327Y48531699D01*
X74531698Y48710327D01*
X74298309Y48807000D01*
X73695750Y48807000D01*
X73537000Y48648250D01*
X73537000Y47537000D01*
X73557000Y47537000D01*
X73557000Y47283000D01*
X73537000Y47283000D01*
X73537000Y46171750D01*
X73695750Y46013000D01*
X74298309Y46013000D01*
X74531698Y46109673D01*
X74710327Y46288301D01*
X74807000Y46521690D01*
X74807000Y46577614D01*
X75157630Y46226371D01*
X75670900Y46013243D01*
X76226661Y46012758D01*
X76740303Y46224990D01*
X77133629Y46617630D01*
X77219949Y46825513D01*
X77304990Y46619697D01*
X77697630Y46226371D01*
X78210900Y46013243D01*
X78766661Y46012758D01*
X79280303Y46224990D01*
X79633000Y46577072D01*
X79633000Y46521690D01*
X79729673Y46288301D01*
X79908302Y46109673D01*
X80141691Y46013000D01*
X80744250Y46013000D01*
X80903000Y46171750D01*
X80903000Y41877000D01*
X73283000Y41877000D01*
X73283000Y46171750D01*
X73283000Y47283000D01*
X73263000Y47283000D01*
X73263000Y47537000D01*
X73283000Y47537000D01*
X73283000Y48648250D01*
X73124250Y48807000D01*
X72521691Y48807000D01*
X72288302Y48710327D01*
X72109673Y48531699D01*
X72013000Y48298310D01*
X72013000Y48242387D01*
X71662370Y48593629D01*
X71149100Y48806757D01*
X70593339Y48807242D01*
X70079697Y48595010D01*
X69686371Y48202370D01*
X69600050Y47994488D01*
X69515010Y48200303D01*
X69122370Y48593629D01*
X68609100Y48806757D01*
X68053339Y48807242D01*
X67539697Y48595010D01*
X67187000Y48242929D01*
X67187000Y48298310D01*
X67090327Y48531699D01*
X66911698Y48710327D01*
X66678309Y48807000D01*
X66075750Y48807000D01*
X65917000Y48648250D01*
X65917000Y47537000D01*
X65937000Y47537000D01*
X65937000Y47283000D01*
X65917000Y47283000D01*
X65917000Y46171750D01*
X66075750Y46013000D01*
X66678309Y46013000D01*
X66911698Y46109673D01*
X67090327Y46288301D01*
X67187000Y46521690D01*
X67187000Y46577614D01*
X67537630Y46226371D01*
X68050900Y46013243D01*
X68606661Y46012758D01*
X69120303Y46224990D01*
X69513629Y46617630D01*
X69599949Y46825513D01*
X69684990Y46619697D01*
X70077630Y46226371D01*
X70590900Y46013243D01*
X71146661Y46012758D01*
X71660303Y46224990D01*
X72013000Y46577072D01*
X72013000Y46521690D01*
X72109673Y46288301D01*
X72288302Y46109673D01*
X72521691Y46013000D01*
X73124250Y46013000D01*
X73283000Y46171750D01*
X73283000Y41877000D01*
X69623000Y41877000D01*
X69623000Y41435000D01*
X65663000Y41435000D01*
X65663000Y46171750D01*
X65663000Y47283000D01*
X65663000Y47537000D01*
X65663000Y48648250D01*
X65504250Y48807000D01*
X64901691Y48807000D01*
X64668302Y48710327D01*
X64489673Y48531699D01*
X64393000Y48298310D01*
X64393000Y48045691D01*
X64393000Y47695750D01*
X64551750Y47537000D01*
X65663000Y47537000D01*
X65663000Y47283000D01*
X64551750Y47283000D01*
X64393000Y47124250D01*
X64393000Y46774309D01*
X64393000Y46521690D01*
X64489673Y46288301D01*
X64668302Y46109673D01*
X64901691Y46013000D01*
X65504250Y46013000D01*
X65663000Y46171750D01*
X65663000Y41435000D01*
X64311399Y41435000D01*
X64050485Y41696371D01*
X63596734Y41884785D01*
X63105421Y41885214D01*
X62651343Y41697592D01*
X62303629Y41350485D01*
X62115215Y40896734D01*
X62114786Y40405421D01*
X62202238Y40193771D01*
X62193202Y40190027D01*
X62014573Y40011399D01*
X61917900Y39778010D01*
X61917900Y39525391D01*
X61917900Y37721991D01*
X62008504Y37503254D01*
X61913300Y37273410D01*
X61913300Y37020791D01*
X61913300Y35420591D01*
X62009973Y35187202D01*
X62188601Y35008573D01*
X62330008Y34950000D01*
X62188601Y34891427D01*
X62009973Y34712798D01*
X61913300Y34479409D01*
X61913300Y33838750D01*
X62072050Y33680000D01*
X63323000Y33680000D01*
X63323000Y33700000D01*
X63577000Y33700000D01*
X63577000Y33680000D01*
X63597000Y33680000D01*
X63597000Y33426000D01*
X63577000Y33426000D01*
X63577000Y32276650D01*
X63735750Y32117900D01*
X64225391Y32117900D01*
X64478010Y32117900D01*
X64662657Y32194384D01*
X64435441Y31854329D01*
X64327167Y31310000D01*
X64435441Y30765671D01*
X64743778Y30304211D01*
X64847359Y30235000D01*
X64311399Y30235000D01*
X64050485Y30496371D01*
X63596734Y30684785D01*
X63323000Y30685025D01*
X63323000Y32276650D01*
X63323000Y33426000D01*
X62072050Y33426000D01*
X61913300Y33267250D01*
X61913300Y32626591D01*
X62009973Y32393202D01*
X62188601Y32214573D01*
X62421990Y32117900D01*
X62674609Y32117900D01*
X63164250Y32117900D01*
X63323000Y32276650D01*
X63323000Y30685025D01*
X63105421Y30685214D01*
X62651343Y30497592D01*
X62303629Y30150485D01*
X62115215Y29696734D01*
X62114786Y29205421D01*
X62171452Y29068278D01*
X62014573Y28911399D01*
X61917900Y28678010D01*
X61917900Y28425391D01*
X61917900Y26621991D01*
X62014573Y26388602D01*
X62076701Y26326474D01*
X62013300Y26173410D01*
X62013300Y25920791D01*
X62013300Y24320591D01*
X62109973Y24087202D01*
X62288601Y23908573D01*
X62430008Y23850000D01*
X62288601Y23791427D01*
X62109973Y23612798D01*
X62013300Y23379409D01*
X62013300Y22738750D01*
X62172050Y22580000D01*
X63423000Y22580000D01*
X63423000Y22600000D01*
X63677000Y22600000D01*
X63677000Y22580000D01*
X63697000Y22580000D01*
X63697000Y22326000D01*
X63677000Y22326000D01*
X63677000Y21176650D01*
X63835750Y21017900D01*
X64325391Y21017900D01*
X64578010Y21017900D01*
X64624389Y21037112D01*
X64435441Y20754329D01*
X64327167Y20210000D01*
X64435441Y19665671D01*
X64743778Y19204211D01*
X64997020Y19035000D01*
X64517481Y19035000D01*
X64303485Y19249371D01*
X63849734Y19437785D01*
X63423000Y19438158D01*
X63423000Y21176650D01*
X63423000Y22326000D01*
X62172050Y22326000D01*
X62013300Y22167250D01*
X62013300Y21526591D01*
X62109973Y21293202D01*
X62288601Y21114573D01*
X62521990Y21017900D01*
X62774609Y21017900D01*
X63264250Y21017900D01*
X63423000Y21176650D01*
X63423000Y19438158D01*
X63358421Y19438214D01*
X62904343Y19250592D01*
X62556629Y18903485D01*
X62368215Y18449734D01*
X62367786Y17958421D01*
X62395214Y17892040D01*
X62264573Y17761399D01*
X62167900Y17528010D01*
X62167900Y17275391D01*
X62167900Y15564726D01*
X62109973Y15506799D01*
X62013300Y15273410D01*
X62013300Y15020791D01*
X62013300Y13420591D01*
X62109973Y13187202D01*
X62288601Y13008573D01*
X62430008Y12950000D01*
X62288601Y12891427D01*
X62109973Y12712798D01*
X62013300Y12479409D01*
X62013300Y11838750D01*
X62172050Y11680000D01*
X63423000Y11680000D01*
X63423000Y11700000D01*
X63677000Y11700000D01*
X63677000Y11680000D01*
X63697000Y11680000D01*
X63697000Y11426000D01*
X63677000Y11426000D01*
X63677000Y10276650D01*
X63835750Y10117900D01*
X64325391Y10117900D01*
X64578010Y10117900D01*
X64624389Y10137112D01*
X64435441Y9854329D01*
X64327167Y9310000D01*
X64435441Y8765671D01*
X64743778Y8304211D01*
X65205238Y7995874D01*
X65749567Y7887600D01*
X66530433Y7887600D01*
X67074762Y7995874D01*
X67536222Y8304211D01*
X67844559Y8765671D01*
X67952833Y9310000D01*
X67844559Y9854329D01*
X67536222Y10315789D01*
X67141170Y10579754D01*
X67157262Y10584475D01*
X67591191Y10934014D01*
X67858327Y11423004D01*
X67875010Y11502940D01*
X67752852Y11723000D01*
X66267000Y11723000D01*
X66267000Y11703000D01*
X66013000Y11703000D01*
X66013000Y11723000D01*
X65993000Y11723000D01*
X65993000Y11977000D01*
X66013000Y11977000D01*
X66013000Y11997000D01*
X66267000Y11997000D01*
X66267000Y11977000D01*
X67752852Y11977000D01*
X67875010Y12197060D01*
X67858327Y12276996D01*
X67591191Y12765986D01*
X67340900Y12967600D01*
X67409309Y12967600D01*
X67642698Y13064273D01*
X67821327Y13242901D01*
X67918000Y13476290D01*
X67918000Y13728909D01*
X67918000Y15303709D01*
X67832100Y15511090D01*
X67832100Y15724609D01*
X67832100Y17465000D01*
X68124842Y17465000D01*
X68765000Y16824842D01*
X68765000Y8575158D01*
X63624842Y3435000D01*
X63423000Y3435000D01*
X63423000Y10276650D01*
X63423000Y11426000D01*
X62172050Y11426000D01*
X62013300Y11267250D01*
X62013300Y10626591D01*
X62109973Y10393202D01*
X62288601Y10214573D01*
X62521990Y10117900D01*
X62774609Y10117900D01*
X63264250Y10117900D01*
X63423000Y10276650D01*
X63423000Y3435000D01*
X47335231Y3435000D01*
X47335231Y8264383D01*
X47132418Y8755229D01*
X46757204Y9131098D01*
X46470757Y9250042D01*
X46755229Y9367582D01*
X47131098Y9742796D01*
X47334768Y10233287D01*
X47335231Y10764383D01*
X47132418Y11255229D01*
X46757204Y11631098D01*
X46470757Y11750042D01*
X46755229Y11867582D01*
X47131098Y12242796D01*
X47334768Y12733287D01*
X47335231Y13264383D01*
X47132418Y13755229D01*
X46757204Y14131098D01*
X46266713Y14334768D01*
X45735617Y14335231D01*
X45244771Y14132418D01*
X44868902Y13757204D01*
X44665232Y13266713D01*
X44664769Y12735617D01*
X44867582Y12244771D01*
X45242796Y11868902D01*
X45529242Y11749959D01*
X45244771Y11632418D01*
X44868902Y11257204D01*
X44665232Y10766713D01*
X44664769Y10235617D01*
X44867582Y9744771D01*
X45242796Y9368902D01*
X45529242Y9249959D01*
X45244771Y9132418D01*
X44868902Y8757204D01*
X44665232Y8266713D01*
X44664769Y7735617D01*
X44867582Y7244771D01*
X45242796Y6868902D01*
X45733287Y6665232D01*
X46264383Y6664769D01*
X46755229Y6867582D01*
X47131098Y7242796D01*
X47334768Y7733287D01*
X47335231Y8264383D01*
X47335231Y3435000D01*
X41558636Y3435000D01*
X40835000Y4158636D01*
X40835000Y11150000D01*
X40775245Y11450406D01*
X40775245Y11450407D01*
X40605079Y11705079D01*
X38305079Y14005079D01*
X38050407Y14175245D01*
X37750000Y14235000D01*
X37679144Y14235000D01*
X37679144Y24672302D01*
X37679144Y32292302D01*
X37679144Y42452302D01*
X37651362Y43007368D01*
X37492397Y43391143D01*
X37250213Y43460608D01*
X36449605Y42660000D01*
X37250213Y41859392D01*
X37492397Y41928857D01*
X37679144Y42452302D01*
X37679144Y32292302D01*
X37651362Y32847368D01*
X37492397Y33231143D01*
X37250213Y33300608D01*
X36449605Y32500000D01*
X37250213Y31699392D01*
X37492397Y31768857D01*
X37679144Y32292302D01*
X37679144Y24672302D01*
X37651362Y25227368D01*
X37492397Y25611143D01*
X37250213Y25680608D01*
X36449605Y24880000D01*
X37250213Y24079392D01*
X37492397Y24148857D01*
X37679144Y24672302D01*
X37679144Y14235000D01*
X34530608Y14235000D01*
X33229160Y14235000D01*
X32835000Y14629160D01*
X32835000Y16185392D01*
X32929392Y16279785D01*
X32998857Y16037603D01*
X33522302Y15850856D01*
X34077368Y15878638D01*
X34461143Y16037603D01*
X34530608Y16279787D01*
X33730000Y17080395D01*
X33715857Y17066253D01*
X33536252Y17245858D01*
X33550395Y17260000D01*
X33536252Y17274143D01*
X33715857Y17453748D01*
X33730000Y17439605D01*
X34530608Y18240213D01*
X34461143Y18482397D01*
X34320682Y18532509D01*
X34520303Y18614990D01*
X34913629Y19007630D01*
X34999949Y19215513D01*
X35084990Y19009697D01*
X35477630Y18616371D01*
X35685512Y18530051D01*
X35479697Y18445010D01*
X35086371Y18052370D01*
X35006605Y17860273D01*
X34952397Y17991143D01*
X34710213Y18060608D01*
X33909605Y17260000D01*
X34710213Y16459392D01*
X34952397Y16528857D01*
X35002508Y16669318D01*
X35084990Y16469697D01*
X35477630Y16076371D01*
X35990900Y15863243D01*
X36546661Y15862758D01*
X37060303Y16074990D01*
X37453629Y16467630D01*
X37666757Y16980900D01*
X37667242Y17536661D01*
X37455010Y18050303D01*
X37062370Y18443629D01*
X36854487Y18529950D01*
X37060303Y18614990D01*
X37453629Y19007630D01*
X37666757Y19520900D01*
X37667242Y20076661D01*
X37455010Y20590303D01*
X37062370Y20983629D01*
X36854487Y21069950D01*
X37060303Y21154990D01*
X37453629Y21547630D01*
X37666757Y22060900D01*
X37667242Y22616661D01*
X37455010Y23130303D01*
X37062370Y23523629D01*
X36870272Y23603395D01*
X37001143Y23657603D01*
X37070608Y23899787D01*
X36270000Y24700395D01*
X35469392Y23899787D01*
X35538857Y23657603D01*
X35679317Y23607492D01*
X35479697Y23525010D01*
X35086371Y23132370D01*
X35000050Y22924488D01*
X34915010Y23130303D01*
X34522370Y23523629D01*
X34314487Y23609950D01*
X34520303Y23694990D01*
X34913629Y24087630D01*
X34993394Y24279728D01*
X35047603Y24148857D01*
X35289787Y24079392D01*
X36090395Y24880000D01*
X35289787Y25680608D01*
X35047603Y25611143D01*
X34997491Y25470683D01*
X34915010Y25670303D01*
X34522370Y26063629D01*
X34314487Y26149950D01*
X34520303Y26234990D01*
X34913629Y26627630D01*
X34999949Y26835513D01*
X35084990Y26629697D01*
X35477630Y26236371D01*
X35669727Y26156606D01*
X35538857Y26102397D01*
X35469392Y25860213D01*
X36270000Y25059605D01*
X37070608Y25860213D01*
X37001143Y26102397D01*
X36860682Y26152509D01*
X37060303Y26234990D01*
X37453629Y26627630D01*
X37666757Y27140900D01*
X37667242Y27696661D01*
X37455010Y28210303D01*
X37062370Y28603629D01*
X36854487Y28689950D01*
X37060303Y28774990D01*
X37453629Y29167630D01*
X37666757Y29680900D01*
X37667242Y30236661D01*
X37455010Y30750303D01*
X37062370Y31143629D01*
X36870272Y31223395D01*
X37001143Y31277603D01*
X37070608Y31519787D01*
X36270000Y32320395D01*
X35469392Y31519787D01*
X35538857Y31277603D01*
X35679317Y31227492D01*
X35479697Y31145010D01*
X35086371Y30752370D01*
X35000050Y30544488D01*
X34915010Y30750303D01*
X34522370Y31143629D01*
X34314487Y31229950D01*
X34520303Y31314990D01*
X34913629Y31707630D01*
X34993394Y31899728D01*
X35047603Y31768857D01*
X35289787Y31699392D01*
X36090395Y32500000D01*
X35289787Y33300608D01*
X35047603Y33231143D01*
X34997491Y33090683D01*
X34915010Y33290303D01*
X34522370Y33683629D01*
X34314487Y33769950D01*
X34520303Y33854990D01*
X34913629Y34247630D01*
X34999949Y34455513D01*
X35084990Y34249697D01*
X35477630Y33856371D01*
X35669727Y33776606D01*
X35538857Y33722397D01*
X35469392Y33480213D01*
X36270000Y32679605D01*
X37070608Y33480213D01*
X37001143Y33722397D01*
X36860682Y33772509D01*
X37060303Y33854990D01*
X37453629Y34247630D01*
X37666757Y34760900D01*
X37667242Y35316661D01*
X37455010Y35830303D01*
X37062370Y36223629D01*
X36854487Y36309950D01*
X37060303Y36394990D01*
X37453629Y36787630D01*
X37666757Y37300900D01*
X37667242Y37856661D01*
X37455010Y38370303D01*
X37062370Y38763629D01*
X36854487Y38849950D01*
X37060303Y38934990D01*
X37453629Y39327630D01*
X37666757Y39840900D01*
X37667242Y40396661D01*
X37455010Y40910303D01*
X37062370Y41303629D01*
X36870272Y41383395D01*
X37001143Y41437603D01*
X37070608Y41679787D01*
X36270000Y42480395D01*
X35469392Y41679787D01*
X35538857Y41437603D01*
X35679317Y41387492D01*
X35479697Y41305010D01*
X35086371Y40912370D01*
X35000050Y40704488D01*
X34915010Y40910303D01*
X34522370Y41303629D01*
X34314487Y41389950D01*
X34520303Y41474990D01*
X34913629Y41867630D01*
X34993394Y42059728D01*
X35047603Y41928857D01*
X35289787Y41859392D01*
X36090395Y42660000D01*
X35289787Y43460608D01*
X35047603Y43391143D01*
X34997491Y43250683D01*
X34915010Y43450303D01*
X34522370Y43843629D01*
X34314487Y43929950D01*
X34520303Y44014990D01*
X34913629Y44407630D01*
X34999949Y44615513D01*
X35084990Y44409697D01*
X35477630Y44016371D01*
X35669727Y43936606D01*
X35538857Y43882397D01*
X35469392Y43640213D01*
X36270000Y42839605D01*
X37070608Y43640213D01*
X37001143Y43882397D01*
X36860682Y43932509D01*
X37060303Y44014990D01*
X37453629Y44407630D01*
X37666757Y44920900D01*
X37667242Y45476661D01*
X37455010Y45990303D01*
X37062370Y46383629D01*
X36854487Y46469950D01*
X37060303Y46554990D01*
X37453629Y46947630D01*
X37666757Y47460900D01*
X37667242Y48016661D01*
X37455010Y48530303D01*
X37062370Y48923629D01*
X36549100Y49136757D01*
X35993339Y49137242D01*
X35479697Y48925010D01*
X35127000Y48572929D01*
X35127000Y48628309D01*
X35115000Y48657280D01*
X35115000Y50365000D01*
X38750000Y50365000D01*
X39280016Y50470427D01*
X39280017Y50470427D01*
X39729343Y50770657D01*
X43073686Y54115000D01*
X45227322Y54115000D01*
X44868902Y53757204D01*
X44665232Y53266713D01*
X44664769Y52735617D01*
X44867582Y52244771D01*
X45242796Y51868902D01*
X45733287Y51665232D01*
X46264383Y51664769D01*
X46755229Y51867582D01*
X46765000Y51877336D01*
X46765000Y50123289D01*
X46757204Y50131098D01*
X46266713Y50334768D01*
X45735617Y50335231D01*
X45244771Y50132418D01*
X44868902Y49757204D01*
X44665232Y49266713D01*
X44664769Y48735617D01*
X44867582Y48244771D01*
X45242796Y47868902D01*
X45529242Y47749959D01*
X45244771Y47632418D01*
X44868902Y47257204D01*
X44665232Y46766713D01*
X44664769Y46235617D01*
X44867582Y45744771D01*
X45242796Y45368902D01*
X45529242Y45249959D01*
X45244771Y45132418D01*
X44868902Y44757204D01*
X44665232Y44266713D01*
X44664769Y43735617D01*
X44867582Y43244771D01*
X45242796Y42868902D01*
X45733287Y42665232D01*
X46264383Y42664769D01*
X46755229Y42867582D01*
X46765000Y42877336D01*
X46765000Y41123289D01*
X46757204Y41131098D01*
X46266713Y41334768D01*
X45735617Y41335231D01*
X45244771Y41132418D01*
X44996921Y40885000D01*
X42261487Y40885000D01*
X42050485Y41096371D01*
X41596734Y41284785D01*
X41105421Y41285214D01*
X40651343Y41097592D01*
X40303629Y40750485D01*
X40115215Y40296734D01*
X40114786Y39805421D01*
X40302408Y39351343D01*
X40649515Y39003629D01*
X41103266Y38815215D01*
X41594579Y38814786D01*
X42048657Y39002408D01*
X42161445Y39115000D01*
X44997126Y39115000D01*
X45242796Y38868902D01*
X45529242Y38749959D01*
X45244771Y38632418D01*
X44868902Y38257204D01*
X44665232Y37766713D01*
X44664769Y37235617D01*
X44867582Y36744771D01*
X45242796Y36368902D01*
X45529242Y36249959D01*
X45244771Y36132418D01*
X44868902Y35757204D01*
X44665232Y35266713D01*
X44664769Y34735617D01*
X44867582Y34244771D01*
X45242796Y33868902D01*
X45733287Y33665232D01*
X46264383Y33664769D01*
X46755229Y33867582D01*
X46765000Y33877336D01*
X46765000Y32123289D01*
X46757204Y32131098D01*
X46266713Y32334768D01*
X45735617Y32335231D01*
X45244771Y32132418D01*
X44868902Y31757204D01*
X44665232Y31266713D01*
X44664769Y30735617D01*
X44867582Y30244771D01*
X45242796Y29868902D01*
X45529242Y29749959D01*
X45244771Y29632418D01*
X44868902Y29257204D01*
X44665232Y28766713D01*
X44664769Y28235617D01*
X44867582Y27744771D01*
X45242796Y27368902D01*
X45529242Y27249959D01*
X45244771Y27132418D01*
X44868902Y26757204D01*
X44665232Y26266713D01*
X44664769Y25735617D01*
X44867582Y25244771D01*
X45242796Y24868902D01*
X45733287Y24665232D01*
X46264383Y24664769D01*
X46755229Y24867582D01*
X46765000Y24877336D01*
X46765000Y23123289D01*
X46757204Y23131098D01*
X46266713Y23334768D01*
X45735617Y23335231D01*
X45244771Y23132418D01*
X44996921Y22885000D01*
X43400005Y22885000D01*
X43400000Y22885001D01*
X43061326Y22817634D01*
X42966054Y22753976D01*
X42774210Y22625790D01*
X42774207Y22625787D01*
X41133435Y20985015D01*
X40905421Y20985214D01*
X40451343Y20797592D01*
X40103629Y20450485D01*
X39915215Y19996734D01*
X39914786Y19505421D01*
X40102408Y19051343D01*
X40449515Y18703629D01*
X40903266Y18515215D01*
X41394579Y18514786D01*
X41848657Y18702408D01*
X42196371Y19049515D01*
X42384785Y19503266D01*
X42384985Y19733407D01*
X43766579Y21115000D01*
X44997126Y21115000D01*
X45242796Y20868902D01*
X45529242Y20749959D01*
X45244771Y20632418D01*
X44868902Y20257204D01*
X44665232Y19766713D01*
X44664769Y19235617D01*
X44867582Y18744771D01*
X45242796Y18368902D01*
X45529242Y18249959D01*
X45244771Y18132418D01*
X44868902Y17757204D01*
X44665232Y17266713D01*
X44664769Y16735617D01*
X44867582Y16244771D01*
X45242796Y15868902D01*
X45733287Y15665232D01*
X46264383Y15664769D01*
X46755229Y15867582D01*
X47131098Y16242796D01*
X47334768Y16733287D01*
X47335231Y17264383D01*
X47132418Y17755229D01*
X46757204Y18131098D01*
X46470757Y18250042D01*
X46506961Y18265000D01*
X47000000Y18265000D01*
X47472614Y18359009D01*
X47873277Y18626723D01*
X48873277Y19626723D01*
X49140991Y20027386D01*
X49235000Y20500000D01*
X49235000Y37500000D01*
X49235000Y54500000D01*
X49140991Y54972614D01*
X48873277Y55373277D01*
X47873277Y56373277D01*
X47472614Y56640991D01*
X47000000Y56735000D01*
X46596725Y56735000D01*
X46534683Y56776455D01*
X46755229Y56867582D01*
X47131098Y57242796D01*
X47334768Y57733287D01*
X47335231Y58264383D01*
X47132418Y58755229D01*
X46757204Y59131098D01*
X46266713Y59334768D01*
X45735617Y59335231D01*
X45244771Y59132418D01*
X44868902Y58757204D01*
X44665232Y58266713D01*
X44664769Y57735617D01*
X44867582Y57244771D01*
X45226726Y56885000D01*
X42500000Y56885000D01*
X41969983Y56779573D01*
X41520657Y56479343D01*
X38176314Y53135000D01*
X38112083Y53135000D01*
X38112083Y57296502D01*
X37600796Y58533912D01*
X36654892Y59481468D01*
X35418376Y59994914D01*
X34079498Y59996083D01*
X32842088Y59484796D01*
X32583000Y59226160D01*
X32583000Y61575250D01*
X32583000Y62623000D01*
X32583000Y62877000D01*
X32583000Y63924750D01*
X32424250Y64083500D01*
X31885191Y64083500D01*
X31651802Y63986827D01*
X31473173Y63808199D01*
X31376500Y63574810D01*
X31376500Y63322191D01*
X31376500Y63035750D01*
X31535250Y62877000D01*
X32583000Y62877000D01*
X32583000Y62623000D01*
X31535250Y62623000D01*
X31376500Y62464250D01*
X31376500Y62177809D01*
X31376500Y61925190D01*
X31473173Y61691801D01*
X31651802Y61513173D01*
X31885191Y61416500D01*
X32424250Y61416500D01*
X32583000Y61575250D01*
X32583000Y59226160D01*
X31894532Y58538892D01*
X31381086Y57302376D01*
X31379917Y55963498D01*
X31891204Y54726088D01*
X32837108Y53778532D01*
X34073624Y53265086D01*
X35412502Y53263917D01*
X36649912Y53775204D01*
X37597468Y54721108D01*
X38110914Y55957624D01*
X38112083Y57296502D01*
X38112083Y53135000D01*
X33750000Y53135000D01*
X33219983Y53029573D01*
X32770657Y52729343D01*
X32750657Y52709343D01*
X32450427Y52260017D01*
X32345000Y51730000D01*
X32345000Y48657281D01*
X32333000Y48628310D01*
X32333000Y48375691D01*
X32333000Y47382447D01*
X30930277Y45979723D01*
X30877000Y45899989D01*
X30877000Y64123000D01*
X39123000Y64123000D01*
X39123000Y63015856D01*
X38921146Y63504380D01*
X38546353Y63879827D01*
X38056413Y64083268D01*
X37525914Y64083731D01*
X37035620Y63881146D01*
X36660173Y63506353D01*
X36519906Y63168554D01*
X36381146Y63504380D01*
X36006353Y63879827D01*
X35516413Y64083268D01*
X34985914Y64083731D01*
X34495620Y63881146D01*
X34120173Y63506353D01*
X34043500Y63321705D01*
X34043500Y63322191D01*
X34043500Y63574810D01*
X33946827Y63808199D01*
X33768198Y63986827D01*
X33534809Y64083500D01*
X32995750Y64083500D01*
X32837000Y63924750D01*
X32837000Y62877000D01*
X32857000Y62877000D01*
X32857000Y62623000D01*
X32837000Y62623000D01*
X32837000Y61575250D01*
X32995750Y61416500D01*
X33534809Y61416500D01*
X33768198Y61513173D01*
X33946827Y61691801D01*
X34043500Y61925190D01*
X34043500Y62177809D01*
X34043500Y62177991D01*
X34118854Y61995620D01*
X34493647Y61620173D01*
X34983587Y61416732D01*
X35514086Y61416269D01*
X36004380Y61618854D01*
X36379827Y61993647D01*
X36520093Y62331447D01*
X36658854Y61995620D01*
X37033647Y61620173D01*
X37523587Y61416732D01*
X38054086Y61416269D01*
X38544380Y61618854D01*
X38919827Y61993647D01*
X39123000Y62482942D01*
X39123000Y60623000D01*
X109623000Y60623000D01*
X109623000Y53802605D01*
X109623000Y53802605D01*
G37*
X109623000Y53802605D02*
X107697395Y51877000D01*
X105493455Y51877000D01*
X105493455Y56041752D01*
X105269647Y56583411D01*
X104855591Y56998190D01*
X104314323Y57222944D01*
X103728248Y57223455D01*
X103186589Y56999647D01*
X102771810Y56585591D01*
X102750224Y56533609D01*
X102729647Y56583411D01*
X102315591Y56998190D01*
X101774323Y57222944D01*
X101188248Y57223455D01*
X100646589Y56999647D01*
X100231810Y56585591D01*
X100007056Y56044323D01*
X100006605Y55528186D01*
X96363420Y51885000D01*
X91866579Y51885000D01*
X94258571Y54276993D01*
X94771752Y54276545D01*
X95313411Y54500353D01*
X95728190Y54914409D01*
X95749775Y54966392D01*
X95770353Y54916589D01*
X96184409Y54501810D01*
X96725677Y54277056D01*
X97311752Y54276545D01*
X97853411Y54500353D01*
X98268190Y54914409D01*
X98492944Y55455677D01*
X98493455Y56041752D01*
X98269647Y56583411D01*
X97855591Y56998190D01*
X97314323Y57222944D01*
X96728248Y57223455D01*
X96186589Y56999647D01*
X95771810Y56585591D01*
X95750224Y56533609D01*
X95729647Y56583411D01*
X95315591Y56998190D01*
X94774323Y57222944D01*
X94188248Y57223455D01*
X93646589Y56999647D01*
X93231810Y56585591D01*
X93007056Y56044323D01*
X93006605Y55528186D01*
X90363420Y52885000D01*
X85866579Y52885000D01*
X87258571Y54276993D01*
X87771752Y54276545D01*
X88313411Y54500353D01*
X88728190Y54914409D01*
X88749775Y54966392D01*
X88770353Y54916589D01*
X89184409Y54501810D01*
X89725677Y54277056D01*
X90311752Y54276545D01*
X90853411Y54500353D01*
X91268190Y54914409D01*
X91492944Y55455677D01*
X91493455Y56041752D01*
X91269647Y56583411D01*
X90855591Y56998190D01*
X90314323Y57222944D01*
X89728248Y57223455D01*
X89186589Y56999647D01*
X88771810Y56585591D01*
X88750224Y56533609D01*
X88729647Y56583411D01*
X88315591Y56998190D01*
X87774323Y57222944D01*
X87188248Y57223455D01*
X86646589Y56999647D01*
X86231810Y56585591D01*
X86007056Y56044323D01*
X86006605Y55528186D01*
X84493455Y54015036D01*
X84493455Y56041752D01*
X84269647Y56583411D01*
X83855591Y56998190D01*
X83314323Y57222944D01*
X82728248Y57223455D01*
X82186589Y56999647D01*
X81771810Y56585591D01*
X81750224Y56533609D01*
X81729647Y56583411D01*
X81315591Y56998190D01*
X80774323Y57222944D01*
X80188248Y57223455D01*
X79646589Y56999647D01*
X79231810Y56585591D01*
X79007056Y56044323D01*
X79006545Y55458248D01*
X79230353Y54916589D01*
X79644409Y54501810D01*
X80185677Y54277056D01*
X80771752Y54276545D01*
X81313411Y54500353D01*
X81728190Y54914409D01*
X81749775Y54966392D01*
X81770353Y54916589D01*
X82184409Y54501810D01*
X82725677Y54277056D01*
X83311752Y54276545D01*
X83853411Y54500353D01*
X84268190Y54914409D01*
X84492944Y55455677D01*
X84493455Y56041752D01*
X84493455Y54015036D01*
X84363420Y53885000D01*
X77493455Y53885000D01*
X77493455Y56041752D01*
X77269647Y56583411D01*
X76855591Y56998190D01*
X76314323Y57222944D01*
X75728248Y57223455D01*
X75186589Y56999647D01*
X74771810Y56585591D01*
X74750224Y56533609D01*
X74729647Y56583411D01*
X74315591Y56998190D01*
X73774323Y57222944D01*
X73188248Y57223455D01*
X72646589Y56999647D01*
X72231810Y56585591D01*
X72007056Y56044323D01*
X72006545Y55458248D01*
X72230353Y54916589D01*
X72644409Y54501810D01*
X73185677Y54277056D01*
X73771752Y54276545D01*
X74313411Y54500353D01*
X74728190Y54914409D01*
X74749775Y54966392D01*
X74770353Y54916589D01*
X75184409Y54501810D01*
X75725677Y54277056D01*
X76311752Y54276545D01*
X76853411Y54500353D01*
X77268190Y54914409D01*
X77492944Y55455677D01*
X77493455Y56041752D01*
X77493455Y53885000D01*
X70343455Y53885000D01*
X70343455Y56041752D01*
X70119647Y56583411D01*
X69705591Y56998190D01*
X69164323Y57222944D01*
X68578248Y57223455D01*
X68036589Y56999647D01*
X67621810Y56585591D01*
X67600224Y56533609D01*
X67579647Y56583411D01*
X67165591Y56998190D01*
X66624323Y57222944D01*
X66038248Y57223455D01*
X65496589Y56999647D01*
X65081810Y56585591D01*
X64857056Y56044323D01*
X64856545Y55458248D01*
X65080353Y54916589D01*
X65494409Y54501810D01*
X66035677Y54277056D01*
X66621752Y54276545D01*
X67163411Y54500353D01*
X67578190Y54914409D01*
X67599775Y54966392D01*
X67620353Y54916589D01*
X68034409Y54501810D01*
X68575677Y54277056D01*
X69161752Y54276545D01*
X69703411Y54500353D01*
X70118190Y54914409D01*
X70342944Y55455677D01*
X70343455Y56041752D01*
X70343455Y53885000D01*
X62750005Y53885000D01*
X62750000Y53885001D01*
X62467515Y53828811D01*
X62411325Y53817633D01*
X62124210Y53625790D01*
X62124207Y53625787D01*
X58633420Y50135000D01*
X57682100Y50135000D01*
X57682100Y51121990D01*
X57682100Y51374609D01*
X57682100Y51864250D01*
X57682100Y52435750D01*
X57682100Y52925391D01*
X57682100Y53178010D01*
X57585427Y53411399D01*
X57406798Y53590027D01*
X57208425Y53672196D01*
X57305525Y53792738D01*
X57462400Y54327400D01*
X57462400Y54683000D01*
X57462400Y54937000D01*
X57462400Y55292600D01*
X57305525Y55827262D01*
X56955986Y56261191D01*
X56466996Y56528327D01*
X56387060Y56545010D01*
X56167000Y56422852D01*
X56167000Y54937000D01*
X57462400Y54937000D01*
X57462400Y54683000D01*
X56167000Y54683000D01*
X56167000Y54663000D01*
X55913000Y54663000D01*
X55913000Y54683000D01*
X55893000Y54683000D01*
X55893000Y54937000D01*
X55913000Y54937000D01*
X55913000Y56422852D01*
X55692940Y56545010D01*
X55613004Y56528327D01*
X55124014Y56261191D01*
X54774475Y55827262D01*
X54769753Y55811171D01*
X54505789Y56206222D01*
X54044329Y56514559D01*
X53500000Y56622833D01*
X52955671Y56514559D01*
X52494211Y56206222D01*
X52229999Y55810802D01*
X51965789Y56206222D01*
X51504329Y56514559D01*
X50960000Y56622833D01*
X50415671Y56514559D01*
X49954211Y56206222D01*
X49645874Y55744762D01*
X49537600Y55200433D01*
X49537600Y54419567D01*
X49645874Y53875238D01*
X49954211Y53413778D01*
X50415671Y53105441D01*
X50960000Y52997167D01*
X51504329Y53105441D01*
X51965789Y53413778D01*
X52068000Y53566748D01*
X52068000Y53298962D01*
X52017900Y53178010D01*
X52017900Y52925391D01*
X52017900Y51121991D01*
X52114573Y50888602D01*
X52293201Y50709973D01*
X52526590Y50613300D01*
X52779209Y50613300D01*
X54379409Y50613300D01*
X54612798Y50709973D01*
X54791427Y50888601D01*
X54850000Y51030009D01*
X54908573Y50888601D01*
X55087202Y50709973D01*
X55320591Y50613300D01*
X55961250Y50613300D01*
X56120000Y50772050D01*
X56120000Y52023000D01*
X56100000Y52023000D01*
X56100000Y52277000D01*
X56120000Y52277000D01*
X56120000Y52297000D01*
X56374000Y52297000D01*
X56374000Y52277000D01*
X57523350Y52277000D01*
X57682100Y52435750D01*
X57682100Y51864250D01*
X57523350Y52023000D01*
X56374000Y52023000D01*
X56374000Y50772050D01*
X56532750Y50613300D01*
X57173409Y50613300D01*
X57406798Y50709973D01*
X57585427Y50888601D01*
X57682100Y51121990D01*
X57682100Y50135000D01*
X56120000Y50135000D01*
X54000005Y50135000D01*
X54000000Y50135001D01*
X53717515Y50078811D01*
X53661325Y50067633D01*
X53374210Y49875790D01*
X53374207Y49875787D01*
X52874210Y49375790D01*
X52682367Y49088674D01*
X52614999Y48750000D01*
X52629584Y48676676D01*
X52494211Y48586222D01*
X52382400Y48418885D01*
X52382400Y48459309D01*
X52285727Y48692698D01*
X52107099Y48871327D01*
X51873710Y48968000D01*
X51621091Y48968000D01*
X50046291Y48968000D01*
X49812902Y48871327D01*
X49634273Y48692699D01*
X49537600Y48459310D01*
X49537600Y48206691D01*
X49537600Y45920691D01*
X49634273Y45687302D01*
X49812901Y45508673D01*
X50046290Y45412000D01*
X50298909Y45412000D01*
X51873709Y45412000D01*
X52107098Y45508673D01*
X52285727Y45687301D01*
X52382400Y45920690D01*
X52382400Y45961116D01*
X52494211Y45793778D01*
X52955671Y45485441D01*
X53500000Y45377167D01*
X54044329Y45485441D01*
X54505789Y45793778D01*
X54770000Y46189199D01*
X55034211Y45793778D01*
X55495671Y45485441D01*
X56040000Y45377167D01*
X56584329Y45485441D01*
X57045789Y45793778D01*
X57354126Y46255238D01*
X57462400Y46799567D01*
X57462400Y47580433D01*
X57354126Y48124762D01*
X57193604Y48365000D01*
X58887874Y48365000D01*
X58864999Y48250000D01*
X58865000Y48249995D01*
X58865000Y32616580D01*
X58133420Y31885000D01*
X57782100Y31885000D01*
X57782100Y33221990D01*
X57782100Y33474609D01*
X57782100Y33964250D01*
X57782100Y34535750D01*
X57782100Y35025391D01*
X57782100Y35278010D01*
X57685427Y35511399D01*
X57506798Y35690027D01*
X57293843Y35778236D01*
X57305525Y35792738D01*
X57462400Y36327400D01*
X57462400Y36683000D01*
X57462400Y36937000D01*
X57462400Y37292600D01*
X57305525Y37827262D01*
X56955986Y38261191D01*
X56466996Y38528327D01*
X56387060Y38545010D01*
X56167000Y38422852D01*
X56167000Y36937000D01*
X57462400Y36937000D01*
X57462400Y36683000D01*
X56167000Y36683000D01*
X56167000Y36663000D01*
X55913000Y36663000D01*
X55913000Y36683000D01*
X55893000Y36683000D01*
X55893000Y36937000D01*
X55913000Y36937000D01*
X55913000Y38422852D01*
X55692940Y38545010D01*
X55613004Y38528327D01*
X55124014Y38261191D01*
X54774475Y37827262D01*
X54769753Y37811171D01*
X54505789Y38206222D01*
X54044329Y38514559D01*
X53500000Y38622833D01*
X52955671Y38514559D01*
X52494211Y38206222D01*
X52229999Y37810802D01*
X51965789Y38206222D01*
X51504329Y38514559D01*
X50960000Y38622833D01*
X50415671Y38514559D01*
X49954211Y38206222D01*
X49645874Y37744762D01*
X49537600Y37200433D01*
X49537600Y36419567D01*
X49645874Y35875238D01*
X49954211Y35413778D01*
X50415671Y35105441D01*
X50960000Y34997167D01*
X51504329Y35105441D01*
X51965789Y35413778D01*
X52115000Y35637089D01*
X52115000Y34303000D01*
X52117900Y34288421D01*
X52117900Y33221991D01*
X52214573Y32988602D01*
X52393201Y32809973D01*
X52626590Y32713300D01*
X52879209Y32713300D01*
X54479409Y32713300D01*
X54712798Y32809973D01*
X54891427Y32988601D01*
X54950000Y33130009D01*
X55008573Y32988601D01*
X55187202Y32809973D01*
X55420591Y32713300D01*
X56061250Y32713300D01*
X56220000Y32872050D01*
X56220000Y34123000D01*
X56200000Y34123000D01*
X56200000Y34377000D01*
X56220000Y34377000D01*
X56220000Y34397000D01*
X56474000Y34397000D01*
X56474000Y34377000D01*
X57623350Y34377000D01*
X57782100Y34535750D01*
X57782100Y33964250D01*
X57623350Y34123000D01*
X56474000Y34123000D01*
X56474000Y32872050D01*
X56632750Y32713300D01*
X57273409Y32713300D01*
X57506798Y32809973D01*
X57685427Y32988601D01*
X57782100Y33221990D01*
X57782100Y31885000D01*
X54000005Y31885000D01*
X54000000Y31885001D01*
X53717515Y31828811D01*
X53661325Y31817633D01*
X53374210Y31625790D01*
X53374207Y31625787D01*
X52874210Y31125790D01*
X52682367Y30838675D01*
X52671189Y30782485D01*
X52653294Y30692518D01*
X52494211Y30586222D01*
X52382400Y30418885D01*
X52382400Y30459309D01*
X52285727Y30692698D01*
X52107099Y30871327D01*
X51873710Y30968000D01*
X51621091Y30968000D01*
X50046291Y30968000D01*
X49812902Y30871327D01*
X49634273Y30692699D01*
X49537600Y30459310D01*
X49537600Y30206691D01*
X49537600Y27920691D01*
X49634273Y27687302D01*
X49812901Y27508673D01*
X50046290Y27412000D01*
X50298909Y27412000D01*
X51873709Y27412000D01*
X52107098Y27508673D01*
X52285727Y27687301D01*
X52382400Y27920690D01*
X52382400Y27961116D01*
X52494211Y27793778D01*
X52955671Y27485441D01*
X53500000Y27377167D01*
X54044329Y27485441D01*
X54505789Y27793778D01*
X54770000Y28189199D01*
X55034211Y27793778D01*
X55495671Y27485441D01*
X56040000Y27377167D01*
X56584329Y27485441D01*
X57045789Y27793778D01*
X57354126Y28255238D01*
X57462400Y28799567D01*
X57462400Y29580433D01*
X57356067Y30115000D01*
X58499994Y30115000D01*
X58500000Y30114999D01*
X58500000Y30115000D01*
X58782484Y30171190D01*
X58838674Y30182367D01*
X58838675Y30182367D01*
X59125790Y30374210D01*
X59865000Y31113421D01*
X59865000Y14866580D01*
X58883420Y13885000D01*
X57782100Y13885000D01*
X57782100Y15221990D01*
X57782100Y15474609D01*
X57782100Y15964250D01*
X57782100Y16535750D01*
X57782100Y17025391D01*
X57782100Y17278010D01*
X57685427Y17511399D01*
X57506798Y17690027D01*
X57293843Y17778236D01*
X57305525Y17792738D01*
X57462400Y18327400D01*
X57462400Y18683000D01*
X57462400Y18937000D01*
X57462400Y19292600D01*
X57305525Y19827262D01*
X56955986Y20261191D01*
X56466996Y20528327D01*
X56387060Y20545010D01*
X56167000Y20422852D01*
X56167000Y18937000D01*
X57462400Y18937000D01*
X57462400Y18683000D01*
X56167000Y18683000D01*
X56167000Y18663000D01*
X55913000Y18663000D01*
X55913000Y18683000D01*
X55893000Y18683000D01*
X55893000Y18937000D01*
X55913000Y18937000D01*
X55913000Y20422852D01*
X55692940Y20545010D01*
X55613004Y20528327D01*
X55124014Y20261191D01*
X54774475Y19827262D01*
X54769753Y19811171D01*
X54505789Y20206222D01*
X54044329Y20514559D01*
X53500000Y20622833D01*
X52955671Y20514559D01*
X52494211Y20206222D01*
X52229999Y19810802D01*
X51965789Y20206222D01*
X51504329Y20514559D01*
X50960000Y20622833D01*
X50415671Y20514559D01*
X49954211Y20206222D01*
X49645874Y19744762D01*
X49537600Y19200433D01*
X49537600Y18419567D01*
X49645874Y17875238D01*
X49954211Y17413778D01*
X50415671Y17105441D01*
X50960000Y16997167D01*
X51504329Y17105441D01*
X51965789Y17413778D01*
X52115000Y17637089D01*
X52115000Y16303000D01*
X52117900Y16288421D01*
X52117900Y15221991D01*
X52214573Y14988602D01*
X52393201Y14809973D01*
X52626590Y14713300D01*
X52879209Y14713300D01*
X54479409Y14713300D01*
X54712798Y14809973D01*
X54891427Y14988601D01*
X54950000Y15130009D01*
X55008573Y14988601D01*
X55187202Y14809973D01*
X55420591Y14713300D01*
X56061250Y14713300D01*
X56220000Y14872050D01*
X56220000Y16123000D01*
X56200000Y16123000D01*
X56200000Y16377000D01*
X56220000Y16377000D01*
X56220000Y16397000D01*
X56474000Y16397000D01*
X56474000Y16377000D01*
X57623350Y16377000D01*
X57782100Y16535750D01*
X57782100Y15964250D01*
X57623350Y16123000D01*
X56474000Y16123000D01*
X56474000Y14872050D01*
X56632750Y14713300D01*
X57273409Y14713300D01*
X57506798Y14809973D01*
X57685427Y14988601D01*
X57782100Y15221990D01*
X57782100Y13885000D01*
X54000005Y13885000D01*
X54000000Y13885001D01*
X53717515Y13828811D01*
X53661325Y13817633D01*
X53374210Y13625790D01*
X53374207Y13625787D01*
X52874210Y13125790D01*
X52682367Y12838675D01*
X52671189Y12782485D01*
X52653294Y12692518D01*
X52494211Y12586222D01*
X52382400Y12418885D01*
X52382400Y12459309D01*
X52285727Y12692698D01*
X52107099Y12871327D01*
X51873710Y12968000D01*
X51621091Y12968000D01*
X50046291Y12968000D01*
X49812902Y12871327D01*
X49634273Y12692699D01*
X49537600Y12459310D01*
X49537600Y12206691D01*
X49537600Y9920691D01*
X49634273Y9687302D01*
X49812901Y9508673D01*
X50046290Y9412000D01*
X50298909Y9412000D01*
X51873709Y9412000D01*
X52107098Y9508673D01*
X52285727Y9687301D01*
X52382400Y9920690D01*
X52382400Y9961116D01*
X52494211Y9793778D01*
X52955671Y9485441D01*
X53500000Y9377167D01*
X54044329Y9485441D01*
X54505789Y9793778D01*
X54770000Y10189199D01*
X55034211Y9793778D01*
X55495671Y9485441D01*
X56040000Y9377167D01*
X56584329Y9485441D01*
X57045789Y9793778D01*
X57354126Y10255238D01*
X57462400Y10799567D01*
X57462400Y11580433D01*
X57356067Y12115000D01*
X59249994Y12115000D01*
X59250000Y12114999D01*
X59250000Y12115000D01*
X59532484Y12171190D01*
X59588674Y12182367D01*
X59588675Y12182367D01*
X59875790Y12374210D01*
X61375786Y13874208D01*
X61375789Y13874210D01*
X61375790Y13874210D01*
X61567633Y14161325D01*
X61635000Y14500000D01*
X61635000Y47383421D01*
X64366579Y50115000D01*
X96729994Y50115000D01*
X96730000Y50114999D01*
X96730000Y50115000D01*
X97012484Y50171190D01*
X97068674Y50182367D01*
X97068675Y50182367D01*
X97355790Y50374210D01*
X101258571Y54276993D01*
X101771752Y54276545D01*
X102313411Y54500353D01*
X102728190Y54914409D01*
X102749775Y54966392D01*
X102770353Y54916589D01*
X103184409Y54501810D01*
X103725677Y54277056D01*
X104311752Y54276545D01*
X104853411Y54500353D01*
X105268190Y54914409D01*
X105492944Y55455677D01*
X105493455Y56041752D01*
X105493455Y51877000D01*
X99623000Y51877000D01*
X99623000Y41877000D01*
X87507242Y41877000D01*
X87507242Y47686661D01*
X87295010Y48200303D01*
X86902370Y48593629D01*
X86389100Y48806757D01*
X85833339Y48807242D01*
X85319697Y48595010D01*
X84926371Y48202370D01*
X84840050Y47994488D01*
X84755010Y48200303D01*
X84362370Y48593629D01*
X83849100Y48806757D01*
X83293339Y48807242D01*
X82779697Y48595010D01*
X82427000Y48242929D01*
X82427000Y48298310D01*
X82330327Y48531699D01*
X82151698Y48710327D01*
X81918309Y48807000D01*
X81315750Y48807000D01*
X81157000Y48648250D01*
X81157000Y47537000D01*
X81177000Y47537000D01*
X81177000Y47283000D01*
X81157000Y47283000D01*
X81157000Y46171750D01*
X81315750Y46013000D01*
X81918309Y46013000D01*
X82151698Y46109673D01*
X82330327Y46288301D01*
X82427000Y46521690D01*
X82427000Y46577614D01*
X82777630Y46226371D01*
X83290900Y46013243D01*
X83846661Y46012758D01*
X84360303Y46224990D01*
X84753629Y46617630D01*
X84839949Y46825513D01*
X84924990Y46619697D01*
X85317630Y46226371D01*
X85830900Y46013243D01*
X86386661Y46012758D01*
X86900303Y46224990D01*
X87293629Y46617630D01*
X87506757Y47130900D01*
X87507242Y47686661D01*
X87507242Y41877000D01*
X80903000Y41877000D01*
X80903000Y46171750D01*
X80903000Y47283000D01*
X80883000Y47283000D01*
X80883000Y47537000D01*
X80903000Y47537000D01*
X80903000Y48648250D01*
X80744250Y48807000D01*
X80141691Y48807000D01*
X79908302Y48710327D01*
X79729673Y48531699D01*
X79633000Y48298310D01*
X79633000Y48242387D01*
X79282370Y48593629D01*
X78769100Y48806757D01*
X78213339Y48807242D01*
X77699697Y48595010D01*
X77306371Y48202370D01*
X77220050Y47994488D01*
X77135010Y48200303D01*
X76742370Y48593629D01*
X76229100Y48806757D01*
X75673339Y48807242D01*
X75159697Y48595010D01*
X74807000Y48242929D01*
X74807000Y48298310D01*
X74710327Y48531699D01*
X74531698Y48710327D01*
X74298309Y48807000D01*
X73695750Y48807000D01*
X73537000Y48648250D01*
X73537000Y47537000D01*
X73557000Y47537000D01*
X73557000Y47283000D01*
X73537000Y47283000D01*
X73537000Y46171750D01*
X73695750Y46013000D01*
X74298309Y46013000D01*
X74531698Y46109673D01*
X74710327Y46288301D01*
X74807000Y46521690D01*
X74807000Y46577614D01*
X75157630Y46226371D01*
X75670900Y46013243D01*
X76226661Y46012758D01*
X76740303Y46224990D01*
X77133629Y46617630D01*
X77219949Y46825513D01*
X77304990Y46619697D01*
X77697630Y46226371D01*
X78210900Y46013243D01*
X78766661Y46012758D01*
X79280303Y46224990D01*
X79633000Y46577072D01*
X79633000Y46521690D01*
X79729673Y46288301D01*
X79908302Y46109673D01*
X80141691Y46013000D01*
X80744250Y46013000D01*
X80903000Y46171750D01*
X80903000Y41877000D01*
X73283000Y41877000D01*
X73283000Y46171750D01*
X73283000Y47283000D01*
X73263000Y47283000D01*
X73263000Y47537000D01*
X73283000Y47537000D01*
X73283000Y48648250D01*
X73124250Y48807000D01*
X72521691Y48807000D01*
X72288302Y48710327D01*
X72109673Y48531699D01*
X72013000Y48298310D01*
X72013000Y48242387D01*
X71662370Y48593629D01*
X71149100Y48806757D01*
X70593339Y48807242D01*
X70079697Y48595010D01*
X69686371Y48202370D01*
X69600050Y47994488D01*
X69515010Y48200303D01*
X69122370Y48593629D01*
X68609100Y48806757D01*
X68053339Y48807242D01*
X67539697Y48595010D01*
X67187000Y48242929D01*
X67187000Y48298310D01*
X67090327Y48531699D01*
X66911698Y48710327D01*
X66678309Y48807000D01*
X66075750Y48807000D01*
X65917000Y48648250D01*
X65917000Y47537000D01*
X65937000Y47537000D01*
X65937000Y47283000D01*
X65917000Y47283000D01*
X65917000Y46171750D01*
X66075750Y46013000D01*
X66678309Y46013000D01*
X66911698Y46109673D01*
X67090327Y46288301D01*
X67187000Y46521690D01*
X67187000Y46577614D01*
X67537630Y46226371D01*
X68050900Y46013243D01*
X68606661Y46012758D01*
X69120303Y46224990D01*
X69513629Y46617630D01*
X69599949Y46825513D01*
X69684990Y46619697D01*
X70077630Y46226371D01*
X70590900Y46013243D01*
X71146661Y46012758D01*
X71660303Y46224990D01*
X72013000Y46577072D01*
X72013000Y46521690D01*
X72109673Y46288301D01*
X72288302Y46109673D01*
X72521691Y46013000D01*
X73124250Y46013000D01*
X73283000Y46171750D01*
X73283000Y41877000D01*
X69623000Y41877000D01*
X69623000Y41435000D01*
X65663000Y41435000D01*
X65663000Y46171750D01*
X65663000Y47283000D01*
X65663000Y47537000D01*
X65663000Y48648250D01*
X65504250Y48807000D01*
X64901691Y48807000D01*
X64668302Y48710327D01*
X64489673Y48531699D01*
X64393000Y48298310D01*
X64393000Y48045691D01*
X64393000Y47695750D01*
X64551750Y47537000D01*
X65663000Y47537000D01*
X65663000Y47283000D01*
X64551750Y47283000D01*
X64393000Y47124250D01*
X64393000Y46774309D01*
X64393000Y46521690D01*
X64489673Y46288301D01*
X64668302Y46109673D01*
X64901691Y46013000D01*
X65504250Y46013000D01*
X65663000Y46171750D01*
X65663000Y41435000D01*
X64311399Y41435000D01*
X64050485Y41696371D01*
X63596734Y41884785D01*
X63105421Y41885214D01*
X62651343Y41697592D01*
X62303629Y41350485D01*
X62115215Y40896734D01*
X62114786Y40405421D01*
X62202238Y40193771D01*
X62193202Y40190027D01*
X62014573Y40011399D01*
X61917900Y39778010D01*
X61917900Y39525391D01*
X61917900Y37721991D01*
X62008504Y37503254D01*
X61913300Y37273410D01*
X61913300Y37020791D01*
X61913300Y35420591D01*
X62009973Y35187202D01*
X62188601Y35008573D01*
X62330008Y34950000D01*
X62188601Y34891427D01*
X62009973Y34712798D01*
X61913300Y34479409D01*
X61913300Y33838750D01*
X62072050Y33680000D01*
X63323000Y33680000D01*
X63323000Y33700000D01*
X63577000Y33700000D01*
X63577000Y33680000D01*
X63597000Y33680000D01*
X63597000Y33426000D01*
X63577000Y33426000D01*
X63577000Y32276650D01*
X63735750Y32117900D01*
X64225391Y32117900D01*
X64478010Y32117900D01*
X64662657Y32194384D01*
X64435441Y31854329D01*
X64327167Y31310000D01*
X64435441Y30765671D01*
X64743778Y30304211D01*
X64847359Y30235000D01*
X64311399Y30235000D01*
X64050485Y30496371D01*
X63596734Y30684785D01*
X63323000Y30685025D01*
X63323000Y32276650D01*
X63323000Y33426000D01*
X62072050Y33426000D01*
X61913300Y33267250D01*
X61913300Y32626591D01*
X62009973Y32393202D01*
X62188601Y32214573D01*
X62421990Y32117900D01*
X62674609Y32117900D01*
X63164250Y32117900D01*
X63323000Y32276650D01*
X63323000Y30685025D01*
X63105421Y30685214D01*
X62651343Y30497592D01*
X62303629Y30150485D01*
X62115215Y29696734D01*
X62114786Y29205421D01*
X62171452Y29068278D01*
X62014573Y28911399D01*
X61917900Y28678010D01*
X61917900Y28425391D01*
X61917900Y26621991D01*
X62014573Y26388602D01*
X62076701Y26326474D01*
X62013300Y26173410D01*
X62013300Y25920791D01*
X62013300Y24320591D01*
X62109973Y24087202D01*
X62288601Y23908573D01*
X62430008Y23850000D01*
X62288601Y23791427D01*
X62109973Y23612798D01*
X62013300Y23379409D01*
X62013300Y22738750D01*
X62172050Y22580000D01*
X63423000Y22580000D01*
X63423000Y22600000D01*
X63677000Y22600000D01*
X63677000Y22580000D01*
X63697000Y22580000D01*
X63697000Y22326000D01*
X63677000Y22326000D01*
X63677000Y21176650D01*
X63835750Y21017900D01*
X64325391Y21017900D01*
X64578010Y21017900D01*
X64624389Y21037112D01*
X64435441Y20754329D01*
X64327167Y20210000D01*
X64435441Y19665671D01*
X64743778Y19204211D01*
X64997020Y19035000D01*
X64517481Y19035000D01*
X64303485Y19249371D01*
X63849734Y19437785D01*
X63423000Y19438158D01*
X63423000Y21176650D01*
X63423000Y22326000D01*
X62172050Y22326000D01*
X62013300Y22167250D01*
X62013300Y21526591D01*
X62109973Y21293202D01*
X62288601Y21114573D01*
X62521990Y21017900D01*
X62774609Y21017900D01*
X63264250Y21017900D01*
X63423000Y21176650D01*
X63423000Y19438158D01*
X63358421Y19438214D01*
X62904343Y19250592D01*
X62556629Y18903485D01*
X62368215Y18449734D01*
X62367786Y17958421D01*
X62395214Y17892040D01*
X62264573Y17761399D01*
X62167900Y17528010D01*
X62167900Y17275391D01*
X62167900Y15564726D01*
X62109973Y15506799D01*
X62013300Y15273410D01*
X62013300Y15020791D01*
X62013300Y13420591D01*
X62109973Y13187202D01*
X62288601Y13008573D01*
X62430008Y12950000D01*
X62288601Y12891427D01*
X62109973Y12712798D01*
X62013300Y12479409D01*
X62013300Y11838750D01*
X62172050Y11680000D01*
X63423000Y11680000D01*
X63423000Y11700000D01*
X63677000Y11700000D01*
X63677000Y11680000D01*
X63697000Y11680000D01*
X63697000Y11426000D01*
X63677000Y11426000D01*
X63677000Y10276650D01*
X63835750Y10117900D01*
X64325391Y10117900D01*
X64578010Y10117900D01*
X64624389Y10137112D01*
X64435441Y9854329D01*
X64327167Y9310000D01*
X64435441Y8765671D01*
X64743778Y8304211D01*
X65205238Y7995874D01*
X65749567Y7887600D01*
X66530433Y7887600D01*
X67074762Y7995874D01*
X67536222Y8304211D01*
X67844559Y8765671D01*
X67952833Y9310000D01*
X67844559Y9854329D01*
X67536222Y10315789D01*
X67141170Y10579754D01*
X67157262Y10584475D01*
X67591191Y10934014D01*
X67858327Y11423004D01*
X67875010Y11502940D01*
X67752852Y11723000D01*
X66267000Y11723000D01*
X66267000Y11703000D01*
X66013000Y11703000D01*
X66013000Y11723000D01*
X65993000Y11723000D01*
X65993000Y11977000D01*
X66013000Y11977000D01*
X66013000Y11997000D01*
X66267000Y11997000D01*
X66267000Y11977000D01*
X67752852Y11977000D01*
X67875010Y12197060D01*
X67858327Y12276996D01*
X67591191Y12765986D01*
X67340900Y12967600D01*
X67409309Y12967600D01*
X67642698Y13064273D01*
X67821327Y13242901D01*
X67918000Y13476290D01*
X67918000Y13728909D01*
X67918000Y15303709D01*
X67832100Y15511090D01*
X67832100Y15724609D01*
X67832100Y17465000D01*
X68124842Y17465000D01*
X68765000Y16824842D01*
X68765000Y8575158D01*
X63624842Y3435000D01*
X63423000Y3435000D01*
X63423000Y10276650D01*
X63423000Y11426000D01*
X62172050Y11426000D01*
X62013300Y11267250D01*
X62013300Y10626591D01*
X62109973Y10393202D01*
X62288601Y10214573D01*
X62521990Y10117900D01*
X62774609Y10117900D01*
X63264250Y10117900D01*
X63423000Y10276650D01*
X63423000Y3435000D01*
X47335231Y3435000D01*
X47335231Y8264383D01*
X47132418Y8755229D01*
X46757204Y9131098D01*
X46470757Y9250042D01*
X46755229Y9367582D01*
X47131098Y9742796D01*
X47334768Y10233287D01*
X47335231Y10764383D01*
X47132418Y11255229D01*
X46757204Y11631098D01*
X46470757Y11750042D01*
X46755229Y11867582D01*
X47131098Y12242796D01*
X47334768Y12733287D01*
X47335231Y13264383D01*
X47132418Y13755229D01*
X46757204Y14131098D01*
X46266713Y14334768D01*
X45735617Y14335231D01*
X45244771Y14132418D01*
X44868902Y13757204D01*
X44665232Y13266713D01*
X44664769Y12735617D01*
X44867582Y12244771D01*
X45242796Y11868902D01*
X45529242Y11749959D01*
X45244771Y11632418D01*
X44868902Y11257204D01*
X44665232Y10766713D01*
X44664769Y10235617D01*
X44867582Y9744771D01*
X45242796Y9368902D01*
X45529242Y9249959D01*
X45244771Y9132418D01*
X44868902Y8757204D01*
X44665232Y8266713D01*
X44664769Y7735617D01*
X44867582Y7244771D01*
X45242796Y6868902D01*
X45733287Y6665232D01*
X46264383Y6664769D01*
X46755229Y6867582D01*
X47131098Y7242796D01*
X47334768Y7733287D01*
X47335231Y8264383D01*
X47335231Y3435000D01*
X41558636Y3435000D01*
X40835000Y4158636D01*
X40835000Y11150000D01*
X40775245Y11450406D01*
X40775245Y11450407D01*
X40605079Y11705079D01*
X38305079Y14005079D01*
X38050407Y14175245D01*
X37750000Y14235000D01*
X37679144Y14235000D01*
X37679144Y24672302D01*
X37679144Y32292302D01*
X37679144Y42452302D01*
X37651362Y43007368D01*
X37492397Y43391143D01*
X37250213Y43460608D01*
X36449605Y42660000D01*
X37250213Y41859392D01*
X37492397Y41928857D01*
X37679144Y42452302D01*
X37679144Y32292302D01*
X37651362Y32847368D01*
X37492397Y33231143D01*
X37250213Y33300608D01*
X36449605Y32500000D01*
X37250213Y31699392D01*
X37492397Y31768857D01*
X37679144Y32292302D01*
X37679144Y24672302D01*
X37651362Y25227368D01*
X37492397Y25611143D01*
X37250213Y25680608D01*
X36449605Y24880000D01*
X37250213Y24079392D01*
X37492397Y24148857D01*
X37679144Y24672302D01*
X37679144Y14235000D01*
X34530608Y14235000D01*
X33229160Y14235000D01*
X32835000Y14629160D01*
X32835000Y16185392D01*
X32929392Y16279785D01*
X32998857Y16037603D01*
X33522302Y15850856D01*
X34077368Y15878638D01*
X34461143Y16037603D01*
X34530608Y16279787D01*
X33730000Y17080395D01*
X33715857Y17066253D01*
X33536252Y17245858D01*
X33550395Y17260000D01*
X33536252Y17274143D01*
X33715857Y17453748D01*
X33730000Y17439605D01*
X34530608Y18240213D01*
X34461143Y18482397D01*
X34320682Y18532509D01*
X34520303Y18614990D01*
X34913629Y19007630D01*
X34999949Y19215513D01*
X35084990Y19009697D01*
X35477630Y18616371D01*
X35685512Y18530051D01*
X35479697Y18445010D01*
X35086371Y18052370D01*
X35006605Y17860273D01*
X34952397Y17991143D01*
X34710213Y18060608D01*
X33909605Y17260000D01*
X34710213Y16459392D01*
X34952397Y16528857D01*
X35002508Y16669318D01*
X35084990Y16469697D01*
X35477630Y16076371D01*
X35990900Y15863243D01*
X36546661Y15862758D01*
X37060303Y16074990D01*
X37453629Y16467630D01*
X37666757Y16980900D01*
X37667242Y17536661D01*
X37455010Y18050303D01*
X37062370Y18443629D01*
X36854487Y18529950D01*
X37060303Y18614990D01*
X37453629Y19007630D01*
X37666757Y19520900D01*
X37667242Y20076661D01*
X37455010Y20590303D01*
X37062370Y20983629D01*
X36854487Y21069950D01*
X37060303Y21154990D01*
X37453629Y21547630D01*
X37666757Y22060900D01*
X37667242Y22616661D01*
X37455010Y23130303D01*
X37062370Y23523629D01*
X36870272Y23603395D01*
X37001143Y23657603D01*
X37070608Y23899787D01*
X36270000Y24700395D01*
X35469392Y23899787D01*
X35538857Y23657603D01*
X35679317Y23607492D01*
X35479697Y23525010D01*
X35086371Y23132370D01*
X35000050Y22924488D01*
X34915010Y23130303D01*
X34522370Y23523629D01*
X34314487Y23609950D01*
X34520303Y23694990D01*
X34913629Y24087630D01*
X34993394Y24279728D01*
X35047603Y24148857D01*
X35289787Y24079392D01*
X36090395Y24880000D01*
X35289787Y25680608D01*
X35047603Y25611143D01*
X34997491Y25470683D01*
X34915010Y25670303D01*
X34522370Y26063629D01*
X34314487Y26149950D01*
X34520303Y26234990D01*
X34913629Y26627630D01*
X34999949Y26835513D01*
X35084990Y26629697D01*
X35477630Y26236371D01*
X35669727Y26156606D01*
X35538857Y26102397D01*
X35469392Y25860213D01*
X36270000Y25059605D01*
X37070608Y25860213D01*
X37001143Y26102397D01*
X36860682Y26152509D01*
X37060303Y26234990D01*
X37453629Y26627630D01*
X37666757Y27140900D01*
X37667242Y27696661D01*
X37455010Y28210303D01*
X37062370Y28603629D01*
X36854487Y28689950D01*
X37060303Y28774990D01*
X37453629Y29167630D01*
X37666757Y29680900D01*
X37667242Y30236661D01*
X37455010Y30750303D01*
X37062370Y31143629D01*
X36870272Y31223395D01*
X37001143Y31277603D01*
X37070608Y31519787D01*
X36270000Y32320395D01*
X35469392Y31519787D01*
X35538857Y31277603D01*
X35679317Y31227492D01*
X35479697Y31145010D01*
X35086371Y30752370D01*
X35000050Y30544488D01*
X34915010Y30750303D01*
X34522370Y31143629D01*
X34314487Y31229950D01*
X34520303Y31314990D01*
X34913629Y31707630D01*
X34993394Y31899728D01*
X35047603Y31768857D01*
X35289787Y31699392D01*
X36090395Y32500000D01*
X35289787Y33300608D01*
X35047603Y33231143D01*
X34997491Y33090683D01*
X34915010Y33290303D01*
X34522370Y33683629D01*
X34314487Y33769950D01*
X34520303Y33854990D01*
X34913629Y34247630D01*
X34999949Y34455513D01*
X35084990Y34249697D01*
X35477630Y33856371D01*
X35669727Y33776606D01*
X35538857Y33722397D01*
X35469392Y33480213D01*
X36270000Y32679605D01*
X37070608Y33480213D01*
X37001143Y33722397D01*
X36860682Y33772509D01*
X37060303Y33854990D01*
X37453629Y34247630D01*
X37666757Y34760900D01*
X37667242Y35316661D01*
X37455010Y35830303D01*
X37062370Y36223629D01*
X36854487Y36309950D01*
X37060303Y36394990D01*
X37453629Y36787630D01*
X37666757Y37300900D01*
X37667242Y37856661D01*
X37455010Y38370303D01*
X37062370Y38763629D01*
X36854487Y38849950D01*
X37060303Y38934990D01*
X37453629Y39327630D01*
X37666757Y39840900D01*
X37667242Y40396661D01*
X37455010Y40910303D01*
X37062370Y41303629D01*
X36870272Y41383395D01*
X37001143Y41437603D01*
X37070608Y41679787D01*
X36270000Y42480395D01*
X35469392Y41679787D01*
X35538857Y41437603D01*
X35679317Y41387492D01*
X35479697Y41305010D01*
X35086371Y40912370D01*
X35000050Y40704488D01*
X34915010Y40910303D01*
X34522370Y41303629D01*
X34314487Y41389950D01*
X34520303Y41474990D01*
X34913629Y41867630D01*
X34993394Y42059728D01*
X35047603Y41928857D01*
X35289787Y41859392D01*
X36090395Y42660000D01*
X35289787Y43460608D01*
X35047603Y43391143D01*
X34997491Y43250683D01*
X34915010Y43450303D01*
X34522370Y43843629D01*
X34314487Y43929950D01*
X34520303Y44014990D01*
X34913629Y44407630D01*
X34999949Y44615513D01*
X35084990Y44409697D01*
X35477630Y44016371D01*
X35669727Y43936606D01*
X35538857Y43882397D01*
X35469392Y43640213D01*
X36270000Y42839605D01*
X37070608Y43640213D01*
X37001143Y43882397D01*
X36860682Y43932509D01*
X37060303Y44014990D01*
X37453629Y44407630D01*
X37666757Y44920900D01*
X37667242Y45476661D01*
X37455010Y45990303D01*
X37062370Y46383629D01*
X36854487Y46469950D01*
X37060303Y46554990D01*
X37453629Y46947630D01*
X37666757Y47460900D01*
X37667242Y48016661D01*
X37455010Y48530303D01*
X37062370Y48923629D01*
X36549100Y49136757D01*
X35993339Y49137242D01*
X35479697Y48925010D01*
X35127000Y48572929D01*
X35127000Y48628309D01*
X35115000Y48657280D01*
X35115000Y50365000D01*
X38750000Y50365000D01*
X39280016Y50470427D01*
X39280017Y50470427D01*
X39729343Y50770657D01*
X43073686Y54115000D01*
X45227322Y54115000D01*
X44868902Y53757204D01*
X44665232Y53266713D01*
X44664769Y52735617D01*
X44867582Y52244771D01*
X45242796Y51868902D01*
X45733287Y51665232D01*
X46264383Y51664769D01*
X46755229Y51867582D01*
X46765000Y51877336D01*
X46765000Y50123289D01*
X46757204Y50131098D01*
X46266713Y50334768D01*
X45735617Y50335231D01*
X45244771Y50132418D01*
X44868902Y49757204D01*
X44665232Y49266713D01*
X44664769Y48735617D01*
X44867582Y48244771D01*
X45242796Y47868902D01*
X45529242Y47749959D01*
X45244771Y47632418D01*
X44868902Y47257204D01*
X44665232Y46766713D01*
X44664769Y46235617D01*
X44867582Y45744771D01*
X45242796Y45368902D01*
X45529242Y45249959D01*
X45244771Y45132418D01*
X44868902Y44757204D01*
X44665232Y44266713D01*
X44664769Y43735617D01*
X44867582Y43244771D01*
X45242796Y42868902D01*
X45733287Y42665232D01*
X46264383Y42664769D01*
X46755229Y42867582D01*
X46765000Y42877336D01*
X46765000Y41123289D01*
X46757204Y41131098D01*
X46266713Y41334768D01*
X45735617Y41335231D01*
X45244771Y41132418D01*
X44996921Y40885000D01*
X42261487Y40885000D01*
X42050485Y41096371D01*
X41596734Y41284785D01*
X41105421Y41285214D01*
X40651343Y41097592D01*
X40303629Y40750485D01*
X40115215Y40296734D01*
X40114786Y39805421D01*
X40302408Y39351343D01*
X40649515Y39003629D01*
X41103266Y38815215D01*
X41594579Y38814786D01*
X42048657Y39002408D01*
X42161445Y39115000D01*
X44997126Y39115000D01*
X45242796Y38868902D01*
X45529242Y38749959D01*
X45244771Y38632418D01*
X44868902Y38257204D01*
X44665232Y37766713D01*
X44664769Y37235617D01*
X44867582Y36744771D01*
X45242796Y36368902D01*
X45529242Y36249959D01*
X45244771Y36132418D01*
X44868902Y35757204D01*
X44665232Y35266713D01*
X44664769Y34735617D01*
X44867582Y34244771D01*
X45242796Y33868902D01*
X45733287Y33665232D01*
X46264383Y33664769D01*
X46755229Y33867582D01*
X46765000Y33877336D01*
X46765000Y32123289D01*
X46757204Y32131098D01*
X46266713Y32334768D01*
X45735617Y32335231D01*
X45244771Y32132418D01*
X44868902Y31757204D01*
X44665232Y31266713D01*
X44664769Y30735617D01*
X44867582Y30244771D01*
X45242796Y29868902D01*
X45529242Y29749959D01*
X45244771Y29632418D01*
X44868902Y29257204D01*
X44665232Y28766713D01*
X44664769Y28235617D01*
X44867582Y27744771D01*
X45242796Y27368902D01*
X45529242Y27249959D01*
X45244771Y27132418D01*
X44868902Y26757204D01*
X44665232Y26266713D01*
X44664769Y25735617D01*
X44867582Y25244771D01*
X45242796Y24868902D01*
X45733287Y24665232D01*
X46264383Y24664769D01*
X46755229Y24867582D01*
X46765000Y24877336D01*
X46765000Y23123289D01*
X46757204Y23131098D01*
X46266713Y23334768D01*
X45735617Y23335231D01*
X45244771Y23132418D01*
X44996921Y22885000D01*
X43400005Y22885000D01*
X43400000Y22885001D01*
X43061326Y22817634D01*
X42966054Y22753976D01*
X42774210Y22625790D01*
X42774207Y22625787D01*
X41133435Y20985015D01*
X40905421Y20985214D01*
X40451343Y20797592D01*
X40103629Y20450485D01*
X39915215Y19996734D01*
X39914786Y19505421D01*
X40102408Y19051343D01*
X40449515Y18703629D01*
X40903266Y18515215D01*
X41394579Y18514786D01*
X41848657Y18702408D01*
X42196371Y19049515D01*
X42384785Y19503266D01*
X42384985Y19733407D01*
X43766579Y21115000D01*
X44997126Y21115000D01*
X45242796Y20868902D01*
X45529242Y20749959D01*
X45244771Y20632418D01*
X44868902Y20257204D01*
X44665232Y19766713D01*
X44664769Y19235617D01*
X44867582Y18744771D01*
X45242796Y18368902D01*
X45529242Y18249959D01*
X45244771Y18132418D01*
X44868902Y17757204D01*
X44665232Y17266713D01*
X44664769Y16735617D01*
X44867582Y16244771D01*
X45242796Y15868902D01*
X45733287Y15665232D01*
X46264383Y15664769D01*
X46755229Y15867582D01*
X47131098Y16242796D01*
X47334768Y16733287D01*
X47335231Y17264383D01*
X47132418Y17755229D01*
X46757204Y18131098D01*
X46470757Y18250042D01*
X46506961Y18265000D01*
X47000000Y18265000D01*
X47472614Y18359009D01*
X47873277Y18626723D01*
X48873277Y19626723D01*
X49140991Y20027386D01*
X49235000Y20500000D01*
X49235000Y37500000D01*
X49235000Y54500000D01*
X49140991Y54972614D01*
X48873277Y55373277D01*
X47873277Y56373277D01*
X47472614Y56640991D01*
X47000000Y56735000D01*
X46596725Y56735000D01*
X46534683Y56776455D01*
X46755229Y56867582D01*
X47131098Y57242796D01*
X47334768Y57733287D01*
X47335231Y58264383D01*
X47132418Y58755229D01*
X46757204Y59131098D01*
X46266713Y59334768D01*
X45735617Y59335231D01*
X45244771Y59132418D01*
X44868902Y58757204D01*
X44665232Y58266713D01*
X44664769Y57735617D01*
X44867582Y57244771D01*
X45226726Y56885000D01*
X42500000Y56885000D01*
X41969983Y56779573D01*
X41520657Y56479343D01*
X38176314Y53135000D01*
X38112083Y53135000D01*
X38112083Y57296502D01*
X37600796Y58533912D01*
X36654892Y59481468D01*
X35418376Y59994914D01*
X34079498Y59996083D01*
X32842088Y59484796D01*
X32583000Y59226160D01*
X32583000Y61575250D01*
X32583000Y62623000D01*
X32583000Y62877000D01*
X32583000Y63924750D01*
X32424250Y64083500D01*
X31885191Y64083500D01*
X31651802Y63986827D01*
X31473173Y63808199D01*
X31376500Y63574810D01*
X31376500Y63322191D01*
X31376500Y63035750D01*
X31535250Y62877000D01*
X32583000Y62877000D01*
X32583000Y62623000D01*
X31535250Y62623000D01*
X31376500Y62464250D01*
X31376500Y62177809D01*
X31376500Y61925190D01*
X31473173Y61691801D01*
X31651802Y61513173D01*
X31885191Y61416500D01*
X32424250Y61416500D01*
X32583000Y61575250D01*
X32583000Y59226160D01*
X31894532Y58538892D01*
X31381086Y57302376D01*
X31379917Y55963498D01*
X31891204Y54726088D01*
X32837108Y53778532D01*
X34073624Y53265086D01*
X35412502Y53263917D01*
X36649912Y53775204D01*
X37597468Y54721108D01*
X38110914Y55957624D01*
X38112083Y57296502D01*
X38112083Y53135000D01*
X33750000Y53135000D01*
X33219983Y53029573D01*
X32770657Y52729343D01*
X32750657Y52709343D01*
X32450427Y52260017D01*
X32345000Y51730000D01*
X32345000Y48657281D01*
X32333000Y48628310D01*
X32333000Y48375691D01*
X32333000Y47382447D01*
X30930277Y45979723D01*
X30877000Y45899989D01*
X30877000Y64123000D01*
X39123000Y64123000D01*
X39123000Y63015856D01*
X38921146Y63504380D01*
X38546353Y63879827D01*
X38056413Y64083268D01*
X37525914Y64083731D01*
X37035620Y63881146D01*
X36660173Y63506353D01*
X36519906Y63168554D01*
X36381146Y63504380D01*
X36006353Y63879827D01*
X35516413Y64083268D01*
X34985914Y64083731D01*
X34495620Y63881146D01*
X34120173Y63506353D01*
X34043500Y63321705D01*
X34043500Y63322191D01*
X34043500Y63574810D01*
X33946827Y63808199D01*
X33768198Y63986827D01*
X33534809Y64083500D01*
X32995750Y64083500D01*
X32837000Y63924750D01*
X32837000Y62877000D01*
X32857000Y62877000D01*
X32857000Y62623000D01*
X32837000Y62623000D01*
X32837000Y61575250D01*
X32995750Y61416500D01*
X33534809Y61416500D01*
X33768198Y61513173D01*
X33946827Y61691801D01*
X34043500Y61925190D01*
X34043500Y62177809D01*
X34043500Y62177991D01*
X34118854Y61995620D01*
X34493647Y61620173D01*
X34983587Y61416732D01*
X35514086Y61416269D01*
X36004380Y61618854D01*
X36379827Y61993647D01*
X36520093Y62331447D01*
X36658854Y61995620D01*
X37033647Y61620173D01*
X37523587Y61416732D01*
X38054086Y61416269D01*
X38544380Y61618854D01*
X38919827Y61993647D01*
X39123000Y62482942D01*
X39123000Y60623000D01*
X109623000Y60623000D01*
X109623000Y53802605D01*
M02*
