%FSLAX46Y46*%
G04 Gerber Fmt 4.6, Leading zero omitted, Abs format (unit mm)*
G04 Created by KiCad (PCBNEW (2014-jul-16 BZR unknown)-product) date Mon 06 Oct 2014 10:40:32 AM CEST*
%MOMM*%
G01*
G04 APERTURE LIST*
%ADD10C,0.100000*%
%ADD11R,1.998980X1.998980*%
%ADD12C,1.998980*%
%ADD13R,1.600200X1.803400*%
%ADD14R,1.803400X1.600200*%
%ADD15C,1.676400*%
%ADD16R,1.397000X1.397000*%
%ADD17C,1.397000*%
%ADD18C,2.159000*%
%ADD19R,2.159000X2.159000*%
%ADD20R,1.574800X2.286000*%
%ADD21O,1.574800X2.286000*%
%ADD22R,2.286000X1.574800*%
%ADD23O,2.286000X1.574800*%
%ADD24R,1.524000X1.524000*%
%ADD25C,1.524000*%
%ADD26C,2.000000*%
%ADD27C,2.200000*%
%ADD28C,5.461000*%
%ADD29C,1.400000*%
G04 APERTURE END LIST*
D10*
X0Y65000000D02*
X30000000Y65000000D01*
X0Y0D02*
X0Y65000000D01*
X30000000Y0D02*
X0Y0D01*
X132500000Y65000000D02*
X30000000Y65000000D01*
X132500000Y0D02*
X30000000Y0D01*
X132500000Y0D02*
X132500000Y65000000D01*
D11*
X102250000Y43460000D03*
D12*
X102250000Y48540000D03*
D13*
X117553000Y25750000D03*
X120347000Y25750000D03*
X117553000Y31050000D03*
X120347000Y31050000D03*
X118103000Y40500000D03*
X120897000Y40500000D03*
D14*
X63450000Y36347000D03*
X63450000Y33553000D03*
X63550000Y25247000D03*
X63550000Y22453000D03*
X63550000Y14347000D03*
X63550000Y11553000D03*
X76350000Y33847000D03*
X76350000Y31053000D03*
X76250000Y22747000D03*
X76250000Y19953000D03*
X76350000Y11847000D03*
X76350000Y9053000D03*
D13*
X53453000Y52150000D03*
X56247000Y52150000D03*
X53553000Y34250000D03*
X56347000Y34250000D03*
X53553000Y16250000D03*
X56347000Y16250000D03*
D15*
X66330000Y55750000D03*
X68870000Y55750000D03*
X73480000Y55750000D03*
X76020000Y55750000D03*
X80480000Y55750000D03*
X83020000Y55750000D03*
X101480000Y55750000D03*
X104020000Y55750000D03*
X94480000Y55750000D03*
X97020000Y55750000D03*
X87480000Y55750000D03*
X90020000Y55750000D03*
D16*
X83000000Y37310000D03*
D17*
X83000000Y29690000D03*
D16*
X83000000Y26310000D03*
D17*
X83000000Y18690000D03*
D16*
X83000000Y15310000D03*
D17*
X83000000Y7690000D03*
D18*
X111000000Y10610000D03*
D19*
X111000000Y28390000D03*
D18*
X117500000Y10610000D03*
D19*
X117500000Y28390000D03*
D20*
X50960000Y47190000D03*
D21*
X53500000Y47190000D03*
X56040000Y47190000D03*
X56040000Y54810000D03*
X53500000Y54810000D03*
X50960000Y54810000D03*
D20*
X50960000Y29190000D03*
D21*
X53500000Y29190000D03*
X56040000Y29190000D03*
X56040000Y36810000D03*
X53500000Y36810000D03*
X50960000Y36810000D03*
D20*
X50960000Y11190000D03*
D21*
X53500000Y11190000D03*
X56040000Y11190000D03*
X56040000Y18810000D03*
X53500000Y18810000D03*
X50960000Y18810000D03*
D22*
X66140000Y36390000D03*
D23*
X66140000Y33850000D03*
X66140000Y31310000D03*
X73760000Y31310000D03*
X73760000Y33850000D03*
X73760000Y36390000D03*
D22*
X66140000Y25290000D03*
D23*
X66140000Y22750000D03*
X66140000Y20210000D03*
X73760000Y20210000D03*
X73760000Y22750000D03*
X73760000Y25290000D03*
D22*
X66140000Y14390000D03*
D23*
X66140000Y11850000D03*
X66140000Y9310000D03*
X73760000Y9310000D03*
X73760000Y11850000D03*
X73760000Y14390000D03*
D24*
X65790000Y47410000D03*
D25*
X68330000Y47410000D03*
X70870000Y47410000D03*
D24*
X73410000Y47410000D03*
D25*
X75950000Y47410000D03*
X78490000Y47410000D03*
D24*
X81030000Y47410000D03*
D25*
X83570000Y47410000D03*
X86110000Y47410000D03*
D26*
X123500000Y43500000D03*
X123500000Y48500000D03*
D27*
X123500000Y13500000D03*
X123500000Y18500000D03*
X123500000Y23500000D03*
X123500000Y28500000D03*
X123500000Y33500000D03*
X123500000Y38500000D03*
D24*
X33730000Y47740000D03*
D25*
X36270000Y47740000D03*
X33730000Y45200000D03*
X36270000Y45200000D03*
X33730000Y42660000D03*
X36270000Y42660000D03*
X33730000Y40120000D03*
X36270000Y40120000D03*
X33730000Y37580000D03*
X36270000Y37580000D03*
X33730000Y35040000D03*
X36270000Y35040000D03*
X33730000Y32500000D03*
X36270000Y32500000D03*
X33730000Y29960000D03*
X36270000Y29960000D03*
X33730000Y27420000D03*
X36270000Y27420000D03*
X33730000Y24880000D03*
X36270000Y24880000D03*
D28*
X34746000Y56630000D03*
D25*
X33730000Y22340000D03*
X36270000Y22340000D03*
X33730000Y19800000D03*
X36270000Y19800000D03*
X33730000Y17260000D03*
X36270000Y17260000D03*
D28*
X34746000Y8370000D03*
D16*
X32710000Y62750000D03*
D17*
X35250000Y62750000D03*
X37790000Y62750000D03*
D13*
X66147000Y38750000D03*
X63353000Y38750000D03*
X66147000Y27650000D03*
X63353000Y27650000D03*
X66397000Y16500000D03*
X63603000Y16500000D03*
D29*
X46000000Y49000000D03*
X46000000Y46500000D03*
X46000000Y44000000D03*
X46000000Y31000000D03*
X46000000Y28500000D03*
X46000000Y26000000D03*
X46000000Y13000000D03*
X46000000Y10500000D03*
X46000000Y8000000D03*
X46000000Y58000000D03*
X46000000Y55500000D03*
X46000000Y53000000D03*
X46000000Y40000000D03*
X46000000Y37500000D03*
X46000000Y35000000D03*
X78650000Y36250000D03*
X78650000Y33750000D03*
X78650000Y31250000D03*
X78550000Y25150000D03*
X78550000Y22650000D03*
X78550000Y20150000D03*
X78550000Y14350000D03*
X78550000Y11850000D03*
X78550000Y9350000D03*
X46000000Y22000000D03*
X46000000Y19500000D03*
X46000000Y17000000D03*
D27*
X96500000Y37310000D03*
X104120000Y29690000D03*
X104120000Y37310000D03*
D26*
X86340000Y37310000D03*
X86340000Y29690000D03*
D27*
X96500000Y26310000D03*
X104120000Y18690000D03*
X104120000Y26310000D03*
D26*
X86340000Y26310000D03*
X86340000Y18690000D03*
D27*
X96500000Y15310000D03*
X104120000Y7690000D03*
X104120000Y15310000D03*
D26*
X86340000Y15310000D03*
X86340000Y7690000D03*
M02*
