%FSLAX45Y45*%
G04 Gerber Fmt 4.5, Leading zero omitted, Abs format (unit mm)*
G04 Created by KiCad (PCBNEW (2014-jul-16 BZR unknown)-product) date Mon 06 Oct 2014 10:40:39 AM CEST*
%MOMM*%
G01*
G04 APERTURE LIST*
%ADD10C,0.127000*%
%ADD11C,0.100000*%
%ADD12C,0.200000*%
%ADD13C,0.300000*%
G04 APERTURE END LIST*
D10*
D11*
X0Y6500000D02*
X3000000Y6500000D01*
X0Y0D02*
X0Y6500000D01*
X3000000Y0D02*
X0Y0D01*
X13250000Y6500000D02*
X3000000Y6500000D01*
X13250000Y0D02*
X3000000Y0D01*
X13250000Y0D02*
X13250000Y6500000D01*
D12*
X4085000Y2005000D02*
X4145000Y1945000D01*
X4145000Y2005000D02*
X4085000Y1945000D01*
X4105000Y4035000D02*
X4165000Y3975000D01*
X4165000Y4035000D02*
X4105000Y3975000D01*
X6305000Y4095000D02*
X6365000Y4035000D01*
X6365000Y4095000D02*
X6305000Y4035000D01*
X6305000Y2975000D02*
X6365000Y2915000D01*
X6365000Y2975000D02*
X6305000Y2915000D01*
X6330300Y1850300D02*
X6390300Y1790300D01*
X6390300Y1850300D02*
X6330300Y1790300D01*
X10020000Y1161000D02*
X10080000Y1101000D01*
X10080000Y1161000D02*
X10020000Y1101000D01*
X10035000Y3385000D02*
X10095000Y3325000D01*
X10095000Y3385000D02*
X10035000Y3325000D01*
X11220000Y3380000D02*
X11280000Y3320000D01*
X11280000Y3380000D02*
X11220000Y3320000D01*
X11780000Y3870000D02*
X11840000Y3810000D01*
X11840000Y3870000D02*
X11780000Y3810000D01*
X3311000Y6275000D02*
G75*
G03X3311000Y6275000I-40000J0D01*
G74*
G01*
X3565000Y6275000D02*
G75*
G03X3565000Y6275000I-40000J0D01*
G74*
G01*
X3819000Y6275000D02*
G75*
G03X3819000Y6275000I-40000J0D01*
G74*
G01*
X4640000Y5800000D02*
G75*
G03X4640000Y5800000I-40000J0D01*
G74*
G01*
X4640000Y5550000D02*
G75*
G03X4640000Y5550000I-40000J0D01*
G74*
G01*
X4640000Y5300000D02*
G75*
G03X4640000Y5300000I-40000J0D01*
G74*
G01*
X4640000Y4900000D02*
G75*
G03X4640000Y4900000I-40000J0D01*
G74*
G01*
X4640000Y4650000D02*
G75*
G03X4640000Y4650000I-40000J0D01*
G74*
G01*
X4640000Y4400000D02*
G75*
G03X4640000Y4400000I-40000J0D01*
G74*
G01*
X4640000Y4000000D02*
G75*
G03X4640000Y4000000I-40000J0D01*
G74*
G01*
X4640000Y3750000D02*
G75*
G03X4640000Y3750000I-40000J0D01*
G74*
G01*
X4640000Y3500000D02*
G75*
G03X4640000Y3500000I-40000J0D01*
G74*
G01*
X4640000Y3100000D02*
G75*
G03X4640000Y3100000I-40000J0D01*
G74*
G01*
X4640000Y2850000D02*
G75*
G03X4640000Y2850000I-40000J0D01*
G74*
G01*
X4640000Y2600000D02*
G75*
G03X4640000Y2600000I-40000J0D01*
G74*
G01*
X4640000Y2200000D02*
G75*
G03X4640000Y2200000I-40000J0D01*
G74*
G01*
X4640000Y1950000D02*
G75*
G03X4640000Y1950000I-40000J0D01*
G74*
G01*
X4640000Y1700000D02*
G75*
G03X4640000Y1700000I-40000J0D01*
G74*
G01*
X4640000Y1300000D02*
G75*
G03X4640000Y1300000I-40000J0D01*
G74*
G01*
X4640000Y1050000D02*
G75*
G03X4640000Y1050000I-40000J0D01*
G74*
G01*
X4640000Y800000D02*
G75*
G03X4640000Y800000I-40000J0D01*
G74*
G01*
X5136000Y5481000D02*
G75*
G03X5136000Y5481000I-40000J0D01*
G74*
G01*
X5136000Y4719000D02*
G75*
G03X5136000Y4719000I-40000J0D01*
G74*
G01*
X5136000Y3681000D02*
G75*
G03X5136000Y3681000I-40000J0D01*
G74*
G01*
X5136000Y2919000D02*
G75*
G03X5136000Y2919000I-40000J0D01*
G74*
G01*
X5136000Y1881000D02*
G75*
G03X5136000Y1881000I-40000J0D01*
G74*
G01*
X5136000Y1119000D02*
G75*
G03X5136000Y1119000I-40000J0D01*
G74*
G01*
X5390000Y5481000D02*
G75*
G03X5390000Y5481000I-40000J0D01*
G74*
G01*
X5390000Y4719000D02*
G75*
G03X5390000Y4719000I-40000J0D01*
G74*
G01*
X5390000Y3681000D02*
G75*
G03X5390000Y3681000I-40000J0D01*
G74*
G01*
X5390000Y2919000D02*
G75*
G03X5390000Y2919000I-40000J0D01*
G74*
G01*
X5390000Y1881000D02*
G75*
G03X5390000Y1881000I-40000J0D01*
G74*
G01*
X5390000Y1119000D02*
G75*
G03X5390000Y1119000I-40000J0D01*
G74*
G01*
X5644000Y5481000D02*
G75*
G03X5644000Y5481000I-40000J0D01*
G74*
G01*
X5644000Y4719000D02*
G75*
G03X5644000Y4719000I-40000J0D01*
G74*
G01*
X5644000Y3681000D02*
G75*
G03X5644000Y3681000I-40000J0D01*
G74*
G01*
X5644000Y2919000D02*
G75*
G03X5644000Y2919000I-40000J0D01*
G74*
G01*
X5644000Y1881000D02*
G75*
G03X5644000Y1881000I-40000J0D01*
G74*
G01*
X5644000Y1119000D02*
G75*
G03X5644000Y1119000I-40000J0D01*
G74*
G01*
X6654000Y3639000D02*
G75*
G03X6654000Y3639000I-40000J0D01*
G74*
G01*
X6654000Y3385000D02*
G75*
G03X6654000Y3385000I-40000J0D01*
G74*
G01*
X6654000Y3131000D02*
G75*
G03X6654000Y3131000I-40000J0D01*
G74*
G01*
X6654000Y2529000D02*
G75*
G03X6654000Y2529000I-40000J0D01*
G74*
G01*
X6654000Y2275000D02*
G75*
G03X6654000Y2275000I-40000J0D01*
G74*
G01*
X6654000Y2021000D02*
G75*
G03X6654000Y2021000I-40000J0D01*
G74*
G01*
X6654000Y1439000D02*
G75*
G03X6654000Y1439000I-40000J0D01*
G74*
G01*
X6654000Y1185000D02*
G75*
G03X6654000Y1185000I-40000J0D01*
G74*
G01*
X6654000Y931000D02*
G75*
G03X6654000Y931000I-40000J0D01*
G74*
G01*
X6673000Y5575000D02*
G75*
G03X6673000Y5575000I-40000J0D01*
G74*
G01*
X6927000Y5575000D02*
G75*
G03X6927000Y5575000I-40000J0D01*
G74*
G01*
X7388000Y5575000D02*
G75*
G03X7388000Y5575000I-40000J0D01*
G74*
G01*
X7416000Y3639000D02*
G75*
G03X7416000Y3639000I-40000J0D01*
G74*
G01*
X7416000Y3385000D02*
G75*
G03X7416000Y3385000I-40000J0D01*
G74*
G01*
X7416000Y3131000D02*
G75*
G03X7416000Y3131000I-40000J0D01*
G74*
G01*
X7416000Y2529000D02*
G75*
G03X7416000Y2529000I-40000J0D01*
G74*
G01*
X7416000Y2275000D02*
G75*
G03X7416000Y2275000I-40000J0D01*
G74*
G01*
X7416000Y2021000D02*
G75*
G03X7416000Y2021000I-40000J0D01*
G74*
G01*
X7416000Y1439000D02*
G75*
G03X7416000Y1439000I-40000J0D01*
G74*
G01*
X7416000Y1185000D02*
G75*
G03X7416000Y1185000I-40000J0D01*
G74*
G01*
X7416000Y931000D02*
G75*
G03X7416000Y931000I-40000J0D01*
G74*
G01*
X7642000Y5575000D02*
G75*
G03X7642000Y5575000I-40000J0D01*
G74*
G01*
X7895000Y2515000D02*
G75*
G03X7895000Y2515000I-40000J0D01*
G74*
G01*
X7895000Y2265000D02*
G75*
G03X7895000Y2265000I-40000J0D01*
G74*
G01*
X7895000Y2015000D02*
G75*
G03X7895000Y2015000I-40000J0D01*
G74*
G01*
X7895000Y1435000D02*
G75*
G03X7895000Y1435000I-40000J0D01*
G74*
G01*
X7895000Y1185000D02*
G75*
G03X7895000Y1185000I-40000J0D01*
G74*
G01*
X7895000Y935000D02*
G75*
G03X7895000Y935000I-40000J0D01*
G74*
G01*
X7905000Y3625000D02*
G75*
G03X7905000Y3625000I-40000J0D01*
G74*
G01*
X7905000Y3375000D02*
G75*
G03X7905000Y3375000I-40000J0D01*
G74*
G01*
X7905000Y3125000D02*
G75*
G03X7905000Y3125000I-40000J0D01*
G74*
G01*
X8088000Y5575000D02*
G75*
G03X8088000Y5575000I-40000J0D01*
G74*
G01*
X8340000Y3731000D02*
G75*
G03X8340000Y3731000I-40000J0D01*
G74*
G01*
X8340000Y2969000D02*
G75*
G03X8340000Y2969000I-40000J0D01*
G74*
G01*
X8340000Y2631000D02*
G75*
G03X8340000Y2631000I-40000J0D01*
G74*
G01*
X8340000Y1869000D02*
G75*
G03X8340000Y1869000I-40000J0D01*
G74*
G01*
X8340000Y1531000D02*
G75*
G03X8340000Y1531000I-40000J0D01*
G74*
G01*
X8340000Y769000D02*
G75*
G03X8340000Y769000I-40000J0D01*
G74*
G01*
X8342000Y5575000D02*
G75*
G03X8342000Y5575000I-40000J0D01*
G74*
G01*
X8788000Y5575000D02*
G75*
G03X8788000Y5575000I-40000J0D01*
G74*
G01*
X9042000Y5575000D02*
G75*
G03X9042000Y5575000I-40000J0D01*
G74*
G01*
X9488000Y5575000D02*
G75*
G03X9488000Y5575000I-40000J0D01*
G74*
G01*
X9742000Y5575000D02*
G75*
G03X9742000Y5575000I-40000J0D01*
G74*
G01*
X10188000Y5575000D02*
G75*
G03X10188000Y5575000I-40000J0D01*
G74*
G01*
X10265000Y4854000D02*
G75*
G03X10265000Y4854000I-40000J0D01*
G74*
G01*
X10265000Y4346000D02*
G75*
G03X10265000Y4346000I-40000J0D01*
G74*
G01*
X10442000Y5575000D02*
G75*
G03X10442000Y5575000I-40000J0D01*
G74*
G01*
X374000Y6224000D02*
X374000Y6124000D01*
X324000Y6174000D02*
X424000Y6174000D01*
X374000Y5970000D02*
X374000Y5870000D01*
X324000Y5920000D02*
X424000Y5920000D01*
X374000Y5716000D02*
X374000Y5616000D01*
X324000Y5666000D02*
X424000Y5666000D01*
X374000Y5462000D02*
X374000Y5362000D01*
X324000Y5412000D02*
X424000Y5412000D01*
X374000Y5208000D02*
X374000Y5108000D01*
X324000Y5158000D02*
X424000Y5158000D01*
X374000Y4954000D02*
X374000Y4854000D01*
X324000Y4904000D02*
X424000Y4904000D01*
X374000Y4700000D02*
X374000Y4600000D01*
X324000Y4650000D02*
X424000Y4650000D01*
X374000Y4446000D02*
X374000Y4346000D01*
X324000Y4396000D02*
X424000Y4396000D01*
X374000Y4192000D02*
X374000Y4092000D01*
X324000Y4142000D02*
X424000Y4142000D01*
X374000Y3938000D02*
X374000Y3838000D01*
X324000Y3888000D02*
X424000Y3888000D01*
X374000Y3684000D02*
X374000Y3584000D01*
X324000Y3634000D02*
X424000Y3634000D01*
X374000Y3430000D02*
X374000Y3330000D01*
X324000Y3380000D02*
X424000Y3380000D01*
X374000Y3176000D02*
X374000Y3076000D01*
X324000Y3126000D02*
X424000Y3126000D01*
X374000Y2922000D02*
X374000Y2822000D01*
X324000Y2872000D02*
X424000Y2872000D01*
X374000Y2668000D02*
X374000Y2568000D01*
X324000Y2618000D02*
X424000Y2618000D01*
X374000Y2414000D02*
X374000Y2314000D01*
X324000Y2364000D02*
X424000Y2364000D01*
X374000Y2160000D02*
X374000Y2060000D01*
X324000Y2110000D02*
X424000Y2110000D01*
X374000Y1906000D02*
X374000Y1806000D01*
X324000Y1856000D02*
X424000Y1856000D01*
X374000Y1652000D02*
X374000Y1552000D01*
X324000Y1602000D02*
X424000Y1602000D01*
X374000Y1398000D02*
X374000Y1298000D01*
X324000Y1348000D02*
X424000Y1348000D01*
X374000Y1144000D02*
X374000Y1044000D01*
X324000Y1094000D02*
X424000Y1094000D01*
X374000Y890000D02*
X374000Y790000D01*
X324000Y840000D02*
X424000Y840000D01*
X374000Y636000D02*
X374000Y536000D01*
X324000Y586000D02*
X424000Y586000D01*
X374000Y382000D02*
X374000Y282000D01*
X324000Y332000D02*
X424000Y332000D01*
X628000Y6224000D02*
X628000Y6124000D01*
X578000Y6174000D02*
X678000Y6174000D01*
X628000Y5970000D02*
X628000Y5870000D01*
X578000Y5920000D02*
X678000Y5920000D01*
X628000Y5716000D02*
X628000Y5616000D01*
X578000Y5666000D02*
X678000Y5666000D01*
X628000Y5462000D02*
X628000Y5362000D01*
X578000Y5412000D02*
X678000Y5412000D01*
X628000Y5208000D02*
X628000Y5108000D01*
X578000Y5158000D02*
X678000Y5158000D01*
X628000Y4954000D02*
X628000Y4854000D01*
X578000Y4904000D02*
X678000Y4904000D01*
X628000Y4700000D02*
X628000Y4600000D01*
X578000Y4650000D02*
X678000Y4650000D01*
X628000Y4446000D02*
X628000Y4346000D01*
X578000Y4396000D02*
X678000Y4396000D01*
X628000Y4192000D02*
X628000Y4092000D01*
X578000Y4142000D02*
X678000Y4142000D01*
X628000Y3938000D02*
X628000Y3838000D01*
X578000Y3888000D02*
X678000Y3888000D01*
X628000Y3684000D02*
X628000Y3584000D01*
X578000Y3634000D02*
X678000Y3634000D01*
X628000Y3430000D02*
X628000Y3330000D01*
X578000Y3380000D02*
X678000Y3380000D01*
X628000Y3176000D02*
X628000Y3076000D01*
X578000Y3126000D02*
X678000Y3126000D01*
X628000Y2922000D02*
X628000Y2822000D01*
X578000Y2872000D02*
X678000Y2872000D01*
X628000Y2668000D02*
X628000Y2568000D01*
X578000Y2618000D02*
X678000Y2618000D01*
X628000Y2414000D02*
X628000Y2314000D01*
X578000Y2364000D02*
X678000Y2364000D01*
X628000Y2160000D02*
X628000Y2060000D01*
X578000Y2110000D02*
X678000Y2110000D01*
X628000Y1906000D02*
X628000Y1806000D01*
X578000Y1856000D02*
X678000Y1856000D01*
X628000Y1652000D02*
X628000Y1552000D01*
X578000Y1602000D02*
X678000Y1602000D01*
X628000Y1398000D02*
X628000Y1298000D01*
X578000Y1348000D02*
X678000Y1348000D01*
X628000Y1144000D02*
X628000Y1044000D01*
X578000Y1094000D02*
X678000Y1094000D01*
X628000Y890000D02*
X628000Y790000D01*
X578000Y840000D02*
X678000Y840000D01*
X628000Y636000D02*
X628000Y536000D01*
X578000Y586000D02*
X678000Y586000D01*
X628000Y382000D02*
X628000Y282000D01*
X578000Y332000D02*
X678000Y332000D01*
X882000Y6224000D02*
X882000Y6124000D01*
X832000Y6174000D02*
X932000Y6174000D01*
X882000Y5970000D02*
X882000Y5870000D01*
X832000Y5920000D02*
X932000Y5920000D01*
X882000Y5716000D02*
X882000Y5616000D01*
X832000Y5666000D02*
X932000Y5666000D01*
X882000Y5462000D02*
X882000Y5362000D01*
X832000Y5412000D02*
X932000Y5412000D01*
X882000Y5208000D02*
X882000Y5108000D01*
X832000Y5158000D02*
X932000Y5158000D01*
X882000Y4954000D02*
X882000Y4854000D01*
X832000Y4904000D02*
X932000Y4904000D01*
X882000Y4700000D02*
X882000Y4600000D01*
X832000Y4650000D02*
X932000Y4650000D01*
X882000Y4446000D02*
X882000Y4346000D01*
X832000Y4396000D02*
X932000Y4396000D01*
X882000Y4192000D02*
X882000Y4092000D01*
X832000Y4142000D02*
X932000Y4142000D01*
X882000Y3938000D02*
X882000Y3838000D01*
X832000Y3888000D02*
X932000Y3888000D01*
X882000Y3684000D02*
X882000Y3584000D01*
X832000Y3634000D02*
X932000Y3634000D01*
X882000Y3430000D02*
X882000Y3330000D01*
X832000Y3380000D02*
X932000Y3380000D01*
X882000Y3176000D02*
X882000Y3076000D01*
X832000Y3126000D02*
X932000Y3126000D01*
X882000Y2922000D02*
X882000Y2822000D01*
X832000Y2872000D02*
X932000Y2872000D01*
X882000Y2668000D02*
X882000Y2568000D01*
X832000Y2618000D02*
X932000Y2618000D01*
X882000Y2414000D02*
X882000Y2314000D01*
X832000Y2364000D02*
X932000Y2364000D01*
X882000Y2160000D02*
X882000Y2060000D01*
X832000Y2110000D02*
X932000Y2110000D01*
X882000Y1906000D02*
X882000Y1806000D01*
X832000Y1856000D02*
X932000Y1856000D01*
X882000Y1652000D02*
X882000Y1552000D01*
X832000Y1602000D02*
X932000Y1602000D01*
X882000Y1398000D02*
X882000Y1298000D01*
X832000Y1348000D02*
X932000Y1348000D01*
X882000Y1144000D02*
X882000Y1044000D01*
X832000Y1094000D02*
X932000Y1094000D01*
X882000Y890000D02*
X882000Y790000D01*
X832000Y840000D02*
X932000Y840000D01*
X882000Y636000D02*
X882000Y536000D01*
X832000Y586000D02*
X932000Y586000D01*
X882000Y382000D02*
X882000Y282000D01*
X832000Y332000D02*
X932000Y332000D01*
X1136000Y6224000D02*
X1136000Y6124000D01*
X1086000Y6174000D02*
X1186000Y6174000D01*
X1136000Y5970000D02*
X1136000Y5870000D01*
X1086000Y5920000D02*
X1186000Y5920000D01*
X1136000Y5716000D02*
X1136000Y5616000D01*
X1086000Y5666000D02*
X1186000Y5666000D01*
X1136000Y5462000D02*
X1136000Y5362000D01*
X1086000Y5412000D02*
X1186000Y5412000D01*
X1136000Y5208000D02*
X1136000Y5108000D01*
X1086000Y5158000D02*
X1186000Y5158000D01*
X1136000Y4954000D02*
X1136000Y4854000D01*
X1086000Y4904000D02*
X1186000Y4904000D01*
X1136000Y4700000D02*
X1136000Y4600000D01*
X1086000Y4650000D02*
X1186000Y4650000D01*
X1136000Y4446000D02*
X1136000Y4346000D01*
X1086000Y4396000D02*
X1186000Y4396000D01*
X1136000Y4192000D02*
X1136000Y4092000D01*
X1086000Y4142000D02*
X1186000Y4142000D01*
X1136000Y3938000D02*
X1136000Y3838000D01*
X1086000Y3888000D02*
X1186000Y3888000D01*
X1136000Y3684000D02*
X1136000Y3584000D01*
X1086000Y3634000D02*
X1186000Y3634000D01*
X1136000Y3430000D02*
X1136000Y3330000D01*
X1086000Y3380000D02*
X1186000Y3380000D01*
X1136000Y3176000D02*
X1136000Y3076000D01*
X1086000Y3126000D02*
X1186000Y3126000D01*
X1136000Y2922000D02*
X1136000Y2822000D01*
X1086000Y2872000D02*
X1186000Y2872000D01*
X1136000Y2668000D02*
X1136000Y2568000D01*
X1086000Y2618000D02*
X1186000Y2618000D01*
X1136000Y2414000D02*
X1136000Y2314000D01*
X1086000Y2364000D02*
X1186000Y2364000D01*
X1136000Y2160000D02*
X1136000Y2060000D01*
X1086000Y2110000D02*
X1186000Y2110000D01*
X1136000Y1906000D02*
X1136000Y1806000D01*
X1086000Y1856000D02*
X1186000Y1856000D01*
X1136000Y1652000D02*
X1136000Y1552000D01*
X1086000Y1602000D02*
X1186000Y1602000D01*
X1136000Y1398000D02*
X1136000Y1298000D01*
X1086000Y1348000D02*
X1186000Y1348000D01*
X1136000Y1144000D02*
X1136000Y1044000D01*
X1086000Y1094000D02*
X1186000Y1094000D01*
X1136000Y890000D02*
X1136000Y790000D01*
X1086000Y840000D02*
X1186000Y840000D01*
X1136000Y636000D02*
X1136000Y536000D01*
X1086000Y586000D02*
X1186000Y586000D01*
X1136000Y382000D02*
X1136000Y282000D01*
X1086000Y332000D02*
X1186000Y332000D01*
X1390000Y6224000D02*
X1390000Y6124000D01*
X1340000Y6174000D02*
X1440000Y6174000D01*
X1390000Y5970000D02*
X1390000Y5870000D01*
X1340000Y5920000D02*
X1440000Y5920000D01*
X1390000Y5716000D02*
X1390000Y5616000D01*
X1340000Y5666000D02*
X1440000Y5666000D01*
X1390000Y5462000D02*
X1390000Y5362000D01*
X1340000Y5412000D02*
X1440000Y5412000D01*
X1390000Y5208000D02*
X1390000Y5108000D01*
X1340000Y5158000D02*
X1440000Y5158000D01*
X1390000Y4954000D02*
X1390000Y4854000D01*
X1340000Y4904000D02*
X1440000Y4904000D01*
X1390000Y4700000D02*
X1390000Y4600000D01*
X1340000Y4650000D02*
X1440000Y4650000D01*
X1390000Y4446000D02*
X1390000Y4346000D01*
X1340000Y4396000D02*
X1440000Y4396000D01*
X1390000Y4192000D02*
X1390000Y4092000D01*
X1340000Y4142000D02*
X1440000Y4142000D01*
X1390000Y3938000D02*
X1390000Y3838000D01*
X1340000Y3888000D02*
X1440000Y3888000D01*
X1390000Y3684000D02*
X1390000Y3584000D01*
X1340000Y3634000D02*
X1440000Y3634000D01*
X1390000Y3430000D02*
X1390000Y3330000D01*
X1340000Y3380000D02*
X1440000Y3380000D01*
X1390000Y3176000D02*
X1390000Y3076000D01*
X1340000Y3126000D02*
X1440000Y3126000D01*
X1390000Y2922000D02*
X1390000Y2822000D01*
X1340000Y2872000D02*
X1440000Y2872000D01*
X1390000Y2668000D02*
X1390000Y2568000D01*
X1340000Y2618000D02*
X1440000Y2618000D01*
X1390000Y2414000D02*
X1390000Y2314000D01*
X1340000Y2364000D02*
X1440000Y2364000D01*
X1390000Y2160000D02*
X1390000Y2060000D01*
X1340000Y2110000D02*
X1440000Y2110000D01*
X1390000Y1906000D02*
X1390000Y1806000D01*
X1340000Y1856000D02*
X1440000Y1856000D01*
X1390000Y1652000D02*
X1390000Y1552000D01*
X1340000Y1602000D02*
X1440000Y1602000D01*
X1390000Y1398000D02*
X1390000Y1298000D01*
X1340000Y1348000D02*
X1440000Y1348000D01*
X1390000Y1144000D02*
X1390000Y1044000D01*
X1340000Y1094000D02*
X1440000Y1094000D01*
X1390000Y890000D02*
X1390000Y790000D01*
X1340000Y840000D02*
X1440000Y840000D01*
X1390000Y636000D02*
X1390000Y536000D01*
X1340000Y586000D02*
X1440000Y586000D01*
X1390000Y382000D02*
X1390000Y282000D01*
X1340000Y332000D02*
X1440000Y332000D01*
X1644000Y6224000D02*
X1644000Y6124000D01*
X1594000Y6174000D02*
X1694000Y6174000D01*
X1644000Y5970000D02*
X1644000Y5870000D01*
X1594000Y5920000D02*
X1694000Y5920000D01*
X1644000Y5716000D02*
X1644000Y5616000D01*
X1594000Y5666000D02*
X1694000Y5666000D01*
X1644000Y5462000D02*
X1644000Y5362000D01*
X1594000Y5412000D02*
X1694000Y5412000D01*
X1644000Y5208000D02*
X1644000Y5108000D01*
X1594000Y5158000D02*
X1694000Y5158000D01*
X1644000Y4954000D02*
X1644000Y4854000D01*
X1594000Y4904000D02*
X1694000Y4904000D01*
X1644000Y4700000D02*
X1644000Y4600000D01*
X1594000Y4650000D02*
X1694000Y4650000D01*
X1644000Y4446000D02*
X1644000Y4346000D01*
X1594000Y4396000D02*
X1694000Y4396000D01*
X1644000Y4192000D02*
X1644000Y4092000D01*
X1594000Y4142000D02*
X1694000Y4142000D01*
X1644000Y3938000D02*
X1644000Y3838000D01*
X1594000Y3888000D02*
X1694000Y3888000D01*
X1644000Y3684000D02*
X1644000Y3584000D01*
X1594000Y3634000D02*
X1694000Y3634000D01*
X1644000Y3430000D02*
X1644000Y3330000D01*
X1594000Y3380000D02*
X1694000Y3380000D01*
X1644000Y3176000D02*
X1644000Y3076000D01*
X1594000Y3126000D02*
X1694000Y3126000D01*
X1644000Y2922000D02*
X1644000Y2822000D01*
X1594000Y2872000D02*
X1694000Y2872000D01*
X1644000Y2668000D02*
X1644000Y2568000D01*
X1594000Y2618000D02*
X1694000Y2618000D01*
X1644000Y2414000D02*
X1644000Y2314000D01*
X1594000Y2364000D02*
X1694000Y2364000D01*
X1644000Y2160000D02*
X1644000Y2060000D01*
X1594000Y2110000D02*
X1694000Y2110000D01*
X1644000Y1906000D02*
X1644000Y1806000D01*
X1594000Y1856000D02*
X1694000Y1856000D01*
X1644000Y1652000D02*
X1644000Y1552000D01*
X1594000Y1602000D02*
X1694000Y1602000D01*
X1644000Y1398000D02*
X1644000Y1298000D01*
X1594000Y1348000D02*
X1694000Y1348000D01*
X1644000Y1144000D02*
X1644000Y1044000D01*
X1594000Y1094000D02*
X1694000Y1094000D01*
X1644000Y890000D02*
X1644000Y790000D01*
X1594000Y840000D02*
X1694000Y840000D01*
X1644000Y636000D02*
X1644000Y536000D01*
X1594000Y586000D02*
X1694000Y586000D01*
X1644000Y382000D02*
X1644000Y282000D01*
X1594000Y332000D02*
X1694000Y332000D01*
X1898000Y6224000D02*
X1898000Y6124000D01*
X1848000Y6174000D02*
X1948000Y6174000D01*
X1898000Y5970000D02*
X1898000Y5870000D01*
X1848000Y5920000D02*
X1948000Y5920000D01*
X1898000Y5716000D02*
X1898000Y5616000D01*
X1848000Y5666000D02*
X1948000Y5666000D01*
X1898000Y5462000D02*
X1898000Y5362000D01*
X1848000Y5412000D02*
X1948000Y5412000D01*
X1898000Y5208000D02*
X1898000Y5108000D01*
X1848000Y5158000D02*
X1948000Y5158000D01*
X1898000Y4954000D02*
X1898000Y4854000D01*
X1848000Y4904000D02*
X1948000Y4904000D01*
X1898000Y4700000D02*
X1898000Y4600000D01*
X1848000Y4650000D02*
X1948000Y4650000D01*
X1898000Y4446000D02*
X1898000Y4346000D01*
X1848000Y4396000D02*
X1948000Y4396000D01*
X1898000Y4192000D02*
X1898000Y4092000D01*
X1848000Y4142000D02*
X1948000Y4142000D01*
X1898000Y3938000D02*
X1898000Y3838000D01*
X1848000Y3888000D02*
X1948000Y3888000D01*
X1898000Y3684000D02*
X1898000Y3584000D01*
X1848000Y3634000D02*
X1948000Y3634000D01*
X1898000Y3430000D02*
X1898000Y3330000D01*
X1848000Y3380000D02*
X1948000Y3380000D01*
X1898000Y3176000D02*
X1898000Y3076000D01*
X1848000Y3126000D02*
X1948000Y3126000D01*
X1898000Y2922000D02*
X1898000Y2822000D01*
X1848000Y2872000D02*
X1948000Y2872000D01*
X1898000Y2668000D02*
X1898000Y2568000D01*
X1848000Y2618000D02*
X1948000Y2618000D01*
X1898000Y2414000D02*
X1898000Y2314000D01*
X1848000Y2364000D02*
X1948000Y2364000D01*
X1898000Y2160000D02*
X1898000Y2060000D01*
X1848000Y2110000D02*
X1948000Y2110000D01*
X1898000Y1906000D02*
X1898000Y1806000D01*
X1848000Y1856000D02*
X1948000Y1856000D01*
X1898000Y1652000D02*
X1898000Y1552000D01*
X1848000Y1602000D02*
X1948000Y1602000D01*
X1898000Y1398000D02*
X1898000Y1298000D01*
X1848000Y1348000D02*
X1948000Y1348000D01*
X1898000Y1144000D02*
X1898000Y1044000D01*
X1848000Y1094000D02*
X1948000Y1094000D01*
X1898000Y890000D02*
X1898000Y790000D01*
X1848000Y840000D02*
X1948000Y840000D01*
X1898000Y636000D02*
X1898000Y536000D01*
X1848000Y586000D02*
X1948000Y586000D01*
X1898000Y382000D02*
X1898000Y282000D01*
X1848000Y332000D02*
X1948000Y332000D01*
X2152000Y6224000D02*
X2152000Y6124000D01*
X2102000Y6174000D02*
X2202000Y6174000D01*
X2152000Y5970000D02*
X2152000Y5870000D01*
X2102000Y5920000D02*
X2202000Y5920000D01*
X2152000Y5716000D02*
X2152000Y5616000D01*
X2102000Y5666000D02*
X2202000Y5666000D01*
X2152000Y5462000D02*
X2152000Y5362000D01*
X2102000Y5412000D02*
X2202000Y5412000D01*
X2152000Y5208000D02*
X2152000Y5108000D01*
X2102000Y5158000D02*
X2202000Y5158000D01*
X2152000Y4954000D02*
X2152000Y4854000D01*
X2102000Y4904000D02*
X2202000Y4904000D01*
X2152000Y4700000D02*
X2152000Y4600000D01*
X2102000Y4650000D02*
X2202000Y4650000D01*
X2152000Y4446000D02*
X2152000Y4346000D01*
X2102000Y4396000D02*
X2202000Y4396000D01*
X2152000Y4192000D02*
X2152000Y4092000D01*
X2102000Y4142000D02*
X2202000Y4142000D01*
X2152000Y3938000D02*
X2152000Y3838000D01*
X2102000Y3888000D02*
X2202000Y3888000D01*
X2152000Y3684000D02*
X2152000Y3584000D01*
X2102000Y3634000D02*
X2202000Y3634000D01*
X2152000Y3430000D02*
X2152000Y3330000D01*
X2102000Y3380000D02*
X2202000Y3380000D01*
X2152000Y3176000D02*
X2152000Y3076000D01*
X2102000Y3126000D02*
X2202000Y3126000D01*
X2152000Y2922000D02*
X2152000Y2822000D01*
X2102000Y2872000D02*
X2202000Y2872000D01*
X2152000Y2668000D02*
X2152000Y2568000D01*
X2102000Y2618000D02*
X2202000Y2618000D01*
X2152000Y2414000D02*
X2152000Y2314000D01*
X2102000Y2364000D02*
X2202000Y2364000D01*
X2152000Y2160000D02*
X2152000Y2060000D01*
X2102000Y2110000D02*
X2202000Y2110000D01*
X2152000Y1906000D02*
X2152000Y1806000D01*
X2102000Y1856000D02*
X2202000Y1856000D01*
X2152000Y1652000D02*
X2152000Y1552000D01*
X2102000Y1602000D02*
X2202000Y1602000D01*
X2152000Y1398000D02*
X2152000Y1298000D01*
X2102000Y1348000D02*
X2202000Y1348000D01*
X2152000Y1144000D02*
X2152000Y1044000D01*
X2102000Y1094000D02*
X2202000Y1094000D01*
X2152000Y890000D02*
X2152000Y790000D01*
X2102000Y840000D02*
X2202000Y840000D01*
X2152000Y636000D02*
X2152000Y536000D01*
X2102000Y586000D02*
X2202000Y586000D01*
X2152000Y382000D02*
X2152000Y282000D01*
X2102000Y332000D02*
X2202000Y332000D01*
X2406000Y6224000D02*
X2406000Y6124000D01*
X2356000Y6174000D02*
X2456000Y6174000D01*
X2406000Y5970000D02*
X2406000Y5870000D01*
X2356000Y5920000D02*
X2456000Y5920000D01*
X2406000Y5716000D02*
X2406000Y5616000D01*
X2356000Y5666000D02*
X2456000Y5666000D01*
X2406000Y5462000D02*
X2406000Y5362000D01*
X2356000Y5412000D02*
X2456000Y5412000D01*
X2406000Y5208000D02*
X2406000Y5108000D01*
X2356000Y5158000D02*
X2456000Y5158000D01*
X2406000Y4954000D02*
X2406000Y4854000D01*
X2356000Y4904000D02*
X2456000Y4904000D01*
X2406000Y4700000D02*
X2406000Y4600000D01*
X2356000Y4650000D02*
X2456000Y4650000D01*
X2406000Y4446000D02*
X2406000Y4346000D01*
X2356000Y4396000D02*
X2456000Y4396000D01*
X2406000Y4192000D02*
X2406000Y4092000D01*
X2356000Y4142000D02*
X2456000Y4142000D01*
X2406000Y3938000D02*
X2406000Y3838000D01*
X2356000Y3888000D02*
X2456000Y3888000D01*
X2406000Y3684000D02*
X2406000Y3584000D01*
X2356000Y3634000D02*
X2456000Y3634000D01*
X2406000Y3430000D02*
X2406000Y3330000D01*
X2356000Y3380000D02*
X2456000Y3380000D01*
X2406000Y3176000D02*
X2406000Y3076000D01*
X2356000Y3126000D02*
X2456000Y3126000D01*
X2406000Y2922000D02*
X2406000Y2822000D01*
X2356000Y2872000D02*
X2456000Y2872000D01*
X2406000Y2668000D02*
X2406000Y2568000D01*
X2356000Y2618000D02*
X2456000Y2618000D01*
X2406000Y2414000D02*
X2406000Y2314000D01*
X2356000Y2364000D02*
X2456000Y2364000D01*
X2406000Y2160000D02*
X2406000Y2060000D01*
X2356000Y2110000D02*
X2456000Y2110000D01*
X2406000Y1906000D02*
X2406000Y1806000D01*
X2356000Y1856000D02*
X2456000Y1856000D01*
X2406000Y1652000D02*
X2406000Y1552000D01*
X2356000Y1602000D02*
X2456000Y1602000D01*
X2406000Y1398000D02*
X2406000Y1298000D01*
X2356000Y1348000D02*
X2456000Y1348000D01*
X2406000Y1144000D02*
X2406000Y1044000D01*
X2356000Y1094000D02*
X2456000Y1094000D01*
X2406000Y890000D02*
X2406000Y790000D01*
X2356000Y840000D02*
X2456000Y840000D01*
X2406000Y636000D02*
X2406000Y536000D01*
X2356000Y586000D02*
X2456000Y586000D01*
X2406000Y382000D02*
X2406000Y282000D01*
X2356000Y332000D02*
X2456000Y332000D01*
X2660000Y6224000D02*
X2660000Y6124000D01*
X2610000Y6174000D02*
X2710000Y6174000D01*
X2660000Y5970000D02*
X2660000Y5870000D01*
X2610000Y5920000D02*
X2710000Y5920000D01*
X2660000Y5716000D02*
X2660000Y5616000D01*
X2610000Y5666000D02*
X2710000Y5666000D01*
X2660000Y5462000D02*
X2660000Y5362000D01*
X2610000Y5412000D02*
X2710000Y5412000D01*
X2660000Y5208000D02*
X2660000Y5108000D01*
X2610000Y5158000D02*
X2710000Y5158000D01*
X2660000Y4954000D02*
X2660000Y4854000D01*
X2610000Y4904000D02*
X2710000Y4904000D01*
X2660000Y4700000D02*
X2660000Y4600000D01*
X2610000Y4650000D02*
X2710000Y4650000D01*
X2660000Y4446000D02*
X2660000Y4346000D01*
X2610000Y4396000D02*
X2710000Y4396000D01*
X2660000Y4192000D02*
X2660000Y4092000D01*
X2610000Y4142000D02*
X2710000Y4142000D01*
X2660000Y3938000D02*
X2660000Y3838000D01*
X2610000Y3888000D02*
X2710000Y3888000D01*
X2660000Y3684000D02*
X2660000Y3584000D01*
X2610000Y3634000D02*
X2710000Y3634000D01*
X2660000Y3430000D02*
X2660000Y3330000D01*
X2610000Y3380000D02*
X2710000Y3380000D01*
X2660000Y3176000D02*
X2660000Y3076000D01*
X2610000Y3126000D02*
X2710000Y3126000D01*
X2660000Y2922000D02*
X2660000Y2822000D01*
X2610000Y2872000D02*
X2710000Y2872000D01*
X2660000Y2668000D02*
X2660000Y2568000D01*
X2610000Y2618000D02*
X2710000Y2618000D01*
X2660000Y2414000D02*
X2660000Y2314000D01*
X2610000Y2364000D02*
X2710000Y2364000D01*
X2660000Y2160000D02*
X2660000Y2060000D01*
X2610000Y2110000D02*
X2710000Y2110000D01*
X2660000Y1906000D02*
X2660000Y1806000D01*
X2610000Y1856000D02*
X2710000Y1856000D01*
X2660000Y1652000D02*
X2660000Y1552000D01*
X2610000Y1602000D02*
X2710000Y1602000D01*
X2660000Y1398000D02*
X2660000Y1298000D01*
X2610000Y1348000D02*
X2710000Y1348000D01*
X2660000Y1144000D02*
X2660000Y1044000D01*
X2610000Y1094000D02*
X2710000Y1094000D01*
X2660000Y890000D02*
X2660000Y790000D01*
X2610000Y840000D02*
X2710000Y840000D01*
X2660000Y636000D02*
X2660000Y536000D01*
X2610000Y586000D02*
X2710000Y586000D01*
X2660000Y382000D02*
X2660000Y282000D01*
X2610000Y332000D02*
X2710000Y332000D01*
X3373000Y4824000D02*
X3373000Y4724000D01*
X3323000Y4774000D02*
X3423000Y4774000D01*
X3373000Y4570000D02*
X3373000Y4470000D01*
X3323000Y4520000D02*
X3423000Y4520000D01*
X3373000Y4316000D02*
X3373000Y4216000D01*
X3323000Y4266000D02*
X3423000Y4266000D01*
X3373000Y4062000D02*
X3373000Y3962000D01*
X3323000Y4012000D02*
X3423000Y4012000D01*
X3373000Y3808000D02*
X3373000Y3708000D01*
X3323000Y3758000D02*
X3423000Y3758000D01*
X3373000Y3554000D02*
X3373000Y3454000D01*
X3323000Y3504000D02*
X3423000Y3504000D01*
X3373000Y3300000D02*
X3373000Y3200000D01*
X3323000Y3250000D02*
X3423000Y3250000D01*
X3373000Y3046000D02*
X3373000Y2946000D01*
X3323000Y2996000D02*
X3423000Y2996000D01*
X3373000Y2792000D02*
X3373000Y2692000D01*
X3323000Y2742000D02*
X3423000Y2742000D01*
X3373000Y2538000D02*
X3373000Y2438000D01*
X3323000Y2488000D02*
X3423000Y2488000D01*
X3373000Y2284000D02*
X3373000Y2184000D01*
X3323000Y2234000D02*
X3423000Y2234000D01*
X3373000Y2030000D02*
X3373000Y1930000D01*
X3323000Y1980000D02*
X3423000Y1980000D01*
X3373000Y1776000D02*
X3373000Y1676000D01*
X3323000Y1726000D02*
X3423000Y1726000D01*
X3627000Y4824000D02*
X3627000Y4724000D01*
X3577000Y4774000D02*
X3677000Y4774000D01*
X3627000Y4570000D02*
X3627000Y4470000D01*
X3577000Y4520000D02*
X3677000Y4520000D01*
X3627000Y4316000D02*
X3627000Y4216000D01*
X3577000Y4266000D02*
X3677000Y4266000D01*
X3627000Y4062000D02*
X3627000Y3962000D01*
X3577000Y4012000D02*
X3677000Y4012000D01*
X3627000Y3808000D02*
X3627000Y3708000D01*
X3577000Y3758000D02*
X3677000Y3758000D01*
X3627000Y3554000D02*
X3627000Y3454000D01*
X3577000Y3504000D02*
X3677000Y3504000D01*
X3627000Y3300000D02*
X3627000Y3200000D01*
X3577000Y3250000D02*
X3677000Y3250000D01*
X3627000Y3046000D02*
X3627000Y2946000D01*
X3577000Y2996000D02*
X3677000Y2996000D01*
X3627000Y2792000D02*
X3627000Y2692000D01*
X3577000Y2742000D02*
X3677000Y2742000D01*
X3627000Y2538000D02*
X3627000Y2438000D01*
X3577000Y2488000D02*
X3677000Y2488000D01*
X3627000Y2284000D02*
X3627000Y2184000D01*
X3577000Y2234000D02*
X3677000Y2234000D01*
X3627000Y2030000D02*
X3627000Y1930000D01*
X3577000Y1980000D02*
X3677000Y1980000D01*
X3627000Y1776000D02*
X3627000Y1676000D01*
X3577000Y1726000D02*
X3677000Y1726000D01*
X6579000Y4791000D02*
X6579000Y4691000D01*
X6529000Y4741000D02*
X6629000Y4741000D01*
X6833000Y4791000D02*
X6833000Y4691000D01*
X6783000Y4741000D02*
X6883000Y4741000D01*
X7087000Y4791000D02*
X7087000Y4691000D01*
X7037000Y4741000D02*
X7137000Y4741000D01*
X7341000Y4791000D02*
X7341000Y4691000D01*
X7291000Y4741000D02*
X7391000Y4741000D01*
X7595000Y4791000D02*
X7595000Y4691000D01*
X7545000Y4741000D02*
X7645000Y4741000D01*
X7849000Y4791000D02*
X7849000Y4691000D01*
X7799000Y4741000D02*
X7899000Y4741000D01*
X8103000Y4791000D02*
X8103000Y4691000D01*
X8053000Y4741000D02*
X8153000Y4741000D01*
X8357000Y4791000D02*
X8357000Y4691000D01*
X8307000Y4741000D02*
X8407000Y4741000D01*
X8611000Y4791000D02*
X8611000Y4691000D01*
X8561000Y4741000D02*
X8661000Y4741000D01*
X8634000Y3781000D02*
X8634000Y3681000D01*
X8584000Y3731000D02*
X8684000Y3731000D01*
X8634000Y3019000D02*
X8634000Y2919000D01*
X8584000Y2969000D02*
X8684000Y2969000D01*
X8634000Y2681000D02*
X8634000Y2581000D01*
X8584000Y2631000D02*
X8684000Y2631000D01*
X8634000Y1919000D02*
X8634000Y1819000D01*
X8584000Y1869000D02*
X8684000Y1869000D01*
X8634000Y1581000D02*
X8634000Y1481000D01*
X8584000Y1531000D02*
X8684000Y1531000D01*
X8634000Y819000D02*
X8634000Y719000D01*
X8584000Y769000D02*
X8684000Y769000D01*
D13*
X266429Y-470714D02*
X266429Y-170714D01*
X337857Y-170714D01*
X380714Y-185000D01*
X409286Y-213571D01*
X423571Y-242143D01*
X437857Y-299286D01*
X437857Y-342143D01*
X423571Y-399286D01*
X409286Y-427857D01*
X380714Y-456429D01*
X337857Y-470714D01*
X266429Y-470714D01*
X566429Y-470714D02*
X566429Y-270714D01*
X566429Y-327857D02*
X580714Y-299286D01*
X595000Y-285000D01*
X623571Y-270714D01*
X652143Y-270714D01*
X752143Y-470714D02*
X752143Y-270714D01*
X752143Y-170714D02*
X737857Y-185000D01*
X752143Y-199286D01*
X766428Y-185000D01*
X752143Y-170714D01*
X752143Y-199286D01*
X937857Y-470714D02*
X909286Y-456429D01*
X895000Y-427857D01*
X895000Y-170714D01*
X1095000Y-470714D02*
X1066429Y-456429D01*
X1052143Y-427857D01*
X1052143Y-170714D01*
X1437857Y-470714D02*
X1437857Y-170714D01*
X1537857Y-385000D01*
X1637857Y-170714D01*
X1637857Y-470714D01*
X1909286Y-470714D02*
X1909286Y-313572D01*
X1895000Y-285000D01*
X1866428Y-270714D01*
X1809286Y-270714D01*
X1780714Y-285000D01*
X1909286Y-456429D02*
X1880714Y-470714D01*
X1809286Y-470714D01*
X1780714Y-456429D01*
X1766428Y-427857D01*
X1766428Y-399286D01*
X1780714Y-370714D01*
X1809286Y-356429D01*
X1880714Y-356429D01*
X1909286Y-342143D01*
X2052143Y-270714D02*
X2052143Y-570714D01*
X2052143Y-285000D02*
X2080714Y-270714D01*
X2137857Y-270714D01*
X2166429Y-285000D01*
X2180714Y-299286D01*
X2195000Y-327857D01*
X2195000Y-413571D01*
X2180714Y-442143D01*
X2166429Y-456429D01*
X2137857Y-470714D01*
X2080714Y-470714D01*
X2052143Y-456429D01*
X2323571Y-442143D02*
X2337857Y-456429D01*
X2323571Y-470714D01*
X2309286Y-456429D01*
X2323571Y-442143D01*
X2323571Y-470714D01*
X2323571Y-285000D02*
X2337857Y-299286D01*
X2323571Y-313572D01*
X2309286Y-299286D01*
X2323571Y-285000D01*
X2323571Y-313572D01*
X-65000Y-935000D02*
X-5000Y-995000D01*
X-5000Y-935000D02*
X-65000Y-995000D01*
X323571Y-800714D02*
X352143Y-800714D01*
X380714Y-815000D01*
X395000Y-829286D01*
X409286Y-857857D01*
X423571Y-915000D01*
X423571Y-986429D01*
X409286Y-1043571D01*
X395000Y-1072143D01*
X380714Y-1086429D01*
X352143Y-1100714D01*
X323571Y-1100714D01*
X295000Y-1086429D01*
X280714Y-1072143D01*
X266429Y-1043571D01*
X252143Y-986429D01*
X252143Y-915000D01*
X266429Y-857857D01*
X280714Y-829286D01*
X295000Y-815000D01*
X323571Y-800714D01*
X552143Y-1072143D02*
X566429Y-1086429D01*
X552143Y-1100714D01*
X537857Y-1086429D01*
X552143Y-1072143D01*
X552143Y-1100714D01*
X823571Y-800714D02*
X766428Y-800714D01*
X737857Y-815000D01*
X723571Y-829286D01*
X695000Y-872143D01*
X680714Y-929286D01*
X680714Y-1043571D01*
X695000Y-1072143D01*
X709286Y-1086429D01*
X737857Y-1100714D01*
X795000Y-1100714D01*
X823571Y-1086429D01*
X837857Y-1072143D01*
X852143Y-1043571D01*
X852143Y-972143D01*
X837857Y-943571D01*
X823571Y-929286D01*
X795000Y-915000D01*
X737857Y-915000D01*
X709286Y-929286D01*
X695000Y-943571D01*
X680714Y-972143D01*
X1037857Y-800714D02*
X1066429Y-800714D01*
X1095000Y-815000D01*
X1109286Y-829286D01*
X1123571Y-857857D01*
X1137857Y-915000D01*
X1137857Y-986429D01*
X1123571Y-1043571D01*
X1109286Y-1072143D01*
X1095000Y-1086429D01*
X1066429Y-1100714D01*
X1037857Y-1100714D01*
X1009286Y-1086429D01*
X995000Y-1072143D01*
X980714Y-1043571D01*
X966428Y-986429D01*
X966428Y-915000D01*
X980714Y-857857D01*
X995000Y-829286D01*
X1009286Y-815000D01*
X1037857Y-800714D01*
X1266429Y-1100714D02*
X1266429Y-900714D01*
X1266429Y-929286D02*
X1280714Y-915000D01*
X1309286Y-900714D01*
X1352143Y-900714D01*
X1380714Y-915000D01*
X1395000Y-943571D01*
X1395000Y-1100714D01*
X1395000Y-943571D02*
X1409286Y-915000D01*
X1437857Y-900714D01*
X1480714Y-900714D01*
X1509286Y-915000D01*
X1523571Y-943571D01*
X1523571Y-1100714D01*
X1666428Y-1100714D02*
X1666428Y-900714D01*
X1666428Y-929286D02*
X1680714Y-915000D01*
X1709286Y-900714D01*
X1752143Y-900714D01*
X1780714Y-915000D01*
X1795000Y-943571D01*
X1795000Y-1100714D01*
X1795000Y-943571D02*
X1809286Y-915000D01*
X1837857Y-900714D01*
X1880714Y-900714D01*
X1909286Y-915000D01*
X1923571Y-943571D01*
X1923571Y-1100714D01*
X2509286Y-786429D02*
X2252143Y-1172143D01*
X2895000Y-800714D02*
X2923571Y-800714D01*
X2952143Y-815000D01*
X2966428Y-829286D01*
X2980714Y-857857D01*
X2995000Y-915000D01*
X2995000Y-986429D01*
X2980714Y-1043571D01*
X2966428Y-1072143D01*
X2952143Y-1086429D01*
X2923571Y-1100714D01*
X2895000Y-1100714D01*
X2866428Y-1086429D01*
X2852143Y-1072143D01*
X2837857Y-1043571D01*
X2823571Y-986429D01*
X2823571Y-915000D01*
X2837857Y-857857D01*
X2852143Y-829286D01*
X2866428Y-815000D01*
X2895000Y-800714D01*
X3123571Y-1072143D02*
X3137857Y-1086429D01*
X3123571Y-1100714D01*
X3109286Y-1086429D01*
X3123571Y-1072143D01*
X3123571Y-1100714D01*
X3323571Y-800714D02*
X3352143Y-800714D01*
X3380714Y-815000D01*
X3395000Y-829286D01*
X3409285Y-857857D01*
X3423571Y-915000D01*
X3423571Y-986429D01*
X3409285Y-1043571D01*
X3395000Y-1072143D01*
X3380714Y-1086429D01*
X3352143Y-1100714D01*
X3323571Y-1100714D01*
X3295000Y-1086429D01*
X3280714Y-1072143D01*
X3266428Y-1043571D01*
X3252143Y-986429D01*
X3252143Y-915000D01*
X3266428Y-857857D01*
X3280714Y-829286D01*
X3295000Y-815000D01*
X3323571Y-800714D01*
X3537857Y-829286D02*
X3552143Y-815000D01*
X3580714Y-800714D01*
X3652143Y-800714D01*
X3680714Y-815000D01*
X3695000Y-829286D01*
X3709285Y-857857D01*
X3709285Y-886429D01*
X3695000Y-929286D01*
X3523571Y-1100714D01*
X3709285Y-1100714D01*
X3966428Y-900714D02*
X3966428Y-1100714D01*
X3895000Y-786429D02*
X3823571Y-1000714D01*
X4009285Y-1000714D01*
X4109286Y-800714D02*
X4109286Y-857857D01*
X4223571Y-800714D02*
X4223571Y-857857D01*
X4666428Y-1215000D02*
X4652143Y-1200714D01*
X4623571Y-1157857D01*
X4609286Y-1129286D01*
X4595000Y-1086429D01*
X4580714Y-1015000D01*
X4580714Y-957857D01*
X4595000Y-886429D01*
X4609286Y-843571D01*
X4623571Y-815000D01*
X4652143Y-772143D01*
X4666428Y-757857D01*
X4795000Y-1100714D02*
X4852143Y-1100714D01*
X4880714Y-1086429D01*
X4895000Y-1072143D01*
X4923571Y-1029286D01*
X4937857Y-972143D01*
X4937857Y-857857D01*
X4923571Y-829286D01*
X4909286Y-815000D01*
X4880714Y-800714D01*
X4823571Y-800714D01*
X4795000Y-815000D01*
X4780714Y-829286D01*
X4766428Y-857857D01*
X4766428Y-929286D01*
X4780714Y-957857D01*
X4795000Y-972143D01*
X4823571Y-986429D01*
X4880714Y-986429D01*
X4909286Y-972143D01*
X4923571Y-957857D01*
X4937857Y-929286D01*
X5295000Y-1100714D02*
X5295000Y-800714D01*
X5423571Y-1100714D02*
X5423571Y-943571D01*
X5409286Y-915000D01*
X5380714Y-900714D01*
X5337857Y-900714D01*
X5309286Y-915000D01*
X5295000Y-929286D01*
X5609285Y-1100714D02*
X5580714Y-1086429D01*
X5566428Y-1072143D01*
X5552143Y-1043571D01*
X5552143Y-957857D01*
X5566428Y-929286D01*
X5580714Y-915000D01*
X5609285Y-900714D01*
X5652143Y-900714D01*
X5680714Y-915000D01*
X5695000Y-929286D01*
X5709285Y-957857D01*
X5709285Y-1043571D01*
X5695000Y-1072143D01*
X5680714Y-1086429D01*
X5652143Y-1100714D01*
X5609285Y-1100714D01*
X5880714Y-1100714D02*
X5852143Y-1086429D01*
X5837857Y-1057857D01*
X5837857Y-800714D01*
X6109286Y-1086429D02*
X6080714Y-1100714D01*
X6023571Y-1100714D01*
X5995000Y-1086429D01*
X5980714Y-1057857D01*
X5980714Y-943571D01*
X5995000Y-915000D01*
X6023571Y-900714D01*
X6080714Y-900714D01*
X6109286Y-915000D01*
X6123571Y-943571D01*
X6123571Y-972143D01*
X5980714Y-1000714D01*
X6237857Y-1086429D02*
X6266428Y-1100714D01*
X6323571Y-1100714D01*
X6352143Y-1086429D01*
X6366428Y-1057857D01*
X6366428Y-1043571D01*
X6352143Y-1015000D01*
X6323571Y-1000714D01*
X6280714Y-1000714D01*
X6252143Y-986429D01*
X6237857Y-957857D01*
X6237857Y-943571D01*
X6252143Y-915000D01*
X6280714Y-900714D01*
X6323571Y-900714D01*
X6352143Y-915000D01*
X6466428Y-1215000D02*
X6480714Y-1200714D01*
X6509286Y-1157857D01*
X6523571Y-1129286D01*
X6537857Y-1086429D01*
X6552143Y-1015000D01*
X6552143Y-957857D01*
X6537857Y-886429D01*
X6523571Y-843571D01*
X6509286Y-815000D01*
X6480714Y-772143D01*
X6466428Y-757857D01*
D12*
X-5000Y-1361000D02*
G75*
G03X-5000Y-1361000I-40000J0D01*
G74*
G01*
D13*
X323571Y-1196714D02*
X352143Y-1196714D01*
X380714Y-1211000D01*
X395000Y-1225286D01*
X409286Y-1253857D01*
X423571Y-1311000D01*
X423571Y-1382429D01*
X409286Y-1439571D01*
X395000Y-1468143D01*
X380714Y-1482429D01*
X352143Y-1496714D01*
X323571Y-1496714D01*
X295000Y-1482429D01*
X280714Y-1468143D01*
X266429Y-1439571D01*
X252143Y-1382429D01*
X252143Y-1311000D01*
X266429Y-1253857D01*
X280714Y-1225286D01*
X295000Y-1211000D01*
X323571Y-1196714D01*
X552143Y-1468143D02*
X566429Y-1482429D01*
X552143Y-1496714D01*
X537857Y-1482429D01*
X552143Y-1468143D01*
X552143Y-1496714D01*
X737857Y-1325286D02*
X709286Y-1311000D01*
X695000Y-1296714D01*
X680714Y-1268143D01*
X680714Y-1253857D01*
X695000Y-1225286D01*
X709286Y-1211000D01*
X737857Y-1196714D01*
X795000Y-1196714D01*
X823571Y-1211000D01*
X837857Y-1225286D01*
X852143Y-1253857D01*
X852143Y-1268143D01*
X837857Y-1296714D01*
X823571Y-1311000D01*
X795000Y-1325286D01*
X737857Y-1325286D01*
X709286Y-1339572D01*
X695000Y-1353857D01*
X680714Y-1382429D01*
X680714Y-1439571D01*
X695000Y-1468143D01*
X709286Y-1482429D01*
X737857Y-1496714D01*
X795000Y-1496714D01*
X823571Y-1482429D01*
X837857Y-1468143D01*
X852143Y-1439571D01*
X852143Y-1382429D01*
X837857Y-1353857D01*
X823571Y-1339572D01*
X795000Y-1325286D01*
X1037857Y-1196714D02*
X1066429Y-1196714D01*
X1095000Y-1211000D01*
X1109286Y-1225286D01*
X1123571Y-1253857D01*
X1137857Y-1311000D01*
X1137857Y-1382429D01*
X1123571Y-1439571D01*
X1109286Y-1468143D01*
X1095000Y-1482429D01*
X1066429Y-1496714D01*
X1037857Y-1496714D01*
X1009286Y-1482429D01*
X995000Y-1468143D01*
X980714Y-1439571D01*
X966428Y-1382429D01*
X966428Y-1311000D01*
X980714Y-1253857D01*
X995000Y-1225286D01*
X1009286Y-1211000D01*
X1037857Y-1196714D01*
X1266429Y-1496714D02*
X1266429Y-1296714D01*
X1266429Y-1325286D02*
X1280714Y-1311000D01*
X1309286Y-1296714D01*
X1352143Y-1296714D01*
X1380714Y-1311000D01*
X1395000Y-1339572D01*
X1395000Y-1496714D01*
X1395000Y-1339572D02*
X1409286Y-1311000D01*
X1437857Y-1296714D01*
X1480714Y-1296714D01*
X1509286Y-1311000D01*
X1523571Y-1339572D01*
X1523571Y-1496714D01*
X1666428Y-1496714D02*
X1666428Y-1296714D01*
X1666428Y-1325286D02*
X1680714Y-1311000D01*
X1709286Y-1296714D01*
X1752143Y-1296714D01*
X1780714Y-1311000D01*
X1795000Y-1339572D01*
X1795000Y-1496714D01*
X1795000Y-1339572D02*
X1809286Y-1311000D01*
X1837857Y-1296714D01*
X1880714Y-1296714D01*
X1909286Y-1311000D01*
X1923571Y-1339572D01*
X1923571Y-1496714D01*
X2509286Y-1182429D02*
X2252143Y-1568143D01*
X2895000Y-1196714D02*
X2923571Y-1196714D01*
X2952143Y-1211000D01*
X2966428Y-1225286D01*
X2980714Y-1253857D01*
X2995000Y-1311000D01*
X2995000Y-1382429D01*
X2980714Y-1439571D01*
X2966428Y-1468143D01*
X2952143Y-1482429D01*
X2923571Y-1496714D01*
X2895000Y-1496714D01*
X2866428Y-1482429D01*
X2852143Y-1468143D01*
X2837857Y-1439571D01*
X2823571Y-1382429D01*
X2823571Y-1311000D01*
X2837857Y-1253857D01*
X2852143Y-1225286D01*
X2866428Y-1211000D01*
X2895000Y-1196714D01*
X3123571Y-1468143D02*
X3137857Y-1482429D01*
X3123571Y-1496714D01*
X3109286Y-1482429D01*
X3123571Y-1468143D01*
X3123571Y-1496714D01*
X3323571Y-1196714D02*
X3352143Y-1196714D01*
X3380714Y-1211000D01*
X3395000Y-1225286D01*
X3409285Y-1253857D01*
X3423571Y-1311000D01*
X3423571Y-1382429D01*
X3409285Y-1439571D01*
X3395000Y-1468143D01*
X3380714Y-1482429D01*
X3352143Y-1496714D01*
X3323571Y-1496714D01*
X3295000Y-1482429D01*
X3280714Y-1468143D01*
X3266428Y-1439571D01*
X3252143Y-1382429D01*
X3252143Y-1311000D01*
X3266428Y-1253857D01*
X3280714Y-1225286D01*
X3295000Y-1211000D01*
X3323571Y-1196714D01*
X3523571Y-1196714D02*
X3709285Y-1196714D01*
X3609285Y-1311000D01*
X3652143Y-1311000D01*
X3680714Y-1325286D01*
X3695000Y-1339572D01*
X3709285Y-1368143D01*
X3709285Y-1439571D01*
X3695000Y-1468143D01*
X3680714Y-1482429D01*
X3652143Y-1496714D01*
X3566428Y-1496714D01*
X3537857Y-1482429D01*
X3523571Y-1468143D01*
X3995000Y-1496714D02*
X3823571Y-1496714D01*
X3909285Y-1496714D02*
X3909285Y-1196714D01*
X3880714Y-1239572D01*
X3852143Y-1268143D01*
X3823571Y-1282429D01*
X4109286Y-1196714D02*
X4109286Y-1253857D01*
X4223571Y-1196714D02*
X4223571Y-1253857D01*
X4666428Y-1611000D02*
X4652143Y-1596714D01*
X4623571Y-1553857D01*
X4609286Y-1525286D01*
X4595000Y-1482429D01*
X4580714Y-1411000D01*
X4580714Y-1353857D01*
X4595000Y-1282429D01*
X4609286Y-1239572D01*
X4623571Y-1211000D01*
X4652143Y-1168143D01*
X4666428Y-1153857D01*
X4823571Y-1325286D02*
X4795000Y-1311000D01*
X4780714Y-1296714D01*
X4766428Y-1268143D01*
X4766428Y-1253857D01*
X4780714Y-1225286D01*
X4795000Y-1211000D01*
X4823571Y-1196714D01*
X4880714Y-1196714D01*
X4909286Y-1211000D01*
X4923571Y-1225286D01*
X4937857Y-1253857D01*
X4937857Y-1268143D01*
X4923571Y-1296714D01*
X4909286Y-1311000D01*
X4880714Y-1325286D01*
X4823571Y-1325286D01*
X4795000Y-1339572D01*
X4780714Y-1353857D01*
X4766428Y-1382429D01*
X4766428Y-1439571D01*
X4780714Y-1468143D01*
X4795000Y-1482429D01*
X4823571Y-1496714D01*
X4880714Y-1496714D01*
X4909286Y-1482429D01*
X4923571Y-1468143D01*
X4937857Y-1439571D01*
X4937857Y-1382429D01*
X4923571Y-1353857D01*
X4909286Y-1339572D01*
X4880714Y-1325286D01*
X5195000Y-1196714D02*
X5137857Y-1196714D01*
X5109286Y-1211000D01*
X5095000Y-1225286D01*
X5066428Y-1268143D01*
X5052143Y-1325286D01*
X5052143Y-1439571D01*
X5066428Y-1468143D01*
X5080714Y-1482429D01*
X5109286Y-1496714D01*
X5166428Y-1496714D01*
X5195000Y-1482429D01*
X5209286Y-1468143D01*
X5223571Y-1439571D01*
X5223571Y-1368143D01*
X5209286Y-1339572D01*
X5195000Y-1325286D01*
X5166428Y-1311000D01*
X5109286Y-1311000D01*
X5080714Y-1325286D01*
X5066428Y-1339572D01*
X5052143Y-1368143D01*
X5580714Y-1496714D02*
X5580714Y-1196714D01*
X5709285Y-1496714D02*
X5709285Y-1339572D01*
X5695000Y-1311000D01*
X5666428Y-1296714D01*
X5623571Y-1296714D01*
X5595000Y-1311000D01*
X5580714Y-1325286D01*
X5895000Y-1496714D02*
X5866428Y-1482429D01*
X5852143Y-1468143D01*
X5837857Y-1439571D01*
X5837857Y-1353857D01*
X5852143Y-1325286D01*
X5866428Y-1311000D01*
X5895000Y-1296714D01*
X5937857Y-1296714D01*
X5966428Y-1311000D01*
X5980714Y-1325286D01*
X5995000Y-1353857D01*
X5995000Y-1439571D01*
X5980714Y-1468143D01*
X5966428Y-1482429D01*
X5937857Y-1496714D01*
X5895000Y-1496714D01*
X6166428Y-1496714D02*
X6137857Y-1482429D01*
X6123571Y-1453857D01*
X6123571Y-1196714D01*
X6395000Y-1482429D02*
X6366428Y-1496714D01*
X6309286Y-1496714D01*
X6280714Y-1482429D01*
X6266428Y-1453857D01*
X6266428Y-1339572D01*
X6280714Y-1311000D01*
X6309286Y-1296714D01*
X6366428Y-1296714D01*
X6395000Y-1311000D01*
X6409286Y-1339572D01*
X6409286Y-1368143D01*
X6266428Y-1396714D01*
X6523571Y-1482429D02*
X6552143Y-1496714D01*
X6609286Y-1496714D01*
X6637857Y-1482429D01*
X6652143Y-1453857D01*
X6652143Y-1439571D01*
X6637857Y-1411000D01*
X6609286Y-1396714D01*
X6566428Y-1396714D01*
X6537857Y-1382429D01*
X6523571Y-1353857D01*
X6523571Y-1339572D01*
X6537857Y-1311000D01*
X6566428Y-1296714D01*
X6609286Y-1296714D01*
X6637857Y-1311000D01*
X6752143Y-1611000D02*
X6766428Y-1596714D01*
X6795000Y-1553857D01*
X6809286Y-1525286D01*
X6823571Y-1482429D01*
X6837857Y-1411000D01*
X6837857Y-1353857D01*
X6823571Y-1282429D01*
X6809286Y-1239572D01*
X6795000Y-1211000D01*
X6766428Y-1168143D01*
X6752143Y-1153857D01*
X-55000Y-1707000D02*
X-55000Y-1807000D01*
X-105000Y-1757000D02*
X-5000Y-1757000D01*
X423571Y-1892714D02*
X252143Y-1892714D01*
X337857Y-1892714D02*
X337857Y-1592714D01*
X309286Y-1635571D01*
X280714Y-1664143D01*
X252143Y-1678429D01*
X552143Y-1864143D02*
X566429Y-1878429D01*
X552143Y-1892714D01*
X537857Y-1878429D01*
X552143Y-1864143D01*
X552143Y-1892714D01*
X752143Y-1592714D02*
X780714Y-1592714D01*
X809286Y-1607000D01*
X823571Y-1621286D01*
X837857Y-1649857D01*
X852143Y-1707000D01*
X852143Y-1778429D01*
X837857Y-1835571D01*
X823571Y-1864143D01*
X809286Y-1878429D01*
X780714Y-1892714D01*
X752143Y-1892714D01*
X723571Y-1878429D01*
X709286Y-1864143D01*
X695000Y-1835571D01*
X680714Y-1778429D01*
X680714Y-1707000D01*
X695000Y-1649857D01*
X709286Y-1621286D01*
X723571Y-1607000D01*
X752143Y-1592714D01*
X1037857Y-1592714D02*
X1066429Y-1592714D01*
X1095000Y-1607000D01*
X1109286Y-1621286D01*
X1123571Y-1649857D01*
X1137857Y-1707000D01*
X1137857Y-1778429D01*
X1123571Y-1835571D01*
X1109286Y-1864143D01*
X1095000Y-1878429D01*
X1066429Y-1892714D01*
X1037857Y-1892714D01*
X1009286Y-1878429D01*
X995000Y-1864143D01*
X980714Y-1835571D01*
X966428Y-1778429D01*
X966428Y-1707000D01*
X980714Y-1649857D01*
X995000Y-1621286D01*
X1009286Y-1607000D01*
X1037857Y-1592714D01*
X1266429Y-1892714D02*
X1266429Y-1692714D01*
X1266429Y-1721286D02*
X1280714Y-1707000D01*
X1309286Y-1692714D01*
X1352143Y-1692714D01*
X1380714Y-1707000D01*
X1395000Y-1735571D01*
X1395000Y-1892714D01*
X1395000Y-1735571D02*
X1409286Y-1707000D01*
X1437857Y-1692714D01*
X1480714Y-1692714D01*
X1509286Y-1707000D01*
X1523571Y-1735571D01*
X1523571Y-1892714D01*
X1666428Y-1892714D02*
X1666428Y-1692714D01*
X1666428Y-1721286D02*
X1680714Y-1707000D01*
X1709286Y-1692714D01*
X1752143Y-1692714D01*
X1780714Y-1707000D01*
X1795000Y-1735571D01*
X1795000Y-1892714D01*
X1795000Y-1735571D02*
X1809286Y-1707000D01*
X1837857Y-1692714D01*
X1880714Y-1692714D01*
X1909286Y-1707000D01*
X1923571Y-1735571D01*
X1923571Y-1892714D01*
X2509286Y-1578429D02*
X2252143Y-1964143D01*
X2895000Y-1592714D02*
X2923571Y-1592714D01*
X2952143Y-1607000D01*
X2966428Y-1621286D01*
X2980714Y-1649857D01*
X2995000Y-1707000D01*
X2995000Y-1778429D01*
X2980714Y-1835571D01*
X2966428Y-1864143D01*
X2952143Y-1878429D01*
X2923571Y-1892714D01*
X2895000Y-1892714D01*
X2866428Y-1878429D01*
X2852143Y-1864143D01*
X2837857Y-1835571D01*
X2823571Y-1778429D01*
X2823571Y-1707000D01*
X2837857Y-1649857D01*
X2852143Y-1621286D01*
X2866428Y-1607000D01*
X2895000Y-1592714D01*
X3123571Y-1864143D02*
X3137857Y-1878429D01*
X3123571Y-1892714D01*
X3109286Y-1878429D01*
X3123571Y-1864143D01*
X3123571Y-1892714D01*
X3323571Y-1592714D02*
X3352143Y-1592714D01*
X3380714Y-1607000D01*
X3395000Y-1621286D01*
X3409285Y-1649857D01*
X3423571Y-1707000D01*
X3423571Y-1778429D01*
X3409285Y-1835571D01*
X3395000Y-1864143D01*
X3380714Y-1878429D01*
X3352143Y-1892714D01*
X3323571Y-1892714D01*
X3295000Y-1878429D01*
X3280714Y-1864143D01*
X3266428Y-1835571D01*
X3252143Y-1778429D01*
X3252143Y-1707000D01*
X3266428Y-1649857D01*
X3280714Y-1621286D01*
X3295000Y-1607000D01*
X3323571Y-1592714D01*
X3523571Y-1592714D02*
X3709285Y-1592714D01*
X3609285Y-1707000D01*
X3652143Y-1707000D01*
X3680714Y-1721286D01*
X3695000Y-1735571D01*
X3709285Y-1764143D01*
X3709285Y-1835571D01*
X3695000Y-1864143D01*
X3680714Y-1878429D01*
X3652143Y-1892714D01*
X3566428Y-1892714D01*
X3537857Y-1878429D01*
X3523571Y-1864143D01*
X3852143Y-1892714D02*
X3909285Y-1892714D01*
X3937857Y-1878429D01*
X3952143Y-1864143D01*
X3980714Y-1821286D01*
X3995000Y-1764143D01*
X3995000Y-1649857D01*
X3980714Y-1621286D01*
X3966428Y-1607000D01*
X3937857Y-1592714D01*
X3880714Y-1592714D01*
X3852143Y-1607000D01*
X3837857Y-1621286D01*
X3823571Y-1649857D01*
X3823571Y-1721286D01*
X3837857Y-1749857D01*
X3852143Y-1764143D01*
X3880714Y-1778429D01*
X3937857Y-1778429D01*
X3966428Y-1764143D01*
X3980714Y-1749857D01*
X3995000Y-1721286D01*
X4109286Y-1592714D02*
X4109286Y-1649857D01*
X4223571Y-1592714D02*
X4223571Y-1649857D01*
X4666428Y-2007000D02*
X4652143Y-1992714D01*
X4623571Y-1949857D01*
X4609286Y-1921286D01*
X4595000Y-1878429D01*
X4580714Y-1807000D01*
X4580714Y-1749857D01*
X4595000Y-1678429D01*
X4609286Y-1635571D01*
X4623571Y-1607000D01*
X4652143Y-1564143D01*
X4666428Y-1549857D01*
X4766428Y-1621286D02*
X4780714Y-1607000D01*
X4809286Y-1592714D01*
X4880714Y-1592714D01*
X4909286Y-1607000D01*
X4923571Y-1621286D01*
X4937857Y-1649857D01*
X4937857Y-1678429D01*
X4923571Y-1721286D01*
X4752143Y-1892714D01*
X4937857Y-1892714D01*
X5109286Y-1721286D02*
X5080714Y-1707000D01*
X5066428Y-1692714D01*
X5052143Y-1664143D01*
X5052143Y-1649857D01*
X5066428Y-1621286D01*
X5080714Y-1607000D01*
X5109286Y-1592714D01*
X5166428Y-1592714D01*
X5195000Y-1607000D01*
X5209286Y-1621286D01*
X5223571Y-1649857D01*
X5223571Y-1664143D01*
X5209286Y-1692714D01*
X5195000Y-1707000D01*
X5166428Y-1721286D01*
X5109286Y-1721286D01*
X5080714Y-1735571D01*
X5066428Y-1749857D01*
X5052143Y-1778429D01*
X5052143Y-1835571D01*
X5066428Y-1864143D01*
X5080714Y-1878429D01*
X5109286Y-1892714D01*
X5166428Y-1892714D01*
X5195000Y-1878429D01*
X5209286Y-1864143D01*
X5223571Y-1835571D01*
X5223571Y-1778429D01*
X5209286Y-1749857D01*
X5195000Y-1735571D01*
X5166428Y-1721286D01*
X5509286Y-1892714D02*
X5337857Y-1892714D01*
X5423571Y-1892714D02*
X5423571Y-1592714D01*
X5395000Y-1635571D01*
X5366428Y-1664143D01*
X5337857Y-1678429D01*
X5866428Y-1892714D02*
X5866428Y-1592714D01*
X5995000Y-1892714D02*
X5995000Y-1735571D01*
X5980714Y-1707000D01*
X5952143Y-1692714D01*
X5909285Y-1692714D01*
X5880714Y-1707000D01*
X5866428Y-1721286D01*
X6180714Y-1892714D02*
X6152143Y-1878429D01*
X6137857Y-1864143D01*
X6123571Y-1835571D01*
X6123571Y-1749857D01*
X6137857Y-1721286D01*
X6152143Y-1707000D01*
X6180714Y-1692714D01*
X6223571Y-1692714D01*
X6252143Y-1707000D01*
X6266428Y-1721286D01*
X6280714Y-1749857D01*
X6280714Y-1835571D01*
X6266428Y-1864143D01*
X6252143Y-1878429D01*
X6223571Y-1892714D01*
X6180714Y-1892714D01*
X6452143Y-1892714D02*
X6423571Y-1878429D01*
X6409286Y-1849857D01*
X6409286Y-1592714D01*
X6680714Y-1878429D02*
X6652143Y-1892714D01*
X6595000Y-1892714D01*
X6566428Y-1878429D01*
X6552143Y-1849857D01*
X6552143Y-1735571D01*
X6566428Y-1707000D01*
X6595000Y-1692714D01*
X6652143Y-1692714D01*
X6680714Y-1707000D01*
X6695000Y-1735571D01*
X6695000Y-1764143D01*
X6552143Y-1792714D01*
X6809286Y-1878429D02*
X6837857Y-1892714D01*
X6895000Y-1892714D01*
X6923571Y-1878429D01*
X6937857Y-1849857D01*
X6937857Y-1835571D01*
X6923571Y-1807000D01*
X6895000Y-1792714D01*
X6852143Y-1792714D01*
X6823571Y-1778429D01*
X6809286Y-1749857D01*
X6809286Y-1735571D01*
X6823571Y-1707000D01*
X6852143Y-1692714D01*
X6895000Y-1692714D01*
X6923571Y-1707000D01*
X7037857Y-2007000D02*
X7052143Y-1992714D01*
X7080714Y-1949857D01*
X7095000Y-1921286D01*
X7109286Y-1878429D01*
X7123571Y-1807000D01*
X7123571Y-1749857D01*
X7109286Y-1678429D01*
X7095000Y-1635571D01*
X7080714Y-1607000D01*
X7052143Y-1564143D01*
X7037857Y-1549857D01*
D12*
D13*
X423571Y-2288714D02*
X252143Y-2288714D01*
X337857Y-2288714D02*
X337857Y-1988714D01*
X309286Y-2031571D01*
X280714Y-2060143D01*
X252143Y-2074429D01*
X552143Y-2260143D02*
X566429Y-2274429D01*
X552143Y-2288714D01*
X537857Y-2274429D01*
X552143Y-2260143D01*
X552143Y-2288714D01*
X837857Y-1988714D02*
X695000Y-1988714D01*
X680714Y-2131572D01*
X695000Y-2117286D01*
X723571Y-2103000D01*
X795000Y-2103000D01*
X823571Y-2117286D01*
X837857Y-2131572D01*
X852143Y-2160143D01*
X852143Y-2231572D01*
X837857Y-2260143D01*
X823571Y-2274429D01*
X795000Y-2288714D01*
X723571Y-2288714D01*
X695000Y-2274429D01*
X680714Y-2260143D01*
X1037857Y-1988714D02*
X1066429Y-1988714D01*
X1095000Y-2003000D01*
X1109286Y-2017286D01*
X1123571Y-2045857D01*
X1137857Y-2103000D01*
X1137857Y-2174429D01*
X1123571Y-2231572D01*
X1109286Y-2260143D01*
X1095000Y-2274429D01*
X1066429Y-2288714D01*
X1037857Y-2288714D01*
X1009286Y-2274429D01*
X995000Y-2260143D01*
X980714Y-2231572D01*
X966428Y-2174429D01*
X966428Y-2103000D01*
X980714Y-2045857D01*
X995000Y-2017286D01*
X1009286Y-2003000D01*
X1037857Y-1988714D01*
X1266429Y-2288714D02*
X1266429Y-2088714D01*
X1266429Y-2117286D02*
X1280714Y-2103000D01*
X1309286Y-2088714D01*
X1352143Y-2088714D01*
X1380714Y-2103000D01*
X1395000Y-2131572D01*
X1395000Y-2288714D01*
X1395000Y-2131572D02*
X1409286Y-2103000D01*
X1437857Y-2088714D01*
X1480714Y-2088714D01*
X1509286Y-2103000D01*
X1523571Y-2131572D01*
X1523571Y-2288714D01*
X1666428Y-2288714D02*
X1666428Y-2088714D01*
X1666428Y-2117286D02*
X1680714Y-2103000D01*
X1709286Y-2088714D01*
X1752143Y-2088714D01*
X1780714Y-2103000D01*
X1795000Y-2131572D01*
X1795000Y-2288714D01*
X1795000Y-2131572D02*
X1809286Y-2103000D01*
X1837857Y-2088714D01*
X1880714Y-2088714D01*
X1909286Y-2103000D01*
X1923571Y-2131572D01*
X1923571Y-2288714D01*
X2509286Y-1974429D02*
X2252143Y-2360143D01*
X2895000Y-1988714D02*
X2923571Y-1988714D01*
X2952143Y-2003000D01*
X2966428Y-2017286D01*
X2980714Y-2045857D01*
X2995000Y-2103000D01*
X2995000Y-2174429D01*
X2980714Y-2231572D01*
X2966428Y-2260143D01*
X2952143Y-2274429D01*
X2923571Y-2288714D01*
X2895000Y-2288714D01*
X2866428Y-2274429D01*
X2852143Y-2260143D01*
X2837857Y-2231572D01*
X2823571Y-2174429D01*
X2823571Y-2103000D01*
X2837857Y-2045857D01*
X2852143Y-2017286D01*
X2866428Y-2003000D01*
X2895000Y-1988714D01*
X3123571Y-2260143D02*
X3137857Y-2274429D01*
X3123571Y-2288714D01*
X3109286Y-2274429D01*
X3123571Y-2260143D01*
X3123571Y-2288714D01*
X3323571Y-1988714D02*
X3352143Y-1988714D01*
X3380714Y-2003000D01*
X3395000Y-2017286D01*
X3409285Y-2045857D01*
X3423571Y-2103000D01*
X3423571Y-2174429D01*
X3409285Y-2231572D01*
X3395000Y-2260143D01*
X3380714Y-2274429D01*
X3352143Y-2288714D01*
X3323571Y-2288714D01*
X3295000Y-2274429D01*
X3280714Y-2260143D01*
X3266428Y-2231572D01*
X3252143Y-2174429D01*
X3252143Y-2103000D01*
X3266428Y-2045857D01*
X3280714Y-2017286D01*
X3295000Y-2003000D01*
X3323571Y-1988714D01*
X3695000Y-1988714D02*
X3552143Y-1988714D01*
X3537857Y-2131572D01*
X3552143Y-2117286D01*
X3580714Y-2103000D01*
X3652143Y-2103000D01*
X3680714Y-2117286D01*
X3695000Y-2131572D01*
X3709285Y-2160143D01*
X3709285Y-2231572D01*
X3695000Y-2260143D01*
X3680714Y-2274429D01*
X3652143Y-2288714D01*
X3580714Y-2288714D01*
X3552143Y-2274429D01*
X3537857Y-2260143D01*
X3852143Y-2288714D02*
X3909285Y-2288714D01*
X3937857Y-2274429D01*
X3952143Y-2260143D01*
X3980714Y-2217286D01*
X3995000Y-2160143D01*
X3995000Y-2045857D01*
X3980714Y-2017286D01*
X3966428Y-2003000D01*
X3937857Y-1988714D01*
X3880714Y-1988714D01*
X3852143Y-2003000D01*
X3837857Y-2017286D01*
X3823571Y-2045857D01*
X3823571Y-2117286D01*
X3837857Y-2145857D01*
X3852143Y-2160143D01*
X3880714Y-2174429D01*
X3937857Y-2174429D01*
X3966428Y-2160143D01*
X3980714Y-2145857D01*
X3995000Y-2117286D01*
X4109286Y-1988714D02*
X4109286Y-2045857D01*
X4223571Y-1988714D02*
X4223571Y-2045857D01*
X4666428Y-2403000D02*
X4652143Y-2388714D01*
X4623571Y-2345857D01*
X4609286Y-2317286D01*
X4595000Y-2274429D01*
X4580714Y-2203000D01*
X4580714Y-2145857D01*
X4595000Y-2074429D01*
X4609286Y-2031571D01*
X4623571Y-2003000D01*
X4652143Y-1960143D01*
X4666428Y-1945857D01*
X4766428Y-2017286D02*
X4780714Y-2003000D01*
X4809286Y-1988714D01*
X4880714Y-1988714D01*
X4909286Y-2003000D01*
X4923571Y-2017286D01*
X4937857Y-2045857D01*
X4937857Y-2074429D01*
X4923571Y-2117286D01*
X4752143Y-2288714D01*
X4937857Y-2288714D01*
X5223571Y-2288714D02*
X5052143Y-2288714D01*
X5137857Y-2288714D02*
X5137857Y-1988714D01*
X5109286Y-2031571D01*
X5080714Y-2060143D01*
X5052143Y-2074429D01*
X5580714Y-2288714D02*
X5580714Y-1988714D01*
X5709285Y-2288714D02*
X5709285Y-2131572D01*
X5695000Y-2103000D01*
X5666428Y-2088714D01*
X5623571Y-2088714D01*
X5595000Y-2103000D01*
X5580714Y-2117286D01*
X5895000Y-2288714D02*
X5866428Y-2274429D01*
X5852143Y-2260143D01*
X5837857Y-2231572D01*
X5837857Y-2145857D01*
X5852143Y-2117286D01*
X5866428Y-2103000D01*
X5895000Y-2088714D01*
X5937857Y-2088714D01*
X5966428Y-2103000D01*
X5980714Y-2117286D01*
X5995000Y-2145857D01*
X5995000Y-2231572D01*
X5980714Y-2260143D01*
X5966428Y-2274429D01*
X5937857Y-2288714D01*
X5895000Y-2288714D01*
X6166428Y-2288714D02*
X6137857Y-2274429D01*
X6123571Y-2245857D01*
X6123571Y-1988714D01*
X6395000Y-2274429D02*
X6366428Y-2288714D01*
X6309286Y-2288714D01*
X6280714Y-2274429D01*
X6266428Y-2245857D01*
X6266428Y-2131572D01*
X6280714Y-2103000D01*
X6309286Y-2088714D01*
X6366428Y-2088714D01*
X6395000Y-2103000D01*
X6409286Y-2131572D01*
X6409286Y-2160143D01*
X6266428Y-2188714D01*
X6523571Y-2274429D02*
X6552143Y-2288714D01*
X6609286Y-2288714D01*
X6637857Y-2274429D01*
X6652143Y-2245857D01*
X6652143Y-2231572D01*
X6637857Y-2203000D01*
X6609286Y-2188714D01*
X6566428Y-2188714D01*
X6537857Y-2174429D01*
X6523571Y-2145857D01*
X6523571Y-2131572D01*
X6537857Y-2103000D01*
X6566428Y-2088714D01*
X6609286Y-2088714D01*
X6637857Y-2103000D01*
X6752143Y-2403000D02*
X6766428Y-2388714D01*
X6795000Y-2345857D01*
X6809286Y-2317286D01*
X6823571Y-2274429D01*
X6837857Y-2203000D01*
X6837857Y-2145857D01*
X6823571Y-2074429D01*
X6809286Y-2031571D01*
X6795000Y-2003000D01*
X6766428Y-1960143D01*
X6752143Y-1945857D01*
D12*
D13*
X237857Y-2384714D02*
X423571Y-2384714D01*
X323571Y-2499000D01*
X366428Y-2499000D01*
X395000Y-2513286D01*
X409286Y-2527572D01*
X423571Y-2556143D01*
X423571Y-2627572D01*
X409286Y-2656143D01*
X395000Y-2670429D01*
X366428Y-2684714D01*
X280714Y-2684714D01*
X252143Y-2670429D01*
X237857Y-2656143D01*
X552143Y-2656143D02*
X566429Y-2670429D01*
X552143Y-2684714D01*
X537857Y-2670429D01*
X552143Y-2656143D01*
X552143Y-2684714D01*
X752143Y-2384714D02*
X780714Y-2384714D01*
X809286Y-2399000D01*
X823571Y-2413286D01*
X837857Y-2441857D01*
X852143Y-2499000D01*
X852143Y-2570429D01*
X837857Y-2627572D01*
X823571Y-2656143D01*
X809286Y-2670429D01*
X780714Y-2684714D01*
X752143Y-2684714D01*
X723571Y-2670429D01*
X709286Y-2656143D01*
X695000Y-2627572D01*
X680714Y-2570429D01*
X680714Y-2499000D01*
X695000Y-2441857D01*
X709286Y-2413286D01*
X723571Y-2399000D01*
X752143Y-2384714D01*
X1037857Y-2384714D02*
X1066429Y-2384714D01*
X1095000Y-2399000D01*
X1109286Y-2413286D01*
X1123571Y-2441857D01*
X1137857Y-2499000D01*
X1137857Y-2570429D01*
X1123571Y-2627572D01*
X1109286Y-2656143D01*
X1095000Y-2670429D01*
X1066429Y-2684714D01*
X1037857Y-2684714D01*
X1009286Y-2670429D01*
X995000Y-2656143D01*
X980714Y-2627572D01*
X966428Y-2570429D01*
X966428Y-2499000D01*
X980714Y-2441857D01*
X995000Y-2413286D01*
X1009286Y-2399000D01*
X1037857Y-2384714D01*
X1266429Y-2684714D02*
X1266429Y-2484714D01*
X1266429Y-2513286D02*
X1280714Y-2499000D01*
X1309286Y-2484714D01*
X1352143Y-2484714D01*
X1380714Y-2499000D01*
X1395000Y-2527572D01*
X1395000Y-2684714D01*
X1395000Y-2527572D02*
X1409286Y-2499000D01*
X1437857Y-2484714D01*
X1480714Y-2484714D01*
X1509286Y-2499000D01*
X1523571Y-2527572D01*
X1523571Y-2684714D01*
X1666428Y-2684714D02*
X1666428Y-2484714D01*
X1666428Y-2513286D02*
X1680714Y-2499000D01*
X1709286Y-2484714D01*
X1752143Y-2484714D01*
X1780714Y-2499000D01*
X1795000Y-2527572D01*
X1795000Y-2684714D01*
X1795000Y-2527572D02*
X1809286Y-2499000D01*
X1837857Y-2484714D01*
X1880714Y-2484714D01*
X1909286Y-2499000D01*
X1923571Y-2527572D01*
X1923571Y-2684714D01*
X2509286Y-2370429D02*
X2252143Y-2756143D01*
X2895000Y-2384714D02*
X2923571Y-2384714D01*
X2952143Y-2399000D01*
X2966428Y-2413286D01*
X2980714Y-2441857D01*
X2995000Y-2499000D01*
X2995000Y-2570429D01*
X2980714Y-2627572D01*
X2966428Y-2656143D01*
X2952143Y-2670429D01*
X2923571Y-2684714D01*
X2895000Y-2684714D01*
X2866428Y-2670429D01*
X2852143Y-2656143D01*
X2837857Y-2627572D01*
X2823571Y-2570429D01*
X2823571Y-2499000D01*
X2837857Y-2441857D01*
X2852143Y-2413286D01*
X2866428Y-2399000D01*
X2895000Y-2384714D01*
X3123571Y-2656143D02*
X3137857Y-2670429D01*
X3123571Y-2684714D01*
X3109286Y-2670429D01*
X3123571Y-2656143D01*
X3123571Y-2684714D01*
X3423571Y-2684714D02*
X3252143Y-2684714D01*
X3337857Y-2684714D02*
X3337857Y-2384714D01*
X3309285Y-2427572D01*
X3280714Y-2456143D01*
X3252143Y-2470429D01*
X3709285Y-2684714D02*
X3537857Y-2684714D01*
X3623571Y-2684714D02*
X3623571Y-2384714D01*
X3595000Y-2427572D01*
X3566428Y-2456143D01*
X3537857Y-2470429D01*
X3880714Y-2513286D02*
X3852143Y-2499000D01*
X3837857Y-2484714D01*
X3823571Y-2456143D01*
X3823571Y-2441857D01*
X3837857Y-2413286D01*
X3852143Y-2399000D01*
X3880714Y-2384714D01*
X3937857Y-2384714D01*
X3966428Y-2399000D01*
X3980714Y-2413286D01*
X3995000Y-2441857D01*
X3995000Y-2456143D01*
X3980714Y-2484714D01*
X3966428Y-2499000D01*
X3937857Y-2513286D01*
X3880714Y-2513286D01*
X3852143Y-2527572D01*
X3837857Y-2541857D01*
X3823571Y-2570429D01*
X3823571Y-2627572D01*
X3837857Y-2656143D01*
X3852143Y-2670429D01*
X3880714Y-2684714D01*
X3937857Y-2684714D01*
X3966428Y-2670429D01*
X3980714Y-2656143D01*
X3995000Y-2627572D01*
X3995000Y-2570429D01*
X3980714Y-2541857D01*
X3966428Y-2527572D01*
X3937857Y-2513286D01*
X4109286Y-2384714D02*
X4109286Y-2441857D01*
X4223571Y-2384714D02*
X4223571Y-2441857D01*
X4666428Y-2799000D02*
X4652143Y-2784714D01*
X4623571Y-2741857D01*
X4609286Y-2713286D01*
X4595000Y-2670429D01*
X4580714Y-2599000D01*
X4580714Y-2541857D01*
X4595000Y-2470429D01*
X4609286Y-2427572D01*
X4623571Y-2399000D01*
X4652143Y-2356143D01*
X4666428Y-2341857D01*
X4909286Y-2484714D02*
X4909286Y-2684714D01*
X4837857Y-2370429D02*
X4766428Y-2584714D01*
X4952143Y-2584714D01*
X5295000Y-2684714D02*
X5295000Y-2384714D01*
X5423571Y-2684714D02*
X5423571Y-2527572D01*
X5409286Y-2499000D01*
X5380714Y-2484714D01*
X5337857Y-2484714D01*
X5309286Y-2499000D01*
X5295000Y-2513286D01*
X5609285Y-2684714D02*
X5580714Y-2670429D01*
X5566428Y-2656143D01*
X5552143Y-2627572D01*
X5552143Y-2541857D01*
X5566428Y-2513286D01*
X5580714Y-2499000D01*
X5609285Y-2484714D01*
X5652143Y-2484714D01*
X5680714Y-2499000D01*
X5695000Y-2513286D01*
X5709285Y-2541857D01*
X5709285Y-2627572D01*
X5695000Y-2656143D01*
X5680714Y-2670429D01*
X5652143Y-2684714D01*
X5609285Y-2684714D01*
X5880714Y-2684714D02*
X5852143Y-2670429D01*
X5837857Y-2641857D01*
X5837857Y-2384714D01*
X6109286Y-2670429D02*
X6080714Y-2684714D01*
X6023571Y-2684714D01*
X5995000Y-2670429D01*
X5980714Y-2641857D01*
X5980714Y-2527572D01*
X5995000Y-2499000D01*
X6023571Y-2484714D01*
X6080714Y-2484714D01*
X6109286Y-2499000D01*
X6123571Y-2527572D01*
X6123571Y-2556143D01*
X5980714Y-2584714D01*
X6237857Y-2670429D02*
X6266428Y-2684714D01*
X6323571Y-2684714D01*
X6352143Y-2670429D01*
X6366428Y-2641857D01*
X6366428Y-2627572D01*
X6352143Y-2599000D01*
X6323571Y-2584714D01*
X6280714Y-2584714D01*
X6252143Y-2570429D01*
X6237857Y-2541857D01*
X6237857Y-2527572D01*
X6252143Y-2499000D01*
X6280714Y-2484714D01*
X6323571Y-2484714D01*
X6352143Y-2499000D01*
X6466428Y-2799000D02*
X6480714Y-2784714D01*
X6509286Y-2741857D01*
X6523571Y-2713286D01*
X6537857Y-2670429D01*
X6552143Y-2599000D01*
X6552143Y-2541857D01*
X6537857Y-2470429D01*
X6523571Y-2427572D01*
X6509286Y-2399000D01*
X6480714Y-2356143D01*
X6466428Y-2341857D01*
M02*
