%FSLAX46Y46*%
G04 Gerber Fmt 4.6, Leading zero omitted, Abs format (unit mm)*
G04 Created by KiCad (PCBNEW (2014-jul-16 BZR unknown)-product) date Mon 06 Oct 2014 10:40:32 AM CEST*
%MOMM*%
G01*
G04 APERTURE LIST*
%ADD10C,0.100000*%
%ADD11C,0.300000*%
%ADD12C,0.325000*%
%ADD13R,1.998980X1.998980*%
%ADD14C,1.998980*%
%ADD15R,1.803400X1.600200*%
%ADD16C,1.676400*%
%ADD17R,1.397000X1.397000*%
%ADD18C,1.397000*%
%ADD19C,2.159000*%
%ADD20R,2.159000X2.159000*%
%ADD21R,1.574800X2.286000*%
%ADD22O,1.574800X2.286000*%
%ADD23R,2.286000X1.574800*%
%ADD24O,2.286000X1.574800*%
%ADD25R,1.524000X1.524000*%
%ADD26C,1.524000*%
%ADD27C,2.000000*%
%ADD28C,2.200000*%
%ADD29C,5.461000*%
%ADD30R,1.600200X1.803400*%
%ADD31C,1.400000*%
%ADD32R,3.000000X3.000000*%
%ADD33C,5.000000*%
%ADD34C,1.200000*%
%ADD35C,2.000000*%
%ADD36C,0.800000*%
%ADD37C,1.000000*%
%ADD38C,1.500000*%
%ADD39C,0.500000*%
%ADD40C,0.200000*%
%ADD41C,1.200000*%
%ADD42C,0.254000*%
G04 APERTURE END LIST*
D10*
D11*
X109964286Y61935714D02*
X109964286Y63735714D01*
X110421429Y63735714D01*
X110535715Y63650000D01*
X110592858Y63564286D01*
X110650001Y63392857D01*
X110650001Y63135714D01*
X110592858Y62964286D01*
X110535715Y62878571D01*
X110421429Y62792857D01*
X109964286Y62792857D01*
X111164286Y62878571D02*
X111564286Y62878571D01*
X111735715Y61935714D02*
X111164286Y61935714D01*
X111164286Y63735714D01*
X111735715Y63735714D01*
X112192857Y62021429D02*
X112364286Y61935714D01*
X112650000Y61935714D01*
X112764286Y62021429D01*
X112821429Y62107143D01*
X112878572Y62278571D01*
X112878572Y62450000D01*
X112821429Y62621429D01*
X112764286Y62707143D01*
X112650000Y62792857D01*
X112421429Y62878571D01*
X112307143Y62964286D01*
X112250000Y63050000D01*
X112192857Y63221429D01*
X112192857Y63392857D01*
X112250000Y63564286D01*
X112307143Y63650000D01*
X112421429Y63735714D01*
X112707143Y63735714D01*
X112878572Y63650000D01*
X113392857Y61935714D02*
X113392857Y63735714D01*
X113392857Y62878571D02*
X114078572Y62878571D01*
X114078572Y61935714D02*
X114078572Y63735714D01*
X114878572Y63735714D02*
X115107143Y63735714D01*
X115221429Y63650000D01*
X115335715Y63478571D01*
X115392857Y63135714D01*
X115392857Y62535714D01*
X115335715Y62192857D01*
X115221429Y62021429D01*
X115107143Y61935714D01*
X114878572Y61935714D01*
X114764286Y62021429D01*
X114650000Y62192857D01*
X114592857Y62535714D01*
X114592857Y63135714D01*
X114650000Y63478571D01*
X114764286Y63650000D01*
X114878572Y63735714D01*
X116821429Y61935714D02*
X116821429Y63135714D01*
X116821429Y62792857D02*
X116878572Y62964286D01*
X116935715Y63050000D01*
X117050001Y63135714D01*
X117164286Y63135714D01*
X118021429Y62021429D02*
X117907143Y61935714D01*
X117678572Y61935714D01*
X117564286Y62021429D01*
X117507143Y62192857D01*
X117507143Y62878571D01*
X117564286Y63050000D01*
X117678572Y63135714D01*
X117907143Y63135714D01*
X118021429Y63050000D01*
X118078572Y62878571D01*
X118078572Y62707143D01*
X117507143Y62535714D01*
X118478572Y63135714D02*
X118764286Y61935714D01*
X119050000Y63135714D01*
X119507143Y62107143D02*
X119564286Y62021429D01*
X119507143Y61935714D01*
X119450000Y62021429D01*
X119507143Y62107143D01*
X119507143Y61935714D01*
X120021429Y62450000D02*
X120592858Y62450000D01*
X119907144Y61935714D02*
X120307144Y63735714D01*
X120707144Y61935714D01*
D12*
X64878572Y62026190D02*
X64259525Y62026190D01*
X64259525Y63626190D01*
X65559525Y63626190D02*
X65807144Y63626190D01*
X65930953Y63550000D01*
X66054763Y63397619D01*
X66116668Y63092857D01*
X66116668Y62559524D01*
X66054763Y62254762D01*
X65930953Y62102381D01*
X65807144Y62026190D01*
X65559525Y62026190D01*
X65435715Y62102381D01*
X65311906Y62254762D01*
X65250001Y62559524D01*
X65250001Y63092857D01*
X65311906Y63397619D01*
X65435715Y63550000D01*
X65559525Y63626190D01*
X67416668Y62178571D02*
X67354763Y62102381D01*
X67169049Y62026190D01*
X67045239Y62026190D01*
X66859525Y62102381D01*
X66735716Y62254762D01*
X66673811Y62407143D01*
X66611906Y62711905D01*
X66611906Y62940476D01*
X66673811Y63245238D01*
X66735716Y63397619D01*
X66859525Y63550000D01*
X67045239Y63626190D01*
X67169049Y63626190D01*
X67354763Y63550000D01*
X67416668Y63473810D01*
X67973811Y62026190D02*
X67973811Y63626190D01*
X68716668Y62026190D02*
X68159525Y62940476D01*
X68716668Y63626190D02*
X67973811Y62711905D01*
X70573811Y61492857D02*
X70573811Y63778571D01*
X72492858Y62864286D02*
X72926191Y62864286D01*
X73111905Y62026190D02*
X72492858Y62026190D01*
X72492858Y63626190D01*
X73111905Y63626190D01*
X73669048Y62026190D02*
X73669048Y63626190D01*
X74411905Y62026190D01*
X74411905Y63626190D01*
X76330953Y61492857D02*
X76330953Y63778571D01*
X78250000Y63626190D02*
X78250000Y62330952D01*
X78311905Y62178571D01*
X78373809Y62102381D01*
X78497619Y62026190D01*
X78745238Y62026190D01*
X78869047Y62102381D01*
X78930952Y62178571D01*
X78992857Y62330952D01*
X78992857Y63626190D01*
X79611905Y62026190D02*
X79611905Y63626190D01*
X80354762Y62026190D01*
X80354762Y63626190D01*
X81592857Y62026190D02*
X80973810Y62026190D01*
X80973810Y63626190D01*
X82273810Y63626190D02*
X82521429Y63626190D01*
X82645238Y63550000D01*
X82769048Y63397619D01*
X82830953Y63092857D01*
X82830953Y62559524D01*
X82769048Y62254762D01*
X82645238Y62102381D01*
X82521429Y62026190D01*
X82273810Y62026190D01*
X82150000Y62102381D01*
X82026191Y62254762D01*
X81964286Y62559524D01*
X81964286Y63092857D01*
X82026191Y63397619D01*
X82150000Y63550000D01*
X82273810Y63626190D01*
X84130953Y62178571D02*
X84069048Y62102381D01*
X83883334Y62026190D01*
X83759524Y62026190D01*
X83573810Y62102381D01*
X83450001Y62254762D01*
X83388096Y62407143D01*
X83326191Y62711905D01*
X83326191Y62940476D01*
X83388096Y63245238D01*
X83450001Y63397619D01*
X83573810Y63550000D01*
X83759524Y63626190D01*
X83883334Y63626190D01*
X84069048Y63550000D01*
X84130953Y63473810D01*
X84688096Y62026190D02*
X84688096Y63626190D01*
X85430953Y62026190D02*
X84873810Y62940476D01*
X85430953Y63626190D02*
X84688096Y62711905D01*
X87288096Y61492857D02*
X87288096Y63778571D01*
X89640476Y62864286D02*
X89826190Y62788095D01*
X89888095Y62711905D01*
X89950000Y62559524D01*
X89950000Y62330952D01*
X89888095Y62178571D01*
X89826190Y62102381D01*
X89702381Y62026190D01*
X89207143Y62026190D01*
X89207143Y63626190D01*
X89640476Y63626190D01*
X89764286Y63550000D01*
X89826190Y63473810D01*
X89888095Y63321429D01*
X89888095Y63169048D01*
X89826190Y63016667D01*
X89764286Y62940476D01*
X89640476Y62864286D01*
X89207143Y62864286D01*
X91126190Y62026190D02*
X90507143Y62026190D01*
X90507143Y63626190D01*
X91559524Y62026190D02*
X91559524Y63626190D01*
X92302381Y62026190D02*
X91745238Y62940476D01*
X92302381Y63626190D02*
X91559524Y62711905D01*
X94159524Y61492857D02*
X94159524Y63778571D01*
X96511904Y62864286D02*
X96697618Y62788095D01*
X96759523Y62711905D01*
X96821428Y62559524D01*
X96821428Y62330952D01*
X96759523Y62178571D01*
X96697618Y62102381D01*
X96573809Y62026190D01*
X96078571Y62026190D01*
X96078571Y63626190D01*
X96511904Y63626190D01*
X96635714Y63550000D01*
X96697618Y63473810D01*
X96759523Y63321429D01*
X96759523Y63169048D01*
X96697618Y63016667D01*
X96635714Y62940476D01*
X96511904Y62864286D01*
X96078571Y62864286D01*
X97378571Y62026190D02*
X97378571Y63626190D01*
X97688095Y63626190D01*
X97873809Y63550000D01*
X97997618Y63397619D01*
X98059523Y63245238D01*
X98121428Y62940476D01*
X98121428Y62711905D01*
X98059523Y62407143D01*
X97997618Y62254762D01*
X97873809Y62102381D01*
X97688095Y62026190D01*
X97378571Y62026190D01*
X99978571Y61492857D02*
X99978571Y63778571D01*
X102330951Y62864286D02*
X102516665Y62788095D01*
X102578570Y62711905D01*
X102640475Y62559524D01*
X102640475Y62330952D01*
X102578570Y62178571D01*
X102516665Y62102381D01*
X102392856Y62026190D01*
X101897618Y62026190D01*
X101897618Y63626190D01*
X102330951Y63626190D01*
X102454761Y63550000D01*
X102516665Y63473810D01*
X102578570Y63321429D01*
X102578570Y63169048D01*
X102516665Y63016667D01*
X102454761Y62940476D01*
X102330951Y62864286D01*
X101897618Y62864286D01*
X103197618Y63626190D02*
X103197618Y62330952D01*
X103259523Y62178571D01*
X103321427Y62102381D01*
X103445237Y62026190D01*
X103692856Y62026190D01*
X103816665Y62102381D01*
X103878570Y62178571D01*
X103940475Y62330952D01*
X103940475Y63626190D01*
X104559523Y62026190D02*
X104559523Y63626190D01*
X105302380Y62026190D02*
X104745237Y62940476D01*
X105302380Y63626190D02*
X104559523Y62711905D01*
D10*
X0Y65000000D02*
X30000000Y65000000D01*
X0Y0D02*
X0Y65000000D01*
X30000000Y0D02*
X0Y0D01*
D11*
X31250001Y1071429D02*
X31250001Y2071429D01*
X31250001Y1785714D02*
X31321429Y1928571D01*
X31392858Y2000000D01*
X31535715Y2071429D01*
X31678572Y2071429D01*
X32821429Y1071429D02*
X32821429Y2571429D01*
X32821429Y1142857D02*
X32678572Y1071429D01*
X32392858Y1071429D01*
X32250000Y1142857D01*
X32178572Y1214286D01*
X32107143Y1357143D01*
X32107143Y1785714D01*
X32178572Y1928571D01*
X32250000Y2000000D01*
X32392858Y2071429D01*
X32678572Y2071429D01*
X32821429Y2000000D01*
X33535715Y1071429D02*
X33535715Y2071429D01*
X33535715Y1785714D02*
X33607143Y1928571D01*
X33678572Y2000000D01*
X33821429Y2071429D01*
X33964286Y2071429D01*
X34678572Y1071429D02*
X34535714Y1142857D01*
X34464286Y1285714D01*
X34464286Y2571429D01*
X35892857Y1071429D02*
X35892857Y1857143D01*
X35821428Y2000000D01*
X35678571Y2071429D01*
X35392857Y2071429D01*
X35250000Y2000000D01*
X35892857Y1142857D02*
X35750000Y1071429D01*
X35392857Y1071429D01*
X35250000Y1142857D01*
X35178571Y1285714D01*
X35178571Y1428571D01*
X35250000Y1571429D01*
X35392857Y1642857D01*
X35750000Y1642857D01*
X35892857Y1714286D01*
X36607143Y1071429D02*
X36607143Y2571429D01*
X36607143Y2000000D02*
X36750000Y2071429D01*
X37035714Y2071429D01*
X37178571Y2000000D01*
X37250000Y1928571D01*
X37321429Y1785714D01*
X37321429Y1357143D01*
X37250000Y1214286D01*
X37178571Y1142857D01*
X37035714Y1071429D01*
X36750000Y1071429D01*
X36607143Y1142857D01*
D10*
X132500000Y65000000D02*
X30000000Y65000000D01*
X132500000Y0D02*
X30000000Y0D01*
X132500000Y0D02*
X132500000Y65000000D01*
D11*
X41035715Y63650000D02*
X40921429Y63735714D01*
X40750000Y63735714D01*
X40578572Y63650000D01*
X40464286Y63478571D01*
X40407143Y63307143D01*
X40350000Y62964286D01*
X40350000Y62707143D01*
X40407143Y62364286D01*
X40464286Y62192857D01*
X40578572Y62021429D01*
X40750000Y61935714D01*
X40864286Y61935714D01*
X41035715Y62021429D01*
X41092858Y62107143D01*
X41092858Y62707143D01*
X40864286Y62707143D01*
X41607143Y61935714D02*
X41607143Y63735714D01*
X42292858Y61935714D01*
X42292858Y63735714D01*
X42864286Y61935714D02*
X42864286Y63735714D01*
X43150001Y63735714D01*
X43321429Y63650000D01*
X43435715Y63478571D01*
X43492858Y63307143D01*
X43550001Y62964286D01*
X43550001Y62707143D01*
X43492858Y62364286D01*
X43435715Y62192857D01*
X43321429Y62021429D01*
X43150001Y61935714D01*
X42864286Y61935714D01*
X48550001Y61935714D02*
X48150001Y62792857D01*
X47864286Y61935714D02*
X47864286Y63735714D01*
X48321429Y63735714D01*
X48435715Y63650000D01*
X48492858Y63564286D01*
X48550001Y63392857D01*
X48550001Y63135714D01*
X48492858Y62964286D01*
X48435715Y62878571D01*
X48321429Y62792857D01*
X47864286Y62792857D01*
X48950001Y63735714D02*
X49750001Y61935714D01*
X49750001Y63735714D02*
X48950001Y61935714D01*
X44835715Y63735714D02*
X45521429Y63735714D01*
X45178572Y61935714D02*
X45178572Y63735714D01*
X45807144Y63735714D02*
X46607144Y61935714D01*
X46607144Y63735714D02*
X45807144Y61935714D01*
D13*
X102250000Y43460000D03*
D14*
X102250000Y48540000D03*
D15*
X110500000Y38397000D03*
X110500000Y35603000D03*
X112560000Y38397000D03*
X112560000Y35603000D03*
X114560000Y38397000D03*
X114560000Y35603000D03*
D16*
X66330000Y55750000D03*
X68870000Y55750000D03*
X73480000Y55750000D03*
X76020000Y55750000D03*
X80480000Y55750000D03*
X83020000Y55750000D03*
X101480000Y55750000D03*
X104020000Y55750000D03*
X94480000Y55750000D03*
X97020000Y55750000D03*
X87480000Y55750000D03*
X90020000Y55750000D03*
D17*
X83000000Y37310000D03*
D18*
X83000000Y29690000D03*
D17*
X83000000Y26310000D03*
D18*
X83000000Y18690000D03*
D17*
X83000000Y15310000D03*
D18*
X83000000Y7690000D03*
D19*
X111000000Y10610000D03*
D20*
X111000000Y28390000D03*
D19*
X117500000Y10610000D03*
D20*
X117500000Y28390000D03*
D21*
X50960000Y47190000D03*
D22*
X53500000Y47190000D03*
X56040000Y47190000D03*
X56040000Y54810000D03*
X53500000Y54810000D03*
X50960000Y54810000D03*
D21*
X50960000Y29190000D03*
D22*
X53500000Y29190000D03*
X56040000Y29190000D03*
X56040000Y36810000D03*
X53500000Y36810000D03*
X50960000Y36810000D03*
D21*
X50960000Y11190000D03*
D22*
X53500000Y11190000D03*
X56040000Y11190000D03*
X56040000Y18810000D03*
X53500000Y18810000D03*
X50960000Y18810000D03*
D23*
X66140000Y36390000D03*
D24*
X66140000Y33850000D03*
X66140000Y31310000D03*
X73760000Y31310000D03*
X73760000Y33850000D03*
X73760000Y36390000D03*
D23*
X66140000Y25290000D03*
D24*
X66140000Y22750000D03*
X66140000Y20210000D03*
X73760000Y20210000D03*
X73760000Y22750000D03*
X73760000Y25290000D03*
D23*
X66140000Y14390000D03*
D24*
X66140000Y11850000D03*
X66140000Y9310000D03*
X73760000Y9310000D03*
X73760000Y11850000D03*
X73760000Y14390000D03*
D25*
X65790000Y47410000D03*
D26*
X68330000Y47410000D03*
X70870000Y47410000D03*
D25*
X73410000Y47410000D03*
D26*
X75950000Y47410000D03*
X78490000Y47410000D03*
D25*
X81030000Y47410000D03*
D26*
X83570000Y47410000D03*
X86110000Y47410000D03*
D27*
X123500000Y43500000D03*
X123500000Y48500000D03*
D28*
X123500000Y13500000D03*
X123500000Y18500000D03*
X123500000Y23500000D03*
X123500000Y28500000D03*
X123500000Y33500000D03*
X123500000Y38500000D03*
D25*
X33730000Y47740000D03*
D26*
X36270000Y47740000D03*
X33730000Y45200000D03*
X36270000Y45200000D03*
X33730000Y42660000D03*
X36270000Y42660000D03*
X33730000Y40120000D03*
X36270000Y40120000D03*
X33730000Y37580000D03*
X36270000Y37580000D03*
X33730000Y35040000D03*
X36270000Y35040000D03*
X33730000Y32500000D03*
X36270000Y32500000D03*
X33730000Y29960000D03*
X36270000Y29960000D03*
X33730000Y27420000D03*
X36270000Y27420000D03*
X33730000Y24880000D03*
X36270000Y24880000D03*
D29*
X34746000Y56630000D03*
D26*
X33730000Y22340000D03*
X36270000Y22340000D03*
X33730000Y19800000D03*
X36270000Y19800000D03*
X33730000Y17260000D03*
X36270000Y17260000D03*
D29*
X34746000Y8370000D03*
D17*
X32710000Y62750000D03*
D18*
X35250000Y62750000D03*
X37790000Y62750000D03*
D30*
X71147000Y49750000D03*
X68353000Y49750000D03*
X75853000Y49750000D03*
X78647000Y49750000D03*
X83603000Y49750000D03*
X86397000Y49750000D03*
D31*
X46000000Y49000000D03*
X46000000Y46500000D03*
X46000000Y44000000D03*
X46000000Y31000000D03*
X46000000Y28500000D03*
X46000000Y26000000D03*
X46000000Y13000000D03*
X46000000Y10500000D03*
X46000000Y8000000D03*
X46000000Y58000000D03*
X46000000Y55500000D03*
X46000000Y53000000D03*
X46000000Y40000000D03*
X46000000Y37500000D03*
X46000000Y35000000D03*
X78650000Y36250000D03*
X78650000Y33750000D03*
X78650000Y31250000D03*
X78550000Y25150000D03*
X78550000Y22650000D03*
X78550000Y20150000D03*
X78550000Y14350000D03*
X78550000Y11850000D03*
X78550000Y9350000D03*
X46000000Y22000000D03*
X46000000Y19500000D03*
X46000000Y17000000D03*
D28*
X96500000Y37310000D03*
X104120000Y29690000D03*
X104120000Y37310000D03*
D27*
X86340000Y37310000D03*
X86340000Y29690000D03*
D28*
X96500000Y26310000D03*
X104120000Y18690000D03*
X104120000Y26310000D03*
D27*
X86340000Y26310000D03*
X86340000Y18690000D03*
D28*
X96500000Y15310000D03*
X104120000Y7690000D03*
X104120000Y15310000D03*
D27*
X86340000Y15310000D03*
X86340000Y7690000D03*
D32*
X116750000Y49900000D03*
X116750000Y41600000D03*
X110750000Y49900000D03*
X110750000Y41600000D03*
D33*
X128250000Y4250000D03*
X128250000Y60750000D03*
D27*
X13900000Y21100000D03*
X8820000Y21100000D03*
X8820000Y23640000D03*
X11360000Y21100000D03*
X11360000Y23640000D03*
X8820000Y26180000D03*
X11360000Y26180000D03*
X13900000Y26180000D03*
X13900000Y23640000D03*
X16440000Y21100000D03*
X16440000Y23640000D03*
X16440000Y26180000D03*
X24060000Y23640000D03*
X24060000Y26180000D03*
X21520000Y26180000D03*
X18980000Y26180000D03*
X21520000Y23640000D03*
X21520000Y21100000D03*
X18980000Y23640000D03*
X18980000Y21100000D03*
X24060000Y21100000D03*
X26600000Y21100000D03*
X26600000Y23640000D03*
X26600000Y26180000D03*
X26600000Y18560000D03*
X26600000Y16020000D03*
X26600000Y13480000D03*
X26600000Y10940000D03*
X24060000Y10940000D03*
X18980000Y10940000D03*
X18980000Y13480000D03*
X21520000Y10940000D03*
X21520000Y13480000D03*
X18980000Y16020000D03*
X21520000Y16020000D03*
X18980000Y18560000D03*
X21520000Y18560000D03*
X24060000Y18560000D03*
X24060000Y16020000D03*
X24060000Y13480000D03*
X16440000Y18560000D03*
X16440000Y16020000D03*
X16440000Y13480000D03*
X16440000Y10940000D03*
X13900000Y13480000D03*
X13900000Y16020000D03*
X13900000Y18560000D03*
X11360000Y18560000D03*
X8820000Y18560000D03*
X11360000Y16020000D03*
X8820000Y16020000D03*
X11360000Y13480000D03*
X11360000Y10940000D03*
X8820000Y13480000D03*
X8820000Y10940000D03*
X13900000Y10940000D03*
X13900000Y3320000D03*
X8820000Y3320000D03*
X8820000Y5860000D03*
X11360000Y3320000D03*
X11360000Y5860000D03*
X8820000Y8400000D03*
X11360000Y8400000D03*
X13900000Y8400000D03*
X13900000Y5860000D03*
X16440000Y3320000D03*
X16440000Y5860000D03*
X16440000Y8400000D03*
X24060000Y5860000D03*
X24060000Y8400000D03*
X21520000Y8400000D03*
X18980000Y8400000D03*
X21520000Y5860000D03*
X21520000Y3320000D03*
X18980000Y5860000D03*
X18980000Y3320000D03*
X24060000Y3320000D03*
X26600000Y3320000D03*
X26600000Y5860000D03*
X26600000Y8400000D03*
X6280000Y8400000D03*
X3740000Y8400000D03*
X6280000Y5860000D03*
X6280000Y3320000D03*
X3740000Y5860000D03*
X3740000Y3320000D03*
X3740000Y10940000D03*
X3740000Y13480000D03*
X6280000Y10940000D03*
X6280000Y13480000D03*
X3740000Y16020000D03*
X6280000Y16020000D03*
X3740000Y18560000D03*
X6280000Y18560000D03*
X6280000Y26180000D03*
X3740000Y26180000D03*
X6280000Y23640000D03*
X6280000Y21100000D03*
X3740000Y23640000D03*
X3740000Y21100000D03*
X3740000Y46500000D03*
X3740000Y49040000D03*
X6280000Y46500000D03*
X6280000Y49040000D03*
X3740000Y51580000D03*
X6280000Y51580000D03*
X6280000Y43960000D03*
X3740000Y43960000D03*
X6280000Y41420000D03*
X3740000Y41420000D03*
X6280000Y38880000D03*
X6280000Y36340000D03*
X3740000Y38880000D03*
X3740000Y36340000D03*
X3740000Y28720000D03*
X3740000Y31260000D03*
X6280000Y28720000D03*
X6280000Y31260000D03*
X3740000Y33800000D03*
X6280000Y33800000D03*
X26600000Y33800000D03*
X26600000Y31260000D03*
X26600000Y28720000D03*
X24060000Y28720000D03*
X18980000Y28720000D03*
X18980000Y31260000D03*
X21520000Y28720000D03*
X21520000Y31260000D03*
X18980000Y33800000D03*
X21520000Y33800000D03*
X24060000Y33800000D03*
X24060000Y31260000D03*
X16440000Y33800000D03*
X16440000Y31260000D03*
X16440000Y28720000D03*
X13900000Y31260000D03*
X13900000Y33800000D03*
X11360000Y33800000D03*
X8820000Y33800000D03*
X11360000Y31260000D03*
X11360000Y28720000D03*
X8820000Y31260000D03*
X8820000Y28720000D03*
X13900000Y28720000D03*
X13900000Y36340000D03*
X8820000Y36340000D03*
X8820000Y38880000D03*
X11360000Y36340000D03*
X11360000Y38880000D03*
X8820000Y41420000D03*
X11360000Y41420000D03*
X8820000Y43960000D03*
X11360000Y43960000D03*
X13900000Y43960000D03*
X13900000Y41420000D03*
X13900000Y38880000D03*
X16440000Y36340000D03*
X16440000Y38880000D03*
X16440000Y41420000D03*
X16440000Y43960000D03*
X24060000Y38880000D03*
X24060000Y41420000D03*
X24060000Y43960000D03*
X21520000Y43960000D03*
X18980000Y43960000D03*
X21520000Y41420000D03*
X18980000Y41420000D03*
X21520000Y38880000D03*
X21520000Y36340000D03*
X18980000Y38880000D03*
X18980000Y36340000D03*
X24060000Y36340000D03*
X26600000Y36340000D03*
X26600000Y38880000D03*
X26600000Y41420000D03*
X26600000Y43960000D03*
X26600000Y51580000D03*
X26600000Y49040000D03*
X26600000Y46500000D03*
X24060000Y46500000D03*
X18980000Y46500000D03*
X18980000Y49040000D03*
X21520000Y46500000D03*
X21520000Y49040000D03*
X18980000Y51580000D03*
X21520000Y51580000D03*
X24060000Y51580000D03*
X24060000Y49040000D03*
X16440000Y51580000D03*
X16440000Y49040000D03*
X16440000Y46500000D03*
X13900000Y49040000D03*
X13900000Y51580000D03*
X11360000Y51580000D03*
X8820000Y51580000D03*
X11360000Y49040000D03*
X11360000Y46500000D03*
X8820000Y49040000D03*
X8820000Y46500000D03*
X13900000Y46500000D03*
X13900000Y56660000D03*
X8820000Y56660000D03*
X8820000Y59200000D03*
X11360000Y56660000D03*
X11360000Y59200000D03*
X8820000Y61740000D03*
X11360000Y61740000D03*
X13900000Y61740000D03*
X13900000Y59200000D03*
X16440000Y56660000D03*
X16440000Y59200000D03*
X16440000Y61740000D03*
X24060000Y59200000D03*
X24060000Y61740000D03*
X21520000Y61740000D03*
X18980000Y61740000D03*
X21520000Y59200000D03*
X21520000Y56660000D03*
X18980000Y59200000D03*
X18980000Y56660000D03*
X24060000Y56660000D03*
X26600000Y56660000D03*
X26600000Y59200000D03*
X26600000Y61740000D03*
X26600000Y54120000D03*
X18980000Y54120000D03*
X21520000Y54120000D03*
X24060000Y54120000D03*
X16440000Y54120000D03*
X13900000Y54120000D03*
X11360000Y54120000D03*
X8820000Y54120000D03*
X3740000Y54120000D03*
X6280000Y54120000D03*
X6280000Y61740000D03*
X3740000Y61740000D03*
X6280000Y59200000D03*
X6280000Y56660000D03*
X3740000Y59200000D03*
X3740000Y56660000D03*
D34*
X118100000Y38400000D03*
X100650000Y33550000D03*
X100500000Y11310000D03*
X112500000Y33500000D03*
X41350000Y40050000D03*
X41150000Y19750000D03*
X63350000Y40650000D03*
X63350000Y29450000D03*
X63603000Y18203000D03*
D35*
X102250000Y43460000D02*
X102250000Y39180000D01*
X102250000Y39180000D02*
X104120000Y37310000D01*
X102250000Y43460000D02*
X108890000Y43460000D01*
X108890000Y43460000D02*
X110750000Y41600000D01*
X110750000Y41600000D02*
X110750000Y38647000D01*
D36*
X110750000Y38647000D02*
X110500000Y38397000D01*
D35*
X116750000Y41600000D02*
X110750000Y41600000D01*
D37*
X114563000Y38400000D02*
X118100000Y38400000D01*
X114563000Y38400000D02*
X114560000Y38397000D01*
X46000000Y10500000D02*
X43000000Y10500000D01*
X43000000Y11300000D02*
X43000000Y10500000D01*
X43000000Y10500000D02*
X43000000Y2500000D01*
X89500000Y18000000D02*
X89500000Y17000000D01*
X43000000Y11300000D02*
X43000000Y28500000D01*
X89500000Y15310000D02*
X89500000Y17000000D01*
X89500000Y2500000D02*
X89500000Y15310000D01*
X43000000Y2500000D02*
X89500000Y2500000D01*
D38*
X110500000Y38397000D02*
X112560000Y38397000D01*
X112560000Y38397000D02*
X114560000Y38397000D01*
X104120000Y35270000D02*
X111000000Y28390000D01*
X104120000Y37310000D02*
X104120000Y35270000D01*
D37*
X43000000Y46500000D02*
X43000000Y46500000D01*
X43000000Y46500000D02*
X43000000Y28500000D01*
X46000000Y46500000D02*
X43000000Y46500000D01*
X43500000Y28500000D02*
X43000000Y28500000D01*
X43000000Y28500000D02*
X43500000Y28500000D01*
X46000000Y28500000D02*
X43000000Y28500000D01*
X89500000Y19850000D02*
X89500000Y18000000D01*
X89500000Y26500000D02*
X89500000Y19850000D01*
X89500000Y34000000D02*
X89500000Y26500000D01*
X86340000Y37160000D02*
X89500000Y34000000D01*
X86340000Y37310000D02*
X86340000Y37160000D01*
X89500000Y26310000D02*
X89500000Y26500000D01*
X86340000Y26310000D02*
X89500000Y26310000D01*
X89550000Y19850000D02*
X89500000Y19850000D01*
X89500000Y19850000D02*
X89550000Y19850000D01*
X97650000Y19850000D02*
X89500000Y19850000D01*
X104120000Y15310000D02*
X102190000Y15310000D01*
X102190000Y15310000D02*
X99500000Y18000000D01*
X99500000Y18000000D02*
X97650000Y19850000D01*
X86340000Y15310000D02*
X89500000Y15310000D01*
X83000000Y15310000D02*
X86340000Y15310000D01*
X83000000Y26310000D02*
X86340000Y26310000D01*
X83000000Y37310000D02*
X86340000Y37310000D01*
X100750000Y11750000D02*
X100750000Y11560000D01*
X100750000Y11560000D02*
X100500000Y11310000D01*
D38*
X112560000Y35603000D02*
X112560000Y33560000D01*
X112560000Y33560000D02*
X112500000Y33500000D01*
X110500000Y35603000D02*
X112560000Y35603000D01*
X112560000Y35603000D02*
X114560000Y35603000D01*
D36*
X71750000Y9370000D02*
X71750000Y20250000D01*
X73760000Y9310000D02*
X71810000Y9310000D01*
D39*
X71810000Y9310000D02*
X71750000Y9370000D01*
D36*
X72310000Y31310000D02*
X73760000Y31310000D01*
X71750000Y30750000D02*
X72310000Y31310000D01*
X71750000Y20250000D02*
X71750000Y30750000D01*
D39*
X71750000Y20210000D02*
X71750000Y20250000D01*
D36*
X73760000Y20210000D02*
X71750000Y20210000D01*
D39*
X125250000Y52750000D02*
X121250000Y56750000D01*
X103750000Y55750000D02*
X104750000Y56750000D01*
X125250000Y40250000D02*
X123500000Y38500000D01*
X125250000Y40250000D02*
X125250000Y52750000D01*
X104750000Y56750000D02*
X121250000Y56750000D01*
D36*
X104120000Y55650000D02*
X104020000Y55750000D01*
D39*
X104020000Y55750000D02*
X103750000Y55750000D01*
X126150000Y31150000D02*
X126150000Y53350000D01*
X126150000Y53350000D02*
X121750000Y57750000D01*
X126150000Y31150000D02*
X123500000Y28500000D01*
X97020000Y55750000D02*
X99020000Y57750000D01*
X121750000Y57750000D02*
X99020000Y57750000D01*
X90250000Y55750000D02*
X90020000Y55750000D01*
X127150000Y53850000D02*
X122250000Y58750000D01*
X93250000Y58750000D02*
X90250000Y55750000D01*
X122250000Y58750000D02*
X93250000Y58750000D01*
X126150000Y26150000D02*
X127150000Y27150000D01*
X123500000Y23500000D02*
X126150000Y26150000D01*
X127150000Y53850000D02*
X127150000Y27150000D01*
D37*
X66140000Y11850000D02*
X59350000Y11850000D01*
X58440000Y12760000D02*
X58440000Y18810000D01*
X59350000Y11850000D02*
X58440000Y12760000D01*
X65790000Y47410000D02*
X65790000Y44610000D01*
X68650000Y41750000D02*
X68650000Y33850000D01*
X65790000Y44610000D02*
X68650000Y41750000D01*
D40*
X38095998Y44795998D02*
X37850000Y44250000D01*
X32710000Y62750000D02*
X34310000Y61150000D01*
X37150000Y61150000D02*
X34310000Y61150000D01*
X38095998Y60104002D02*
X37150000Y61150000D01*
X38095998Y44795998D02*
X38095998Y60104002D01*
X37850000Y44250000D02*
X36270000Y42660000D01*
D36*
X66140000Y11850000D02*
X68650000Y11850000D01*
X68650000Y11850000D02*
X68650000Y22750000D01*
D38*
X56040000Y36810000D02*
X58500000Y36810000D01*
X58500000Y36810000D02*
X58500000Y37000000D01*
X56040000Y54810000D02*
X56040000Y52290000D01*
X58500000Y52250000D02*
X58500000Y47250000D01*
X56080000Y52250000D02*
X58500000Y52250000D01*
X56040000Y52290000D02*
X56080000Y52250000D01*
X58500000Y47250000D02*
X58500000Y37000000D01*
X58440000Y18810000D02*
X56040000Y18810000D01*
X58500000Y37000000D02*
X58500000Y18750000D01*
X58500000Y18750000D02*
X58440000Y18810000D01*
D36*
X66140000Y33850000D02*
X68650000Y33850000D01*
X68650000Y22750000D02*
X68650000Y33850000D01*
X68250000Y22750000D02*
X68650000Y22750000D01*
X68650000Y22750000D02*
X68250000Y22750000D01*
X66140000Y22750000D02*
X68650000Y22750000D01*
D39*
X36270000Y22340000D02*
X37740000Y22340000D01*
X41000000Y58000000D02*
X40000000Y57000000D01*
X40000000Y57000000D02*
X40000000Y35500000D01*
X41000000Y58000000D02*
X46000000Y58000000D01*
X40000000Y24600000D02*
X40000000Y35500000D01*
X37740000Y22340000D02*
X40000000Y24600000D01*
D41*
X51500000Y58000000D02*
X53500000Y56000000D01*
X53500000Y56000000D02*
X53500000Y54810000D01*
X46000000Y58000000D02*
X51500000Y58000000D01*
D39*
X36270000Y19800000D02*
X39100000Y19800000D01*
X41350000Y22050000D02*
X41350000Y40050000D01*
X39100000Y19800000D02*
X41350000Y22050000D01*
D41*
X51500000Y40000000D02*
X53500000Y38000000D01*
X53500000Y38000000D02*
X53500000Y36810000D01*
X46000000Y40000000D02*
X51500000Y40000000D01*
D39*
X36270000Y17260000D02*
X38660000Y17260000D01*
X38660000Y17260000D02*
X41150000Y19750000D01*
D41*
X51500000Y22000000D02*
X53500000Y20000000D01*
X53500000Y20000000D02*
X53500000Y18810000D01*
X46000000Y22000000D02*
X51500000Y22000000D01*
D11*
X66330000Y55750000D02*
X64950000Y55750000D01*
X61050000Y42950000D02*
X63350000Y40650000D01*
X61050000Y51850000D02*
X61050000Y42950000D01*
X64950000Y55750000D02*
X61050000Y51850000D01*
D39*
X71147000Y49750000D02*
X71147000Y53473000D01*
X71147000Y53473000D02*
X68870000Y55750000D01*
D11*
X73480000Y55750000D02*
X73480000Y56820000D01*
X60450000Y32350000D02*
X63350000Y29450000D01*
X60450000Y52450000D02*
X60450000Y32350000D01*
X65650000Y57650000D02*
X60450000Y52450000D01*
X72650000Y57650000D02*
X65650000Y57650000D01*
X73480000Y56820000D02*
X72650000Y57650000D01*
D39*
X78647000Y49750000D02*
X78647000Y53123000D01*
X78647000Y53123000D02*
X76020000Y55750000D01*
D11*
X59750000Y23350000D02*
X59750000Y22056000D01*
X80480000Y57020000D02*
X79250000Y58250000D01*
X79250000Y58250000D02*
X65250000Y58250000D01*
X65250000Y58250000D02*
X59750000Y52750000D01*
X59750000Y52750000D02*
X59750000Y23350000D01*
X80480000Y55750000D02*
X80480000Y57020000D01*
X59750000Y22056000D02*
X63603000Y18203000D01*
D40*
X63603000Y18203000D02*
X63650000Y18250000D01*
D39*
X86397000Y49750000D02*
X86397000Y52373000D01*
X86397000Y52373000D02*
X83020000Y55750000D01*
D38*
X83000000Y29690000D02*
X86340000Y29690000D01*
X80750000Y33750000D02*
X83000000Y31500000D01*
X83000000Y31500000D02*
X83000000Y29690000D01*
X78650000Y33750000D02*
X80750000Y33750000D01*
X83000000Y18690000D02*
X86340000Y18690000D01*
X80650000Y22650000D02*
X83000000Y20300000D01*
X83000000Y20300000D02*
X83000000Y18690000D01*
X78550000Y22650000D02*
X80650000Y22650000D01*
X83000000Y7690000D02*
X86340000Y7690000D01*
X80650000Y11850000D02*
X83000000Y9500000D01*
X83000000Y9500000D02*
X83000000Y7690000D01*
X78550000Y11850000D02*
X80650000Y11850000D01*
X100500000Y22500000D02*
X107000000Y22500000D01*
X107000000Y22500000D02*
X111000000Y18500000D01*
X111000000Y18500000D02*
X111000000Y10610000D01*
X96690000Y26310000D02*
X100500000Y22500000D01*
X96500000Y26310000D02*
X96690000Y26310000D01*
X123500000Y18500000D02*
X111000000Y18500000D01*
X117500000Y10610000D02*
X117610000Y10610000D01*
X117610000Y10610000D02*
X120500000Y13500000D01*
X120500000Y13500000D02*
X123500000Y13500000D01*
X96500000Y15310000D02*
X96500000Y6250000D01*
X109640000Y2750000D02*
X117500000Y10610000D01*
X100000000Y2750000D02*
X109640000Y2750000D01*
X96500000Y6250000D02*
X100000000Y2750000D01*
D41*
X49150000Y49000000D02*
X50960000Y47190000D01*
X46000000Y49000000D02*
X49150000Y49000000D01*
X49150000Y31000000D02*
X50960000Y29190000D01*
X46000000Y31000000D02*
X49150000Y31000000D01*
X49150000Y13000000D02*
X50960000Y11190000D01*
X46000000Y13000000D02*
X49150000Y13000000D01*
D39*
X68330000Y47410000D02*
X68330000Y49727000D01*
X68330000Y49727000D02*
X68353000Y49750000D01*
X68353000Y47433000D02*
X68330000Y47410000D01*
X75950000Y47410000D02*
X75950000Y49653000D01*
X75950000Y49653000D02*
X75853000Y49750000D01*
X75853000Y47507000D02*
X75950000Y47410000D01*
X83570000Y47410000D02*
X83570000Y49717000D01*
X83570000Y49717000D02*
X83603000Y49750000D01*
D40*
X38750000Y60307944D02*
X37386916Y61671028D01*
X37386916Y61671028D02*
X36328972Y61671028D01*
X36328972Y61671028D02*
X35250000Y62750000D01*
X36270000Y40120000D02*
X38750000Y42600000D01*
X38750000Y59250000D02*
X38750000Y42600000D01*
X38750000Y59250000D02*
X38750000Y60307944D01*
X37790000Y61910000D02*
X39250000Y60450000D01*
X39250000Y60450000D02*
X39250000Y40560000D01*
X39250000Y40560000D02*
X36270000Y37580000D01*
X37790000Y62750000D02*
X37790000Y61910000D01*
D38*
X96500000Y32000000D02*
X102190000Y26310000D01*
X102190000Y26310000D02*
X104120000Y26310000D01*
X96500000Y37310000D02*
X96500000Y32000000D01*
D35*
X116750000Y49900000D02*
X119100000Y49900000D01*
X120000000Y47000000D02*
X123500000Y43500000D01*
X120000000Y49000000D02*
X120000000Y47000000D01*
X119100000Y49900000D02*
X120000000Y49000000D01*
X110750000Y49900000D02*
X116750000Y49900000D01*
D42*
G36*
X81191863Y28199790D02*
X80922196Y27930122D01*
X80674500Y27332131D01*
X80674500Y26684870D01*
X80674500Y26101902D01*
X80523885Y26466418D01*
X79869861Y27121585D01*
X79014900Y27476596D01*
X78089162Y27477403D01*
X77233582Y27123885D01*
X76578415Y26469861D01*
X76423695Y26097255D01*
X76400483Y26213951D01*
X75877107Y26997239D01*
X75495010Y27252548D01*
X75495010Y30962940D01*
X75372852Y31183000D01*
X73887000Y31183000D01*
X73887000Y29887600D01*
X74242600Y29887600D01*
X74777262Y30044475D01*
X75211191Y30394014D01*
X75478327Y30883004D01*
X75495010Y30962940D01*
X75495010Y27252548D01*
X75093819Y27520615D01*
X74169868Y27704400D01*
X73633000Y27704400D01*
X73633000Y29887600D01*
X73633000Y31183000D01*
X72147148Y31183000D01*
X72024990Y30962940D01*
X72041673Y30883004D01*
X72308809Y30394014D01*
X72742738Y30044475D01*
X73277400Y29887600D01*
X73633000Y29887600D01*
X73633000Y27704400D01*
X73350132Y27704400D01*
X72426181Y27520615D01*
X71642893Y26997239D01*
X71377000Y26599302D01*
X71377000Y32540699D01*
X71642893Y32142761D01*
X72097426Y31839052D01*
X72041673Y31736996D01*
X72024990Y31657060D01*
X72147148Y31437000D01*
X73343093Y31437000D01*
X73350132Y31435600D01*
X74169868Y31435600D01*
X74176906Y31437000D01*
X75372852Y31437000D01*
X75495010Y31657060D01*
X75478327Y31736996D01*
X75422573Y31839052D01*
X75877107Y32142761D01*
X76400483Y32926049D01*
X76418688Y33017574D01*
X76453938Y32840361D01*
X76595702Y32628196D01*
X76649038Y32499114D01*
X76323404Y31714900D01*
X76322597Y30789162D01*
X76676115Y29933582D01*
X77330139Y29278415D01*
X78185100Y28923404D01*
X79110838Y28922597D01*
X79966418Y29276115D01*
X80621585Y29930139D01*
X80623000Y29933547D01*
X80623000Y29690000D01*
X80674274Y29432228D01*
X80674097Y29229459D01*
X80752211Y29040408D01*
X80803938Y28780361D01*
X80949956Y28561829D01*
X81027388Y28374431D01*
X81171901Y28229665D01*
X81191863Y28199790D01*
X81191863Y28199790D01*
G37*
X81191863Y28199790D02*
X80922196Y27930122D01*
X80674500Y27332131D01*
X80674500Y26684870D01*
X80674500Y26101902D01*
X80523885Y26466418D01*
X79869861Y27121585D01*
X79014900Y27476596D01*
X78089162Y27477403D01*
X77233582Y27123885D01*
X76578415Y26469861D01*
X76423695Y26097255D01*
X76400483Y26213951D01*
X75877107Y26997239D01*
X75495010Y27252548D01*
X75495010Y30962940D01*
X75372852Y31183000D01*
X73887000Y31183000D01*
X73887000Y29887600D01*
X74242600Y29887600D01*
X74777262Y30044475D01*
X75211191Y30394014D01*
X75478327Y30883004D01*
X75495010Y30962940D01*
X75495010Y27252548D01*
X75093819Y27520615D01*
X74169868Y27704400D01*
X73633000Y27704400D01*
X73633000Y29887600D01*
X73633000Y31183000D01*
X72147148Y31183000D01*
X72024990Y30962940D01*
X72041673Y30883004D01*
X72308809Y30394014D01*
X72742738Y30044475D01*
X73277400Y29887600D01*
X73633000Y29887600D01*
X73633000Y27704400D01*
X73350132Y27704400D01*
X72426181Y27520615D01*
X71642893Y26997239D01*
X71377000Y26599302D01*
X71377000Y32540699D01*
X71642893Y32142761D01*
X72097426Y31839052D01*
X72041673Y31736996D01*
X72024990Y31657060D01*
X72147148Y31437000D01*
X73343093Y31437000D01*
X73350132Y31435600D01*
X74169868Y31435600D01*
X74176906Y31437000D01*
X75372852Y31437000D01*
X75495010Y31657060D01*
X75478327Y31736996D01*
X75422573Y31839052D01*
X75877107Y32142761D01*
X76400483Y32926049D01*
X76418688Y33017574D01*
X76453938Y32840361D01*
X76595702Y32628196D01*
X76649038Y32499114D01*
X76323404Y31714900D01*
X76322597Y30789162D01*
X76676115Y29933582D01*
X77330139Y29278415D01*
X78185100Y28923404D01*
X79110838Y28922597D01*
X79966418Y29276115D01*
X80621585Y29930139D01*
X80623000Y29933547D01*
X80623000Y29690000D01*
X80674274Y29432228D01*
X80674097Y29229459D01*
X80752211Y29040408D01*
X80803938Y28780361D01*
X80949956Y28561829D01*
X81027388Y28374431D01*
X81171901Y28229665D01*
X81191863Y28199790D01*
G36*
X81191863Y17199790D02*
X80922196Y16930122D01*
X80674500Y16332131D01*
X80674500Y15684870D01*
X80674500Y15301902D01*
X80523885Y15666418D01*
X79869861Y16321585D01*
X79014900Y16676596D01*
X78089162Y16677403D01*
X77233582Y16323885D01*
X76578415Y15669861D01*
X76410246Y15264867D01*
X76400483Y15313951D01*
X75877107Y16097239D01*
X75495010Y16352548D01*
X75495010Y19862940D01*
X75372852Y20083000D01*
X73887000Y20083000D01*
X73887000Y18787600D01*
X74242600Y18787600D01*
X74777262Y18944475D01*
X75211191Y19294014D01*
X75478327Y19783004D01*
X75495010Y19862940D01*
X75495010Y16352548D01*
X75093819Y16620615D01*
X74169868Y16804400D01*
X73633000Y16804400D01*
X73633000Y18787600D01*
X73633000Y20083000D01*
X72147148Y20083000D01*
X72024990Y19862940D01*
X72041673Y19783004D01*
X72308809Y19294014D01*
X72742738Y18944475D01*
X73277400Y18787600D01*
X73633000Y18787600D01*
X73633000Y16804400D01*
X73350132Y16804400D01*
X72426181Y16620615D01*
X71642893Y16097239D01*
X71377000Y15699302D01*
X71377000Y21440699D01*
X71642893Y21042761D01*
X72097426Y20739052D01*
X72041673Y20636996D01*
X72024990Y20557060D01*
X72147148Y20337000D01*
X73343093Y20337000D01*
X73350132Y20335600D01*
X74169868Y20335600D01*
X74176906Y20337000D01*
X75372852Y20337000D01*
X75495010Y20557060D01*
X75478327Y20636996D01*
X75422573Y20739052D01*
X75877107Y21042761D01*
X76351481Y21752713D01*
X76353938Y21740361D01*
X76495702Y21528196D01*
X76549038Y21399114D01*
X76223404Y20614900D01*
X76222597Y19689162D01*
X76576115Y18833582D01*
X77230139Y18178415D01*
X78085100Y17823404D01*
X79010838Y17822597D01*
X79866418Y18176115D01*
X80521585Y18830139D01*
X80623000Y19074374D01*
X80623000Y18690000D01*
X80674274Y18432228D01*
X80674097Y18229459D01*
X80752211Y18040408D01*
X80803938Y17780361D01*
X80949956Y17561829D01*
X81027388Y17374431D01*
X81171901Y17229665D01*
X81191863Y17199790D01*
X81191863Y17199790D01*
G37*
X81191863Y17199790D02*
X80922196Y16930122D01*
X80674500Y16332131D01*
X80674500Y15684870D01*
X80674500Y15301902D01*
X80523885Y15666418D01*
X79869861Y16321585D01*
X79014900Y16676596D01*
X78089162Y16677403D01*
X77233582Y16323885D01*
X76578415Y15669861D01*
X76410246Y15264867D01*
X76400483Y15313951D01*
X75877107Y16097239D01*
X75495010Y16352548D01*
X75495010Y19862940D01*
X75372852Y20083000D01*
X73887000Y20083000D01*
X73887000Y18787600D01*
X74242600Y18787600D01*
X74777262Y18944475D01*
X75211191Y19294014D01*
X75478327Y19783004D01*
X75495010Y19862940D01*
X75495010Y16352548D01*
X75093819Y16620615D01*
X74169868Y16804400D01*
X73633000Y16804400D01*
X73633000Y18787600D01*
X73633000Y20083000D01*
X72147148Y20083000D01*
X72024990Y19862940D01*
X72041673Y19783004D01*
X72308809Y19294014D01*
X72742738Y18944475D01*
X73277400Y18787600D01*
X73633000Y18787600D01*
X73633000Y16804400D01*
X73350132Y16804400D01*
X72426181Y16620615D01*
X71642893Y16097239D01*
X71377000Y15699302D01*
X71377000Y21440699D01*
X71642893Y21042761D01*
X72097426Y20739052D01*
X72041673Y20636996D01*
X72024990Y20557060D01*
X72147148Y20337000D01*
X73343093Y20337000D01*
X73350132Y20335600D01*
X74169868Y20335600D01*
X74176906Y20337000D01*
X75372852Y20337000D01*
X75495010Y20557060D01*
X75478327Y20636996D01*
X75422573Y20739052D01*
X75877107Y21042761D01*
X76351481Y21752713D01*
X76353938Y21740361D01*
X76495702Y21528196D01*
X76549038Y21399114D01*
X76223404Y20614900D01*
X76222597Y19689162D01*
X76576115Y18833582D01*
X77230139Y18178415D01*
X78085100Y17823404D01*
X79010838Y17822597D01*
X79866418Y18176115D01*
X80521585Y18830139D01*
X80623000Y19074374D01*
X80623000Y18690000D01*
X80674274Y18432228D01*
X80674097Y18229459D01*
X80752211Y18040408D01*
X80803938Y17780361D01*
X80949956Y17561829D01*
X81027388Y17374431D01*
X81171901Y17229665D01*
X81191863Y17199790D01*
G36*
X87373000Y4627000D02*
X75495010Y4627000D01*
X75495010Y8962940D01*
X75372852Y9183000D01*
X73887000Y9183000D01*
X73887000Y7887600D01*
X74242600Y7887600D01*
X74777262Y8044475D01*
X75211191Y8394014D01*
X75478327Y8883004D01*
X75495010Y8962940D01*
X75495010Y4627000D01*
X73633000Y4627000D01*
X73633000Y7887600D01*
X73633000Y9183000D01*
X72147148Y9183000D01*
X72024990Y8962940D01*
X72041673Y8883004D01*
X72308809Y8394014D01*
X72742738Y8044475D01*
X73277400Y7887600D01*
X73633000Y7887600D01*
X73633000Y4627000D01*
X71377000Y4627000D01*
X71377000Y10540699D01*
X71642893Y10142761D01*
X72097426Y9839052D01*
X72041673Y9736996D01*
X72024990Y9657060D01*
X72147148Y9437000D01*
X73343093Y9437000D01*
X73350132Y9435600D01*
X74169868Y9435600D01*
X74176906Y9437000D01*
X75372852Y9437000D01*
X75495010Y9657060D01*
X75478327Y9736996D01*
X75422573Y9839052D01*
X75877107Y10142761D01*
X76381992Y10898376D01*
X76495702Y10728196D01*
X76549038Y10599114D01*
X76223404Y9814900D01*
X76222597Y8889162D01*
X76576115Y8033582D01*
X77230139Y7378415D01*
X78085100Y7023404D01*
X79010838Y7022597D01*
X79866418Y7376115D01*
X80521585Y8030139D01*
X80623000Y8274374D01*
X80623000Y7690000D01*
X80674274Y7432228D01*
X80674097Y7229459D01*
X80752211Y7040408D01*
X80803938Y6780361D01*
X80949956Y6561829D01*
X81027388Y6374431D01*
X81171901Y6229665D01*
X81319207Y6009207D01*
X81537738Y5863189D01*
X81680990Y5719687D01*
X81869902Y5641244D01*
X82090361Y5493938D01*
X82348137Y5442664D01*
X82535400Y5364905D01*
X82739953Y5364727D01*
X83000000Y5313000D01*
X85214198Y5313000D01*
X85815165Y5063457D01*
X86860250Y5062545D01*
X87373000Y5274409D01*
X87373000Y4627000D01*
X87373000Y4627000D01*
G37*
X87373000Y4627000D02*
X75495010Y4627000D01*
X75495010Y8962940D01*
X75372852Y9183000D01*
X73887000Y9183000D01*
X73887000Y7887600D01*
X74242600Y7887600D01*
X74777262Y8044475D01*
X75211191Y8394014D01*
X75478327Y8883004D01*
X75495010Y8962940D01*
X75495010Y4627000D01*
X73633000Y4627000D01*
X73633000Y7887600D01*
X73633000Y9183000D01*
X72147148Y9183000D01*
X72024990Y8962940D01*
X72041673Y8883004D01*
X72308809Y8394014D01*
X72742738Y8044475D01*
X73277400Y7887600D01*
X73633000Y7887600D01*
X73633000Y4627000D01*
X71377000Y4627000D01*
X71377000Y10540699D01*
X71642893Y10142761D01*
X72097426Y9839052D01*
X72041673Y9736996D01*
X72024990Y9657060D01*
X72147148Y9437000D01*
X73343093Y9437000D01*
X73350132Y9435600D01*
X74169868Y9435600D01*
X74176906Y9437000D01*
X75372852Y9437000D01*
X75495010Y9657060D01*
X75478327Y9736996D01*
X75422573Y9839052D01*
X75877107Y10142761D01*
X76381992Y10898376D01*
X76495702Y10728196D01*
X76549038Y10599114D01*
X76223404Y9814900D01*
X76222597Y8889162D01*
X76576115Y8033582D01*
X77230139Y7378415D01*
X78085100Y7023404D01*
X79010838Y7022597D01*
X79866418Y7376115D01*
X80521585Y8030139D01*
X80623000Y8274374D01*
X80623000Y7690000D01*
X80674274Y7432228D01*
X80674097Y7229459D01*
X80752211Y7040408D01*
X80803938Y6780361D01*
X80949956Y6561829D01*
X81027388Y6374431D01*
X81171901Y6229665D01*
X81319207Y6009207D01*
X81537738Y5863189D01*
X81680990Y5719687D01*
X81869902Y5641244D01*
X82090361Y5493938D01*
X82348137Y5442664D01*
X82535400Y5364905D01*
X82739953Y5364727D01*
X83000000Y5313000D01*
X85214198Y5313000D01*
X85815165Y5063457D01*
X86860250Y5062545D01*
X87373000Y5274409D01*
X87373000Y4627000D01*
G36*
X104704629Y31323785D02*
X104408407Y31435323D01*
X103718547Y31412836D01*
X103185641Y31192099D01*
X103074737Y30914868D01*
X104120000Y29869605D01*
X104134142Y29883748D01*
X104313747Y29704143D01*
X104299605Y29690000D01*
X104313747Y29675858D01*
X104134142Y29496253D01*
X104120000Y29510395D01*
X104105857Y29496253D01*
X103926252Y29675858D01*
X103940395Y29690000D01*
X102895132Y30735263D01*
X102617901Y30624359D01*
X102374677Y29978407D01*
X102391237Y29470349D01*
X98877000Y32984586D01*
X98877000Y35923436D01*
X99226526Y36765186D01*
X99227472Y37850054D01*
X98813186Y38852703D01*
X98046738Y39620490D01*
X98040693Y39623000D01*
X99623000Y39623000D01*
X99623000Y39180006D01*
X99622999Y39180000D01*
X99822968Y38174690D01*
X100392430Y37322430D01*
X101707707Y36007154D01*
X101743000Y35921739D01*
X101743000Y35270000D01*
X101923938Y34360361D01*
X102439207Y33589207D01*
X104704629Y31323785D01*
X104704629Y31323785D01*
G37*
X104704629Y31323785D02*
X104408407Y31435323D01*
X103718547Y31412836D01*
X103185641Y31192099D01*
X103074737Y30914868D01*
X104120000Y29869605D01*
X104134142Y29883748D01*
X104313747Y29704143D01*
X104299605Y29690000D01*
X104313747Y29675858D01*
X104134142Y29496253D01*
X104120000Y29510395D01*
X104105857Y29496253D01*
X103926252Y29675858D01*
X103940395Y29690000D01*
X102895132Y30735263D01*
X102617901Y30624359D01*
X102374677Y29978407D01*
X102391237Y29470349D01*
X98877000Y32984586D01*
X98877000Y35923436D01*
X99226526Y36765186D01*
X99227472Y37850054D01*
X98813186Y38852703D01*
X98046738Y39620490D01*
X98040693Y39623000D01*
X99623000Y39623000D01*
X99623000Y39180006D01*
X99622999Y39180000D01*
X99822968Y38174690D01*
X100392430Y37322430D01*
X101707707Y36007154D01*
X101743000Y35921739D01*
X101743000Y35270000D01*
X101923938Y34360361D01*
X102439207Y33589207D01*
X104704629Y31323785D01*
G36*
X111431537Y7903124D02*
X108655414Y5127000D01*
X105865323Y5127000D01*
X105865323Y7401593D01*
X105842836Y8091453D01*
X105622099Y8624359D01*
X105344868Y8735263D01*
X105165263Y8555658D01*
X105165263Y8914868D01*
X105054359Y9192099D01*
X104408407Y9435323D01*
X103718547Y9412836D01*
X103185641Y9192099D01*
X103074737Y8914868D01*
X104120000Y7869605D01*
X105165263Y8914868D01*
X105165263Y8555658D01*
X104299605Y7690000D01*
X105344868Y6644737D01*
X105622099Y6755641D01*
X105865323Y7401593D01*
X105865323Y5127000D01*
X105165263Y5127000D01*
X105165263Y6465132D01*
X104120000Y7510395D01*
X103940395Y7330790D01*
X103940395Y7690000D01*
X102895132Y8735263D01*
X102617901Y8624359D01*
X102374677Y7978407D01*
X102397164Y7288547D01*
X102617901Y6755641D01*
X102895132Y6644737D01*
X103940395Y7690000D01*
X103940395Y7330790D01*
X103074737Y6465132D01*
X103185641Y6187901D01*
X103831593Y5944677D01*
X104521453Y5967164D01*
X105054359Y6187901D01*
X105165263Y6465132D01*
X105165263Y5127000D01*
X100984585Y5127000D01*
X98877000Y7234586D01*
X98877000Y13923436D01*
X99226526Y14765186D01*
X99226961Y15265007D01*
X100685984Y13805984D01*
X101376032Y13344908D01*
X102190000Y13183000D01*
X102390092Y13183000D01*
X102573262Y12999510D01*
X103575186Y12583474D01*
X104660054Y12582528D01*
X105662703Y12996814D01*
X106430490Y13763262D01*
X106846526Y14765186D01*
X106847472Y15850054D01*
X106433186Y16852703D01*
X105666738Y17620490D01*
X105479061Y17698421D01*
X105622099Y17755641D01*
X105865323Y18401593D01*
X105842836Y19091453D01*
X105622099Y19624359D01*
X105344868Y19735263D01*
X104299605Y18690000D01*
X104313747Y18675858D01*
X104134142Y18496253D01*
X104120000Y18510395D01*
X104105857Y18496253D01*
X103926252Y18675858D01*
X103940395Y18690000D01*
X102895132Y19735263D01*
X102617901Y19624359D01*
X102374677Y18978407D01*
X102397164Y18288547D01*
X102522802Y17985230D01*
X101004016Y19504016D01*
X100356485Y20151547D01*
X100500000Y20123000D01*
X103157998Y20123000D01*
X103074737Y19914868D01*
X104120000Y18869605D01*
X105165263Y19914868D01*
X105082001Y20123000D01*
X106015414Y20123000D01*
X108623000Y17515414D01*
X108623000Y11943108D01*
X108293971Y11150718D01*
X108293032Y10074006D01*
X108704203Y9078894D01*
X109464889Y8316879D01*
X110459282Y7903971D01*
X111431537Y7903124D01*
X111431537Y7903124D01*
G37*
X111431537Y7903124D02*
X108655414Y5127000D01*
X105865323Y5127000D01*
X105865323Y7401593D01*
X105842836Y8091453D01*
X105622099Y8624359D01*
X105344868Y8735263D01*
X105165263Y8555658D01*
X105165263Y8914868D01*
X105054359Y9192099D01*
X104408407Y9435323D01*
X103718547Y9412836D01*
X103185641Y9192099D01*
X103074737Y8914868D01*
X104120000Y7869605D01*
X105165263Y8914868D01*
X105165263Y8555658D01*
X104299605Y7690000D01*
X105344868Y6644737D01*
X105622099Y6755641D01*
X105865323Y7401593D01*
X105865323Y5127000D01*
X105165263Y5127000D01*
X105165263Y6465132D01*
X104120000Y7510395D01*
X103940395Y7330790D01*
X103940395Y7690000D01*
X102895132Y8735263D01*
X102617901Y8624359D01*
X102374677Y7978407D01*
X102397164Y7288547D01*
X102617901Y6755641D01*
X102895132Y6644737D01*
X103940395Y7690000D01*
X103940395Y7330790D01*
X103074737Y6465132D01*
X103185641Y6187901D01*
X103831593Y5944677D01*
X104521453Y5967164D01*
X105054359Y6187901D01*
X105165263Y6465132D01*
X105165263Y5127000D01*
X100984585Y5127000D01*
X98877000Y7234586D01*
X98877000Y13923436D01*
X99226526Y14765186D01*
X99226961Y15265007D01*
X100685984Y13805984D01*
X101376032Y13344908D01*
X102190000Y13183000D01*
X102390092Y13183000D01*
X102573262Y12999510D01*
X103575186Y12583474D01*
X104660054Y12582528D01*
X105662703Y12996814D01*
X106430490Y13763262D01*
X106846526Y14765186D01*
X106847472Y15850054D01*
X106433186Y16852703D01*
X105666738Y17620490D01*
X105479061Y17698421D01*
X105622099Y17755641D01*
X105865323Y18401593D01*
X105842836Y19091453D01*
X105622099Y19624359D01*
X105344868Y19735263D01*
X104299605Y18690000D01*
X104313747Y18675858D01*
X104134142Y18496253D01*
X104120000Y18510395D01*
X104105857Y18496253D01*
X103926252Y18675858D01*
X103940395Y18690000D01*
X102895132Y19735263D01*
X102617901Y19624359D01*
X102374677Y18978407D01*
X102397164Y18288547D01*
X102522802Y17985230D01*
X101004016Y19504016D01*
X100356485Y20151547D01*
X100500000Y20123000D01*
X103157998Y20123000D01*
X103074737Y19914868D01*
X104120000Y18869605D01*
X105165263Y19914868D01*
X105082001Y20123000D01*
X106015414Y20123000D01*
X108623000Y17515414D01*
X108623000Y11943108D01*
X108293971Y11150718D01*
X108293032Y10074006D01*
X108704203Y9078894D01*
X109464889Y8316879D01*
X110459282Y7903971D01*
X111431537Y7903124D01*
G36*
X124273000Y31927478D02*
X123572459Y31226938D01*
X122959946Y31227472D01*
X121957297Y30813186D01*
X121189510Y30046738D01*
X120773474Y29044814D01*
X120772528Y27959946D01*
X121186814Y26957297D01*
X121953262Y26189510D01*
X122409536Y26000048D01*
X121957297Y25813186D01*
X121189510Y25046738D01*
X120773474Y24044814D01*
X120772528Y22959946D01*
X121186814Y21957297D01*
X121953262Y21189510D01*
X122409536Y21000048D01*
X122111738Y20877000D01*
X120206500Y20877000D01*
X120206500Y26986869D01*
X120206500Y27634130D01*
X120206500Y29793130D01*
X119958804Y30391121D01*
X119501122Y30848804D01*
X118903131Y31096500D01*
X118255870Y31096500D01*
X116096870Y31096500D01*
X116096700Y31096430D01*
X116096700Y34676591D01*
X116096700Y35317250D01*
X115937950Y35476000D01*
X114687000Y35476000D01*
X114687000Y34326650D01*
X114845750Y34167900D01*
X115335391Y34167900D01*
X115588010Y34167900D01*
X115821399Y34264573D01*
X116000027Y34443202D01*
X116096700Y34676591D01*
X116096700Y31096430D01*
X115498879Y30848804D01*
X115041196Y30391122D01*
X114793500Y29793131D01*
X114793500Y29145870D01*
X114793500Y26986870D01*
X115041196Y26388879D01*
X115498878Y25931196D01*
X116096869Y25683500D01*
X116744130Y25683500D01*
X118903130Y25683500D01*
X119501121Y25931196D01*
X119958804Y26388878D01*
X120206500Y26986869D01*
X120206500Y20877000D01*
X114433000Y20877000D01*
X114433000Y34326650D01*
X114433000Y35476000D01*
X113937950Y35476000D01*
X113182050Y35476000D01*
X112687000Y35476000D01*
X112687000Y34326650D01*
X112845750Y34167900D01*
X113335391Y34167900D01*
X113531990Y34167900D01*
X113588010Y34167900D01*
X113784609Y34167900D01*
X114274250Y34167900D01*
X114433000Y34326650D01*
X114433000Y20877000D01*
X111984586Y20877000D01*
X108680793Y24180793D01*
X107909639Y24696062D01*
X107000000Y24877000D01*
X106477718Y24877000D01*
X106846526Y25765186D01*
X106847472Y26850054D01*
X106433186Y27852703D01*
X105666738Y28620490D01*
X105479061Y28698421D01*
X105622099Y28755641D01*
X105865323Y29401593D01*
X105842836Y30091453D01*
X105776279Y30252135D01*
X108293500Y27734914D01*
X108293500Y26986870D01*
X108541196Y26388879D01*
X108998878Y25931196D01*
X109596869Y25683500D01*
X110244130Y25683500D01*
X112403130Y25683500D01*
X113001121Y25931196D01*
X113458804Y26388878D01*
X113706500Y26986869D01*
X113706500Y27634130D01*
X113706500Y29793130D01*
X113458804Y30391121D01*
X113001122Y30848804D01*
X112433000Y31084128D01*
X112433000Y34326650D01*
X112433000Y35476000D01*
X111877950Y35476000D01*
X111182050Y35476000D01*
X110627000Y35476000D01*
X110627000Y34326650D01*
X110785750Y34167900D01*
X111275391Y34167900D01*
X111528010Y34167900D01*
X111530000Y34168725D01*
X111531990Y34167900D01*
X111784609Y34167900D01*
X112274250Y34167900D01*
X112433000Y34326650D01*
X112433000Y31084128D01*
X112403131Y31096500D01*
X111755870Y31096500D01*
X111655086Y31096500D01*
X110373000Y32378586D01*
X110373000Y34326650D01*
X110373000Y35476000D01*
X109122050Y35476000D01*
X108963300Y35317250D01*
X108963300Y34676591D01*
X109059973Y34443202D01*
X109238601Y34264573D01*
X109471990Y34167900D01*
X109724609Y34167900D01*
X110214250Y34167900D01*
X110373000Y34326650D01*
X110373000Y32378586D01*
X106594161Y36157425D01*
X106846526Y36765186D01*
X106847472Y37850054D01*
X106433186Y38852703D01*
X105666738Y39620490D01*
X105660693Y39623000D01*
X107686527Y39623000D01*
X107870696Y39178379D01*
X107971300Y39077775D01*
X107971300Y38873470D01*
X107971300Y37273270D01*
X108218996Y36675279D01*
X108676678Y36217596D01*
X108963300Y36098874D01*
X108963300Y35888750D01*
X109122050Y35730000D01*
X110373000Y35730000D01*
X110373000Y35750000D01*
X110627000Y35750000D01*
X110627000Y35730000D01*
X111182050Y35730000D01*
X111877950Y35730000D01*
X112433000Y35730000D01*
X112433000Y35750000D01*
X112687000Y35750000D01*
X112687000Y35730000D01*
X113182050Y35730000D01*
X113937950Y35730000D01*
X114433000Y35730000D01*
X114433000Y35750000D01*
X114687000Y35750000D01*
X114687000Y35730000D01*
X115937950Y35730000D01*
X116096700Y35888750D01*
X116096700Y36098874D01*
X116383321Y36217596D01*
X116438725Y36273000D01*
X118100000Y36273000D01*
X118377793Y36328257D01*
X118510239Y36328141D01*
X118633724Y36379165D01*
X118913968Y36434908D01*
X119149472Y36592268D01*
X119271877Y36642844D01*
X119366435Y36737238D01*
X119604016Y36895984D01*
X119761374Y37131487D01*
X119855108Y37225057D01*
X119906346Y37348454D01*
X120065092Y37586032D01*
X120120348Y37863826D01*
X120171140Y37986145D01*
X120171256Y38119759D01*
X120227000Y38400000D01*
X120171743Y38677794D01*
X120171859Y38810239D01*
X120120835Y38933725D01*
X120065092Y39213968D01*
X119907732Y39449473D01*
X119857156Y39571877D01*
X119811316Y39617797D01*
X119877000Y39776369D01*
X119877000Y40423630D01*
X119877000Y43407861D01*
X121641382Y41643479D01*
X122009981Y41274236D01*
X122540240Y41054054D01*
X121957297Y40813186D01*
X121189510Y40046738D01*
X120773474Y39044814D01*
X120772528Y37959946D01*
X121186814Y36957297D01*
X121953262Y36189510D01*
X122955186Y35773474D01*
X124040054Y35772528D01*
X124273000Y35868780D01*
X124273000Y35062857D01*
X123788407Y35245323D01*
X123098547Y35222836D01*
X122565641Y35002099D01*
X122454737Y34724868D01*
X123500000Y33679605D01*
X123514142Y33693748D01*
X123693747Y33514143D01*
X123679605Y33500000D01*
X123693747Y33485858D01*
X123514142Y33306253D01*
X123500000Y33320395D01*
X123320395Y33140790D01*
X123320395Y33500000D01*
X122275132Y34545263D01*
X121997901Y34434359D01*
X121754677Y33788407D01*
X121777164Y33098547D01*
X121997901Y32565641D01*
X122275132Y32454737D01*
X123320395Y33500000D01*
X123320395Y33140790D01*
X122454737Y32275132D01*
X122565641Y31997901D01*
X123211593Y31754677D01*
X123901453Y31777164D01*
X124273000Y31931064D01*
X124273000Y31927478D01*
X124273000Y31927478D01*
G37*
X124273000Y31927478D02*
X123572459Y31226938D01*
X122959946Y31227472D01*
X121957297Y30813186D01*
X121189510Y30046738D01*
X120773474Y29044814D01*
X120772528Y27959946D01*
X121186814Y26957297D01*
X121953262Y26189510D01*
X122409536Y26000048D01*
X121957297Y25813186D01*
X121189510Y25046738D01*
X120773474Y24044814D01*
X120772528Y22959946D01*
X121186814Y21957297D01*
X121953262Y21189510D01*
X122409536Y21000048D01*
X122111738Y20877000D01*
X120206500Y20877000D01*
X120206500Y26986869D01*
X120206500Y27634130D01*
X120206500Y29793130D01*
X119958804Y30391121D01*
X119501122Y30848804D01*
X118903131Y31096500D01*
X118255870Y31096500D01*
X116096870Y31096500D01*
X116096700Y31096430D01*
X116096700Y34676591D01*
X116096700Y35317250D01*
X115937950Y35476000D01*
X114687000Y35476000D01*
X114687000Y34326650D01*
X114845750Y34167900D01*
X115335391Y34167900D01*
X115588010Y34167900D01*
X115821399Y34264573D01*
X116000027Y34443202D01*
X116096700Y34676591D01*
X116096700Y31096430D01*
X115498879Y30848804D01*
X115041196Y30391122D01*
X114793500Y29793131D01*
X114793500Y29145870D01*
X114793500Y26986870D01*
X115041196Y26388879D01*
X115498878Y25931196D01*
X116096869Y25683500D01*
X116744130Y25683500D01*
X118903130Y25683500D01*
X119501121Y25931196D01*
X119958804Y26388878D01*
X120206500Y26986869D01*
X120206500Y20877000D01*
X114433000Y20877000D01*
X114433000Y34326650D01*
X114433000Y35476000D01*
X113937950Y35476000D01*
X113182050Y35476000D01*
X112687000Y35476000D01*
X112687000Y34326650D01*
X112845750Y34167900D01*
X113335391Y34167900D01*
X113531990Y34167900D01*
X113588010Y34167900D01*
X113784609Y34167900D01*
X114274250Y34167900D01*
X114433000Y34326650D01*
X114433000Y20877000D01*
X111984586Y20877000D01*
X108680793Y24180793D01*
X107909639Y24696062D01*
X107000000Y24877000D01*
X106477718Y24877000D01*
X106846526Y25765186D01*
X106847472Y26850054D01*
X106433186Y27852703D01*
X105666738Y28620490D01*
X105479061Y28698421D01*
X105622099Y28755641D01*
X105865323Y29401593D01*
X105842836Y30091453D01*
X105776279Y30252135D01*
X108293500Y27734914D01*
X108293500Y26986870D01*
X108541196Y26388879D01*
X108998878Y25931196D01*
X109596869Y25683500D01*
X110244130Y25683500D01*
X112403130Y25683500D01*
X113001121Y25931196D01*
X113458804Y26388878D01*
X113706500Y26986869D01*
X113706500Y27634130D01*
X113706500Y29793130D01*
X113458804Y30391121D01*
X113001122Y30848804D01*
X112433000Y31084128D01*
X112433000Y34326650D01*
X112433000Y35476000D01*
X111877950Y35476000D01*
X111182050Y35476000D01*
X110627000Y35476000D01*
X110627000Y34326650D01*
X110785750Y34167900D01*
X111275391Y34167900D01*
X111528010Y34167900D01*
X111530000Y34168725D01*
X111531990Y34167900D01*
X111784609Y34167900D01*
X112274250Y34167900D01*
X112433000Y34326650D01*
X112433000Y31084128D01*
X112403131Y31096500D01*
X111755870Y31096500D01*
X111655086Y31096500D01*
X110373000Y32378586D01*
X110373000Y34326650D01*
X110373000Y35476000D01*
X109122050Y35476000D01*
X108963300Y35317250D01*
X108963300Y34676591D01*
X109059973Y34443202D01*
X109238601Y34264573D01*
X109471990Y34167900D01*
X109724609Y34167900D01*
X110214250Y34167900D01*
X110373000Y34326650D01*
X110373000Y32378586D01*
X106594161Y36157425D01*
X106846526Y36765186D01*
X106847472Y37850054D01*
X106433186Y38852703D01*
X105666738Y39620490D01*
X105660693Y39623000D01*
X107686527Y39623000D01*
X107870696Y39178379D01*
X107971300Y39077775D01*
X107971300Y38873470D01*
X107971300Y37273270D01*
X108218996Y36675279D01*
X108676678Y36217596D01*
X108963300Y36098874D01*
X108963300Y35888750D01*
X109122050Y35730000D01*
X110373000Y35730000D01*
X110373000Y35750000D01*
X110627000Y35750000D01*
X110627000Y35730000D01*
X111182050Y35730000D01*
X111877950Y35730000D01*
X112433000Y35730000D01*
X112433000Y35750000D01*
X112687000Y35750000D01*
X112687000Y35730000D01*
X113182050Y35730000D01*
X113937950Y35730000D01*
X114433000Y35730000D01*
X114433000Y35750000D01*
X114687000Y35750000D01*
X114687000Y35730000D01*
X115937950Y35730000D01*
X116096700Y35888750D01*
X116096700Y36098874D01*
X116383321Y36217596D01*
X116438725Y36273000D01*
X118100000Y36273000D01*
X118377793Y36328257D01*
X118510239Y36328141D01*
X118633724Y36379165D01*
X118913968Y36434908D01*
X119149472Y36592268D01*
X119271877Y36642844D01*
X119366435Y36737238D01*
X119604016Y36895984D01*
X119761374Y37131487D01*
X119855108Y37225057D01*
X119906346Y37348454D01*
X120065092Y37586032D01*
X120120348Y37863826D01*
X120171140Y37986145D01*
X120171256Y38119759D01*
X120227000Y38400000D01*
X120171743Y38677794D01*
X120171859Y38810239D01*
X120120835Y38933725D01*
X120065092Y39213968D01*
X119907732Y39449473D01*
X119857156Y39571877D01*
X119811316Y39617797D01*
X119877000Y39776369D01*
X119877000Y40423630D01*
X119877000Y43407861D01*
X121641382Y41643479D01*
X122009981Y41274236D01*
X122540240Y41054054D01*
X121957297Y40813186D01*
X121189510Y40046738D01*
X120773474Y39044814D01*
X120772528Y37959946D01*
X121186814Y36957297D01*
X121953262Y36189510D01*
X122955186Y35773474D01*
X124040054Y35772528D01*
X124273000Y35868780D01*
X124273000Y35062857D01*
X123788407Y35245323D01*
X123098547Y35222836D01*
X122565641Y35002099D01*
X122454737Y34724868D01*
X123500000Y33679605D01*
X123514142Y33693748D01*
X123693747Y33514143D01*
X123679605Y33500000D01*
X123693747Y33485858D01*
X123514142Y33306253D01*
X123500000Y33320395D01*
X123320395Y33140790D01*
X123320395Y33500000D01*
X122275132Y34545263D01*
X121997901Y34434359D01*
X121754677Y33788407D01*
X121777164Y33098547D01*
X121997901Y32565641D01*
X122275132Y32454737D01*
X123320395Y33500000D01*
X123320395Y33140790D01*
X122454737Y32275132D01*
X122565641Y31997901D01*
X123211593Y31754677D01*
X123901453Y31777164D01*
X124273000Y31931064D01*
X124273000Y31927478D01*
G36*
X39115000Y24966580D02*
X37679144Y23530724D01*
X37679144Y24672302D01*
X37679144Y32292302D01*
X37651362Y32847368D01*
X37492397Y33231143D01*
X37250213Y33300608D01*
X36449605Y32500000D01*
X37250213Y31699392D01*
X37492397Y31768857D01*
X37679144Y32292302D01*
X37679144Y24672302D01*
X37651362Y25227368D01*
X37492397Y25611143D01*
X37250213Y25680608D01*
X36449605Y24880000D01*
X37250213Y24079392D01*
X37492397Y24148857D01*
X37679144Y24672302D01*
X37679144Y23530724D01*
X37373420Y23225000D01*
X37360478Y23225000D01*
X37062370Y23523629D01*
X36870272Y23603395D01*
X37001143Y23657603D01*
X37070608Y23899787D01*
X36270000Y24700395D01*
X35469392Y23899787D01*
X35538857Y23657603D01*
X35679317Y23607492D01*
X35479697Y23525010D01*
X35086371Y23132370D01*
X35000050Y22924488D01*
X34915010Y23130303D01*
X34522370Y23523629D01*
X34314487Y23609950D01*
X34520303Y23694990D01*
X34913629Y24087630D01*
X34993394Y24279728D01*
X35047603Y24148857D01*
X35289787Y24079392D01*
X36090395Y24880000D01*
X35289787Y25680608D01*
X35047603Y25611143D01*
X34997491Y25470683D01*
X34915010Y25670303D01*
X34522370Y26063629D01*
X34314487Y26149950D01*
X34520303Y26234990D01*
X34913629Y26627630D01*
X34999949Y26835513D01*
X35084990Y26629697D01*
X35477630Y26236371D01*
X35669727Y26156606D01*
X35538857Y26102397D01*
X35469392Y25860213D01*
X36270000Y25059605D01*
X37070608Y25860213D01*
X37001143Y26102397D01*
X36860682Y26152509D01*
X37060303Y26234990D01*
X37453629Y26627630D01*
X37666757Y27140900D01*
X37667242Y27696661D01*
X37455010Y28210303D01*
X37062370Y28603629D01*
X36854487Y28689950D01*
X37060303Y28774990D01*
X37453629Y29167630D01*
X37666757Y29680900D01*
X37667242Y30236661D01*
X37455010Y30750303D01*
X37062370Y31143629D01*
X36870272Y31223395D01*
X37001143Y31277603D01*
X37070608Y31519787D01*
X36270000Y32320395D01*
X35469392Y31519787D01*
X35538857Y31277603D01*
X35679317Y31227492D01*
X35479697Y31145010D01*
X35086371Y30752370D01*
X35000050Y30544488D01*
X34915010Y30750303D01*
X34522370Y31143629D01*
X34314487Y31229950D01*
X34520303Y31314990D01*
X34913629Y31707630D01*
X34993394Y31899728D01*
X35047603Y31768857D01*
X35289787Y31699392D01*
X36090395Y32500000D01*
X35289787Y33300608D01*
X35047603Y33231143D01*
X34997491Y33090683D01*
X34915010Y33290303D01*
X34522370Y33683629D01*
X34314487Y33769950D01*
X34520303Y33854990D01*
X34913629Y34247630D01*
X34999949Y34455513D01*
X35084990Y34249697D01*
X35477630Y33856371D01*
X35669727Y33776606D01*
X35538857Y33722397D01*
X35469392Y33480213D01*
X36270000Y32679605D01*
X37070608Y33480213D01*
X37001143Y33722397D01*
X36860682Y33772509D01*
X37060303Y33854990D01*
X37453629Y34247630D01*
X37666757Y34760900D01*
X37667242Y35316661D01*
X37455010Y35830303D01*
X37062370Y36223629D01*
X36854487Y36309950D01*
X37060303Y36394990D01*
X37453629Y36787630D01*
X37666757Y37300900D01*
X37667242Y37856661D01*
X37643519Y37914074D01*
X39115000Y39385554D01*
X39115000Y35500000D01*
X39115000Y24966580D01*
X39115000Y24966580D01*
G37*
X39115000Y24966580D02*
X37679144Y23530724D01*
X37679144Y24672302D01*
X37679144Y32292302D01*
X37651362Y32847368D01*
X37492397Y33231143D01*
X37250213Y33300608D01*
X36449605Y32500000D01*
X37250213Y31699392D01*
X37492397Y31768857D01*
X37679144Y32292302D01*
X37679144Y24672302D01*
X37651362Y25227368D01*
X37492397Y25611143D01*
X37250213Y25680608D01*
X36449605Y24880000D01*
X37250213Y24079392D01*
X37492397Y24148857D01*
X37679144Y24672302D01*
X37679144Y23530724D01*
X37373420Y23225000D01*
X37360478Y23225000D01*
X37062370Y23523629D01*
X36870272Y23603395D01*
X37001143Y23657603D01*
X37070608Y23899787D01*
X36270000Y24700395D01*
X35469392Y23899787D01*
X35538857Y23657603D01*
X35679317Y23607492D01*
X35479697Y23525010D01*
X35086371Y23132370D01*
X35000050Y22924488D01*
X34915010Y23130303D01*
X34522370Y23523629D01*
X34314487Y23609950D01*
X34520303Y23694990D01*
X34913629Y24087630D01*
X34993394Y24279728D01*
X35047603Y24148857D01*
X35289787Y24079392D01*
X36090395Y24880000D01*
X35289787Y25680608D01*
X35047603Y25611143D01*
X34997491Y25470683D01*
X34915010Y25670303D01*
X34522370Y26063629D01*
X34314487Y26149950D01*
X34520303Y26234990D01*
X34913629Y26627630D01*
X34999949Y26835513D01*
X35084990Y26629697D01*
X35477630Y26236371D01*
X35669727Y26156606D01*
X35538857Y26102397D01*
X35469392Y25860213D01*
X36270000Y25059605D01*
X37070608Y25860213D01*
X37001143Y26102397D01*
X36860682Y26152509D01*
X37060303Y26234990D01*
X37453629Y26627630D01*
X37666757Y27140900D01*
X37667242Y27696661D01*
X37455010Y28210303D01*
X37062370Y28603629D01*
X36854487Y28689950D01*
X37060303Y28774990D01*
X37453629Y29167630D01*
X37666757Y29680900D01*
X37667242Y30236661D01*
X37455010Y30750303D01*
X37062370Y31143629D01*
X36870272Y31223395D01*
X37001143Y31277603D01*
X37070608Y31519787D01*
X36270000Y32320395D01*
X35469392Y31519787D01*
X35538857Y31277603D01*
X35679317Y31227492D01*
X35479697Y31145010D01*
X35086371Y30752370D01*
X35000050Y30544488D01*
X34915010Y30750303D01*
X34522370Y31143629D01*
X34314487Y31229950D01*
X34520303Y31314990D01*
X34913629Y31707630D01*
X34993394Y31899728D01*
X35047603Y31768857D01*
X35289787Y31699392D01*
X36090395Y32500000D01*
X35289787Y33300608D01*
X35047603Y33231143D01*
X34997491Y33090683D01*
X34915010Y33290303D01*
X34522370Y33683629D01*
X34314487Y33769950D01*
X34520303Y33854990D01*
X34913629Y34247630D01*
X34999949Y34455513D01*
X35084990Y34249697D01*
X35477630Y33856371D01*
X35669727Y33776606D01*
X35538857Y33722397D01*
X35469392Y33480213D01*
X36270000Y32679605D01*
X37070608Y33480213D01*
X37001143Y33722397D01*
X36860682Y33772509D01*
X37060303Y33854990D01*
X37453629Y34247630D01*
X37666757Y34760900D01*
X37667242Y35316661D01*
X37455010Y35830303D01*
X37062370Y36223629D01*
X36854487Y36309950D01*
X37060303Y36394990D01*
X37453629Y36787630D01*
X37666757Y37300900D01*
X37667242Y37856661D01*
X37643519Y37914074D01*
X39115000Y39385554D01*
X39115000Y35500000D01*
X39115000Y24966580D01*
G36*
X69623000Y877000D02*
X38877000Y877000D01*
X38877000Y3877000D01*
X38392143Y3877000D01*
X38392143Y3885000D01*
X38112083Y3885000D01*
X38112083Y9036502D01*
X37600796Y10273912D01*
X36654892Y11221468D01*
X35418376Y11734914D01*
X34530608Y11735690D01*
X34530608Y16279787D01*
X33730000Y17080395D01*
X33550395Y16900790D01*
X33550395Y17260000D01*
X32749787Y18060608D01*
X32507603Y17991143D01*
X32320856Y17467698D01*
X32348638Y16912632D01*
X32507603Y16528857D01*
X32749787Y16459392D01*
X33550395Y17260000D01*
X33550395Y16900790D01*
X32929392Y16279787D01*
X32998857Y16037603D01*
X33522302Y15850856D01*
X34077368Y15878638D01*
X34461143Y16037603D01*
X34530608Y16279787D01*
X34530608Y11735690D01*
X34079498Y11736083D01*
X32842088Y11224796D01*
X31894532Y10278892D01*
X31381086Y9042376D01*
X31379917Y7703498D01*
X31891204Y6466088D01*
X32837108Y5518532D01*
X34073624Y5005086D01*
X35412502Y5003917D01*
X36649912Y5515204D01*
X37597468Y6461108D01*
X38110914Y7697624D01*
X38112083Y9036502D01*
X38112083Y3885000D01*
X30877000Y3885000D01*
X30877000Y60750000D01*
X30877000Y64123000D01*
X39123000Y64123000D01*
X39123000Y63015856D01*
X38921146Y63504380D01*
X38546353Y63879827D01*
X38056413Y64083268D01*
X37525914Y64083731D01*
X37035620Y63881146D01*
X36660173Y63506353D01*
X36519906Y63168554D01*
X36381146Y63504380D01*
X36006353Y63879827D01*
X35516413Y64083268D01*
X34985914Y64083731D01*
X34495620Y63881146D01*
X34120173Y63506353D01*
X34043500Y63321705D01*
X34043500Y63322191D01*
X34043500Y63574810D01*
X33946827Y63808199D01*
X33768198Y63986827D01*
X33534809Y64083500D01*
X32995750Y64083500D01*
X32837000Y63924750D01*
X32837000Y62877000D01*
X32857000Y62877000D01*
X32857000Y62623000D01*
X32837000Y62623000D01*
X32837000Y61575250D01*
X32995750Y61416500D01*
X33534809Y61416500D01*
X33768198Y61513173D01*
X33946827Y61691801D01*
X34043500Y61925190D01*
X34043500Y62177809D01*
X34043500Y62177991D01*
X34118854Y61995620D01*
X34493647Y61620173D01*
X34983587Y61416732D01*
X35514086Y61416269D01*
X35535454Y61425099D01*
X35809249Y61151304D01*
X36047700Y60991977D01*
X36328972Y60936028D01*
X37082469Y60936028D01*
X38015000Y60003498D01*
X38015000Y59250000D01*
X38015000Y57531461D01*
X37600796Y58533912D01*
X36654892Y59481468D01*
X35418376Y59994914D01*
X34079498Y59996083D01*
X32842088Y59484796D01*
X32583000Y59226160D01*
X32583000Y61575250D01*
X32583000Y62623000D01*
X32583000Y62877000D01*
X32583000Y63924750D01*
X32424250Y64083500D01*
X31885191Y64083500D01*
X31651802Y63986827D01*
X31473173Y63808199D01*
X31376500Y63574810D01*
X31376500Y63322191D01*
X31376500Y63035750D01*
X31535250Y62877000D01*
X32583000Y62877000D01*
X32583000Y62623000D01*
X31535250Y62623000D01*
X31376500Y62464250D01*
X31376500Y62177809D01*
X31376500Y61925190D01*
X31473173Y61691801D01*
X31651802Y61513173D01*
X31885191Y61416500D01*
X32424250Y61416500D01*
X32583000Y61575250D01*
X32583000Y59226160D01*
X31894532Y58538892D01*
X31381086Y57302376D01*
X31379917Y55963498D01*
X31891204Y54726088D01*
X32837108Y53778532D01*
X34073624Y53265086D01*
X35412502Y53263917D01*
X36649912Y53775204D01*
X37597468Y54721108D01*
X38015000Y55726638D01*
X38015000Y42904447D01*
X37673600Y42563048D01*
X37651362Y43007368D01*
X37492397Y43391143D01*
X37250213Y43460608D01*
X36449605Y42660000D01*
X36463747Y42645858D01*
X36284142Y42466253D01*
X36270000Y42480395D01*
X35469392Y41679787D01*
X35538857Y41437603D01*
X35679317Y41387492D01*
X35479697Y41305010D01*
X35086371Y40912370D01*
X35000050Y40704488D01*
X34915010Y40910303D01*
X34522370Y41303629D01*
X34314487Y41389950D01*
X34520303Y41474990D01*
X34913629Y41867630D01*
X34993394Y42059728D01*
X35047603Y41928857D01*
X35289787Y41859392D01*
X36090395Y42660000D01*
X35289787Y43460608D01*
X35047603Y43391143D01*
X34997491Y43250683D01*
X34915010Y43450303D01*
X34522370Y43843629D01*
X34314487Y43929950D01*
X34520303Y44014990D01*
X34913629Y44407630D01*
X34999949Y44615513D01*
X35084990Y44409697D01*
X35477630Y44016371D01*
X35669727Y43936606D01*
X35538857Y43882397D01*
X35469392Y43640213D01*
X36270000Y42839605D01*
X37070608Y43640213D01*
X37001143Y43882397D01*
X36860682Y43932509D01*
X37060303Y44014990D01*
X37453629Y44407630D01*
X37666757Y44920900D01*
X37667242Y45476661D01*
X37455010Y45990303D01*
X37062370Y46383629D01*
X36854487Y46469950D01*
X37060303Y46554990D01*
X37453629Y46947630D01*
X37666757Y47460900D01*
X37667242Y48016661D01*
X37455010Y48530303D01*
X37062370Y48923629D01*
X36549100Y49136757D01*
X35993339Y49137242D01*
X35479697Y48925010D01*
X35127000Y48572929D01*
X35127000Y48628309D01*
X35030327Y48861698D01*
X34851699Y49040327D01*
X34618310Y49137000D01*
X34365691Y49137000D01*
X32841691Y49137000D01*
X32608302Y49040327D01*
X32429673Y48861699D01*
X32333000Y48628310D01*
X32333000Y48375691D01*
X32333000Y46851691D01*
X32429673Y46618302D01*
X32608301Y46439673D01*
X32841690Y46343000D01*
X32897613Y46343000D01*
X32546371Y45992370D01*
X32333243Y45479100D01*
X32332758Y44923339D01*
X32544990Y44409697D01*
X32937630Y44016371D01*
X33145512Y43930051D01*
X32939697Y43845010D01*
X32546371Y43452370D01*
X32333243Y42939100D01*
X32332758Y42383339D01*
X32544990Y41869697D01*
X32937630Y41476371D01*
X33145512Y41390051D01*
X32939697Y41305010D01*
X32546371Y40912370D01*
X32333243Y40399100D01*
X32332758Y39843339D01*
X32544990Y39329697D01*
X32937630Y38936371D01*
X33129727Y38856606D01*
X32998857Y38802397D01*
X32929392Y38560213D01*
X33730000Y37759605D01*
X34530608Y38560213D01*
X34461143Y38802397D01*
X34320682Y38852509D01*
X34520303Y38934990D01*
X34913629Y39327630D01*
X34999949Y39535513D01*
X35084990Y39329697D01*
X35477630Y38936371D01*
X35685512Y38850051D01*
X35479697Y38765010D01*
X35086371Y38372370D01*
X35006605Y38180273D01*
X34952397Y38311143D01*
X34710213Y38380608D01*
X33909605Y37580000D01*
X34710213Y36779392D01*
X34952397Y36848857D01*
X35002508Y36989318D01*
X35084990Y36789697D01*
X35477630Y36396371D01*
X35685512Y36310051D01*
X35479697Y36225010D01*
X35086371Y35832370D01*
X35000050Y35624488D01*
X34915010Y35830303D01*
X34522370Y36223629D01*
X34330272Y36303395D01*
X34461143Y36357603D01*
X34530608Y36599787D01*
X33730000Y37400395D01*
X33550395Y37220790D01*
X33550395Y37580000D01*
X32749787Y38380608D01*
X32507603Y38311143D01*
X32320856Y37787698D01*
X32348638Y37232632D01*
X32507603Y36848857D01*
X32749787Y36779392D01*
X33550395Y37580000D01*
X33550395Y37220790D01*
X32929392Y36599787D01*
X32998857Y36357603D01*
X33139317Y36307492D01*
X32939697Y36225010D01*
X32546371Y35832370D01*
X32333243Y35319100D01*
X32332758Y34763339D01*
X32544990Y34249697D01*
X32937630Y33856371D01*
X33145512Y33770051D01*
X32939697Y33685010D01*
X32546371Y33292370D01*
X32333243Y32779100D01*
X32332758Y32223339D01*
X32544990Y31709697D01*
X32937630Y31316371D01*
X33145512Y31230051D01*
X32939697Y31145010D01*
X32546371Y30752370D01*
X32333243Y30239100D01*
X32332758Y29683339D01*
X32544990Y29169697D01*
X32937630Y28776371D01*
X33145512Y28690051D01*
X32939697Y28605010D01*
X32546371Y28212370D01*
X32333243Y27699100D01*
X32332758Y27143339D01*
X32544990Y26629697D01*
X32937630Y26236371D01*
X33145512Y26150051D01*
X32939697Y26065010D01*
X32546371Y25672370D01*
X32333243Y25159100D01*
X32332758Y24603339D01*
X32544990Y24089697D01*
X32937630Y23696371D01*
X33145512Y23610051D01*
X32939697Y23525010D01*
X32546371Y23132370D01*
X32333243Y22619100D01*
X32332758Y22063339D01*
X32544990Y21549697D01*
X32937630Y21156371D01*
X33145512Y21070051D01*
X32939697Y20985010D01*
X32546371Y20592370D01*
X32333243Y20079100D01*
X32332758Y19523339D01*
X32544990Y19009697D01*
X32937630Y18616371D01*
X33129727Y18536606D01*
X32998857Y18482397D01*
X32929392Y18240213D01*
X33730000Y17439605D01*
X34530608Y18240213D01*
X34461143Y18482397D01*
X34320682Y18532509D01*
X34520303Y18614990D01*
X34913629Y19007630D01*
X34999949Y19215513D01*
X35084990Y19009697D01*
X35477630Y18616371D01*
X35685512Y18530051D01*
X35479697Y18445010D01*
X35086371Y18052370D01*
X35006605Y17860273D01*
X34952397Y17991143D01*
X34710213Y18060608D01*
X33909605Y17260000D01*
X34710213Y16459392D01*
X34952397Y16528857D01*
X35002508Y16669318D01*
X35084990Y16469697D01*
X35477630Y16076371D01*
X35990900Y15863243D01*
X36546661Y15862758D01*
X37060303Y16074990D01*
X37360837Y16375000D01*
X38659994Y16375000D01*
X38660000Y16374999D01*
X38660000Y16375000D01*
X38942484Y16431190D01*
X38998674Y16442367D01*
X38998675Y16442367D01*
X39285790Y16634210D01*
X41166564Y18514986D01*
X41394579Y18514786D01*
X41848657Y18702408D01*
X41865000Y18718723D01*
X41865000Y11300000D01*
X41865000Y10500000D01*
X41865000Y2500000D01*
X41951397Y2065654D01*
X42197434Y1697434D01*
X42565654Y1451397D01*
X43000000Y1365000D01*
X69623000Y1365000D01*
X69623000Y877000D01*
X69623000Y877000D01*
G37*
X69623000Y877000D02*
X38877000Y877000D01*
X38877000Y3877000D01*
X38392143Y3877000D01*
X38392143Y3885000D01*
X38112083Y3885000D01*
X38112083Y9036502D01*
X37600796Y10273912D01*
X36654892Y11221468D01*
X35418376Y11734914D01*
X34530608Y11735690D01*
X34530608Y16279787D01*
X33730000Y17080395D01*
X33550395Y16900790D01*
X33550395Y17260000D01*
X32749787Y18060608D01*
X32507603Y17991143D01*
X32320856Y17467698D01*
X32348638Y16912632D01*
X32507603Y16528857D01*
X32749787Y16459392D01*
X33550395Y17260000D01*
X33550395Y16900790D01*
X32929392Y16279787D01*
X32998857Y16037603D01*
X33522302Y15850856D01*
X34077368Y15878638D01*
X34461143Y16037603D01*
X34530608Y16279787D01*
X34530608Y11735690D01*
X34079498Y11736083D01*
X32842088Y11224796D01*
X31894532Y10278892D01*
X31381086Y9042376D01*
X31379917Y7703498D01*
X31891204Y6466088D01*
X32837108Y5518532D01*
X34073624Y5005086D01*
X35412502Y5003917D01*
X36649912Y5515204D01*
X37597468Y6461108D01*
X38110914Y7697624D01*
X38112083Y9036502D01*
X38112083Y3885000D01*
X30877000Y3885000D01*
X30877000Y60750000D01*
X30877000Y64123000D01*
X39123000Y64123000D01*
X39123000Y63015856D01*
X38921146Y63504380D01*
X38546353Y63879827D01*
X38056413Y64083268D01*
X37525914Y64083731D01*
X37035620Y63881146D01*
X36660173Y63506353D01*
X36519906Y63168554D01*
X36381146Y63504380D01*
X36006353Y63879827D01*
X35516413Y64083268D01*
X34985914Y64083731D01*
X34495620Y63881146D01*
X34120173Y63506353D01*
X34043500Y63321705D01*
X34043500Y63322191D01*
X34043500Y63574810D01*
X33946827Y63808199D01*
X33768198Y63986827D01*
X33534809Y64083500D01*
X32995750Y64083500D01*
X32837000Y63924750D01*
X32837000Y62877000D01*
X32857000Y62877000D01*
X32857000Y62623000D01*
X32837000Y62623000D01*
X32837000Y61575250D01*
X32995750Y61416500D01*
X33534809Y61416500D01*
X33768198Y61513173D01*
X33946827Y61691801D01*
X34043500Y61925190D01*
X34043500Y62177809D01*
X34043500Y62177991D01*
X34118854Y61995620D01*
X34493647Y61620173D01*
X34983587Y61416732D01*
X35514086Y61416269D01*
X35535454Y61425099D01*
X35809249Y61151304D01*
X36047700Y60991977D01*
X36328972Y60936028D01*
X37082469Y60936028D01*
X38015000Y60003498D01*
X38015000Y59250000D01*
X38015000Y57531461D01*
X37600796Y58533912D01*
X36654892Y59481468D01*
X35418376Y59994914D01*
X34079498Y59996083D01*
X32842088Y59484796D01*
X32583000Y59226160D01*
X32583000Y61575250D01*
X32583000Y62623000D01*
X32583000Y62877000D01*
X32583000Y63924750D01*
X32424250Y64083500D01*
X31885191Y64083500D01*
X31651802Y63986827D01*
X31473173Y63808199D01*
X31376500Y63574810D01*
X31376500Y63322191D01*
X31376500Y63035750D01*
X31535250Y62877000D01*
X32583000Y62877000D01*
X32583000Y62623000D01*
X31535250Y62623000D01*
X31376500Y62464250D01*
X31376500Y62177809D01*
X31376500Y61925190D01*
X31473173Y61691801D01*
X31651802Y61513173D01*
X31885191Y61416500D01*
X32424250Y61416500D01*
X32583000Y61575250D01*
X32583000Y59226160D01*
X31894532Y58538892D01*
X31381086Y57302376D01*
X31379917Y55963498D01*
X31891204Y54726088D01*
X32837108Y53778532D01*
X34073624Y53265086D01*
X35412502Y53263917D01*
X36649912Y53775204D01*
X37597468Y54721108D01*
X38015000Y55726638D01*
X38015000Y42904447D01*
X37673600Y42563048D01*
X37651362Y43007368D01*
X37492397Y43391143D01*
X37250213Y43460608D01*
X36449605Y42660000D01*
X36463747Y42645858D01*
X36284142Y42466253D01*
X36270000Y42480395D01*
X35469392Y41679787D01*
X35538857Y41437603D01*
X35679317Y41387492D01*
X35479697Y41305010D01*
X35086371Y40912370D01*
X35000050Y40704488D01*
X34915010Y40910303D01*
X34522370Y41303629D01*
X34314487Y41389950D01*
X34520303Y41474990D01*
X34913629Y41867630D01*
X34993394Y42059728D01*
X35047603Y41928857D01*
X35289787Y41859392D01*
X36090395Y42660000D01*
X35289787Y43460608D01*
X35047603Y43391143D01*
X34997491Y43250683D01*
X34915010Y43450303D01*
X34522370Y43843629D01*
X34314487Y43929950D01*
X34520303Y44014990D01*
X34913629Y44407630D01*
X34999949Y44615513D01*
X35084990Y44409697D01*
X35477630Y44016371D01*
X35669727Y43936606D01*
X35538857Y43882397D01*
X35469392Y43640213D01*
X36270000Y42839605D01*
X37070608Y43640213D01*
X37001143Y43882397D01*
X36860682Y43932509D01*
X37060303Y44014990D01*
X37453629Y44407630D01*
X37666757Y44920900D01*
X37667242Y45476661D01*
X37455010Y45990303D01*
X37062370Y46383629D01*
X36854487Y46469950D01*
X37060303Y46554990D01*
X37453629Y46947630D01*
X37666757Y47460900D01*
X37667242Y48016661D01*
X37455010Y48530303D01*
X37062370Y48923629D01*
X36549100Y49136757D01*
X35993339Y49137242D01*
X35479697Y48925010D01*
X35127000Y48572929D01*
X35127000Y48628309D01*
X35030327Y48861698D01*
X34851699Y49040327D01*
X34618310Y49137000D01*
X34365691Y49137000D01*
X32841691Y49137000D01*
X32608302Y49040327D01*
X32429673Y48861699D01*
X32333000Y48628310D01*
X32333000Y48375691D01*
X32333000Y46851691D01*
X32429673Y46618302D01*
X32608301Y46439673D01*
X32841690Y46343000D01*
X32897613Y46343000D01*
X32546371Y45992370D01*
X32333243Y45479100D01*
X32332758Y44923339D01*
X32544990Y44409697D01*
X32937630Y44016371D01*
X33145512Y43930051D01*
X32939697Y43845010D01*
X32546371Y43452370D01*
X32333243Y42939100D01*
X32332758Y42383339D01*
X32544990Y41869697D01*
X32937630Y41476371D01*
X33145512Y41390051D01*
X32939697Y41305010D01*
X32546371Y40912370D01*
X32333243Y40399100D01*
X32332758Y39843339D01*
X32544990Y39329697D01*
X32937630Y38936371D01*
X33129727Y38856606D01*
X32998857Y38802397D01*
X32929392Y38560213D01*
X33730000Y37759605D01*
X34530608Y38560213D01*
X34461143Y38802397D01*
X34320682Y38852509D01*
X34520303Y38934990D01*
X34913629Y39327630D01*
X34999949Y39535513D01*
X35084990Y39329697D01*
X35477630Y38936371D01*
X35685512Y38850051D01*
X35479697Y38765010D01*
X35086371Y38372370D01*
X35006605Y38180273D01*
X34952397Y38311143D01*
X34710213Y38380608D01*
X33909605Y37580000D01*
X34710213Y36779392D01*
X34952397Y36848857D01*
X35002508Y36989318D01*
X35084990Y36789697D01*
X35477630Y36396371D01*
X35685512Y36310051D01*
X35479697Y36225010D01*
X35086371Y35832370D01*
X35000050Y35624488D01*
X34915010Y35830303D01*
X34522370Y36223629D01*
X34330272Y36303395D01*
X34461143Y36357603D01*
X34530608Y36599787D01*
X33730000Y37400395D01*
X33550395Y37220790D01*
X33550395Y37580000D01*
X32749787Y38380608D01*
X32507603Y38311143D01*
X32320856Y37787698D01*
X32348638Y37232632D01*
X32507603Y36848857D01*
X32749787Y36779392D01*
X33550395Y37580000D01*
X33550395Y37220790D01*
X32929392Y36599787D01*
X32998857Y36357603D01*
X33139317Y36307492D01*
X32939697Y36225010D01*
X32546371Y35832370D01*
X32333243Y35319100D01*
X32332758Y34763339D01*
X32544990Y34249697D01*
X32937630Y33856371D01*
X33145512Y33770051D01*
X32939697Y33685010D01*
X32546371Y33292370D01*
X32333243Y32779100D01*
X32332758Y32223339D01*
X32544990Y31709697D01*
X32937630Y31316371D01*
X33145512Y31230051D01*
X32939697Y31145010D01*
X32546371Y30752370D01*
X32333243Y30239100D01*
X32332758Y29683339D01*
X32544990Y29169697D01*
X32937630Y28776371D01*
X33145512Y28690051D01*
X32939697Y28605010D01*
X32546371Y28212370D01*
X32333243Y27699100D01*
X32332758Y27143339D01*
X32544990Y26629697D01*
X32937630Y26236371D01*
X33145512Y26150051D01*
X32939697Y26065010D01*
X32546371Y25672370D01*
X32333243Y25159100D01*
X32332758Y24603339D01*
X32544990Y24089697D01*
X32937630Y23696371D01*
X33145512Y23610051D01*
X32939697Y23525010D01*
X32546371Y23132370D01*
X32333243Y22619100D01*
X32332758Y22063339D01*
X32544990Y21549697D01*
X32937630Y21156371D01*
X33145512Y21070051D01*
X32939697Y20985010D01*
X32546371Y20592370D01*
X32333243Y20079100D01*
X32332758Y19523339D01*
X32544990Y19009697D01*
X32937630Y18616371D01*
X33129727Y18536606D01*
X32998857Y18482397D01*
X32929392Y18240213D01*
X33730000Y17439605D01*
X34530608Y18240213D01*
X34461143Y18482397D01*
X34320682Y18532509D01*
X34520303Y18614990D01*
X34913629Y19007630D01*
X34999949Y19215513D01*
X35084990Y19009697D01*
X35477630Y18616371D01*
X35685512Y18530051D01*
X35479697Y18445010D01*
X35086371Y18052370D01*
X35006605Y17860273D01*
X34952397Y17991143D01*
X34710213Y18060608D01*
X33909605Y17260000D01*
X34710213Y16459392D01*
X34952397Y16528857D01*
X35002508Y16669318D01*
X35084990Y16469697D01*
X35477630Y16076371D01*
X35990900Y15863243D01*
X36546661Y15862758D01*
X37060303Y16074990D01*
X37360837Y16375000D01*
X38659994Y16375000D01*
X38660000Y16374999D01*
X38660000Y16375000D01*
X38942484Y16431190D01*
X38998674Y16442367D01*
X38998675Y16442367D01*
X39285790Y16634210D01*
X41166564Y18514986D01*
X41394579Y18514786D01*
X41848657Y18702408D01*
X41865000Y18718723D01*
X41865000Y11300000D01*
X41865000Y10500000D01*
X41865000Y2500000D01*
X41951397Y2065654D01*
X42197434Y1697434D01*
X42565654Y1451397D01*
X43000000Y1365000D01*
X69623000Y1365000D01*
X69623000Y877000D01*
G36*
X109623000Y53802605D02*
X107697395Y51877000D01*
X99623000Y51877000D01*
X99623000Y41877000D01*
X87832100Y41877000D01*
X87832100Y48721990D01*
X87832100Y48974609D01*
X87832100Y50778009D01*
X87735427Y51011398D01*
X87556799Y51190027D01*
X87323410Y51286700D01*
X87282000Y51286700D01*
X87282000Y52372995D01*
X87282000Y52373000D01*
X87282001Y52373000D01*
X87214633Y52711675D01*
X87022790Y52998790D01*
X87022786Y52998793D01*
X84493007Y55528573D01*
X84493455Y56041752D01*
X84269647Y56583411D01*
X83855591Y56998190D01*
X83314323Y57222944D01*
X82728248Y57223455D01*
X82186589Y56999647D01*
X81771810Y56585591D01*
X81750224Y56533609D01*
X81729647Y56583411D01*
X81315591Y56998190D01*
X81265000Y57019198D01*
X81265000Y57020000D01*
X81205245Y57320406D01*
X81035079Y57575079D01*
X79805079Y58805079D01*
X79550407Y58975245D01*
X79250000Y59035000D01*
X65250005Y59035000D01*
X65250000Y59035001D01*
X64949594Y58975245D01*
X64694921Y58805079D01*
X59194921Y53305079D01*
X59024755Y53050407D01*
X58965000Y52750000D01*
X58965000Y23350000D01*
X58965000Y22056000D01*
X59024755Y21755593D01*
X59194921Y21500921D01*
X62368108Y18327734D01*
X62367786Y17958421D01*
X62555408Y17504343D01*
X62902515Y17156629D01*
X63356266Y16968215D01*
X63847579Y16967786D01*
X64301657Y17155408D01*
X64649371Y17502515D01*
X64837785Y17956266D01*
X64838214Y18447579D01*
X64650592Y18901657D01*
X64303485Y19249371D01*
X63849734Y19437785D01*
X63478048Y19438110D01*
X60535000Y22381158D01*
X60535000Y23350000D01*
X60535000Y31154842D01*
X62115108Y29574734D01*
X62114786Y29205421D01*
X62302408Y28751343D01*
X62649515Y28403629D01*
X63103266Y28215215D01*
X63594579Y28214786D01*
X64048657Y28402408D01*
X64396371Y28749515D01*
X64584785Y29203266D01*
X64585214Y29694579D01*
X64397592Y30148657D01*
X64050485Y30496371D01*
X63596734Y30684785D01*
X63225048Y30685110D01*
X61235000Y32675158D01*
X61235000Y41654842D01*
X62115108Y40774734D01*
X62114786Y40405421D01*
X62302408Y39951343D01*
X62649515Y39603629D01*
X63103266Y39415215D01*
X63594579Y39414786D01*
X64048657Y39602408D01*
X64396371Y39949515D01*
X64584785Y40403266D01*
X64585214Y40894579D01*
X64397592Y41348657D01*
X64050485Y41696371D01*
X63596734Y41884785D01*
X63225048Y41885110D01*
X61835000Y43275158D01*
X61835000Y51524842D01*
X65153486Y54843329D01*
X65494409Y54501810D01*
X66035677Y54277056D01*
X66621752Y54276545D01*
X67163411Y54500353D01*
X67578190Y54914409D01*
X67599775Y54966392D01*
X67620353Y54916589D01*
X68034409Y54501810D01*
X68575677Y54277056D01*
X69091814Y54276606D01*
X70262000Y53106421D01*
X70262000Y51286700D01*
X70220591Y51286700D01*
X69987202Y51190027D01*
X69808573Y51011399D01*
X69749999Y50869991D01*
X69691427Y51011398D01*
X69512799Y51190027D01*
X69279410Y51286700D01*
X69026791Y51286700D01*
X67426591Y51286700D01*
X67193202Y51190027D01*
X67014573Y51011399D01*
X66917900Y50778010D01*
X66917900Y50525391D01*
X66917900Y48721991D01*
X66930533Y48691492D01*
X66911698Y48710327D01*
X66678309Y48807000D01*
X66075750Y48807000D01*
X65917000Y48648250D01*
X65917000Y47537000D01*
X65937000Y47537000D01*
X65937000Y47283000D01*
X65917000Y47283000D01*
X65917000Y46171750D01*
X66075750Y46013000D01*
X66678309Y46013000D01*
X66911698Y46109673D01*
X67090327Y46288301D01*
X67187000Y46521690D01*
X67187000Y46577614D01*
X67537630Y46226371D01*
X68050900Y46013243D01*
X68606661Y46012758D01*
X69120303Y46224990D01*
X69513629Y46617630D01*
X69599949Y46825513D01*
X69684990Y46619697D01*
X70077630Y46226371D01*
X70590900Y46013243D01*
X71146661Y46012758D01*
X71660303Y46224990D01*
X72013000Y46577072D01*
X72013000Y46521690D01*
X72109673Y46288301D01*
X72288302Y46109673D01*
X72521691Y46013000D01*
X73124250Y46013000D01*
X73283000Y46171750D01*
X73283000Y47283000D01*
X73263000Y47283000D01*
X73263000Y47537000D01*
X73283000Y47537000D01*
X73283000Y48648250D01*
X73124250Y48807000D01*
X72582100Y48807000D01*
X72582100Y48974609D01*
X72582100Y50778009D01*
X72485427Y51011398D01*
X72306799Y51190027D01*
X72073410Y51286700D01*
X72032000Y51286700D01*
X72032000Y53472995D01*
X72032000Y53473000D01*
X72032001Y53473000D01*
X71964633Y53811675D01*
X71772790Y54098790D01*
X71772786Y54098793D01*
X70343007Y55528573D01*
X70343455Y56041752D01*
X70119647Y56583411D01*
X69838548Y56865000D01*
X72324842Y56865000D01*
X72418192Y56771650D01*
X72231810Y56585591D01*
X72007056Y56044323D01*
X72006545Y55458248D01*
X72230353Y54916589D01*
X72644409Y54501810D01*
X73185677Y54277056D01*
X73771752Y54276545D01*
X74313411Y54500353D01*
X74728190Y54914409D01*
X74749775Y54966392D01*
X74770353Y54916589D01*
X75184409Y54501810D01*
X75725677Y54277056D01*
X76241814Y54276606D01*
X77762000Y52756421D01*
X77762000Y51286700D01*
X77720591Y51286700D01*
X77487202Y51190027D01*
X77308573Y51011399D01*
X77249999Y50869991D01*
X77191427Y51011398D01*
X77012799Y51190027D01*
X76779410Y51286700D01*
X76526791Y51286700D01*
X74926591Y51286700D01*
X74693202Y51190027D01*
X74514573Y51011399D01*
X74417900Y50778010D01*
X74417900Y50525391D01*
X74417900Y48757464D01*
X74298309Y48807000D01*
X73695750Y48807000D01*
X73537000Y48648250D01*
X73537000Y47537000D01*
X73557000Y47537000D01*
X73557000Y47283000D01*
X73537000Y47283000D01*
X73537000Y46171750D01*
X73695750Y46013000D01*
X74298309Y46013000D01*
X74531698Y46109673D01*
X74710327Y46288301D01*
X74807000Y46521690D01*
X74807000Y46577614D01*
X75157630Y46226371D01*
X75670900Y46013243D01*
X76226661Y46012758D01*
X76740303Y46224990D01*
X77133629Y46617630D01*
X77219949Y46825513D01*
X77304990Y46619697D01*
X77697630Y46226371D01*
X78210900Y46013243D01*
X78766661Y46012758D01*
X79280303Y46224990D01*
X79633000Y46577072D01*
X79633000Y46521690D01*
X79729673Y46288301D01*
X79908302Y46109673D01*
X80141691Y46013000D01*
X80744250Y46013000D01*
X80903000Y46171750D01*
X80903000Y47283000D01*
X80883000Y47283000D01*
X80883000Y47537000D01*
X80903000Y47537000D01*
X80903000Y48648250D01*
X80744250Y48807000D01*
X80141691Y48807000D01*
X80082100Y48782317D01*
X80082100Y48974609D01*
X80082100Y50778009D01*
X79985427Y51011398D01*
X79806799Y51190027D01*
X79573410Y51286700D01*
X79532000Y51286700D01*
X79532000Y53122995D01*
X79532000Y53123000D01*
X79532001Y53123000D01*
X79475810Y53405485D01*
X79464633Y53461674D01*
X79464633Y53461675D01*
X79272790Y53748790D01*
X79272786Y53748793D01*
X77493007Y55528573D01*
X77493455Y56041752D01*
X77269647Y56583411D01*
X76855591Y56998190D01*
X76314323Y57222944D01*
X75728248Y57223455D01*
X75186589Y56999647D01*
X74771810Y56585591D01*
X74750224Y56533609D01*
X74729647Y56583411D01*
X74315591Y56998190D01*
X74221809Y57037132D01*
X74205245Y57120406D01*
X74205245Y57120407D01*
X74035079Y57375079D01*
X73945158Y57465000D01*
X78924842Y57465000D01*
X79518280Y56871562D01*
X79231810Y56585591D01*
X79007056Y56044323D01*
X79006545Y55458248D01*
X79230353Y54916589D01*
X79644409Y54501810D01*
X80185677Y54277056D01*
X80771752Y54276545D01*
X81313411Y54500353D01*
X81728190Y54914409D01*
X81749775Y54966392D01*
X81770353Y54916589D01*
X82184409Y54501810D01*
X82725677Y54277056D01*
X83241814Y54276606D01*
X85512000Y52006421D01*
X85512000Y51286700D01*
X85470591Y51286700D01*
X85237202Y51190027D01*
X85058573Y51011399D01*
X84999999Y50869991D01*
X84941427Y51011398D01*
X84762799Y51190027D01*
X84529410Y51286700D01*
X84276791Y51286700D01*
X82676591Y51286700D01*
X82443202Y51190027D01*
X82264573Y51011399D01*
X82167900Y50778010D01*
X82167900Y50525391D01*
X82167900Y48721991D01*
X82187604Y48674422D01*
X82151698Y48710327D01*
X81918309Y48807000D01*
X81315750Y48807000D01*
X81157000Y48648250D01*
X81157000Y47537000D01*
X81177000Y47537000D01*
X81177000Y47283000D01*
X81157000Y47283000D01*
X81157000Y46171750D01*
X81315750Y46013000D01*
X81918309Y46013000D01*
X82151698Y46109673D01*
X82330327Y46288301D01*
X82427000Y46521690D01*
X82427000Y46577614D01*
X82777630Y46226371D01*
X83290900Y46013243D01*
X83846661Y46012758D01*
X84360303Y46224990D01*
X84753629Y46617630D01*
X84839949Y46825513D01*
X84924990Y46619697D01*
X85317630Y46226371D01*
X85830900Y46013243D01*
X86386661Y46012758D01*
X86900303Y46224990D01*
X87293629Y46617630D01*
X87506757Y47130900D01*
X87507242Y47686661D01*
X87295010Y48200303D01*
X87282035Y48213300D01*
X87323409Y48213300D01*
X87556798Y48309973D01*
X87735427Y48488601D01*
X87832100Y48721990D01*
X87832100Y41877000D01*
X69623000Y41877000D01*
X69623000Y3635000D01*
X67952833Y3635000D01*
X67952833Y9310000D01*
X67952833Y20210000D01*
X67952833Y31310000D01*
X67918000Y31485117D01*
X67918000Y35476290D01*
X67918000Y35728909D01*
X67918000Y37303709D01*
X67821327Y37537098D01*
X67642699Y37715727D01*
X67409310Y37812400D01*
X67156691Y37812400D01*
X65663000Y37812400D01*
X65663000Y46171750D01*
X65663000Y47283000D01*
X65663000Y47537000D01*
X65663000Y48648250D01*
X65504250Y48807000D01*
X64901691Y48807000D01*
X64668302Y48710327D01*
X64489673Y48531699D01*
X64393000Y48298310D01*
X64393000Y48045691D01*
X64393000Y47695750D01*
X64551750Y47537000D01*
X65663000Y47537000D01*
X65663000Y47283000D01*
X64551750Y47283000D01*
X64393000Y47124250D01*
X64393000Y46774309D01*
X64393000Y46521690D01*
X64489673Y46288301D01*
X64668302Y46109673D01*
X64901691Y46013000D01*
X65504250Y46013000D01*
X65663000Y46171750D01*
X65663000Y37812400D01*
X64870691Y37812400D01*
X64637302Y37715727D01*
X64458673Y37537099D01*
X64362000Y37303710D01*
X64362000Y37051091D01*
X64362000Y35476291D01*
X64458673Y35242902D01*
X64637301Y35064273D01*
X64870690Y34967600D01*
X64939099Y34967600D01*
X64688809Y34765986D01*
X64421673Y34276996D01*
X64404990Y34197060D01*
X64527148Y33977000D01*
X66013000Y33977000D01*
X66013000Y33997000D01*
X66267000Y33997000D01*
X66267000Y33977000D01*
X67752852Y33977000D01*
X67875010Y34197060D01*
X67858327Y34276996D01*
X67591191Y34765986D01*
X67340900Y34967600D01*
X67409309Y34967600D01*
X67642698Y35064273D01*
X67821327Y35242901D01*
X67918000Y35476290D01*
X67918000Y31485117D01*
X67844559Y31854329D01*
X67536222Y32315789D01*
X67141170Y32579754D01*
X67157262Y32584475D01*
X67591191Y32934014D01*
X67858327Y33423004D01*
X67875010Y33502940D01*
X67752852Y33723000D01*
X66267000Y33723000D01*
X66267000Y33703000D01*
X66013000Y33703000D01*
X66013000Y33723000D01*
X64527148Y33723000D01*
X64404990Y33502940D01*
X64421673Y33423004D01*
X64688809Y32934014D01*
X65122738Y32584475D01*
X65138829Y32579754D01*
X64743778Y32315789D01*
X64435441Y31854329D01*
X64327167Y31310000D01*
X64435441Y30765671D01*
X64743778Y30304211D01*
X65205238Y29995874D01*
X65749567Y29887600D01*
X66530433Y29887600D01*
X67074762Y29995874D01*
X67536222Y30304211D01*
X67844559Y30765671D01*
X67952833Y31310000D01*
X67952833Y20210000D01*
X67918000Y20385117D01*
X67918000Y24376290D01*
X67918000Y24628909D01*
X67918000Y26203709D01*
X67821327Y26437098D01*
X67642699Y26615727D01*
X67409310Y26712400D01*
X67156691Y26712400D01*
X64870691Y26712400D01*
X64637302Y26615727D01*
X64458673Y26437099D01*
X64362000Y26203710D01*
X64362000Y25951091D01*
X64362000Y24376291D01*
X64458673Y24142902D01*
X64637301Y23964273D01*
X64870690Y23867600D01*
X64939099Y23867600D01*
X64688809Y23665986D01*
X64421673Y23176996D01*
X64404990Y23097060D01*
X64527148Y22877000D01*
X66013000Y22877000D01*
X66013000Y22897000D01*
X66267000Y22897000D01*
X66267000Y22877000D01*
X67752852Y22877000D01*
X67875010Y23097060D01*
X67858327Y23176996D01*
X67591191Y23665986D01*
X67340900Y23867600D01*
X67409309Y23867600D01*
X67642698Y23964273D01*
X67821327Y24142901D01*
X67918000Y24376290D01*
X67918000Y20385117D01*
X67844559Y20754329D01*
X67536222Y21215789D01*
X67141170Y21479754D01*
X67157262Y21484475D01*
X67591191Y21834014D01*
X67858327Y22323004D01*
X67875010Y22402940D01*
X67752852Y22623000D01*
X66267000Y22623000D01*
X66267000Y22603000D01*
X66013000Y22603000D01*
X66013000Y22623000D01*
X64527148Y22623000D01*
X64404990Y22402940D01*
X64421673Y22323004D01*
X64688809Y21834014D01*
X65122738Y21484475D01*
X65138829Y21479754D01*
X64743778Y21215789D01*
X64435441Y20754329D01*
X64327167Y20210000D01*
X64435441Y19665671D01*
X64743778Y19204211D01*
X65205238Y18895874D01*
X65749567Y18787600D01*
X66530433Y18787600D01*
X67074762Y18895874D01*
X67536222Y19204211D01*
X67844559Y19665671D01*
X67952833Y20210000D01*
X67952833Y9310000D01*
X67918000Y9485117D01*
X67918000Y13476290D01*
X67918000Y13728909D01*
X67918000Y15303709D01*
X67821327Y15537098D01*
X67642699Y15715727D01*
X67409310Y15812400D01*
X67156691Y15812400D01*
X64870691Y15812400D01*
X64637302Y15715727D01*
X64458673Y15537099D01*
X64362000Y15303710D01*
X64362000Y15051091D01*
X64362000Y13476291D01*
X64458673Y13242902D01*
X64637301Y13064273D01*
X64870690Y12967600D01*
X64939099Y12967600D01*
X64688809Y12765986D01*
X64421673Y12276996D01*
X64404990Y12197060D01*
X64527148Y11977000D01*
X66013000Y11977000D01*
X66013000Y11997000D01*
X66267000Y11997000D01*
X66267000Y11977000D01*
X67752852Y11977000D01*
X67875010Y12197060D01*
X67858327Y12276996D01*
X67591191Y12765986D01*
X67340900Y12967600D01*
X67409309Y12967600D01*
X67642698Y13064273D01*
X67821327Y13242901D01*
X67918000Y13476290D01*
X67918000Y9485117D01*
X67844559Y9854329D01*
X67536222Y10315789D01*
X67141170Y10579754D01*
X67157262Y10584475D01*
X67591191Y10934014D01*
X67858327Y11423004D01*
X67875010Y11502940D01*
X67752852Y11723000D01*
X66267000Y11723000D01*
X66267000Y11703000D01*
X66013000Y11703000D01*
X66013000Y11723000D01*
X64527148Y11723000D01*
X64404990Y11502940D01*
X64421673Y11423004D01*
X64688809Y10934014D01*
X65122738Y10584475D01*
X65138829Y10579754D01*
X64743778Y10315789D01*
X64435441Y9854329D01*
X64327167Y9310000D01*
X64435441Y8765671D01*
X64743778Y8304211D01*
X65205238Y7995874D01*
X65749567Y7887600D01*
X66530433Y7887600D01*
X67074762Y7995874D01*
X67536222Y8304211D01*
X67844559Y8765671D01*
X67952833Y9310000D01*
X67952833Y3635000D01*
X44135000Y3635000D01*
X44135000Y9365000D01*
X45252193Y9365000D01*
X45529242Y9249959D01*
X45244771Y9132418D01*
X44868902Y8757204D01*
X44665232Y8266713D01*
X44664769Y7735617D01*
X44867582Y7244771D01*
X45242796Y6868902D01*
X45733287Y6665232D01*
X46264383Y6664769D01*
X46755229Y6867582D01*
X47131098Y7242796D01*
X47334768Y7733287D01*
X47335231Y8264383D01*
X47132418Y8755229D01*
X46757204Y9131098D01*
X46470757Y9250042D01*
X46755229Y9367582D01*
X47131098Y9742796D01*
X47334768Y10233287D01*
X47335231Y10764383D01*
X47132418Y11255229D01*
X46757204Y11631098D01*
X46470757Y11750042D01*
X46506961Y11765000D01*
X48638446Y11765000D01*
X49537600Y10865846D01*
X49537600Y9920691D01*
X49634273Y9687302D01*
X49812901Y9508673D01*
X50046290Y9412000D01*
X50298909Y9412000D01*
X51873709Y9412000D01*
X52107098Y9508673D01*
X52285727Y9687301D01*
X52382400Y9920690D01*
X52382400Y9961116D01*
X52494211Y9793778D01*
X52955671Y9485441D01*
X53500000Y9377167D01*
X54044329Y9485441D01*
X54505789Y9793778D01*
X54770000Y10189199D01*
X55034211Y9793778D01*
X55495671Y9485441D01*
X56040000Y9377167D01*
X56584329Y9485441D01*
X57045789Y9793778D01*
X57354126Y10255238D01*
X57462400Y10799567D01*
X57462400Y11580433D01*
X57462400Y18327400D01*
X57462400Y18683000D01*
X57462400Y18937000D01*
X57462400Y19292600D01*
X57305525Y19827262D01*
X56955986Y20261191D01*
X56466996Y20528327D01*
X56387060Y20545010D01*
X56167000Y20422852D01*
X56167000Y18937000D01*
X57462400Y18937000D01*
X57462400Y18683000D01*
X56167000Y18683000D01*
X56167000Y17197148D01*
X56387060Y17074990D01*
X56466996Y17091673D01*
X56955986Y17358809D01*
X57305525Y17792738D01*
X57462400Y18327400D01*
X57462400Y11580433D01*
X57354126Y12124762D01*
X57045789Y12586222D01*
X56584329Y12894559D01*
X56040000Y13002833D01*
X55913000Y12977572D01*
X55913000Y17197148D01*
X55913000Y18683000D01*
X55893000Y18683000D01*
X55893000Y18937000D01*
X55913000Y18937000D01*
X55913000Y20422852D01*
X55692940Y20545010D01*
X55613004Y20528327D01*
X55124014Y20261191D01*
X54774475Y19827262D01*
X54769753Y19811171D01*
X54735000Y19863183D01*
X54735000Y20000000D01*
X54640991Y20472614D01*
X54373277Y20873277D01*
X52373277Y22873277D01*
X51972614Y23140991D01*
X51500000Y23235000D01*
X46506980Y23235000D01*
X46266713Y23334768D01*
X45735617Y23335231D01*
X45244771Y23132418D01*
X44868902Y22757204D01*
X44665232Y22266713D01*
X44664769Y21735617D01*
X44867582Y21244771D01*
X45242796Y20868902D01*
X45529242Y20749959D01*
X45244771Y20632418D01*
X44868902Y20257204D01*
X44665232Y19766713D01*
X44664769Y19235617D01*
X44867582Y18744771D01*
X45242796Y18368902D01*
X45529242Y18249959D01*
X45244771Y18132418D01*
X44868902Y17757204D01*
X44665232Y17266713D01*
X44664769Y16735617D01*
X44867582Y16244771D01*
X45242796Y15868902D01*
X45733287Y15665232D01*
X46264383Y15664769D01*
X46755229Y15867582D01*
X47131098Y16242796D01*
X47334768Y16733287D01*
X47335231Y17264383D01*
X47132418Y17755229D01*
X46757204Y18131098D01*
X46470757Y18250042D01*
X46755229Y18367582D01*
X47131098Y18742796D01*
X47334768Y19233287D01*
X47335231Y19764383D01*
X47132418Y20255229D01*
X46757204Y20631098D01*
X46470757Y20750042D01*
X46506961Y20765000D01*
X50988446Y20765000D01*
X51172976Y20580470D01*
X50960000Y20622833D01*
X50415671Y20514559D01*
X49954211Y20206222D01*
X49645874Y19744762D01*
X49537600Y19200433D01*
X49537600Y18419567D01*
X49645874Y17875238D01*
X49954211Y17413778D01*
X50415671Y17105441D01*
X50960000Y16997167D01*
X51504329Y17105441D01*
X51965789Y17413778D01*
X52230000Y17809199D01*
X52494211Y17413778D01*
X52955671Y17105441D01*
X53500000Y16997167D01*
X54044329Y17105441D01*
X54505789Y17413778D01*
X54769753Y17808830D01*
X54774475Y17792738D01*
X55124014Y17358809D01*
X55613004Y17091673D01*
X55692940Y17074990D01*
X55913000Y17197148D01*
X55913000Y12977572D01*
X55495671Y12894559D01*
X55034211Y12586222D01*
X54769999Y12190802D01*
X54505789Y12586222D01*
X54044329Y12894559D01*
X53500000Y13002833D01*
X52955671Y12894559D01*
X52494211Y12586222D01*
X52382400Y12418885D01*
X52382400Y12459309D01*
X52285727Y12692698D01*
X52107099Y12871327D01*
X51873710Y12968000D01*
X51621091Y12968000D01*
X50928554Y12968000D01*
X50023277Y13873277D01*
X49622614Y14140991D01*
X49150000Y14235000D01*
X46506980Y14235000D01*
X46266713Y14334768D01*
X45735617Y14335231D01*
X45244771Y14132418D01*
X44868902Y13757204D01*
X44665232Y13266713D01*
X44664769Y12735617D01*
X44867582Y12244771D01*
X45242796Y11868902D01*
X45529242Y11749959D01*
X45251019Y11635000D01*
X44135000Y11635000D01*
X44135000Y27365000D01*
X45252193Y27365000D01*
X45529242Y27249959D01*
X45244771Y27132418D01*
X44868902Y26757204D01*
X44665232Y26266713D01*
X44664769Y25735617D01*
X44867582Y25244771D01*
X45242796Y24868902D01*
X45733287Y24665232D01*
X46264383Y24664769D01*
X46755229Y24867582D01*
X47131098Y25242796D01*
X47334768Y25733287D01*
X47335231Y26264383D01*
X47132418Y26755229D01*
X46757204Y27131098D01*
X46470757Y27250042D01*
X46755229Y27367582D01*
X47131098Y27742796D01*
X47334768Y28233287D01*
X47335231Y28764383D01*
X47132418Y29255229D01*
X46757204Y29631098D01*
X46470757Y29750042D01*
X46506961Y29765000D01*
X48638446Y29765000D01*
X49537600Y28865846D01*
X49537600Y27920691D01*
X49634273Y27687302D01*
X49812901Y27508673D01*
X50046290Y27412000D01*
X50298909Y27412000D01*
X51873709Y27412000D01*
X52107098Y27508673D01*
X52285727Y27687301D01*
X52382400Y27920690D01*
X52382400Y27961116D01*
X52494211Y27793778D01*
X52955671Y27485441D01*
X53500000Y27377167D01*
X54044329Y27485441D01*
X54505789Y27793778D01*
X54770000Y28189199D01*
X55034211Y27793778D01*
X55495671Y27485441D01*
X56040000Y27377167D01*
X56584329Y27485441D01*
X57045789Y27793778D01*
X57354126Y28255238D01*
X57462400Y28799567D01*
X57462400Y29580433D01*
X57462400Y36327400D01*
X57462400Y36683000D01*
X57462400Y36937000D01*
X57462400Y37292600D01*
X57305525Y37827262D01*
X56955986Y38261191D01*
X56466996Y38528327D01*
X56387060Y38545010D01*
X56167000Y38422852D01*
X56167000Y36937000D01*
X57462400Y36937000D01*
X57462400Y36683000D01*
X56167000Y36683000D01*
X56167000Y35197148D01*
X56387060Y35074990D01*
X56466996Y35091673D01*
X56955986Y35358809D01*
X57305525Y35792738D01*
X57462400Y36327400D01*
X57462400Y29580433D01*
X57354126Y30124762D01*
X57045789Y30586222D01*
X56584329Y30894559D01*
X56040000Y31002833D01*
X55913000Y30977572D01*
X55913000Y35197148D01*
X55913000Y36683000D01*
X55893000Y36683000D01*
X55893000Y36937000D01*
X55913000Y36937000D01*
X55913000Y38422852D01*
X55692940Y38545010D01*
X55613004Y38528327D01*
X55124014Y38261191D01*
X54774475Y37827262D01*
X54769753Y37811171D01*
X54735000Y37863183D01*
X54735000Y38000000D01*
X54640991Y38472614D01*
X54373277Y38873277D01*
X52373277Y40873277D01*
X51972614Y41140991D01*
X51500000Y41235000D01*
X46506980Y41235000D01*
X46266713Y41334768D01*
X45735617Y41335231D01*
X45244771Y41132418D01*
X44868902Y40757204D01*
X44665232Y40266713D01*
X44664769Y39735617D01*
X44867582Y39244771D01*
X45242796Y38868902D01*
X45529242Y38749959D01*
X45244771Y38632418D01*
X44868902Y38257204D01*
X44665232Y37766713D01*
X44664769Y37235617D01*
X44867582Y36744771D01*
X45242796Y36368902D01*
X45529242Y36249959D01*
X45244771Y36132418D01*
X44868902Y35757204D01*
X44665232Y35266713D01*
X44664769Y34735617D01*
X44867582Y34244771D01*
X45242796Y33868902D01*
X45733287Y33665232D01*
X46264383Y33664769D01*
X46755229Y33867582D01*
X47131098Y34242796D01*
X47334768Y34733287D01*
X47335231Y35264383D01*
X47132418Y35755229D01*
X46757204Y36131098D01*
X46470757Y36250042D01*
X46755229Y36367582D01*
X47131098Y36742796D01*
X47334768Y37233287D01*
X47335231Y37764383D01*
X47132418Y38255229D01*
X46757204Y38631098D01*
X46470757Y38750042D01*
X46506961Y38765000D01*
X50988446Y38765000D01*
X51172976Y38580470D01*
X50960000Y38622833D01*
X50415671Y38514559D01*
X49954211Y38206222D01*
X49645874Y37744762D01*
X49537600Y37200433D01*
X49537600Y36419567D01*
X49645874Y35875238D01*
X49954211Y35413778D01*
X50415671Y35105441D01*
X50960000Y34997167D01*
X51504329Y35105441D01*
X51965789Y35413778D01*
X52230000Y35809199D01*
X52494211Y35413778D01*
X52955671Y35105441D01*
X53500000Y34997167D01*
X54044329Y35105441D01*
X54505789Y35413778D01*
X54769753Y35808830D01*
X54774475Y35792738D01*
X55124014Y35358809D01*
X55613004Y35091673D01*
X55692940Y35074990D01*
X55913000Y35197148D01*
X55913000Y30977572D01*
X55495671Y30894559D01*
X55034211Y30586222D01*
X54769999Y30190802D01*
X54505789Y30586222D01*
X54044329Y30894559D01*
X53500000Y31002833D01*
X52955671Y30894559D01*
X52494211Y30586222D01*
X52382400Y30418885D01*
X52382400Y30459309D01*
X52285727Y30692698D01*
X52107099Y30871327D01*
X51873710Y30968000D01*
X51621091Y30968000D01*
X50928554Y30968000D01*
X50023277Y31873277D01*
X49622614Y32140991D01*
X49150000Y32235000D01*
X46506980Y32235000D01*
X46266713Y32334768D01*
X45735617Y32335231D01*
X45244771Y32132418D01*
X44868902Y31757204D01*
X44665232Y31266713D01*
X44664769Y30735617D01*
X44867582Y30244771D01*
X45242796Y29868902D01*
X45529242Y29749959D01*
X45251019Y29635000D01*
X44135000Y29635000D01*
X44135000Y45365000D01*
X45252193Y45365000D01*
X45529242Y45249959D01*
X45244771Y45132418D01*
X44868902Y44757204D01*
X44665232Y44266713D01*
X44664769Y43735617D01*
X44867582Y43244771D01*
X45242796Y42868902D01*
X45733287Y42665232D01*
X46264383Y42664769D01*
X46755229Y42867582D01*
X47131098Y43242796D01*
X47334768Y43733287D01*
X47335231Y44264383D01*
X47132418Y44755229D01*
X46757204Y45131098D01*
X46470757Y45250042D01*
X46755229Y45367582D01*
X47131098Y45742796D01*
X47334768Y46233287D01*
X47335231Y46764383D01*
X47132418Y47255229D01*
X46757204Y47631098D01*
X46470757Y47750042D01*
X46506961Y47765000D01*
X48638446Y47765000D01*
X49537600Y46865846D01*
X49537600Y45920691D01*
X49634273Y45687302D01*
X49812901Y45508673D01*
X50046290Y45412000D01*
X50298909Y45412000D01*
X51873709Y45412000D01*
X52107098Y45508673D01*
X52285727Y45687301D01*
X52382400Y45920690D01*
X52382400Y45961116D01*
X52494211Y45793778D01*
X52955671Y45485441D01*
X53500000Y45377167D01*
X54044329Y45485441D01*
X54505789Y45793778D01*
X54770000Y46189199D01*
X55034211Y45793778D01*
X55495671Y45485441D01*
X56040000Y45377167D01*
X56584329Y45485441D01*
X57045789Y45793778D01*
X57354126Y46255238D01*
X57462400Y46799567D01*
X57462400Y47580433D01*
X57462400Y54327400D01*
X57462400Y54683000D01*
X57462400Y54937000D01*
X57462400Y55292600D01*
X57305525Y55827262D01*
X56955986Y56261191D01*
X56466996Y56528327D01*
X56387060Y56545010D01*
X56167000Y56422852D01*
X56167000Y54937000D01*
X57462400Y54937000D01*
X57462400Y54683000D01*
X56167000Y54683000D01*
X56167000Y53197148D01*
X56387060Y53074990D01*
X56466996Y53091673D01*
X56955986Y53358809D01*
X57305525Y53792738D01*
X57462400Y54327400D01*
X57462400Y47580433D01*
X57354126Y48124762D01*
X57045789Y48586222D01*
X56584329Y48894559D01*
X56040000Y49002833D01*
X55495671Y48894559D01*
X55034211Y48586222D01*
X54769999Y48190802D01*
X54505789Y48586222D01*
X54044329Y48894559D01*
X53500000Y49002833D01*
X52955671Y48894559D01*
X52494211Y48586222D01*
X52382400Y48418885D01*
X52382400Y48459309D01*
X52285727Y48692698D01*
X52107099Y48871327D01*
X51873710Y48968000D01*
X51621091Y48968000D01*
X50928554Y48968000D01*
X50023277Y49873277D01*
X49622614Y50140991D01*
X49150000Y50235000D01*
X46506980Y50235000D01*
X46266713Y50334768D01*
X45735617Y50335231D01*
X45244771Y50132418D01*
X44868902Y49757204D01*
X44665232Y49266713D01*
X44664769Y48735617D01*
X44867582Y48244771D01*
X45242796Y47868902D01*
X45529242Y47749959D01*
X45251019Y47635000D01*
X43000000Y47635000D01*
X42565654Y47548603D01*
X42197434Y47302566D01*
X41951397Y46934346D01*
X41865000Y46500000D01*
X41865000Y41173392D01*
X41596734Y41284785D01*
X41105421Y41285214D01*
X40885000Y41194138D01*
X40885000Y56633421D01*
X41366579Y57115000D01*
X44997126Y57115000D01*
X45242796Y56868902D01*
X45529242Y56749959D01*
X45244771Y56632418D01*
X44868902Y56257204D01*
X44665232Y55766713D01*
X44664769Y55235617D01*
X44867582Y54744771D01*
X45242796Y54368902D01*
X45529242Y54249959D01*
X45244771Y54132418D01*
X44868902Y53757204D01*
X44665232Y53266713D01*
X44664769Y52735617D01*
X44867582Y52244771D01*
X45242796Y51868902D01*
X45733287Y51665232D01*
X46264383Y51664769D01*
X46755229Y51867582D01*
X47131098Y52242796D01*
X47334768Y52733287D01*
X47335231Y53264383D01*
X47132418Y53755229D01*
X46757204Y54131098D01*
X46470757Y54250042D01*
X46755229Y54367582D01*
X47131098Y54742796D01*
X47334768Y55233287D01*
X47335231Y55764383D01*
X47132418Y56255229D01*
X46757204Y56631098D01*
X46470757Y56750042D01*
X46506961Y56765000D01*
X50988446Y56765000D01*
X51172976Y56580470D01*
X50960000Y56622833D01*
X50415671Y56514559D01*
X49954211Y56206222D01*
X49645874Y55744762D01*
X49537600Y55200433D01*
X49537600Y54419567D01*
X49645874Y53875238D01*
X49954211Y53413778D01*
X50415671Y53105441D01*
X50960000Y52997167D01*
X51504329Y53105441D01*
X51965789Y53413778D01*
X52230000Y53809199D01*
X52494211Y53413778D01*
X52955671Y53105441D01*
X53500000Y52997167D01*
X54044329Y53105441D01*
X54505789Y53413778D01*
X54769753Y53808830D01*
X54774475Y53792738D01*
X55124014Y53358809D01*
X55613004Y53091673D01*
X55692940Y53074990D01*
X55913000Y53197148D01*
X55913000Y54683000D01*
X55893000Y54683000D01*
X55893000Y54937000D01*
X55913000Y54937000D01*
X55913000Y56422852D01*
X55692940Y56545010D01*
X55613004Y56528327D01*
X55124014Y56261191D01*
X54774475Y55827262D01*
X54769753Y55811171D01*
X54735000Y55863183D01*
X54735000Y56000000D01*
X54640991Y56472614D01*
X54373277Y56873277D01*
X52373277Y58873277D01*
X51972614Y59140991D01*
X51500000Y59235000D01*
X46506980Y59235000D01*
X46266713Y59334768D01*
X45735617Y59335231D01*
X45244771Y59132418D01*
X44996921Y58885000D01*
X41000005Y58885000D01*
X41000000Y58885001D01*
X40661326Y58817634D01*
X40566054Y58753976D01*
X40374210Y58625790D01*
X40374207Y58625787D01*
X39985000Y58236580D01*
X39985000Y60450000D01*
X39950587Y60623000D01*
X109623000Y60623000D01*
X109623000Y59635000D01*
X93250005Y59635000D01*
X93250000Y59635001D01*
X92967515Y59578811D01*
X92911325Y59567633D01*
X92624210Y59375790D01*
X92624207Y59375787D01*
X90425287Y57176868D01*
X90314323Y57222944D01*
X89728248Y57223455D01*
X89186589Y56999647D01*
X88771810Y56585591D01*
X88750224Y56533609D01*
X88729647Y56583411D01*
X88315591Y56998190D01*
X87774323Y57222944D01*
X87188248Y57223455D01*
X86646589Y56999647D01*
X86231810Y56585591D01*
X86007056Y56044323D01*
X86006545Y55458248D01*
X86230353Y54916589D01*
X86644409Y54501810D01*
X87185677Y54277056D01*
X87771752Y54276545D01*
X88313411Y54500353D01*
X88728190Y54914409D01*
X88749775Y54966392D01*
X88770353Y54916589D01*
X89184409Y54501810D01*
X89725677Y54277056D01*
X90311752Y54276545D01*
X90853411Y54500353D01*
X91268190Y54914409D01*
X91492944Y55455677D01*
X91493193Y55741614D01*
X93616579Y57865000D01*
X97883420Y57865000D01*
X97241427Y57223008D01*
X96728248Y57223455D01*
X96186589Y56999647D01*
X95771810Y56585591D01*
X95750224Y56533609D01*
X95729647Y56583411D01*
X95315591Y56998190D01*
X94774323Y57222944D01*
X94188248Y57223455D01*
X93646589Y56999647D01*
X93231810Y56585591D01*
X93007056Y56044323D01*
X93006545Y55458248D01*
X93230353Y54916589D01*
X93644409Y54501810D01*
X94185677Y54277056D01*
X94771752Y54276545D01*
X95313411Y54500353D01*
X95728190Y54914409D01*
X95749775Y54966392D01*
X95770353Y54916589D01*
X96184409Y54501810D01*
X96725677Y54277056D01*
X97311752Y54276545D01*
X97853411Y54500353D01*
X98268190Y54914409D01*
X98492944Y55455677D01*
X98493394Y55971815D01*
X99386579Y56865000D01*
X100511706Y56865000D01*
X100231810Y56585591D01*
X100007056Y56044323D01*
X100006545Y55458248D01*
X100230353Y54916589D01*
X100644409Y54501810D01*
X101185677Y54277056D01*
X101771752Y54276545D01*
X102313411Y54500353D01*
X102728190Y54914409D01*
X102749775Y54966392D01*
X102770353Y54916589D01*
X103184409Y54501810D01*
X103725677Y54277056D01*
X104311752Y54276545D01*
X104853411Y54500353D01*
X105268190Y54914409D01*
X105492944Y55455677D01*
X105493300Y55865000D01*
X109623000Y55865000D01*
X109623000Y53802605D01*
X109623000Y53802605D01*
G37*
X109623000Y53802605D02*
X107697395Y51877000D01*
X99623000Y51877000D01*
X99623000Y41877000D01*
X87832100Y41877000D01*
X87832100Y48721990D01*
X87832100Y48974609D01*
X87832100Y50778009D01*
X87735427Y51011398D01*
X87556799Y51190027D01*
X87323410Y51286700D01*
X87282000Y51286700D01*
X87282000Y52372995D01*
X87282000Y52373000D01*
X87282001Y52373000D01*
X87214633Y52711675D01*
X87022790Y52998790D01*
X87022786Y52998793D01*
X84493007Y55528573D01*
X84493455Y56041752D01*
X84269647Y56583411D01*
X83855591Y56998190D01*
X83314323Y57222944D01*
X82728248Y57223455D01*
X82186589Y56999647D01*
X81771810Y56585591D01*
X81750224Y56533609D01*
X81729647Y56583411D01*
X81315591Y56998190D01*
X81265000Y57019198D01*
X81265000Y57020000D01*
X81205245Y57320406D01*
X81035079Y57575079D01*
X79805079Y58805079D01*
X79550407Y58975245D01*
X79250000Y59035000D01*
X65250005Y59035000D01*
X65250000Y59035001D01*
X64949594Y58975245D01*
X64694921Y58805079D01*
X59194921Y53305079D01*
X59024755Y53050407D01*
X58965000Y52750000D01*
X58965000Y23350000D01*
X58965000Y22056000D01*
X59024755Y21755593D01*
X59194921Y21500921D01*
X62368108Y18327734D01*
X62367786Y17958421D01*
X62555408Y17504343D01*
X62902515Y17156629D01*
X63356266Y16968215D01*
X63847579Y16967786D01*
X64301657Y17155408D01*
X64649371Y17502515D01*
X64837785Y17956266D01*
X64838214Y18447579D01*
X64650592Y18901657D01*
X64303485Y19249371D01*
X63849734Y19437785D01*
X63478048Y19438110D01*
X60535000Y22381158D01*
X60535000Y23350000D01*
X60535000Y31154842D01*
X62115108Y29574734D01*
X62114786Y29205421D01*
X62302408Y28751343D01*
X62649515Y28403629D01*
X63103266Y28215215D01*
X63594579Y28214786D01*
X64048657Y28402408D01*
X64396371Y28749515D01*
X64584785Y29203266D01*
X64585214Y29694579D01*
X64397592Y30148657D01*
X64050485Y30496371D01*
X63596734Y30684785D01*
X63225048Y30685110D01*
X61235000Y32675158D01*
X61235000Y41654842D01*
X62115108Y40774734D01*
X62114786Y40405421D01*
X62302408Y39951343D01*
X62649515Y39603629D01*
X63103266Y39415215D01*
X63594579Y39414786D01*
X64048657Y39602408D01*
X64396371Y39949515D01*
X64584785Y40403266D01*
X64585214Y40894579D01*
X64397592Y41348657D01*
X64050485Y41696371D01*
X63596734Y41884785D01*
X63225048Y41885110D01*
X61835000Y43275158D01*
X61835000Y51524842D01*
X65153486Y54843329D01*
X65494409Y54501810D01*
X66035677Y54277056D01*
X66621752Y54276545D01*
X67163411Y54500353D01*
X67578190Y54914409D01*
X67599775Y54966392D01*
X67620353Y54916589D01*
X68034409Y54501810D01*
X68575677Y54277056D01*
X69091814Y54276606D01*
X70262000Y53106421D01*
X70262000Y51286700D01*
X70220591Y51286700D01*
X69987202Y51190027D01*
X69808573Y51011399D01*
X69749999Y50869991D01*
X69691427Y51011398D01*
X69512799Y51190027D01*
X69279410Y51286700D01*
X69026791Y51286700D01*
X67426591Y51286700D01*
X67193202Y51190027D01*
X67014573Y51011399D01*
X66917900Y50778010D01*
X66917900Y50525391D01*
X66917900Y48721991D01*
X66930533Y48691492D01*
X66911698Y48710327D01*
X66678309Y48807000D01*
X66075750Y48807000D01*
X65917000Y48648250D01*
X65917000Y47537000D01*
X65937000Y47537000D01*
X65937000Y47283000D01*
X65917000Y47283000D01*
X65917000Y46171750D01*
X66075750Y46013000D01*
X66678309Y46013000D01*
X66911698Y46109673D01*
X67090327Y46288301D01*
X67187000Y46521690D01*
X67187000Y46577614D01*
X67537630Y46226371D01*
X68050900Y46013243D01*
X68606661Y46012758D01*
X69120303Y46224990D01*
X69513629Y46617630D01*
X69599949Y46825513D01*
X69684990Y46619697D01*
X70077630Y46226371D01*
X70590900Y46013243D01*
X71146661Y46012758D01*
X71660303Y46224990D01*
X72013000Y46577072D01*
X72013000Y46521690D01*
X72109673Y46288301D01*
X72288302Y46109673D01*
X72521691Y46013000D01*
X73124250Y46013000D01*
X73283000Y46171750D01*
X73283000Y47283000D01*
X73263000Y47283000D01*
X73263000Y47537000D01*
X73283000Y47537000D01*
X73283000Y48648250D01*
X73124250Y48807000D01*
X72582100Y48807000D01*
X72582100Y48974609D01*
X72582100Y50778009D01*
X72485427Y51011398D01*
X72306799Y51190027D01*
X72073410Y51286700D01*
X72032000Y51286700D01*
X72032000Y53472995D01*
X72032000Y53473000D01*
X72032001Y53473000D01*
X71964633Y53811675D01*
X71772790Y54098790D01*
X71772786Y54098793D01*
X70343007Y55528573D01*
X70343455Y56041752D01*
X70119647Y56583411D01*
X69838548Y56865000D01*
X72324842Y56865000D01*
X72418192Y56771650D01*
X72231810Y56585591D01*
X72007056Y56044323D01*
X72006545Y55458248D01*
X72230353Y54916589D01*
X72644409Y54501810D01*
X73185677Y54277056D01*
X73771752Y54276545D01*
X74313411Y54500353D01*
X74728190Y54914409D01*
X74749775Y54966392D01*
X74770353Y54916589D01*
X75184409Y54501810D01*
X75725677Y54277056D01*
X76241814Y54276606D01*
X77762000Y52756421D01*
X77762000Y51286700D01*
X77720591Y51286700D01*
X77487202Y51190027D01*
X77308573Y51011399D01*
X77249999Y50869991D01*
X77191427Y51011398D01*
X77012799Y51190027D01*
X76779410Y51286700D01*
X76526791Y51286700D01*
X74926591Y51286700D01*
X74693202Y51190027D01*
X74514573Y51011399D01*
X74417900Y50778010D01*
X74417900Y50525391D01*
X74417900Y48757464D01*
X74298309Y48807000D01*
X73695750Y48807000D01*
X73537000Y48648250D01*
X73537000Y47537000D01*
X73557000Y47537000D01*
X73557000Y47283000D01*
X73537000Y47283000D01*
X73537000Y46171750D01*
X73695750Y46013000D01*
X74298309Y46013000D01*
X74531698Y46109673D01*
X74710327Y46288301D01*
X74807000Y46521690D01*
X74807000Y46577614D01*
X75157630Y46226371D01*
X75670900Y46013243D01*
X76226661Y46012758D01*
X76740303Y46224990D01*
X77133629Y46617630D01*
X77219949Y46825513D01*
X77304990Y46619697D01*
X77697630Y46226371D01*
X78210900Y46013243D01*
X78766661Y46012758D01*
X79280303Y46224990D01*
X79633000Y46577072D01*
X79633000Y46521690D01*
X79729673Y46288301D01*
X79908302Y46109673D01*
X80141691Y46013000D01*
X80744250Y46013000D01*
X80903000Y46171750D01*
X80903000Y47283000D01*
X80883000Y47283000D01*
X80883000Y47537000D01*
X80903000Y47537000D01*
X80903000Y48648250D01*
X80744250Y48807000D01*
X80141691Y48807000D01*
X80082100Y48782317D01*
X80082100Y48974609D01*
X80082100Y50778009D01*
X79985427Y51011398D01*
X79806799Y51190027D01*
X79573410Y51286700D01*
X79532000Y51286700D01*
X79532000Y53122995D01*
X79532000Y53123000D01*
X79532001Y53123000D01*
X79475810Y53405485D01*
X79464633Y53461674D01*
X79464633Y53461675D01*
X79272790Y53748790D01*
X79272786Y53748793D01*
X77493007Y55528573D01*
X77493455Y56041752D01*
X77269647Y56583411D01*
X76855591Y56998190D01*
X76314323Y57222944D01*
X75728248Y57223455D01*
X75186589Y56999647D01*
X74771810Y56585591D01*
X74750224Y56533609D01*
X74729647Y56583411D01*
X74315591Y56998190D01*
X74221809Y57037132D01*
X74205245Y57120406D01*
X74205245Y57120407D01*
X74035079Y57375079D01*
X73945158Y57465000D01*
X78924842Y57465000D01*
X79518280Y56871562D01*
X79231810Y56585591D01*
X79007056Y56044323D01*
X79006545Y55458248D01*
X79230353Y54916589D01*
X79644409Y54501810D01*
X80185677Y54277056D01*
X80771752Y54276545D01*
X81313411Y54500353D01*
X81728190Y54914409D01*
X81749775Y54966392D01*
X81770353Y54916589D01*
X82184409Y54501810D01*
X82725677Y54277056D01*
X83241814Y54276606D01*
X85512000Y52006421D01*
X85512000Y51286700D01*
X85470591Y51286700D01*
X85237202Y51190027D01*
X85058573Y51011399D01*
X84999999Y50869991D01*
X84941427Y51011398D01*
X84762799Y51190027D01*
X84529410Y51286700D01*
X84276791Y51286700D01*
X82676591Y51286700D01*
X82443202Y51190027D01*
X82264573Y51011399D01*
X82167900Y50778010D01*
X82167900Y50525391D01*
X82167900Y48721991D01*
X82187604Y48674422D01*
X82151698Y48710327D01*
X81918309Y48807000D01*
X81315750Y48807000D01*
X81157000Y48648250D01*
X81157000Y47537000D01*
X81177000Y47537000D01*
X81177000Y47283000D01*
X81157000Y47283000D01*
X81157000Y46171750D01*
X81315750Y46013000D01*
X81918309Y46013000D01*
X82151698Y46109673D01*
X82330327Y46288301D01*
X82427000Y46521690D01*
X82427000Y46577614D01*
X82777630Y46226371D01*
X83290900Y46013243D01*
X83846661Y46012758D01*
X84360303Y46224990D01*
X84753629Y46617630D01*
X84839949Y46825513D01*
X84924990Y46619697D01*
X85317630Y46226371D01*
X85830900Y46013243D01*
X86386661Y46012758D01*
X86900303Y46224990D01*
X87293629Y46617630D01*
X87506757Y47130900D01*
X87507242Y47686661D01*
X87295010Y48200303D01*
X87282035Y48213300D01*
X87323409Y48213300D01*
X87556798Y48309973D01*
X87735427Y48488601D01*
X87832100Y48721990D01*
X87832100Y41877000D01*
X69623000Y41877000D01*
X69623000Y3635000D01*
X67952833Y3635000D01*
X67952833Y9310000D01*
X67952833Y20210000D01*
X67952833Y31310000D01*
X67918000Y31485117D01*
X67918000Y35476290D01*
X67918000Y35728909D01*
X67918000Y37303709D01*
X67821327Y37537098D01*
X67642699Y37715727D01*
X67409310Y37812400D01*
X67156691Y37812400D01*
X65663000Y37812400D01*
X65663000Y46171750D01*
X65663000Y47283000D01*
X65663000Y47537000D01*
X65663000Y48648250D01*
X65504250Y48807000D01*
X64901691Y48807000D01*
X64668302Y48710327D01*
X64489673Y48531699D01*
X64393000Y48298310D01*
X64393000Y48045691D01*
X64393000Y47695750D01*
X64551750Y47537000D01*
X65663000Y47537000D01*
X65663000Y47283000D01*
X64551750Y47283000D01*
X64393000Y47124250D01*
X64393000Y46774309D01*
X64393000Y46521690D01*
X64489673Y46288301D01*
X64668302Y46109673D01*
X64901691Y46013000D01*
X65504250Y46013000D01*
X65663000Y46171750D01*
X65663000Y37812400D01*
X64870691Y37812400D01*
X64637302Y37715727D01*
X64458673Y37537099D01*
X64362000Y37303710D01*
X64362000Y37051091D01*
X64362000Y35476291D01*
X64458673Y35242902D01*
X64637301Y35064273D01*
X64870690Y34967600D01*
X64939099Y34967600D01*
X64688809Y34765986D01*
X64421673Y34276996D01*
X64404990Y34197060D01*
X64527148Y33977000D01*
X66013000Y33977000D01*
X66013000Y33997000D01*
X66267000Y33997000D01*
X66267000Y33977000D01*
X67752852Y33977000D01*
X67875010Y34197060D01*
X67858327Y34276996D01*
X67591191Y34765986D01*
X67340900Y34967600D01*
X67409309Y34967600D01*
X67642698Y35064273D01*
X67821327Y35242901D01*
X67918000Y35476290D01*
X67918000Y31485117D01*
X67844559Y31854329D01*
X67536222Y32315789D01*
X67141170Y32579754D01*
X67157262Y32584475D01*
X67591191Y32934014D01*
X67858327Y33423004D01*
X67875010Y33502940D01*
X67752852Y33723000D01*
X66267000Y33723000D01*
X66267000Y33703000D01*
X66013000Y33703000D01*
X66013000Y33723000D01*
X64527148Y33723000D01*
X64404990Y33502940D01*
X64421673Y33423004D01*
X64688809Y32934014D01*
X65122738Y32584475D01*
X65138829Y32579754D01*
X64743778Y32315789D01*
X64435441Y31854329D01*
X64327167Y31310000D01*
X64435441Y30765671D01*
X64743778Y30304211D01*
X65205238Y29995874D01*
X65749567Y29887600D01*
X66530433Y29887600D01*
X67074762Y29995874D01*
X67536222Y30304211D01*
X67844559Y30765671D01*
X67952833Y31310000D01*
X67952833Y20210000D01*
X67918000Y20385117D01*
X67918000Y24376290D01*
X67918000Y24628909D01*
X67918000Y26203709D01*
X67821327Y26437098D01*
X67642699Y26615727D01*
X67409310Y26712400D01*
X67156691Y26712400D01*
X64870691Y26712400D01*
X64637302Y26615727D01*
X64458673Y26437099D01*
X64362000Y26203710D01*
X64362000Y25951091D01*
X64362000Y24376291D01*
X64458673Y24142902D01*
X64637301Y23964273D01*
X64870690Y23867600D01*
X64939099Y23867600D01*
X64688809Y23665986D01*
X64421673Y23176996D01*
X64404990Y23097060D01*
X64527148Y22877000D01*
X66013000Y22877000D01*
X66013000Y22897000D01*
X66267000Y22897000D01*
X66267000Y22877000D01*
X67752852Y22877000D01*
X67875010Y23097060D01*
X67858327Y23176996D01*
X67591191Y23665986D01*
X67340900Y23867600D01*
X67409309Y23867600D01*
X67642698Y23964273D01*
X67821327Y24142901D01*
X67918000Y24376290D01*
X67918000Y20385117D01*
X67844559Y20754329D01*
X67536222Y21215789D01*
X67141170Y21479754D01*
X67157262Y21484475D01*
X67591191Y21834014D01*
X67858327Y22323004D01*
X67875010Y22402940D01*
X67752852Y22623000D01*
X66267000Y22623000D01*
X66267000Y22603000D01*
X66013000Y22603000D01*
X66013000Y22623000D01*
X64527148Y22623000D01*
X64404990Y22402940D01*
X64421673Y22323004D01*
X64688809Y21834014D01*
X65122738Y21484475D01*
X65138829Y21479754D01*
X64743778Y21215789D01*
X64435441Y20754329D01*
X64327167Y20210000D01*
X64435441Y19665671D01*
X64743778Y19204211D01*
X65205238Y18895874D01*
X65749567Y18787600D01*
X66530433Y18787600D01*
X67074762Y18895874D01*
X67536222Y19204211D01*
X67844559Y19665671D01*
X67952833Y20210000D01*
X67952833Y9310000D01*
X67918000Y9485117D01*
X67918000Y13476290D01*
X67918000Y13728909D01*
X67918000Y15303709D01*
X67821327Y15537098D01*
X67642699Y15715727D01*
X67409310Y15812400D01*
X67156691Y15812400D01*
X64870691Y15812400D01*
X64637302Y15715727D01*
X64458673Y15537099D01*
X64362000Y15303710D01*
X64362000Y15051091D01*
X64362000Y13476291D01*
X64458673Y13242902D01*
X64637301Y13064273D01*
X64870690Y12967600D01*
X64939099Y12967600D01*
X64688809Y12765986D01*
X64421673Y12276996D01*
X64404990Y12197060D01*
X64527148Y11977000D01*
X66013000Y11977000D01*
X66013000Y11997000D01*
X66267000Y11997000D01*
X66267000Y11977000D01*
X67752852Y11977000D01*
X67875010Y12197060D01*
X67858327Y12276996D01*
X67591191Y12765986D01*
X67340900Y12967600D01*
X67409309Y12967600D01*
X67642698Y13064273D01*
X67821327Y13242901D01*
X67918000Y13476290D01*
X67918000Y9485117D01*
X67844559Y9854329D01*
X67536222Y10315789D01*
X67141170Y10579754D01*
X67157262Y10584475D01*
X67591191Y10934014D01*
X67858327Y11423004D01*
X67875010Y11502940D01*
X67752852Y11723000D01*
X66267000Y11723000D01*
X66267000Y11703000D01*
X66013000Y11703000D01*
X66013000Y11723000D01*
X64527148Y11723000D01*
X64404990Y11502940D01*
X64421673Y11423004D01*
X64688809Y10934014D01*
X65122738Y10584475D01*
X65138829Y10579754D01*
X64743778Y10315789D01*
X64435441Y9854329D01*
X64327167Y9310000D01*
X64435441Y8765671D01*
X64743778Y8304211D01*
X65205238Y7995874D01*
X65749567Y7887600D01*
X66530433Y7887600D01*
X67074762Y7995874D01*
X67536222Y8304211D01*
X67844559Y8765671D01*
X67952833Y9310000D01*
X67952833Y3635000D01*
X44135000Y3635000D01*
X44135000Y9365000D01*
X45252193Y9365000D01*
X45529242Y9249959D01*
X45244771Y9132418D01*
X44868902Y8757204D01*
X44665232Y8266713D01*
X44664769Y7735617D01*
X44867582Y7244771D01*
X45242796Y6868902D01*
X45733287Y6665232D01*
X46264383Y6664769D01*
X46755229Y6867582D01*
X47131098Y7242796D01*
X47334768Y7733287D01*
X47335231Y8264383D01*
X47132418Y8755229D01*
X46757204Y9131098D01*
X46470757Y9250042D01*
X46755229Y9367582D01*
X47131098Y9742796D01*
X47334768Y10233287D01*
X47335231Y10764383D01*
X47132418Y11255229D01*
X46757204Y11631098D01*
X46470757Y11750042D01*
X46506961Y11765000D01*
X48638446Y11765000D01*
X49537600Y10865846D01*
X49537600Y9920691D01*
X49634273Y9687302D01*
X49812901Y9508673D01*
X50046290Y9412000D01*
X50298909Y9412000D01*
X51873709Y9412000D01*
X52107098Y9508673D01*
X52285727Y9687301D01*
X52382400Y9920690D01*
X52382400Y9961116D01*
X52494211Y9793778D01*
X52955671Y9485441D01*
X53500000Y9377167D01*
X54044329Y9485441D01*
X54505789Y9793778D01*
X54770000Y10189199D01*
X55034211Y9793778D01*
X55495671Y9485441D01*
X56040000Y9377167D01*
X56584329Y9485441D01*
X57045789Y9793778D01*
X57354126Y10255238D01*
X57462400Y10799567D01*
X57462400Y11580433D01*
X57462400Y18327400D01*
X57462400Y18683000D01*
X57462400Y18937000D01*
X57462400Y19292600D01*
X57305525Y19827262D01*
X56955986Y20261191D01*
X56466996Y20528327D01*
X56387060Y20545010D01*
X56167000Y20422852D01*
X56167000Y18937000D01*
X57462400Y18937000D01*
X57462400Y18683000D01*
X56167000Y18683000D01*
X56167000Y17197148D01*
X56387060Y17074990D01*
X56466996Y17091673D01*
X56955986Y17358809D01*
X57305525Y17792738D01*
X57462400Y18327400D01*
X57462400Y11580433D01*
X57354126Y12124762D01*
X57045789Y12586222D01*
X56584329Y12894559D01*
X56040000Y13002833D01*
X55913000Y12977572D01*
X55913000Y17197148D01*
X55913000Y18683000D01*
X55893000Y18683000D01*
X55893000Y18937000D01*
X55913000Y18937000D01*
X55913000Y20422852D01*
X55692940Y20545010D01*
X55613004Y20528327D01*
X55124014Y20261191D01*
X54774475Y19827262D01*
X54769753Y19811171D01*
X54735000Y19863183D01*
X54735000Y20000000D01*
X54640991Y20472614D01*
X54373277Y20873277D01*
X52373277Y22873277D01*
X51972614Y23140991D01*
X51500000Y23235000D01*
X46506980Y23235000D01*
X46266713Y23334768D01*
X45735617Y23335231D01*
X45244771Y23132418D01*
X44868902Y22757204D01*
X44665232Y22266713D01*
X44664769Y21735617D01*
X44867582Y21244771D01*
X45242796Y20868902D01*
X45529242Y20749959D01*
X45244771Y20632418D01*
X44868902Y20257204D01*
X44665232Y19766713D01*
X44664769Y19235617D01*
X44867582Y18744771D01*
X45242796Y18368902D01*
X45529242Y18249959D01*
X45244771Y18132418D01*
X44868902Y17757204D01*
X44665232Y17266713D01*
X44664769Y16735617D01*
X44867582Y16244771D01*
X45242796Y15868902D01*
X45733287Y15665232D01*
X46264383Y15664769D01*
X46755229Y15867582D01*
X47131098Y16242796D01*
X47334768Y16733287D01*
X47335231Y17264383D01*
X47132418Y17755229D01*
X46757204Y18131098D01*
X46470757Y18250042D01*
X46755229Y18367582D01*
X47131098Y18742796D01*
X47334768Y19233287D01*
X47335231Y19764383D01*
X47132418Y20255229D01*
X46757204Y20631098D01*
X46470757Y20750042D01*
X46506961Y20765000D01*
X50988446Y20765000D01*
X51172976Y20580470D01*
X50960000Y20622833D01*
X50415671Y20514559D01*
X49954211Y20206222D01*
X49645874Y19744762D01*
X49537600Y19200433D01*
X49537600Y18419567D01*
X49645874Y17875238D01*
X49954211Y17413778D01*
X50415671Y17105441D01*
X50960000Y16997167D01*
X51504329Y17105441D01*
X51965789Y17413778D01*
X52230000Y17809199D01*
X52494211Y17413778D01*
X52955671Y17105441D01*
X53500000Y16997167D01*
X54044329Y17105441D01*
X54505789Y17413778D01*
X54769753Y17808830D01*
X54774475Y17792738D01*
X55124014Y17358809D01*
X55613004Y17091673D01*
X55692940Y17074990D01*
X55913000Y17197148D01*
X55913000Y12977572D01*
X55495671Y12894559D01*
X55034211Y12586222D01*
X54769999Y12190802D01*
X54505789Y12586222D01*
X54044329Y12894559D01*
X53500000Y13002833D01*
X52955671Y12894559D01*
X52494211Y12586222D01*
X52382400Y12418885D01*
X52382400Y12459309D01*
X52285727Y12692698D01*
X52107099Y12871327D01*
X51873710Y12968000D01*
X51621091Y12968000D01*
X50928554Y12968000D01*
X50023277Y13873277D01*
X49622614Y14140991D01*
X49150000Y14235000D01*
X46506980Y14235000D01*
X46266713Y14334768D01*
X45735617Y14335231D01*
X45244771Y14132418D01*
X44868902Y13757204D01*
X44665232Y13266713D01*
X44664769Y12735617D01*
X44867582Y12244771D01*
X45242796Y11868902D01*
X45529242Y11749959D01*
X45251019Y11635000D01*
X44135000Y11635000D01*
X44135000Y27365000D01*
X45252193Y27365000D01*
X45529242Y27249959D01*
X45244771Y27132418D01*
X44868902Y26757204D01*
X44665232Y26266713D01*
X44664769Y25735617D01*
X44867582Y25244771D01*
X45242796Y24868902D01*
X45733287Y24665232D01*
X46264383Y24664769D01*
X46755229Y24867582D01*
X47131098Y25242796D01*
X47334768Y25733287D01*
X47335231Y26264383D01*
X47132418Y26755229D01*
X46757204Y27131098D01*
X46470757Y27250042D01*
X46755229Y27367582D01*
X47131098Y27742796D01*
X47334768Y28233287D01*
X47335231Y28764383D01*
X47132418Y29255229D01*
X46757204Y29631098D01*
X46470757Y29750042D01*
X46506961Y29765000D01*
X48638446Y29765000D01*
X49537600Y28865846D01*
X49537600Y27920691D01*
X49634273Y27687302D01*
X49812901Y27508673D01*
X50046290Y27412000D01*
X50298909Y27412000D01*
X51873709Y27412000D01*
X52107098Y27508673D01*
X52285727Y27687301D01*
X52382400Y27920690D01*
X52382400Y27961116D01*
X52494211Y27793778D01*
X52955671Y27485441D01*
X53500000Y27377167D01*
X54044329Y27485441D01*
X54505789Y27793778D01*
X54770000Y28189199D01*
X55034211Y27793778D01*
X55495671Y27485441D01*
X56040000Y27377167D01*
X56584329Y27485441D01*
X57045789Y27793778D01*
X57354126Y28255238D01*
X57462400Y28799567D01*
X57462400Y29580433D01*
X57462400Y36327400D01*
X57462400Y36683000D01*
X57462400Y36937000D01*
X57462400Y37292600D01*
X57305525Y37827262D01*
X56955986Y38261191D01*
X56466996Y38528327D01*
X56387060Y38545010D01*
X56167000Y38422852D01*
X56167000Y36937000D01*
X57462400Y36937000D01*
X57462400Y36683000D01*
X56167000Y36683000D01*
X56167000Y35197148D01*
X56387060Y35074990D01*
X56466996Y35091673D01*
X56955986Y35358809D01*
X57305525Y35792738D01*
X57462400Y36327400D01*
X57462400Y29580433D01*
X57354126Y30124762D01*
X57045789Y30586222D01*
X56584329Y30894559D01*
X56040000Y31002833D01*
X55913000Y30977572D01*
X55913000Y35197148D01*
X55913000Y36683000D01*
X55893000Y36683000D01*
X55893000Y36937000D01*
X55913000Y36937000D01*
X55913000Y38422852D01*
X55692940Y38545010D01*
X55613004Y38528327D01*
X55124014Y38261191D01*
X54774475Y37827262D01*
X54769753Y37811171D01*
X54735000Y37863183D01*
X54735000Y38000000D01*
X54640991Y38472614D01*
X54373277Y38873277D01*
X52373277Y40873277D01*
X51972614Y41140991D01*
X51500000Y41235000D01*
X46506980Y41235000D01*
X46266713Y41334768D01*
X45735617Y41335231D01*
X45244771Y41132418D01*
X44868902Y40757204D01*
X44665232Y40266713D01*
X44664769Y39735617D01*
X44867582Y39244771D01*
X45242796Y38868902D01*
X45529242Y38749959D01*
X45244771Y38632418D01*
X44868902Y38257204D01*
X44665232Y37766713D01*
X44664769Y37235617D01*
X44867582Y36744771D01*
X45242796Y36368902D01*
X45529242Y36249959D01*
X45244771Y36132418D01*
X44868902Y35757204D01*
X44665232Y35266713D01*
X44664769Y34735617D01*
X44867582Y34244771D01*
X45242796Y33868902D01*
X45733287Y33665232D01*
X46264383Y33664769D01*
X46755229Y33867582D01*
X47131098Y34242796D01*
X47334768Y34733287D01*
X47335231Y35264383D01*
X47132418Y35755229D01*
X46757204Y36131098D01*
X46470757Y36250042D01*
X46755229Y36367582D01*
X47131098Y36742796D01*
X47334768Y37233287D01*
X47335231Y37764383D01*
X47132418Y38255229D01*
X46757204Y38631098D01*
X46470757Y38750042D01*
X46506961Y38765000D01*
X50988446Y38765000D01*
X51172976Y38580470D01*
X50960000Y38622833D01*
X50415671Y38514559D01*
X49954211Y38206222D01*
X49645874Y37744762D01*
X49537600Y37200433D01*
X49537600Y36419567D01*
X49645874Y35875238D01*
X49954211Y35413778D01*
X50415671Y35105441D01*
X50960000Y34997167D01*
X51504329Y35105441D01*
X51965789Y35413778D01*
X52230000Y35809199D01*
X52494211Y35413778D01*
X52955671Y35105441D01*
X53500000Y34997167D01*
X54044329Y35105441D01*
X54505789Y35413778D01*
X54769753Y35808830D01*
X54774475Y35792738D01*
X55124014Y35358809D01*
X55613004Y35091673D01*
X55692940Y35074990D01*
X55913000Y35197148D01*
X55913000Y30977572D01*
X55495671Y30894559D01*
X55034211Y30586222D01*
X54769999Y30190802D01*
X54505789Y30586222D01*
X54044329Y30894559D01*
X53500000Y31002833D01*
X52955671Y30894559D01*
X52494211Y30586222D01*
X52382400Y30418885D01*
X52382400Y30459309D01*
X52285727Y30692698D01*
X52107099Y30871327D01*
X51873710Y30968000D01*
X51621091Y30968000D01*
X50928554Y30968000D01*
X50023277Y31873277D01*
X49622614Y32140991D01*
X49150000Y32235000D01*
X46506980Y32235000D01*
X46266713Y32334768D01*
X45735617Y32335231D01*
X45244771Y32132418D01*
X44868902Y31757204D01*
X44665232Y31266713D01*
X44664769Y30735617D01*
X44867582Y30244771D01*
X45242796Y29868902D01*
X45529242Y29749959D01*
X45251019Y29635000D01*
X44135000Y29635000D01*
X44135000Y45365000D01*
X45252193Y45365000D01*
X45529242Y45249959D01*
X45244771Y45132418D01*
X44868902Y44757204D01*
X44665232Y44266713D01*
X44664769Y43735617D01*
X44867582Y43244771D01*
X45242796Y42868902D01*
X45733287Y42665232D01*
X46264383Y42664769D01*
X46755229Y42867582D01*
X47131098Y43242796D01*
X47334768Y43733287D01*
X47335231Y44264383D01*
X47132418Y44755229D01*
X46757204Y45131098D01*
X46470757Y45250042D01*
X46755229Y45367582D01*
X47131098Y45742796D01*
X47334768Y46233287D01*
X47335231Y46764383D01*
X47132418Y47255229D01*
X46757204Y47631098D01*
X46470757Y47750042D01*
X46506961Y47765000D01*
X48638446Y47765000D01*
X49537600Y46865846D01*
X49537600Y45920691D01*
X49634273Y45687302D01*
X49812901Y45508673D01*
X50046290Y45412000D01*
X50298909Y45412000D01*
X51873709Y45412000D01*
X52107098Y45508673D01*
X52285727Y45687301D01*
X52382400Y45920690D01*
X52382400Y45961116D01*
X52494211Y45793778D01*
X52955671Y45485441D01*
X53500000Y45377167D01*
X54044329Y45485441D01*
X54505789Y45793778D01*
X54770000Y46189199D01*
X55034211Y45793778D01*
X55495671Y45485441D01*
X56040000Y45377167D01*
X56584329Y45485441D01*
X57045789Y45793778D01*
X57354126Y46255238D01*
X57462400Y46799567D01*
X57462400Y47580433D01*
X57462400Y54327400D01*
X57462400Y54683000D01*
X57462400Y54937000D01*
X57462400Y55292600D01*
X57305525Y55827262D01*
X56955986Y56261191D01*
X56466996Y56528327D01*
X56387060Y56545010D01*
X56167000Y56422852D01*
X56167000Y54937000D01*
X57462400Y54937000D01*
X57462400Y54683000D01*
X56167000Y54683000D01*
X56167000Y53197148D01*
X56387060Y53074990D01*
X56466996Y53091673D01*
X56955986Y53358809D01*
X57305525Y53792738D01*
X57462400Y54327400D01*
X57462400Y47580433D01*
X57354126Y48124762D01*
X57045789Y48586222D01*
X56584329Y48894559D01*
X56040000Y49002833D01*
X55495671Y48894559D01*
X55034211Y48586222D01*
X54769999Y48190802D01*
X54505789Y48586222D01*
X54044329Y48894559D01*
X53500000Y49002833D01*
X52955671Y48894559D01*
X52494211Y48586222D01*
X52382400Y48418885D01*
X52382400Y48459309D01*
X52285727Y48692698D01*
X52107099Y48871327D01*
X51873710Y48968000D01*
X51621091Y48968000D01*
X50928554Y48968000D01*
X50023277Y49873277D01*
X49622614Y50140991D01*
X49150000Y50235000D01*
X46506980Y50235000D01*
X46266713Y50334768D01*
X45735617Y50335231D01*
X45244771Y50132418D01*
X44868902Y49757204D01*
X44665232Y49266713D01*
X44664769Y48735617D01*
X44867582Y48244771D01*
X45242796Y47868902D01*
X45529242Y47749959D01*
X45251019Y47635000D01*
X43000000Y47635000D01*
X42565654Y47548603D01*
X42197434Y47302566D01*
X41951397Y46934346D01*
X41865000Y46500000D01*
X41865000Y41173392D01*
X41596734Y41284785D01*
X41105421Y41285214D01*
X40885000Y41194138D01*
X40885000Y56633421D01*
X41366579Y57115000D01*
X44997126Y57115000D01*
X45242796Y56868902D01*
X45529242Y56749959D01*
X45244771Y56632418D01*
X44868902Y56257204D01*
X44665232Y55766713D01*
X44664769Y55235617D01*
X44867582Y54744771D01*
X45242796Y54368902D01*
X45529242Y54249959D01*
X45244771Y54132418D01*
X44868902Y53757204D01*
X44665232Y53266713D01*
X44664769Y52735617D01*
X44867582Y52244771D01*
X45242796Y51868902D01*
X45733287Y51665232D01*
X46264383Y51664769D01*
X46755229Y51867582D01*
X47131098Y52242796D01*
X47334768Y52733287D01*
X47335231Y53264383D01*
X47132418Y53755229D01*
X46757204Y54131098D01*
X46470757Y54250042D01*
X46755229Y54367582D01*
X47131098Y54742796D01*
X47334768Y55233287D01*
X47335231Y55764383D01*
X47132418Y56255229D01*
X46757204Y56631098D01*
X46470757Y56750042D01*
X46506961Y56765000D01*
X50988446Y56765000D01*
X51172976Y56580470D01*
X50960000Y56622833D01*
X50415671Y56514559D01*
X49954211Y56206222D01*
X49645874Y55744762D01*
X49537600Y55200433D01*
X49537600Y54419567D01*
X49645874Y53875238D01*
X49954211Y53413778D01*
X50415671Y53105441D01*
X50960000Y52997167D01*
X51504329Y53105441D01*
X51965789Y53413778D01*
X52230000Y53809199D01*
X52494211Y53413778D01*
X52955671Y53105441D01*
X53500000Y52997167D01*
X54044329Y53105441D01*
X54505789Y53413778D01*
X54769753Y53808830D01*
X54774475Y53792738D01*
X55124014Y53358809D01*
X55613004Y53091673D01*
X55692940Y53074990D01*
X55913000Y53197148D01*
X55913000Y54683000D01*
X55893000Y54683000D01*
X55893000Y54937000D01*
X55913000Y54937000D01*
X55913000Y56422852D01*
X55692940Y56545010D01*
X55613004Y56528327D01*
X55124014Y56261191D01*
X54774475Y55827262D01*
X54769753Y55811171D01*
X54735000Y55863183D01*
X54735000Y56000000D01*
X54640991Y56472614D01*
X54373277Y56873277D01*
X52373277Y58873277D01*
X51972614Y59140991D01*
X51500000Y59235000D01*
X46506980Y59235000D01*
X46266713Y59334768D01*
X45735617Y59335231D01*
X45244771Y59132418D01*
X44996921Y58885000D01*
X41000005Y58885000D01*
X41000000Y58885001D01*
X40661326Y58817634D01*
X40566054Y58753976D01*
X40374210Y58625790D01*
X40374207Y58625787D01*
X39985000Y58236580D01*
X39985000Y60450000D01*
X39950587Y60623000D01*
X109623000Y60623000D01*
X109623000Y59635000D01*
X93250005Y59635000D01*
X93250000Y59635001D01*
X92967515Y59578811D01*
X92911325Y59567633D01*
X92624210Y59375790D01*
X92624207Y59375787D01*
X90425287Y57176868D01*
X90314323Y57222944D01*
X89728248Y57223455D01*
X89186589Y56999647D01*
X88771810Y56585591D01*
X88750224Y56533609D01*
X88729647Y56583411D01*
X88315591Y56998190D01*
X87774323Y57222944D01*
X87188248Y57223455D01*
X86646589Y56999647D01*
X86231810Y56585591D01*
X86007056Y56044323D01*
X86006545Y55458248D01*
X86230353Y54916589D01*
X86644409Y54501810D01*
X87185677Y54277056D01*
X87771752Y54276545D01*
X88313411Y54500353D01*
X88728190Y54914409D01*
X88749775Y54966392D01*
X88770353Y54916589D01*
X89184409Y54501810D01*
X89725677Y54277056D01*
X90311752Y54276545D01*
X90853411Y54500353D01*
X91268190Y54914409D01*
X91492944Y55455677D01*
X91493193Y55741614D01*
X93616579Y57865000D01*
X97883420Y57865000D01*
X97241427Y57223008D01*
X96728248Y57223455D01*
X96186589Y56999647D01*
X95771810Y56585591D01*
X95750224Y56533609D01*
X95729647Y56583411D01*
X95315591Y56998190D01*
X94774323Y57222944D01*
X94188248Y57223455D01*
X93646589Y56999647D01*
X93231810Y56585591D01*
X93007056Y56044323D01*
X93006545Y55458248D01*
X93230353Y54916589D01*
X93644409Y54501810D01*
X94185677Y54277056D01*
X94771752Y54276545D01*
X95313411Y54500353D01*
X95728190Y54914409D01*
X95749775Y54966392D01*
X95770353Y54916589D01*
X96184409Y54501810D01*
X96725677Y54277056D01*
X97311752Y54276545D01*
X97853411Y54500353D01*
X98268190Y54914409D01*
X98492944Y55455677D01*
X98493394Y55971815D01*
X99386579Y56865000D01*
X100511706Y56865000D01*
X100231810Y56585591D01*
X100007056Y56044323D01*
X100006545Y55458248D01*
X100230353Y54916589D01*
X100644409Y54501810D01*
X101185677Y54277056D01*
X101771752Y54276545D01*
X102313411Y54500353D01*
X102728190Y54914409D01*
X102749775Y54966392D01*
X102770353Y54916589D01*
X103184409Y54501810D01*
X103725677Y54277056D01*
X104311752Y54276545D01*
X104853411Y54500353D01*
X105268190Y54914409D01*
X105492944Y55455677D01*
X105493300Y55865000D01*
X109623000Y55865000D01*
X109623000Y53802605D01*
M02*
