M48
;DRILL file {kicad (2014-jul-16 BZR unknown)-product} date Mon 06 Oct 2014 10:40:38 AM CEST
;FORMAT={3:3/ absolute / metric / suppress leading zeros}
FMAT,2
METRIC,TZ
T1C0.600
T2C0.800
T3C1.000
T4C1.500
T5C3.000
%
G90
G05
M71
T1
X41150Y19750
X41350Y40050
X63350Y40650
X63350Y29450
X63603Y18203
X100500Y11310
X100650Y33550
X112500Y33500
X118100Y38400
T2
X32710Y62750
X35250Y62750
X37790Y62750
X46000Y58000
X46000Y55500
X46000Y53000
X46000Y49000
X46000Y46500
X46000Y44000
X46000Y40000
X46000Y37500
X46000Y35000
X46000Y31000
X46000Y28500
X46000Y26000
X46000Y22000
X46000Y19500
X46000Y17000
X46000Y13000
X46000Y10500
X46000Y8000
X50960Y54810
X50960Y47190
X50960Y36810
X50960Y29190
X50960Y18810
X50960Y11190
X53500Y54810
X53500Y47190
X53500Y36810
X53500Y29190
X53500Y18810
X53500Y11190
X56040Y54810
X56040Y47190
X56040Y36810
X56040Y29190
X56040Y18810
X56040Y11190
X66140Y36390
X66140Y33850
X66140Y31310
X66140Y25290
X66140Y22750
X66140Y20210
X66140Y14390
X66140Y11850
X66140Y9310
X66330Y55750
X68870Y55750
X73480Y55750
X73760Y36390
X73760Y33850
X73760Y31310
X73760Y25290
X73760Y22750
X73760Y20210
X73760Y14390
X73760Y11850
X73760Y9310
X76020Y55750
X78550Y25150
X78550Y22650
X78550Y20150
X78550Y14350
X78550Y11850
X78550Y9350
X78650Y36250
X78650Y33750
X78650Y31250
X80480Y55750
X83000Y37310
X83000Y29690
X83000Y26310
X83000Y18690
X83000Y15310
X83000Y7690
X83020Y55750
X87480Y55750
X90020Y55750
X94480Y55750
X97020Y55750
X101480Y55750
X102250Y48540
X102250Y43460
X104020Y55750
T3
X3740Y61740
X3740Y59200
X3740Y56660
X3740Y54120
X3740Y51580
X3740Y49040
X3740Y46500
X3740Y43960
X3740Y41420
X3740Y38880
X3740Y36340
X3740Y33800
X3740Y31260
X3740Y28720
X3740Y26180
X3740Y23640
X3740Y21100
X3740Y18560
X3740Y16020
X3740Y13480
X3740Y10940
X3740Y8400
X3740Y5860
X3740Y3320
X6280Y61740
X6280Y59200
X6280Y56660
X6280Y54120
X6280Y51580
X6280Y49040
X6280Y46500
X6280Y43960
X6280Y41420
X6280Y38880
X6280Y36340
X6280Y33800
X6280Y31260
X6280Y28720
X6280Y26180
X6280Y23640
X6280Y21100
X6280Y18560
X6280Y16020
X6280Y13480
X6280Y10940
X6280Y8400
X6280Y5860
X6280Y3320
X8820Y61740
X8820Y59200
X8820Y56660
X8820Y54120
X8820Y51580
X8820Y49040
X8820Y46500
X8820Y43960
X8820Y41420
X8820Y38880
X8820Y36340
X8820Y33800
X8820Y31260
X8820Y28720
X8820Y26180
X8820Y23640
X8820Y21100
X8820Y18560
X8820Y16020
X8820Y13480
X8820Y10940
X8820Y8400
X8820Y5860
X8820Y3320
X11360Y61740
X11360Y59200
X11360Y56660
X11360Y54120
X11360Y51580
X11360Y49040
X11360Y46500
X11360Y43960
X11360Y41420
X11360Y38880
X11360Y36340
X11360Y33800
X11360Y31260
X11360Y28720
X11360Y26180
X11360Y23640
X11360Y21100
X11360Y18560
X11360Y16020
X11360Y13480
X11360Y10940
X11360Y8400
X11360Y5860
X11360Y3320
X13900Y61740
X13900Y59200
X13900Y56660
X13900Y54120
X13900Y51580
X13900Y49040
X13900Y46500
X13900Y43960
X13900Y41420
X13900Y38880
X13900Y36340
X13900Y33800
X13900Y31260
X13900Y28720
X13900Y26180
X13900Y23640
X13900Y21100
X13900Y18560
X13900Y16020
X13900Y13480
X13900Y10940
X13900Y8400
X13900Y5860
X13900Y3320
X16440Y61740
X16440Y59200
X16440Y56660
X16440Y54120
X16440Y51580
X16440Y49040
X16440Y46500
X16440Y43960
X16440Y41420
X16440Y38880
X16440Y36340
X16440Y33800
X16440Y31260
X16440Y28720
X16440Y26180
X16440Y23640
X16440Y21100
X16440Y18560
X16440Y16020
X16440Y13480
X16440Y10940
X16440Y8400
X16440Y5860
X16440Y3320
X18980Y61740
X18980Y59200
X18980Y56660
X18980Y54120
X18980Y51580
X18980Y49040
X18980Y46500
X18980Y43960
X18980Y41420
X18980Y38880
X18980Y36340
X18980Y33800
X18980Y31260
X18980Y28720
X18980Y26180
X18980Y23640
X18980Y21100
X18980Y18560
X18980Y16020
X18980Y13480
X18980Y10940
X18980Y8400
X18980Y5860
X18980Y3320
X21520Y61740
X21520Y59200
X21520Y56660
X21520Y54120
X21520Y51580
X21520Y49040
X21520Y46500
X21520Y43960
X21520Y41420
X21520Y38880
X21520Y36340
X21520Y33800
X21520Y31260
X21520Y28720
X21520Y26180
X21520Y23640
X21520Y21100
X21520Y18560
X21520Y16020
X21520Y13480
X21520Y10940
X21520Y8400
X21520Y5860
X21520Y3320
X24060Y61740
X24060Y59200
X24060Y56660
X24060Y54120
X24060Y51580
X24060Y49040
X24060Y46500
X24060Y43960
X24060Y41420
X24060Y38880
X24060Y36340
X24060Y33800
X24060Y31260
X24060Y28720
X24060Y26180
X24060Y23640
X24060Y21100
X24060Y18560
X24060Y16020
X24060Y13480
X24060Y10940
X24060Y8400
X24060Y5860
X24060Y3320
X26600Y61740
X26600Y59200
X26600Y56660
X26600Y54120
X26600Y51580
X26600Y49040
X26600Y46500
X26600Y43960
X26600Y41420
X26600Y38880
X26600Y36340
X26600Y33800
X26600Y31260
X26600Y28720
X26600Y26180
X26600Y23640
X26600Y21100
X26600Y18560
X26600Y16020
X26600Y13480
X26600Y10940
X26600Y8400
X26600Y5860
X26600Y3320
X33730Y47740
X33730Y45200
X33730Y42660
X33730Y40120
X33730Y37580
X33730Y35040
X33730Y32500
X33730Y29960
X33730Y27420
X33730Y24880
X33730Y22340
X33730Y19800
X33730Y17260
X36270Y47740
X36270Y45200
X36270Y42660
X36270Y40120
X36270Y37580
X36270Y35040
X36270Y32500
X36270Y29960
X36270Y27420
X36270Y24880
X36270Y22340
X36270Y19800
X36270Y17260
X65790Y47410
X68330Y47410
X70870Y47410
X73410Y47410
X75950Y47410
X78490Y47410
X81030Y47410
X83570Y47410
X86110Y47410
X86340Y37310
X86340Y29690
X86340Y26310
X86340Y18690
X86340Y15310
X86340Y7690
T4
X96500Y37310
X96500Y26310
X96500Y15310
X104120Y37310
X104120Y29690
X104120Y26310
X104120Y18690
X104120Y15310
X104120Y7690
X111000Y28390
X111000Y10610
X117500Y28390
X117500Y10610
X123500Y48500
X123500Y43500
X123500Y38500
X123500Y33500
X123500Y28500
X123500Y23500
X123500Y18500
X123500Y13500
T5
X34746Y56630
X34746Y8370
X128250Y60750
X128250Y4250
T0
M30
